<svg xmlns="http://www.w3.org/2000/svg" xmlns:xlink="http://www.w3.org/1999/xlink" id="Layer_1" x="0px" y="0px" width="220px" height="77.1px" viewBox="0 0 220 77.1" style="enable-background:new 0 0 220 77.1;" xml:space="preserve"><style type="text/css">	.st0{fill:#FEB913;}</style><path class="st0" d="M0.4,42.2h8c2.7,0,4.7,0.6,5.9,1.9c1.2,1.3,1.9,3.2,1.9,5.9v1.4c0,1.7-0.3,3.2-0.9,4.3 c-0.5,1.1-1.4,1.9-2.5,2.4v0.1c2.6,0.9,3.9,3.3,3.9,7.1v2.9c0,2.6-0.7,4.6-2.1,6c-1.3,1.4-3.3,2-5.9,2H0.4V42.2z M7.7,56 c1.1,0,1.8-0.3,2.4-0.8c0.5-0.5,0.8-1.5,0.8-2.8v-1.9c0-1.2-0.2-2.1-0.7-2.7c-0.4-0.5-1.1-0.8-2-0.8H5.7v9H7.7z M8.7,71.3 c0.9,0,1.6-0.2,2.1-0.7c0.4-0.5,0.7-1.4,0.7-2.6v-3c0-1.5-0.3-2.6-0.8-3.2c-0.5-0.6-1.4-0.9-2.6-0.9H5.7v10.4H8.7z"></path><path class="st0" d="M21,42.2h7.8c2.7,0,4.7,0.6,5.9,1.9c1.2,1.3,1.9,3.2,1.9,5.9v2.1c0,3.5-1.2,5.7-3.5,6.7v0.1 c1.3,0.4,2.2,1.2,2.7,2.4s0.8,2.8,0.8,4.8v6c0,1,0,1.8,0.1,2.4s0.2,1.2,0.5,1.7h-5.4c-0.2-0.5-0.3-1.1-0.4-1.5 c-0.1-0.5-0.1-1.4-0.1-2.6v-6.2c0-1.5-0.3-2.6-0.8-3.2c-0.5-0.6-1.3-0.9-2.5-0.9h-1.8v14.5H21V42.2z M28.2,56.8 c1.1,0,1.8-0.3,2.4-0.8c0.5-0.5,0.8-1.5,0.8-2.8v-2.6c0-1.2-0.2-2.1-0.7-2.7c-0.4-0.5-1.1-0.8-2-0.8h-2.4v9.7 C26.3,56.8,28.2,56.8,28.2,56.8z"></path><path class="st0" d="M49.1,76.6c-2.6,0-4.6-0.7-5.9-2.2c-1.4-1.5-2.1-3.6-2.1-6.3V50.3c0-2.7,0.7-4.8,2.1-6.3 c1.4-1.5,3.4-2.2,5.9-2.2c2.6,0,4.6,0.7,5.9,2.2c1.4,1.5,2.1,3.6,2.1,6.3v17.8c0,2.7-0.7,4.8-2.1,6.3C53.7,75.9,51.7,76.6,49.1,76.6 z M49.1,71.8c1.8,0,2.7-1.1,2.7-3.3V49.9c0-2.2-0.9-3.3-2.7-3.3s-2.7,1.1-2.7,3.3v18.5C46.4,70.7,47.3,71.8,49.1,71.8z"></path><path class="st0" d="M65.9,47.1h-5.5v-4.8h16.3v4.8h-5.5v29h-5.3C65.9,76.1,65.9,47.1,65.9,47.1z"></path><path class="st0" d="M80.4,42.2h5.3V56h5.7V42.2h5.3v33.9h-5.3V60.9h-5.7v15.2h-5.3V42.2z"></path><path class="st0" d="M101.8,42.2h14.4V47H107v9h7.2v4.8H107v10.4h9.1V76h-14.4V42.2H101.8z"></path><path class="st0" d="M120.4,42.2h7.8c2.7,0,4.7,0.6,5.9,1.9c1.2,1.3,1.9,3.2,1.9,5.9v2.1c0,3.5-1.2,5.7-3.5,6.7v0.1 c1.3,0.4,2.2,1.2,2.7,2.4s0.8,2.8,0.8,4.8v6c0,1,0,1.8,0.1,2.4s0.2,1.2,0.5,1.7h-5.4c-0.2-0.5-0.3-1.1-0.4-1.5 c-0.1-0.5-0.1-1.4-0.1-2.6v-6.2c0-1.5-0.3-2.6-0.8-3.2c-0.5-0.6-1.3-0.9-2.5-0.9h-1.8v14.5h-5.3V42.2H120.4z M127.6,56.8 c1.1,0,1.8-0.3,2.4-0.8c0.5-0.5,0.8-1.5,0.8-2.8v-2.6c0-1.2-0.2-2.1-0.7-2.7c-0.4-0.5-1.1-0.8-2-0.8h-2.4v9.7 C125.7,56.8,127.6,56.8,127.6,56.8z"></path><path class="st0" d="M140.9,42.2h5.3V56h5.7V42.2h5.3v33.9h-5.3V60.9h-5.7v15.2h-5.3V42.2z"></path><path class="st0" d="M169.9,76.6c-2.6,0-4.6-0.7-5.9-2.2c-1.4-1.5-2.1-3.6-2.1-6.3V50.3c0-2.7,0.7-4.8,2.1-6.3 c1.4-1.5,3.4-2.2,5.9-2.2c2.6,0,4.6,0.7,5.9,2.2c1.4,1.5,2.1,3.6,2.1,6.3v17.8c0,2.7-0.7,4.8-2.1,6.3 C174.5,75.9,172.5,76.6,169.9,76.6z M169.9,71.8c1.8,0,2.7-1.1,2.7-3.3V49.9c0-2.2-0.9-3.3-2.7-3.3s-2.7,1.1-2.7,3.3v18.5 C167.2,70.7,168.1,71.8,169.9,71.8z"></path><path class="st0" d="M190.3,76.6c-2.6,0-4.6-0.7-5.9-2.2c-1.4-1.5-2.1-3.6-2.1-6.3V50.3c0-2.7,0.7-4.8,2.1-6.3 c1.4-1.5,3.4-2.2,5.9-2.2c2.6,0,4.6,0.7,5.9,2.2c1.4,1.5,2.1,3.6,2.1,6.3v17.8c0,2.7-0.7,4.8-2.1,6.3 C194.9,75.9,192.9,76.6,190.3,76.6z M190.3,71.8c1.8,0,2.7-1.1,2.7-3.3V49.9c0-2.2-0.9-3.3-2.7-3.3s-2.7,1.1-2.7,3.3v18.5 C187.6,70.7,188.5,71.8,190.3,71.8z"></path><path class="st0" d="M203.1,42.2h8.1c2.6,0,4.6,0.7,5.9,2.1c1.3,1.4,2,3.5,2,6.2v17.1c0,2.7-0.7,4.8-2,6.2c-1.3,1.4-3.3,2.1-5.9,2.1 h-8.1V42.2z M211,71.3c0.9,0,1.5-0.3,2-0.8s0.7-1.4,0.7-2.5V50.4c0-1.2-0.2-2-0.7-2.5c-0.4-0.5-1.1-0.8-2-0.8h-2.7v24.2H211z"></path><path class="st0" d="M0.4,42.2h8c2.7,0,4.7,0.6,5.9,1.9c1.2,1.3,1.9,3.2,1.9,5.9v1.4c0,1.7-0.3,3.2-0.9,4.3 c-0.5,1.1-1.4,1.9-2.5,2.4v0.1c2.6,0.9,3.9,3.3,3.9,7.1v2.9c0,2.6-0.7,4.6-2.1,6c-1.3,1.4-3.3,2-5.9,2H0.4V42.2z M7.7,56 c1.1,0,1.8-0.3,2.4-0.8c0.5-0.5,0.8-1.5,0.8-2.8v-1.9c0-1.2-0.2-2.1-0.7-2.7c-0.4-0.5-1.1-0.8-2-0.8H5.7v9H7.7z M8.7,71.3 c0.9,0,1.6-0.2,2.1-0.7c0.4-0.5,0.7-1.4,0.7-2.6v-3c0-1.5-0.3-2.6-0.8-3.2c-0.5-0.6-1.4-0.9-2.6-0.9H5.7v10.4H8.7z"></path><path class="st0" d="M21,42.2h7.8c2.7,0,4.7,0.6,5.9,1.9c1.2,1.3,1.9,3.2,1.9,5.9v2.1c0,3.5-1.2,5.7-3.5,6.7v0.1 c1.3,0.4,2.2,1.2,2.7,2.4s0.8,2.8,0.8,4.8v6c0,1,0,1.8,0.1,2.4s0.2,1.2,0.5,1.7h-5.4c-0.2-0.5-0.3-1.1-0.4-1.5 c-0.1-0.5-0.1-1.4-0.1-2.6v-6.2c0-1.5-0.3-2.6-0.8-3.2c-0.5-0.6-1.3-0.9-2.5-0.9h-1.8v14.5H21V42.2z M28.2,56.8 c1.1,0,1.8-0.3,2.4-0.8c0.5-0.5,0.8-1.5,0.8-2.8v-2.6c0-1.2-0.2-2.1-0.7-2.7c-0.4-0.5-1.1-0.8-2-0.8h-2.4v9.7 C26.3,56.8,28.2,56.8,28.2,56.8z"></path><path class="st0" d="M49.1,76.6c-2.6,0-4.6-0.7-5.9-2.2c-1.4-1.5-2.1-3.6-2.1-6.3V50.3c0-2.7,0.7-4.8,2.1-6.3 c1.4-1.5,3.4-2.2,5.9-2.2c2.6,0,4.6,0.7,5.9,2.2c1.4,1.5,2.1,3.6,2.1,6.3v17.8c0,2.7-0.7,4.8-2.1,6.3C53.7,75.9,51.7,76.6,49.1,76.6 z M49.1,71.8c1.8,0,2.7-1.1,2.7-3.3V49.9c0-2.2-0.9-3.3-2.7-3.3s-2.7,1.1-2.7,3.3v18.5C46.4,70.7,47.3,71.8,49.1,71.8z"></path><path class="st0" d="M65.9,47.1h-5.5v-4.8h16.3v4.8h-5.5v29h-5.3C65.9,76.1,65.9,47.1,65.9,47.1z"></path><path class="st0" d="M80.4,42.2h5.3V56h5.7V42.2h5.3v33.9h-5.3V60.9h-5.7v15.2h-5.3V42.2z"></path><path class="st0" d="M101.8,42.2h14.4V47H107v9h7.2v4.8H107v10.4h9.1V76h-14.4V42.2H101.8z"></path><path class="st0" d="M120.4,42.2h7.8c2.7,0,4.7,0.6,5.9,1.9c1.2,1.3,1.9,3.2,1.9,5.9v2.1c0,3.5-1.2,5.7-3.5,6.7v0.1 c1.3,0.4,2.2,1.2,2.7,2.4s0.8,2.8,0.8,4.8v6c0,1,0,1.8,0.1,2.4s0.2,1.2,0.5,1.7h-5.4c-0.2-0.5-0.3-1.1-0.4-1.5 c-0.1-0.5-0.1-1.4-0.1-2.6v-6.2c0-1.5-0.3-2.6-0.8-3.2c-0.5-0.6-1.3-0.9-2.5-0.9h-1.8v14.5h-5.3V42.2H120.4z M127.6,56.8 c1.1,0,1.8-0.3,2.4-0.8c0.5-0.5,0.8-1.5,0.8-2.8v-2.6c0-1.2-0.2-2.1-0.7-2.7c-0.4-0.5-1.1-0.8-2-0.8h-2.4v9.7 C125.7,56.8,127.6,56.8,127.6,56.8z"></path><path class="st0" d="M140.9,42.2h5.3V56h5.7V42.2h5.3v33.9h-5.3V60.9h-5.7v15.2h-5.3V42.2z"></path><path class="st0" d="M169.9,76.6c-2.6,0-4.6-0.7-5.9-2.2c-1.4-1.5-2.1-3.6-2.1-6.3V50.3c0-2.7,0.7-4.8,2.1-6.3 c1.4-1.5,3.4-2.2,5.9-2.2c2.6,0,4.6,0.7,5.9,2.2c1.4,1.5,2.1,3.6,2.1,6.3v17.8c0,2.7-0.7,4.8-2.1,6.3 C174.5,75.9,172.5,76.6,169.9,76.6z M169.9,71.8c1.8,0,2.7-1.1,2.7-3.3V49.9c0-2.2-0.9-3.3-2.7-3.3s-2.7,1.1-2.7,3.3v18.5 C167.2,70.7,168.1,71.8,169.9,71.8z"></path><path class="st0" d="M190.3,76.6c-2.6,0-4.6-0.7-5.9-2.2c-1.4-1.5-2.1-3.6-2.1-6.3V50.3c0-2.7,0.7-4.8,2.1-6.3 c1.4-1.5,3.4-2.2,5.9-2.2c2.6,0,4.6,0.7,5.9,2.2c1.4,1.5,2.1,3.6,2.1,6.3v17.8c0,2.7-0.7,4.8-2.1,6.3 C194.9,75.9,192.9,76.6,190.3,76.6z M190.3,71.8c1.8,0,2.7-1.1,2.7-3.3V49.9c0-2.2-0.9-3.3-2.7-3.3s-2.7,1.1-2.7,3.3v18.5 C187.6,70.7,188.5,71.8,190.3,71.8z"></path><path class="st0" d="M203.1,42.2h8.1c2.6,0,4.6,0.7,5.9,2.1c1.3,1.4,2,3.5,2,6.2v17.1c0,2.7-0.7,4.8-2,6.2c-1.3,1.4-3.3,2.1-5.9,2.1 h-8.1V42.2z M211,71.3c0.9,0,1.5-0.3,2-0.8s0.7-1.4,0.7-2.5V50.4c0-1.2-0.2-2-0.7-2.5c-0.4-0.5-1.1-0.8-2-0.8h-2.7v24.2H211z"></path><g>	<path class="st0" d="M8.8,34.8c-2.6,0-4.5-0.7-5.8-2.2S1,29,1,26.3v-1.9h5v2.3C6,28.9,6.9,30,8.7,30c0.9,0,1.6-0.3,2-0.8  c0.5-0.5,0.7-1.4,0.7-2.6c0-1.4-0.3-2.7-1-3.7c-0.6-1.1-1.8-2.4-3.5-3.9c-2.2-1.9-3.7-3.7-4.6-5.2C1.4,12.2,1,10.4,1,8.5  c0-2.7,0.7-4.7,2-6.2C4.5,0.7,6.4,0,9,0c2.5,0,4.4,0.7,5.7,2.2s2,3.5,2,6.3v1.4h-5V8.2c0-1.2-0.2-2-0.7-2.5c-0.4-0.5-1.1-0.8-2-0.8  C7.2,4.9,6.4,6,6.4,8.1c0,1.2,0.3,2.4,1,3.4c0.7,1.1,1.9,2.4,3.6,3.9c2.2,1.9,3.7,3.7,4.6,5.3c0.8,1.6,1.2,3.4,1.2,5.6  c0,2.8-0.7,4.9-2.1,6.4C13.3,34.1,11.4,34.8,8.8,34.8z"></path>	<path class="st0" d="M21,0.5h5.3v33.9H21V0.5z"></path>	<path class="st0" d="M38.2,34.8c-2.6,0-4.5-0.7-5.8-2.2s-2-3.6-2-6.3v-1.9h5v2.3c0,2.2,0.9,3.3,2.7,3.3c0.9,0,1.6-0.3,2-0.8  c0.5-0.5,0.7-1.4,0.7-2.6c0-1.4-0.3-2.7-1-3.7c-0.6-1.1-1.8-2.4-3.5-3.9c-2.2-1.9-3.7-3.7-4.6-5.2c-0.9-1.6-1.3-3.4-1.3-5.3  c0-2.7,0.7-4.7,2-6.2c1.5-1.6,3.5-2.3,6-2.3s4.4,0.7,5.7,2.2s2,3.5,2,6.3v1.4h-5V8.2c0-1.2-0.2-2-0.7-2.5c-0.4-0.5-1.1-0.8-2-0.8  c-1.8,0-2.6,1.1-2.6,3.2c0,1.2,0.3,2.4,1,3.4c0.7,1.1,1.9,2.4,3.6,3.9c2.2,1.9,3.7,3.7,4.6,5.3c0.8,1.6,1.2,3.4,1.2,5.6  c0,2.8-0.7,4.9-2.1,6.4C42.8,34.1,40.8,34.8,38.2,34.8z"></path>	<path class="st0" d="M54.6,5.3H49V0.5h16.3v4.8h-5.5v29h-5.3L54.6,5.3L54.6,5.3z"></path>	<path class="st0" d="M69.1,0.5h14.4v4.8h-9.1v9h7.2v4.8h-7.2v10.4h9.1v4.8H69.1V0.5z"></path>	<path class="st0" d="M87.7,0.5h7.8c2.7,0,4.7,0.6,5.9,1.9c1.2,1.3,1.9,3.2,1.9,5.9v2.1c0,3.5-1.2,5.7-3.5,6.7v0.1  c1.3,0.4,2.2,1.2,2.7,2.4c0.5,1.2,0.8,2.8,0.8,4.8v6c0,1,0,1.8,0.1,2.4c0.1,0.6,0.2,1.2,0.5,1.7h-5.4c-0.2-0.5-0.3-1.1-0.4-1.5  C98,32.5,98,31.6,98,30.4V24c0-1.5-0.3-2.6-0.8-3.2s-1.3-0.9-2.5-0.9H93v14.5h-5.3V0.5z M94.9,15c1.1,0,1.8-0.3,2.4-0.8  c0.5-0.5,0.8-1.5,0.8-2.8V8.8c0-1.2-0.2-2.1-0.7-2.7c-0.4-0.5-1.1-0.8-2-0.8H93V15H94.9z"></path>	<path class="st0" d="M115.1,34.8c-2.6,0-4.5-0.7-5.8-2.2s-2-3.6-2-6.3v-1.9h5v2.3c0,2.2,0.9,3.3,2.7,3.3c0.9,0,1.6-0.3,2-0.8  c0.5-0.5,0.7-1.4,0.7-2.6c0-1.4-0.3-2.7-1-3.7c-0.6-1.1-1.8-2.4-3.5-3.9c-2.2-1.9-3.7-3.7-4.6-5.2c-0.9-1.6-1.3-3.4-1.3-5.3  c0-2.7,0.7-4.7,2-6.2s3.3-2.2,5.9-2.2c2.5,0,4.4,0.7,5.7,2.2c1.3,1.5,2,3.5,2,6.3V10h-5V8.2c0-1.2-0.2-2-0.7-2.5  c-0.4-0.5-1.1-0.8-2-0.8c-1.8,0-2.6,1.1-2.6,3.2c0,1.2,0.3,2.4,1,3.4c0.7,1.1,1.9,2.4,3.6,3.9c2.2,1.9,3.7,3.7,4.6,5.3  c0.8,1.6,1.2,3.4,1.2,5.6c0,2.8-0.7,4.9-2.1,6.4C119.7,34.1,117.7,34.8,115.1,34.8z"></path>	<path class="st0" d="M135.5,11.8h3.5v22.6h-3.5V11.8z"></path>	<path class="st0" d="M142.5,11.8h4.4l3.4,13.5h0.1V11.8h3.1v22.6h-3.6l-4.2-16.5h-0.1v16.5h-3.1L142.5,11.8L142.5,11.8z"></path>	<path class="st0" d="M165.6,15h-3.7v-3.2h10.9V15h-3.7v19.4h-3.5V15z"></path>	<path class="st0" d="M175.3,11.8h3.5V21h3.8v-9.2h3.5v22.6h-3.5V24.2h-3.8v10.2h-3.5V11.8z"></path>	<path class="st0" d="M189.5,11.8h9.6V15H193v6h4.8v3.2H193v6.9h6.1v3.2h-9.6V11.8z"></path></g></svg>