<svg xmlns="http://www.w3.org/2000/svg" xmlns:xlink="http://www.w3.org/1999/xlink" id="Layer_1" x="0px" y="0px" width="220px" height="77.1px" viewBox="0 0 220 77.1" style="enable-background:new 0 0 220 77.1;" xml:space="preserve"><style type="text/css">	.st0{fill:#001838;}	.st1{fill:#FFFFFF;filter:url(#Adobe_OpacityMaskFilter);}	.st2{mask:url(#path-1-outside-1_3160_8987_00000034048897218943059680000002672967315314706572_);fill:#001838;}	.st3{fill:#FFFFFF;filter:url(#Adobe_OpacityMaskFilter_00000039097006038657602700000002411900894813447583_);}	.st4{mask:url(#path-1-outside-1_3160_8987_00000152966712318177472910000008838298567252934570_);fill:#001838;}	.st5{fill:#FFFFFF;filter:url(#Adobe_OpacityMaskFilter_00000093152059519849779000000009970121929876821379_);}	.st6{mask:url(#path-1-outside-1_3160_8987_00000159435701778053582130000009994213459936763547_);fill:#001838;}	.st7{fill:#FFFFFF;filter:url(#Adobe_OpacityMaskFilter_00000122720213123728994240000016124527143507930265_);}	.st8{mask:url(#path-1-outside-1_3160_8987_00000080920291797533226100000018321513171452119944_);fill:#001838;}	.st9{fill:#FFFFFF;filter:url(#Adobe_OpacityMaskFilter_00000064338985148175705770000006373257912726425237_);}	.st10{mask:url(#path-1-outside-1_3160_8987_00000004529842575600531240000014606472315149537670_);fill:#001838;}	.st11{fill:#FFFFFF;filter:url(#Adobe_OpacityMaskFilter_00000170966506944969631400000003162570437991538857_);}	.st12{mask:url(#path-1-outside-1_3160_8987_00000042730005659164897660000014132870873844529810_);fill:#001838;}	.st13{fill:#FFFFFF;filter:url(#Adobe_OpacityMaskFilter_00000124867773993656466150000006722445640947399584_);}	.st14{mask:url(#path-1-outside-1_3160_8987_00000138572089323273612130000018269348555937415051_);fill:#001838;}	.st15{fill:#FFFFFF;filter:url(#Adobe_OpacityMaskFilter_00000065042381738852773270000010203945371794145442_);}	.st16{mask:url(#path-1-outside-1_3160_8987_00000055679787519679873430000003542154624395695758_);fill:#001838;}	.st17{fill:#FFFFFF;filter:url(#Adobe_OpacityMaskFilter_00000111906980403577391860000005961279266516274592_);}	.st18{mask:url(#path-1-outside-1_3160_8987_00000091002203011697428120000000853802988163429050_);fill:#001838;}	.st19{fill:#FFFFFF;filter:url(#Adobe_OpacityMaskFilter_00000109708762995725692260000008825081668998223255_);}	.st20{mask:url(#path-1-outside-1_3160_8987_00000033365405994792761200000001765173537015172759_);fill:#001838;}	.st21{fill:#FFFFFF;filter:url(#Adobe_OpacityMaskFilter_00000036233849712132988960000006381977825929799076_);}	.st22{mask:url(#path-1-outside-1_3160_8987_00000058578417029428647520000002261407397923397016_);fill:#001838;}</style><path class="st0" d="M0.4,42.2h8c2.7,0,4.7,0.6,5.9,1.9c1.2,1.3,1.9,3.2,1.9,5.9v1.4c0,1.7-0.3,3.2-0.9,4.3 c-0.5,1.1-1.4,1.9-2.5,2.4v0.1c2.6,0.9,3.9,3.3,3.9,7.1v2.9c0,2.6-0.7,4.6-2.1,6c-1.3,1.4-3.3,2-5.9,2H0.4V42.2z M7.7,56 c1.1,0,1.8-0.3,2.4-0.8c0.5-0.5,0.8-1.5,0.8-2.8v-1.9c0-1.2-0.2-2.1-0.7-2.7c-0.4-0.5-1.1-0.8-2-0.8H5.7v9H7.7z M8.7,71.3 c0.9,0,1.6-0.2,2.1-0.7c0.4-0.5,0.7-1.4,0.7-2.6v-3c0-1.5-0.3-2.6-0.8-3.2c-0.5-0.6-1.4-0.9-2.6-0.9H5.7v10.4H8.7z"></path><path class="st0" d="M21,42.2h7.8c2.7,0,4.7,0.6,5.9,1.9c1.2,1.3,1.9,3.2,1.9,5.9v2.1c0,3.5-1.2,5.7-3.5,6.7v0.1 c1.3,0.4,2.2,1.2,2.7,2.4c0.5,1.2,0.8,2.8,0.8,4.8v6c0,1,0,1.8,0.1,2.4c0.1,0.6,0.2,1.2,0.5,1.7h-5.4c-0.2-0.5-0.3-1.1-0.4-1.5 c-0.1-0.5-0.1-1.4-0.1-2.6v-6.2c0-1.5-0.3-2.6-0.8-3.2c-0.5-0.6-1.3-0.9-2.5-0.9h-1.8v14.5H21V42.2z M28.2,56.8 c1.1,0,1.8-0.3,2.4-0.8c0.5-0.5,0.8-1.5,0.8-2.8v-2.6c0-1.2-0.2-2.1-0.7-2.7c-0.4-0.5-1.1-0.8-2-0.8h-2.4v9.7H28.2z"></path><path class="st0" d="M49.1,76.6c-2.6,0-4.6-0.7-5.9-2.2c-1.4-1.5-2.1-3.6-2.1-6.3V50.3c0-2.7,0.7-4.8,2.1-6.3 c1.4-1.5,3.4-2.2,5.9-2.2c2.6,0,4.6,0.7,5.9,2.2c1.4,1.5,2.1,3.6,2.1,6.3v17.8c0,2.7-0.7,4.8-2.1,6.3C53.7,75.9,51.7,76.6,49.1,76.6 z M49.1,71.8c1.8,0,2.7-1.1,2.7-3.3V49.9c0-2.2-0.9-3.3-2.7-3.3c-1.8,0-2.7,1.1-2.7,3.3v18.5C46.4,70.7,47.3,71.8,49.1,71.8z"></path><path class="st0" d="M65.9,47.1h-5.5v-4.8h16.3v4.8h-5.5v29h-5.3V47.1z"></path><path class="st0" d="M80.4,42.2h5.3V56h5.7V42.2h5.3v33.9h-5.3V60.9h-5.7v15.2h-5.3V42.2z"></path><path class="st0" d="M101.8,42.2h14.4v4.8H107v9h7.2v4.8H107v10.4h9.1v4.8h-14.4V42.2z"></path><path class="st0" d="M120.4,42.2h7.8c2.7,0,4.7,0.6,5.9,1.9c1.2,1.3,1.9,3.2,1.9,5.9v2.1c0,3.5-1.2,5.7-3.5,6.7v0.1 c1.3,0.4,2.2,1.2,2.7,2.4c0.5,1.2,0.8,2.8,0.8,4.8v6c0,1,0,1.8,0.1,2.4c0.1,0.6,0.2,1.2,0.5,1.7h-5.4c-0.2-0.5-0.3-1.1-0.4-1.5 c-0.1-0.5-0.1-1.4-0.1-2.6v-6.2c0-1.5-0.3-2.6-0.8-3.2c-0.5-0.6-1.3-0.9-2.5-0.9h-1.8v14.5h-5.3V42.2z M127.6,56.8 c1.1,0,1.8-0.3,2.4-0.8c0.5-0.5,0.8-1.5,0.8-2.8v-2.6c0-1.2-0.2-2.1-0.7-2.7c-0.4-0.5-1.1-0.8-2-0.8h-2.4v9.7H127.6z"></path><path class="st0" d="M140.9,42.2h5.3V56h5.7V42.2h5.3v33.9h-5.3V60.9h-5.7v15.2h-5.3V42.2z"></path><path class="st0" d="M169.9,76.6c-2.6,0-4.6-0.7-5.9-2.2c-1.4-1.5-2.1-3.6-2.1-6.3V50.3c0-2.7,0.7-4.8,2.1-6.3 c1.4-1.5,3.4-2.2,5.9-2.2c2.6,0,4.6,0.7,5.9,2.2c1.4,1.5,2.1,3.6,2.1,6.3v17.8c0,2.7-0.7,4.8-2.1,6.3 C174.5,75.9,172.5,76.6,169.9,76.6z M169.9,71.8c1.8,0,2.7-1.1,2.7-3.3V49.9c0-2.2-0.9-3.3-2.7-3.3c-1.8,0-2.7,1.1-2.7,3.3v18.5 C167.2,70.7,168.1,71.8,169.9,71.8z"></path><path class="st0" d="M190.3,76.6c-2.6,0-4.6-0.7-5.9-2.2c-1.4-1.5-2.1-3.6-2.1-6.3V50.3c0-2.7,0.7-4.8,2.1-6.3 c1.4-1.5,3.4-2.2,5.9-2.2c2.6,0,4.6,0.7,5.9,2.2c1.4,1.5,2.1,3.6,2.1,6.3v17.8c0,2.7-0.7,4.8-2.1,6.3 C194.9,75.9,192.9,76.6,190.3,76.6z M190.3,71.8c1.8,0,2.7-1.1,2.7-3.3V49.9c0-2.2-0.9-3.3-2.7-3.3s-2.7,1.1-2.7,3.3v18.5 C187.6,70.7,188.5,71.8,190.3,71.8z"></path><path class="st0" d="M203.1,42.2h8.1c2.6,0,4.6,0.7,5.9,2.1c1.3,1.4,2,3.5,2,6.2v17.1c0,2.7-0.7,4.8-2,6.2c-1.3,1.4-3.3,2.1-5.9,2.1 h-8.1V42.2z M211,71.3c0.9,0,1.5-0.3,2-0.8c0.5-0.5,0.7-1.4,0.7-2.5V50.4c0-1.2-0.2-2-0.7-2.5c-0.4-0.5-1.1-0.8-2-0.8h-2.7v24.2H211 z"></path><defs>	<filter id="Adobe_OpacityMaskFilter" filterUnits="userSpaceOnUse" x="0.4" y="42.2" width="16.3" height="33.9">			</filter></defs><mask maskUnits="userSpaceOnUse" x="0.4" y="42.2" width="16.3" height="33.9" id="path-1-outside-1_3160_8987_00000034048897218943059680000002672967315314706572_">	<rect x="-0.6" y="40.8" class="st1" width="220" height="37"></rect>	<path d="M0.4,42.2h8c2.7,0,4.7,0.6,5.9,1.9c1.2,1.3,1.9,3.2,1.9,5.9v1.4c0,1.7-0.3,3.2-0.9,4.3c-0.5,1.1-1.4,1.9-2.5,2.4v0.1  c2.6,0.9,3.9,3.3,3.9,7.1v2.9c0,2.6-0.7,4.6-2.1,6c-1.3,1.4-3.3,2-5.9,2H0.4V42.2z M7.7,56c1.1,0,1.8-0.3,2.4-0.8  c0.5-0.5,0.8-1.5,0.8-2.8v-1.9c0-1.2-0.2-2.1-0.7-2.7c-0.4-0.5-1.1-0.8-2-0.8H5.7v9H7.7z M8.7,71.3c0.9,0,1.6-0.2,2.1-0.7  c0.4-0.5,0.7-1.4,0.7-2.6v-3c0-1.5-0.3-2.6-0.8-3.2c-0.5-0.6-1.4-0.9-2.6-0.9H5.7v10.4H8.7z"></path>	<path d="M21,42.2h7.8c2.7,0,4.7,0.6,5.9,1.9c1.2,1.3,1.9,3.2,1.9,5.9v2.1c0,3.5-1.2,5.7-3.5,6.7v0.1c1.3,0.4,2.2,1.2,2.7,2.4  c0.5,1.2,0.8,2.8,0.8,4.8v6c0,1,0,1.8,0.1,2.4c0.1,0.6,0.2,1.2,0.5,1.7h-5.4c-0.2-0.5-0.3-1.1-0.4-1.5c-0.1-0.5-0.1-1.4-0.1-2.6  v-6.2c0-1.5-0.3-2.6-0.8-3.2c-0.5-0.6-1.3-0.9-2.5-0.9h-1.8v14.5H21V42.2z M28.2,56.8c1.1,0,1.8-0.3,2.4-0.8  c0.5-0.5,0.8-1.5,0.8-2.8v-2.6c0-1.2-0.2-2.1-0.7-2.7c-0.4-0.5-1.1-0.8-2-0.8h-2.4v9.7H28.2z"></path>	<path d="M49.1,76.6c-2.6,0-4.6-0.7-5.9-2.2c-1.4-1.5-2.1-3.6-2.1-6.3V50.3c0-2.7,0.7-4.8,2.1-6.3c1.4-1.5,3.4-2.2,5.9-2.2  c2.6,0,4.6,0.7,5.9,2.2c1.4,1.5,2.1,3.6,2.1,6.3v17.8c0,2.7-0.7,4.8-2.1,6.3C53.7,75.9,51.7,76.6,49.1,76.6z M49.1,71.8  c1.8,0,2.7-1.1,2.7-3.3V49.9c0-2.2-0.9-3.3-2.7-3.3c-1.8,0-2.7,1.1-2.7,3.3v18.5C46.4,70.7,47.3,71.8,49.1,71.8z"></path>	<path d="M65.9,47.1h-5.5v-4.8h16.3v4.8h-5.5v29h-5.3V47.1z"></path>	<path d="M80.4,42.2h5.3V56h5.7V42.2h5.3v33.9h-5.3V60.9h-5.7v15.2h-5.3V42.2z"></path>	<path d="M101.8,42.2h14.4v4.8H107v9h7.2v4.8H107v10.4h9.1v4.8h-14.4V42.2z"></path>	<path d="M120.4,42.2h7.8c2.7,0,4.7,0.6,5.9,1.9c1.2,1.3,1.9,3.2,1.9,5.9v2.1c0,3.5-1.2,5.7-3.5,6.7v0.1c1.3,0.4,2.2,1.2,2.7,2.4  c0.5,1.2,0.8,2.8,0.8,4.8v6c0,1,0,1.8,0.1,2.4c0.1,0.6,0.2,1.2,0.5,1.7h-5.4c-0.2-0.5-0.3-1.1-0.4-1.5c-0.1-0.5-0.1-1.4-0.1-2.6  v-6.2c0-1.5-0.3-2.6-0.8-3.2c-0.5-0.6-1.3-0.9-2.5-0.9h-1.8v14.5h-5.3V42.2z M127.6,56.8c1.1,0,1.8-0.3,2.4-0.8  c0.5-0.5,0.8-1.5,0.8-2.8v-2.6c0-1.2-0.2-2.1-0.7-2.7c-0.4-0.5-1.1-0.8-2-0.8h-2.4v9.7H127.6z"></path>	<path d="M140.9,42.2h5.3V56h5.7V42.2h5.3v33.9h-5.3V60.9h-5.7v15.2h-5.3V42.2z"></path>	<path d="M169.9,76.6c-2.6,0-4.6-0.7-5.9-2.2c-1.4-1.5-2.1-3.6-2.1-6.3V50.3c0-2.7,0.7-4.8,2.1-6.3c1.4-1.5,3.4-2.2,5.9-2.2  c2.6,0,4.6,0.7,5.9,2.2c1.4,1.5,2.1,3.6,2.1,6.3v17.8c0,2.7-0.7,4.8-2.1,6.3C174.5,75.9,172.5,76.6,169.9,76.6z M169.9,71.8  c1.8,0,2.7-1.1,2.7-3.3V49.9c0-2.2-0.9-3.3-2.7-3.3c-1.8,0-2.7,1.1-2.7,3.3v18.5C167.2,70.7,168.1,71.8,169.9,71.8z"></path>	<path d="M190.3,76.6c-2.6,0-4.6-0.7-5.9-2.2c-1.4-1.5-2.1-3.6-2.1-6.3V50.3c0-2.7,0.7-4.8,2.1-6.3c1.4-1.5,3.4-2.2,5.9-2.2  c2.6,0,4.6,0.7,5.9,2.2c1.4,1.5,2.1,3.6,2.1,6.3v17.8c0,2.7-0.7,4.8-2.1,6.3C194.9,75.9,192.9,76.6,190.3,76.6z M190.3,71.8  c1.8,0,2.7-1.1,2.7-3.3V49.9c0-2.2-0.9-3.3-2.7-3.3s-2.7,1.1-2.7,3.3v18.5C187.6,70.7,188.5,71.8,190.3,71.8z"></path>	<path d="M203.1,42.2h8.1c2.6,0,4.6,0.7,5.9,2.1c1.3,1.4,2,3.5,2,6.2v17.1c0,2.7-0.7,4.8-2,6.2c-1.3,1.4-3.3,2.1-5.9,2.1h-8.1V42.2z   M211,71.3c0.9,0,1.5-0.3,2-0.8c0.5-0.5,0.7-1.4,0.7-2.5V50.4c0-1.2-0.2-2-0.7-2.5c-0.4-0.5-1.1-0.8-2-0.8h-2.7v24.2H211z"></path></mask><path class="st2" d="M0.4,42.2h8c2.7,0,4.7,0.6,5.9,1.9c1.2,1.3,1.9,3.2,1.9,5.9v1.4c0,1.7-0.3,3.2-0.9,4.3 c-0.5,1.1-1.4,1.9-2.5,2.4v0.1c2.6,0.9,3.9,3.3,3.9,7.1v2.9c0,2.6-0.7,4.6-2.1,6c-1.3,1.4-3.3,2-5.9,2H0.4V42.2z M7.7,56 c1.1,0,1.8-0.3,2.4-0.8c0.5-0.5,0.8-1.5,0.8-2.8v-1.9c0-1.2-0.2-2.1-0.7-2.7c-0.4-0.5-1.1-0.8-2-0.8H5.7v9H7.7z M8.7,71.3 c0.9,0,1.6-0.2,2.1-0.7c0.4-0.5,0.7-1.4,0.7-2.6v-3c0-1.5-0.3-2.6-0.8-3.2c-0.5-0.6-1.4-0.9-2.6-0.9H5.7v10.4H8.7z"></path><defs>			<filter id="Adobe_OpacityMaskFilter_00000002347279202184652830000013134711581711321990_" filterUnits="userSpaceOnUse" x="21" y="42.2" width="16.3" height="33.9">			</filter></defs><mask maskUnits="userSpaceOnUse" x="21" y="42.2" width="16.3" height="33.9" id="path-1-outside-1_3160_8987_00000152966712318177472910000008838298567252934570_">			<rect x="-0.6" y="40.8" style="fill:#FFFFFF;filter:url(#Adobe_OpacityMaskFilter_00000002347279202184652830000013134711581711321990_);" width="220" height="37"></rect>	<path d="M0.4,42.2h8c2.7,0,4.7,0.6,5.9,1.9c1.2,1.3,1.9,3.2,1.9,5.9v1.4c0,1.7-0.3,3.2-0.9,4.3c-0.5,1.1-1.4,1.9-2.5,2.4v0.1  c2.6,0.9,3.9,3.3,3.9,7.1v2.9c0,2.6-0.7,4.6-2.1,6c-1.3,1.4-3.3,2-5.9,2H0.4V42.2z M7.7,56c1.1,0,1.8-0.3,2.4-0.8  c0.5-0.5,0.8-1.5,0.8-2.8v-1.9c0-1.2-0.2-2.1-0.7-2.7c-0.4-0.5-1.1-0.8-2-0.8H5.7v9H7.7z M8.7,71.3c0.9,0,1.6-0.2,2.1-0.7  c0.4-0.5,0.7-1.4,0.7-2.6v-3c0-1.5-0.3-2.6-0.8-3.2c-0.5-0.6-1.4-0.9-2.6-0.9H5.7v10.4H8.7z"></path>	<path d="M21,42.2h7.8c2.7,0,4.7,0.6,5.9,1.9c1.2,1.3,1.9,3.2,1.9,5.9v2.1c0,3.5-1.2,5.7-3.5,6.7v0.1c1.3,0.4,2.2,1.2,2.7,2.4  c0.5,1.2,0.8,2.8,0.8,4.8v6c0,1,0,1.8,0.1,2.4c0.1,0.6,0.2,1.2,0.5,1.7h-5.4c-0.2-0.5-0.3-1.1-0.4-1.5c-0.1-0.5-0.1-1.4-0.1-2.6  v-6.2c0-1.5-0.3-2.6-0.8-3.2c-0.5-0.6-1.3-0.9-2.5-0.9h-1.8v14.5H21V42.2z M28.2,56.8c1.1,0,1.8-0.3,2.4-0.8  c0.5-0.5,0.8-1.5,0.8-2.8v-2.6c0-1.2-0.2-2.1-0.7-2.7c-0.4-0.5-1.1-0.8-2-0.8h-2.4v9.7H28.2z"></path>	<path d="M49.1,76.6c-2.6,0-4.6-0.7-5.9-2.2c-1.4-1.5-2.1-3.6-2.1-6.3V50.3c0-2.7,0.7-4.8,2.1-6.3c1.4-1.5,3.4-2.2,5.9-2.2  c2.6,0,4.6,0.7,5.9,2.2c1.4,1.5,2.1,3.6,2.1,6.3v17.8c0,2.7-0.7,4.8-2.1,6.3C53.7,75.9,51.7,76.6,49.1,76.6z M49.1,71.8  c1.8,0,2.7-1.1,2.7-3.3V49.9c0-2.2-0.9-3.3-2.7-3.3c-1.8,0-2.7,1.1-2.7,3.3v18.5C46.4,70.7,47.3,71.8,49.1,71.8z"></path>	<path d="M65.9,47.1h-5.5v-4.8h16.3v4.8h-5.5v29h-5.3V47.1z"></path>	<path d="M80.4,42.2h5.3V56h5.7V42.2h5.3v33.9h-5.3V60.9h-5.7v15.2h-5.3V42.2z"></path>	<path d="M101.8,42.2h14.4v4.8H107v9h7.2v4.8H107v10.4h9.1v4.8h-14.4V42.2z"></path>	<path d="M120.4,42.2h7.8c2.7,0,4.7,0.6,5.9,1.9c1.2,1.3,1.9,3.2,1.9,5.9v2.1c0,3.5-1.2,5.7-3.5,6.7v0.1c1.3,0.4,2.2,1.2,2.7,2.4  c0.5,1.2,0.8,2.8,0.8,4.8v6c0,1,0,1.8,0.1,2.4c0.1,0.6,0.2,1.2,0.5,1.7h-5.4c-0.2-0.5-0.3-1.1-0.4-1.5c-0.1-0.5-0.1-1.4-0.1-2.6  v-6.2c0-1.5-0.3-2.6-0.8-3.2c-0.5-0.6-1.3-0.9-2.5-0.9h-1.8v14.5h-5.3V42.2z M127.6,56.8c1.1,0,1.8-0.3,2.4-0.8  c0.5-0.5,0.8-1.5,0.8-2.8v-2.6c0-1.2-0.2-2.1-0.7-2.7c-0.4-0.5-1.1-0.8-2-0.8h-2.4v9.7H127.6z"></path>	<path d="M140.9,42.2h5.3V56h5.7V42.2h5.3v33.9h-5.3V60.9h-5.7v15.2h-5.3V42.2z"></path>	<path d="M169.9,76.6c-2.6,0-4.6-0.7-5.9-2.2c-1.4-1.5-2.1-3.6-2.1-6.3V50.3c0-2.7,0.7-4.8,2.1-6.3c1.4-1.5,3.4-2.2,5.9-2.2  c2.6,0,4.6,0.7,5.9,2.2c1.4,1.5,2.1,3.6,2.1,6.3v17.8c0,2.7-0.7,4.8-2.1,6.3C174.5,75.9,172.5,76.6,169.9,76.6z M169.9,71.8  c1.8,0,2.7-1.1,2.7-3.3V49.9c0-2.2-0.9-3.3-2.7-3.3c-1.8,0-2.7,1.1-2.7,3.3v18.5C167.2,70.7,168.1,71.8,169.9,71.8z"></path>	<path d="M190.3,76.6c-2.6,0-4.6-0.7-5.9-2.2c-1.4-1.5-2.1-3.6-2.1-6.3V50.3c0-2.7,0.7-4.8,2.1-6.3c1.4-1.5,3.4-2.2,5.9-2.2  c2.6,0,4.6,0.7,5.9,2.2c1.4,1.5,2.1,3.6,2.1,6.3v17.8c0,2.7-0.7,4.8-2.1,6.3C194.9,75.9,192.9,76.6,190.3,76.6z M190.3,71.8  c1.8,0,2.7-1.1,2.7-3.3V49.9c0-2.2-0.9-3.3-2.7-3.3s-2.7,1.1-2.7,3.3v18.5C187.6,70.7,188.5,71.8,190.3,71.8z"></path>	<path d="M203.1,42.2h8.1c2.6,0,4.6,0.7,5.9,2.1c1.3,1.4,2,3.5,2,6.2v17.1c0,2.7-0.7,4.8-2,6.2c-1.3,1.4-3.3,2.1-5.9,2.1h-8.1V42.2z   M211,71.3c0.9,0,1.5-0.3,2-0.8c0.5-0.5,0.7-1.4,0.7-2.5V50.4c0-1.2-0.2-2-0.7-2.5c-0.4-0.5-1.1-0.8-2-0.8h-2.7v24.2H211z"></path></mask><path class="st4" d="M21,42.2h7.8c2.7,0,4.7,0.6,5.9,1.9c1.2,1.3,1.9,3.2,1.9,5.9v2.1c0,3.5-1.2,5.7-3.5,6.7v0.1 c1.3,0.4,2.2,1.2,2.7,2.4c0.5,1.2,0.8,2.8,0.8,4.8v6c0,1,0,1.8,0.1,2.4c0.1,0.6,0.2,1.2,0.5,1.7h-5.4c-0.2-0.5-0.3-1.1-0.4-1.5 c-0.1-0.5-0.1-1.4-0.1-2.6v-6.2c0-1.5-0.3-2.6-0.8-3.2c-0.5-0.6-1.3-0.9-2.5-0.9h-1.8v14.5H21V42.2z M28.2,56.8 c1.1,0,1.8-0.3,2.4-0.8c0.5-0.5,0.8-1.5,0.8-2.8v-2.6c0-1.2-0.2-2.1-0.7-2.7c-0.4-0.5-1.1-0.8-2-0.8h-2.4v9.7H28.2z"></path><defs>			<filter id="Adobe_OpacityMaskFilter_00000175320998519924606800000002253049451779461521_" filterUnits="userSpaceOnUse" x="41.1" y="41.8" width="16" height="34.8">			</filter></defs><mask maskUnits="userSpaceOnUse" x="41.1" y="41.8" width="16" height="34.8" id="path-1-outside-1_3160_8987_00000159435701778053582130000009994213459936763547_">			<rect x="-0.6" y="40.8" style="fill:#FFFFFF;filter:url(#Adobe_OpacityMaskFilter_00000175320998519924606800000002253049451779461521_);" width="220" height="37"></rect>	<path d="M0.4,42.2h8c2.7,0,4.7,0.6,5.9,1.9c1.2,1.3,1.9,3.2,1.9,5.9v1.4c0,1.7-0.3,3.2-0.9,4.3c-0.5,1.1-1.4,1.9-2.5,2.4v0.1  c2.6,0.9,3.9,3.3,3.9,7.1v2.9c0,2.6-0.7,4.6-2.1,6c-1.3,1.4-3.3,2-5.9,2H0.4V42.2z M7.7,56c1.1,0,1.8-0.3,2.4-0.8  c0.5-0.5,0.8-1.5,0.8-2.8v-1.9c0-1.2-0.2-2.1-0.7-2.7c-0.4-0.5-1.1-0.8-2-0.8H5.7v9H7.7z M8.7,71.3c0.9,0,1.6-0.2,2.1-0.7  c0.4-0.5,0.7-1.4,0.7-2.6v-3c0-1.5-0.3-2.6-0.8-3.2c-0.5-0.6-1.4-0.9-2.6-0.9H5.7v10.4H8.7z"></path>	<path d="M21,42.2h7.8c2.7,0,4.7,0.6,5.9,1.9c1.2,1.3,1.9,3.2,1.9,5.9v2.1c0,3.5-1.2,5.7-3.5,6.7v0.1c1.3,0.4,2.2,1.2,2.7,2.4  c0.5,1.2,0.8,2.8,0.8,4.8v6c0,1,0,1.8,0.1,2.4c0.1,0.6,0.2,1.2,0.5,1.7h-5.4c-0.2-0.5-0.3-1.1-0.4-1.5c-0.1-0.5-0.1-1.4-0.1-2.6  v-6.2c0-1.5-0.3-2.6-0.8-3.2c-0.5-0.6-1.3-0.9-2.5-0.9h-1.8v14.5H21V42.2z M28.2,56.8c1.1,0,1.8-0.3,2.4-0.8  c0.5-0.5,0.8-1.5,0.8-2.8v-2.6c0-1.2-0.2-2.1-0.7-2.7c-0.4-0.5-1.1-0.8-2-0.8h-2.4v9.7H28.2z"></path>	<path d="M49.1,76.6c-2.6,0-4.6-0.7-5.9-2.2c-1.4-1.5-2.1-3.6-2.1-6.3V50.3c0-2.7,0.7-4.8,2.1-6.3c1.4-1.5,3.4-2.2,5.9-2.2  c2.6,0,4.6,0.7,5.9,2.2c1.4,1.5,2.1,3.6,2.1,6.3v17.8c0,2.7-0.7,4.8-2.1,6.3C53.7,75.9,51.7,76.6,49.1,76.6z M49.1,71.8  c1.8,0,2.7-1.1,2.7-3.3V49.9c0-2.2-0.9-3.3-2.7-3.3c-1.8,0-2.7,1.1-2.7,3.3v18.5C46.4,70.7,47.3,71.8,49.1,71.8z"></path>	<path d="M65.9,47.1h-5.5v-4.8h16.3v4.8h-5.5v29h-5.3V47.1z"></path>	<path d="M80.4,42.2h5.3V56h5.7V42.2h5.3v33.9h-5.3V60.9h-5.7v15.2h-5.3V42.2z"></path>	<path d="M101.8,42.2h14.4v4.8H107v9h7.2v4.8H107v10.4h9.1v4.8h-14.4V42.2z"></path>	<path d="M120.4,42.2h7.8c2.7,0,4.7,0.6,5.9,1.9c1.2,1.3,1.9,3.2,1.9,5.9v2.1c0,3.5-1.2,5.7-3.5,6.7v0.1c1.3,0.4,2.2,1.2,2.7,2.4  c0.5,1.2,0.8,2.8,0.8,4.8v6c0,1,0,1.8,0.1,2.4c0.1,0.6,0.2,1.2,0.5,1.7h-5.4c-0.2-0.5-0.3-1.1-0.4-1.5c-0.1-0.5-0.1-1.4-0.1-2.6  v-6.2c0-1.5-0.3-2.6-0.8-3.2c-0.5-0.6-1.3-0.9-2.5-0.9h-1.8v14.5h-5.3V42.2z M127.6,56.8c1.1,0,1.8-0.3,2.4-0.8  c0.5-0.5,0.8-1.5,0.8-2.8v-2.6c0-1.2-0.2-2.1-0.7-2.7c-0.4-0.5-1.1-0.8-2-0.8h-2.4v9.7H127.6z"></path>	<path d="M140.9,42.2h5.3V56h5.7V42.2h5.3v33.9h-5.3V60.9h-5.7v15.2h-5.3V42.2z"></path>	<path d="M169.9,76.6c-2.6,0-4.6-0.7-5.9-2.2c-1.4-1.5-2.1-3.6-2.1-6.3V50.3c0-2.7,0.7-4.8,2.1-6.3c1.4-1.5,3.4-2.2,5.9-2.2  c2.6,0,4.6,0.7,5.9,2.2c1.4,1.5,2.1,3.6,2.1,6.3v17.8c0,2.7-0.7,4.8-2.1,6.3C174.5,75.9,172.5,76.6,169.9,76.6z M169.9,71.8  c1.8,0,2.7-1.1,2.7-3.3V49.9c0-2.2-0.9-3.3-2.7-3.3c-1.8,0-2.7,1.1-2.7,3.3v18.5C167.2,70.7,168.1,71.8,169.9,71.8z"></path>	<path d="M190.3,76.6c-2.6,0-4.6-0.7-5.9-2.2c-1.4-1.5-2.1-3.6-2.1-6.3V50.3c0-2.7,0.7-4.8,2.1-6.3c1.4-1.5,3.4-2.2,5.9-2.2  c2.6,0,4.6,0.7,5.9,2.2c1.4,1.5,2.1,3.6,2.1,6.3v17.8c0,2.7-0.7,4.8-2.1,6.3C194.9,75.9,192.9,76.6,190.3,76.6z M190.3,71.8  c1.8,0,2.7-1.1,2.7-3.3V49.9c0-2.2-0.9-3.3-2.7-3.3s-2.7,1.1-2.7,3.3v18.5C187.6,70.7,188.5,71.8,190.3,71.8z"></path>	<path d="M203.1,42.2h8.1c2.6,0,4.6,0.7,5.9,2.1c1.3,1.4,2,3.5,2,6.2v17.1c0,2.7-0.7,4.8-2,6.2c-1.3,1.4-3.3,2.1-5.9,2.1h-8.1V42.2z   M211,71.3c0.9,0,1.5-0.3,2-0.8c0.5-0.5,0.7-1.4,0.7-2.5V50.4c0-1.2-0.2-2-0.7-2.5c-0.4-0.5-1.1-0.8-2-0.8h-2.7v24.2H211z"></path></mask><path class="st6" d="M49.1,76.6c-2.6,0-4.6-0.7-5.9-2.2c-1.4-1.5-2.1-3.6-2.1-6.3V50.3c0-2.7,0.7-4.8,2.1-6.3 c1.4-1.5,3.4-2.2,5.9-2.2c2.6,0,4.6,0.7,5.9,2.2c1.4,1.5,2.1,3.6,2.1,6.3v17.8c0,2.7-0.7,4.8-2.1,6.3C53.7,75.9,51.7,76.6,49.1,76.6 z M49.1,71.8c1.8,0,2.7-1.1,2.7-3.3V49.9c0-2.2-0.9-3.3-2.7-3.3c-1.8,0-2.7,1.1-2.7,3.3v18.5C46.4,70.7,47.3,71.8,49.1,71.8z"></path><defs>			<filter id="Adobe_OpacityMaskFilter_00000000921252100606853960000006939066189174049461_" filterUnits="userSpaceOnUse" x="60.3" y="42.2" width="16.3" height="33.9">			</filter></defs><mask maskUnits="userSpaceOnUse" x="60.3" y="42.2" width="16.3" height="33.9" id="path-1-outside-1_3160_8987_00000080920291797533226100000018321513171452119944_">			<rect x="-0.6" y="40.8" style="fill:#FFFFFF;filter:url(#Adobe_OpacityMaskFilter_00000000921252100606853960000006939066189174049461_);" width="220" height="37"></rect>	<path d="M0.4,42.2h8c2.7,0,4.7,0.6,5.9,1.9c1.2,1.3,1.9,3.2,1.9,5.9v1.4c0,1.7-0.3,3.2-0.9,4.3c-0.5,1.1-1.4,1.9-2.5,2.4v0.1  c2.6,0.9,3.9,3.3,3.9,7.1v2.9c0,2.6-0.7,4.6-2.1,6c-1.3,1.4-3.3,2-5.9,2H0.4V42.2z M7.7,56c1.1,0,1.8-0.3,2.4-0.8  c0.5-0.5,0.8-1.5,0.8-2.8v-1.9c0-1.2-0.2-2.1-0.7-2.7c-0.4-0.5-1.1-0.8-2-0.8H5.7v9H7.7z M8.7,71.3c0.9,0,1.6-0.2,2.1-0.7  c0.4-0.5,0.7-1.4,0.7-2.6v-3c0-1.5-0.3-2.6-0.8-3.2c-0.5-0.6-1.4-0.9-2.6-0.9H5.7v10.4H8.7z"></path>	<path d="M21,42.2h7.8c2.7,0,4.7,0.6,5.9,1.9c1.2,1.3,1.9,3.2,1.9,5.9v2.1c0,3.5-1.2,5.7-3.5,6.7v0.1c1.3,0.4,2.2,1.2,2.7,2.4  c0.5,1.2,0.8,2.8,0.8,4.8v6c0,1,0,1.8,0.1,2.4c0.1,0.6,0.2,1.2,0.5,1.7h-5.4c-0.2-0.5-0.3-1.1-0.4-1.5c-0.1-0.5-0.1-1.4-0.1-2.6  v-6.2c0-1.5-0.3-2.6-0.8-3.2c-0.5-0.6-1.3-0.9-2.5-0.9h-1.8v14.5H21V42.2z M28.2,56.8c1.1,0,1.8-0.3,2.4-0.8  c0.5-0.5,0.8-1.5,0.8-2.8v-2.6c0-1.2-0.2-2.1-0.7-2.7c-0.4-0.5-1.1-0.8-2-0.8h-2.4v9.7H28.2z"></path>	<path d="M49.1,76.6c-2.6,0-4.6-0.7-5.9-2.2c-1.4-1.5-2.1-3.6-2.1-6.3V50.3c0-2.7,0.7-4.8,2.1-6.3c1.4-1.5,3.4-2.2,5.9-2.2  c2.6,0,4.6,0.7,5.9,2.2c1.4,1.5,2.1,3.6,2.1,6.3v17.8c0,2.7-0.7,4.8-2.1,6.3C53.7,75.9,51.7,76.6,49.1,76.6z M49.1,71.8  c1.8,0,2.7-1.1,2.7-3.3V49.9c0-2.2-0.9-3.3-2.7-3.3c-1.8,0-2.7,1.1-2.7,3.3v18.5C46.4,70.7,47.3,71.8,49.1,71.8z"></path>	<path d="M65.9,47.1h-5.5v-4.8h16.3v4.8h-5.5v29h-5.3V47.1z"></path>	<path d="M80.4,42.2h5.3V56h5.7V42.2h5.3v33.9h-5.3V60.9h-5.7v15.2h-5.3V42.2z"></path>	<path d="M101.8,42.2h14.4v4.8H107v9h7.2v4.8H107v10.4h9.1v4.8h-14.4V42.2z"></path>	<path d="M120.4,42.2h7.8c2.7,0,4.7,0.6,5.9,1.9c1.2,1.3,1.9,3.2,1.9,5.9v2.1c0,3.5-1.2,5.7-3.5,6.7v0.1c1.3,0.4,2.2,1.2,2.7,2.4  c0.5,1.2,0.8,2.8,0.8,4.8v6c0,1,0,1.8,0.1,2.4c0.1,0.6,0.2,1.2,0.5,1.7h-5.4c-0.2-0.5-0.3-1.1-0.4-1.5c-0.1-0.5-0.1-1.4-0.1-2.6  v-6.2c0-1.5-0.3-2.6-0.8-3.2c-0.5-0.6-1.3-0.9-2.5-0.9h-1.8v14.5h-5.3V42.2z M127.6,56.8c1.1,0,1.8-0.3,2.4-0.8  c0.5-0.5,0.8-1.5,0.8-2.8v-2.6c0-1.2-0.2-2.1-0.7-2.7c-0.4-0.5-1.1-0.8-2-0.8h-2.4v9.7H127.6z"></path>	<path d="M140.9,42.2h5.3V56h5.7V42.2h5.3v33.9h-5.3V60.9h-5.7v15.2h-5.3V42.2z"></path>	<path d="M169.9,76.6c-2.6,0-4.6-0.7-5.9-2.2c-1.4-1.5-2.1-3.6-2.1-6.3V50.3c0-2.7,0.7-4.8,2.1-6.3c1.4-1.5,3.4-2.2,5.9-2.2  c2.6,0,4.6,0.7,5.9,2.2c1.4,1.5,2.1,3.6,2.1,6.3v17.8c0,2.7-0.7,4.8-2.1,6.3C174.5,75.9,172.5,76.6,169.9,76.6z M169.9,71.8  c1.8,0,2.7-1.1,2.7-3.3V49.9c0-2.2-0.9-3.3-2.7-3.3c-1.8,0-2.7,1.1-2.7,3.3v18.5C167.2,70.7,168.1,71.8,169.9,71.8z"></path>	<path d="M190.3,76.6c-2.6,0-4.6-0.7-5.9-2.2c-1.4-1.5-2.1-3.6-2.1-6.3V50.3c0-2.7,0.7-4.8,2.1-6.3c1.4-1.5,3.4-2.2,5.9-2.2  c2.6,0,4.6,0.7,5.9,2.2c1.4,1.5,2.1,3.6,2.1,6.3v17.8c0,2.7-0.7,4.8-2.1,6.3C194.9,75.9,192.9,76.6,190.3,76.6z M190.3,71.8  c1.8,0,2.7-1.1,2.7-3.3V49.9c0-2.2-0.9-3.3-2.7-3.3s-2.7,1.1-2.7,3.3v18.5C187.6,70.7,188.5,71.8,190.3,71.8z"></path>	<path d="M203.1,42.2h8.1c2.6,0,4.6,0.7,5.9,2.1c1.3,1.4,2,3.5,2,6.2v17.1c0,2.7-0.7,4.8-2,6.2c-1.3,1.4-3.3,2.1-5.9,2.1h-8.1V42.2z   M211,71.3c0.9,0,1.5-0.3,2-0.8c0.5-0.5,0.7-1.4,0.7-2.5V50.4c0-1.2-0.2-2-0.7-2.5c-0.4-0.5-1.1-0.8-2-0.8h-2.7v24.2H211z"></path></mask><path class="st8" d="M65.9,47.1h-5.5v-4.8h16.3v4.8h-5.5v29h-5.3V47.1z"></path><defs>			<filter id="Adobe_OpacityMaskFilter_00000028307827334982931800000016088652659771914923_" filterUnits="userSpaceOnUse" x="80.4" y="42.2" width="16.2" height="33.9">			</filter></defs><mask maskUnits="userSpaceOnUse" x="80.4" y="42.2" width="16.2" height="33.9" id="path-1-outside-1_3160_8987_00000004529842575600531240000014606472315149537670_">			<rect x="-0.6" y="40.8" style="fill:#FFFFFF;filter:url(#Adobe_OpacityMaskFilter_00000028307827334982931800000016088652659771914923_);" width="220" height="37"></rect>	<path d="M0.4,42.2h8c2.7,0,4.7,0.6,5.9,1.9c1.2,1.3,1.9,3.2,1.9,5.9v1.4c0,1.7-0.3,3.2-0.9,4.3c-0.5,1.1-1.4,1.9-2.5,2.4v0.1  c2.6,0.9,3.9,3.3,3.9,7.1v2.9c0,2.6-0.7,4.6-2.1,6c-1.3,1.4-3.3,2-5.9,2H0.4V42.2z M7.7,56c1.1,0,1.8-0.3,2.4-0.8  c0.5-0.5,0.8-1.5,0.8-2.8v-1.9c0-1.2-0.2-2.1-0.7-2.7c-0.4-0.5-1.1-0.8-2-0.8H5.7v9H7.7z M8.7,71.3c0.9,0,1.6-0.2,2.1-0.7  c0.4-0.5,0.7-1.4,0.7-2.6v-3c0-1.5-0.3-2.6-0.8-3.2c-0.5-0.6-1.4-0.9-2.6-0.9H5.7v10.4H8.7z"></path>	<path d="M21,42.2h7.8c2.7,0,4.7,0.6,5.9,1.9c1.2,1.3,1.9,3.2,1.9,5.9v2.1c0,3.5-1.2,5.7-3.5,6.7v0.1c1.3,0.4,2.2,1.2,2.7,2.4  c0.5,1.2,0.8,2.8,0.8,4.8v6c0,1,0,1.8,0.1,2.4c0.1,0.6,0.2,1.2,0.5,1.7h-5.4c-0.2-0.5-0.3-1.1-0.4-1.5c-0.1-0.5-0.1-1.4-0.1-2.6  v-6.2c0-1.5-0.3-2.6-0.8-3.2c-0.5-0.6-1.3-0.9-2.5-0.9h-1.8v14.5H21V42.2z M28.2,56.8c1.1,0,1.8-0.3,2.4-0.8  c0.5-0.5,0.8-1.5,0.8-2.8v-2.6c0-1.2-0.2-2.1-0.7-2.7c-0.4-0.5-1.1-0.8-2-0.8h-2.4v9.7H28.2z"></path>	<path d="M49.1,76.6c-2.6,0-4.6-0.7-5.9-2.2c-1.4-1.5-2.1-3.6-2.1-6.3V50.3c0-2.7,0.7-4.8,2.1-6.3c1.4-1.5,3.4-2.2,5.9-2.2  c2.6,0,4.6,0.7,5.9,2.2c1.4,1.5,2.1,3.6,2.1,6.3v17.8c0,2.7-0.7,4.8-2.1,6.3C53.7,75.9,51.7,76.6,49.1,76.6z M49.1,71.8  c1.8,0,2.7-1.1,2.7-3.3V49.9c0-2.2-0.9-3.3-2.7-3.3c-1.8,0-2.7,1.1-2.7,3.3v18.5C46.4,70.7,47.3,71.8,49.1,71.8z"></path>	<path d="M65.9,47.1h-5.5v-4.8h16.3v4.8h-5.5v29h-5.3V47.1z"></path>	<path d="M80.4,42.2h5.3V56h5.7V42.2h5.3v33.9h-5.3V60.9h-5.7v15.2h-5.3V42.2z"></path>	<path d="M101.8,42.2h14.4v4.8H107v9h7.2v4.8H107v10.4h9.1v4.8h-14.4V42.2z"></path>	<path d="M120.4,42.2h7.8c2.7,0,4.7,0.6,5.9,1.9c1.2,1.3,1.9,3.2,1.9,5.9v2.1c0,3.5-1.2,5.7-3.5,6.7v0.1c1.3,0.4,2.2,1.2,2.7,2.4  c0.5,1.2,0.8,2.8,0.8,4.8v6c0,1,0,1.8,0.1,2.4c0.1,0.6,0.2,1.2,0.5,1.7h-5.4c-0.2-0.5-0.3-1.1-0.4-1.5c-0.1-0.5-0.1-1.4-0.1-2.6  v-6.2c0-1.5-0.3-2.6-0.8-3.2c-0.5-0.6-1.3-0.9-2.5-0.9h-1.8v14.5h-5.3V42.2z M127.6,56.8c1.1,0,1.8-0.3,2.4-0.8  c0.5-0.5,0.8-1.5,0.8-2.8v-2.6c0-1.2-0.2-2.1-0.7-2.7c-0.4-0.5-1.1-0.8-2-0.8h-2.4v9.7H127.6z"></path>	<path d="M140.9,42.2h5.3V56h5.7V42.2h5.3v33.9h-5.3V60.9h-5.7v15.2h-5.3V42.2z"></path>	<path d="M169.9,76.6c-2.6,0-4.6-0.7-5.9-2.2c-1.4-1.5-2.1-3.6-2.1-6.3V50.3c0-2.7,0.7-4.8,2.1-6.3c1.4-1.5,3.4-2.2,5.9-2.2  c2.6,0,4.6,0.7,5.9,2.2c1.4,1.5,2.1,3.6,2.1,6.3v17.8c0,2.7-0.7,4.8-2.1,6.3C174.5,75.9,172.5,76.6,169.9,76.6z M169.9,71.8  c1.8,0,2.7-1.1,2.7-3.3V49.9c0-2.2-0.9-3.3-2.7-3.3c-1.8,0-2.7,1.1-2.7,3.3v18.5C167.2,70.7,168.1,71.8,169.9,71.8z"></path>	<path d="M190.3,76.6c-2.6,0-4.6-0.7-5.9-2.2c-1.4-1.5-2.1-3.6-2.1-6.3V50.3c0-2.7,0.7-4.8,2.1-6.3c1.4-1.5,3.4-2.2,5.9-2.2  c2.6,0,4.6,0.7,5.9,2.2c1.4,1.5,2.1,3.6,2.1,6.3v17.8c0,2.7-0.7,4.8-2.1,6.3C194.9,75.9,192.9,76.6,190.3,76.6z M190.3,71.8  c1.8,0,2.7-1.1,2.7-3.3V49.9c0-2.2-0.9-3.3-2.7-3.3s-2.7,1.1-2.7,3.3v18.5C187.6,70.7,188.5,71.8,190.3,71.8z"></path>	<path d="M203.1,42.2h8.1c2.6,0,4.6,0.7,5.9,2.1c1.3,1.4,2,3.5,2,6.2v17.1c0,2.7-0.7,4.8-2,6.2c-1.3,1.4-3.3,2.1-5.9,2.1h-8.1V42.2z   M211,71.3c0.9,0,1.5-0.3,2-0.8c0.5-0.5,0.7-1.4,0.7-2.5V50.4c0-1.2-0.2-2-0.7-2.5c-0.4-0.5-1.1-0.8-2-0.8h-2.7v24.2H211z"></path></mask><path class="st10" d="M80.4,42.2h5.3V56h5.7V42.2h5.3v33.9h-5.3V60.9h-5.7v15.2h-5.3V42.2z"></path><defs>			<filter id="Adobe_OpacityMaskFilter_00000160187898491771757890000005706979882629714609_" filterUnits="userSpaceOnUse" x="101.8" y="42.2" width="14.4" height="33.9">			</filter></defs><mask maskUnits="userSpaceOnUse" x="101.8" y="42.2" width="14.4" height="33.9" id="path-1-outside-1_3160_8987_00000042730005659164897660000014132870873844529810_">			<rect x="-0.6" y="40.8" style="fill:#FFFFFF;filter:url(#Adobe_OpacityMaskFilter_00000160187898491771757890000005706979882629714609_);" width="220" height="37"></rect>	<path d="M0.4,42.2h8c2.7,0,4.7,0.6,5.9,1.9c1.2,1.3,1.9,3.2,1.9,5.9v1.4c0,1.7-0.3,3.2-0.9,4.3c-0.5,1.1-1.4,1.9-2.5,2.4v0.1  c2.6,0.9,3.9,3.3,3.9,7.1v2.9c0,2.6-0.7,4.6-2.1,6c-1.3,1.4-3.3,2-5.9,2H0.4V42.2z M7.7,56c1.1,0,1.8-0.3,2.4-0.8  c0.5-0.5,0.8-1.5,0.8-2.8v-1.9c0-1.2-0.2-2.1-0.7-2.7c-0.4-0.5-1.1-0.8-2-0.8H5.7v9H7.7z M8.7,71.3c0.9,0,1.6-0.2,2.1-0.7  c0.4-0.5,0.7-1.4,0.7-2.6v-3c0-1.5-0.3-2.6-0.8-3.2c-0.5-0.6-1.4-0.9-2.6-0.9H5.7v10.4H8.7z"></path>	<path d="M21,42.2h7.8c2.7,0,4.7,0.6,5.9,1.9c1.2,1.3,1.9,3.2,1.9,5.9v2.1c0,3.5-1.2,5.7-3.5,6.7v0.1c1.3,0.4,2.2,1.2,2.7,2.4  c0.5,1.2,0.8,2.8,0.8,4.8v6c0,1,0,1.8,0.1,2.4c0.1,0.6,0.2,1.2,0.5,1.7h-5.4c-0.2-0.5-0.3-1.1-0.4-1.5c-0.1-0.5-0.1-1.4-0.1-2.6  v-6.2c0-1.5-0.3-2.6-0.8-3.2c-0.5-0.6-1.3-0.9-2.5-0.9h-1.8v14.5H21V42.2z M28.2,56.8c1.1,0,1.8-0.3,2.4-0.8  c0.5-0.5,0.8-1.5,0.8-2.8v-2.6c0-1.2-0.2-2.1-0.7-2.7c-0.4-0.5-1.1-0.8-2-0.8h-2.4v9.7H28.2z"></path>	<path d="M49.1,76.6c-2.6,0-4.6-0.7-5.9-2.2c-1.4-1.5-2.1-3.6-2.1-6.3V50.3c0-2.7,0.7-4.8,2.1-6.3c1.4-1.5,3.4-2.2,5.9-2.2  c2.6,0,4.6,0.7,5.9,2.2c1.4,1.5,2.1,3.6,2.1,6.3v17.8c0,2.7-0.7,4.8-2.1,6.3C53.7,75.9,51.7,76.6,49.1,76.6z M49.1,71.8  c1.8,0,2.7-1.1,2.7-3.3V49.9c0-2.2-0.9-3.3-2.7-3.3c-1.8,0-2.7,1.1-2.7,3.3v18.5C46.4,70.7,47.3,71.8,49.1,71.8z"></path>	<path d="M65.9,47.1h-5.5v-4.8h16.3v4.8h-5.5v29h-5.3V47.1z"></path>	<path d="M80.4,42.2h5.3V56h5.7V42.2h5.3v33.9h-5.3V60.9h-5.7v15.2h-5.3V42.2z"></path>	<path d="M101.8,42.2h14.4v4.8H107v9h7.2v4.8H107v10.4h9.1v4.8h-14.4V42.2z"></path>	<path d="M120.4,42.2h7.8c2.7,0,4.7,0.6,5.9,1.9c1.2,1.3,1.9,3.2,1.9,5.9v2.1c0,3.5-1.2,5.7-3.5,6.7v0.1c1.3,0.4,2.2,1.2,2.7,2.4  c0.5,1.2,0.8,2.8,0.8,4.8v6c0,1,0,1.8,0.1,2.4c0.1,0.6,0.2,1.2,0.5,1.7h-5.4c-0.2-0.5-0.3-1.1-0.4-1.5c-0.1-0.5-0.1-1.4-0.1-2.6  v-6.2c0-1.5-0.3-2.6-0.8-3.2c-0.5-0.6-1.3-0.9-2.5-0.9h-1.8v14.5h-5.3V42.2z M127.6,56.8c1.1,0,1.8-0.3,2.4-0.8  c0.5-0.5,0.8-1.5,0.8-2.8v-2.6c0-1.2-0.2-2.1-0.7-2.7c-0.4-0.5-1.1-0.8-2-0.8h-2.4v9.7H127.6z"></path>	<path d="M140.9,42.2h5.3V56h5.7V42.2h5.3v33.9h-5.3V60.9h-5.7v15.2h-5.3V42.2z"></path>	<path d="M169.9,76.6c-2.6,0-4.6-0.7-5.9-2.2c-1.4-1.5-2.1-3.6-2.1-6.3V50.3c0-2.7,0.7-4.8,2.1-6.3c1.4-1.5,3.4-2.2,5.9-2.2  c2.6,0,4.6,0.7,5.9,2.2c1.4,1.5,2.1,3.6,2.1,6.3v17.8c0,2.7-0.7,4.8-2.1,6.3C174.5,75.9,172.5,76.6,169.9,76.6z M169.9,71.8  c1.8,0,2.7-1.1,2.7-3.3V49.9c0-2.2-0.9-3.3-2.7-3.3c-1.8,0-2.7,1.1-2.7,3.3v18.5C167.2,70.7,168.1,71.8,169.9,71.8z"></path>	<path d="M190.3,76.6c-2.6,0-4.6-0.7-5.9-2.2c-1.4-1.5-2.1-3.6-2.1-6.3V50.3c0-2.7,0.7-4.8,2.1-6.3c1.4-1.5,3.4-2.2,5.9-2.2  c2.6,0,4.6,0.7,5.9,2.2c1.4,1.5,2.1,3.6,2.1,6.3v17.8c0,2.7-0.7,4.8-2.1,6.3C194.9,75.9,192.9,76.6,190.3,76.6z M190.3,71.8  c1.8,0,2.7-1.1,2.7-3.3V49.9c0-2.2-0.9-3.3-2.7-3.3s-2.7,1.1-2.7,3.3v18.5C187.6,70.7,188.5,71.8,190.3,71.8z"></path>	<path d="M203.1,42.2h8.1c2.6,0,4.6,0.7,5.9,2.1c1.3,1.4,2,3.5,2,6.2v17.1c0,2.7-0.7,4.8-2,6.2c-1.3,1.4-3.3,2.1-5.9,2.1h-8.1V42.2z   M211,71.3c0.9,0,1.5-0.3,2-0.8c0.5-0.5,0.7-1.4,0.7-2.5V50.4c0-1.2-0.2-2-0.7-2.5c-0.4-0.5-1.1-0.8-2-0.8h-2.7v24.2H211z"></path></mask><path class="st12" d="M101.8,42.2h14.4v4.8H107v9h7.2v4.8H107v10.4h9.1v4.8h-14.4V42.2z"></path><defs>			<filter id="Adobe_OpacityMaskFilter_00000048485745392387438790000001461261333825432497_" filterUnits="userSpaceOnUse" x="120.4" y="42.2" width="16.3" height="33.9">			</filter></defs><mask maskUnits="userSpaceOnUse" x="120.4" y="42.2" width="16.3" height="33.9" id="path-1-outside-1_3160_8987_00000138572089323273612130000018269348555937415051_">			<rect x="-0.6" y="40.8" style="fill:#FFFFFF;filter:url(#Adobe_OpacityMaskFilter_00000048485745392387438790000001461261333825432497_);" width="220" height="37"></rect>	<path d="M0.4,42.2h8c2.7,0,4.7,0.6,5.9,1.9c1.2,1.3,1.9,3.2,1.9,5.9v1.4c0,1.7-0.3,3.2-0.9,4.3c-0.5,1.1-1.4,1.9-2.5,2.4v0.1  c2.6,0.9,3.9,3.3,3.9,7.1v2.9c0,2.6-0.7,4.6-2.1,6c-1.3,1.4-3.3,2-5.9,2H0.4V42.2z M7.7,56c1.1,0,1.8-0.3,2.4-0.8  c0.5-0.5,0.8-1.5,0.8-2.8v-1.9c0-1.2-0.2-2.1-0.7-2.7c-0.4-0.5-1.1-0.8-2-0.8H5.7v9H7.7z M8.7,71.3c0.9,0,1.6-0.2,2.1-0.7  c0.4-0.5,0.7-1.4,0.7-2.6v-3c0-1.5-0.3-2.6-0.8-3.2c-0.5-0.6-1.4-0.9-2.6-0.9H5.7v10.4H8.7z"></path>	<path d="M21,42.2h7.8c2.7,0,4.7,0.6,5.9,1.9c1.2,1.3,1.9,3.2,1.9,5.9v2.1c0,3.5-1.2,5.7-3.5,6.7v0.1c1.3,0.4,2.2,1.2,2.7,2.4  c0.5,1.2,0.8,2.8,0.8,4.8v6c0,1,0,1.8,0.1,2.4c0.1,0.6,0.2,1.2,0.5,1.7h-5.4c-0.2-0.5-0.3-1.1-0.4-1.5c-0.1-0.5-0.1-1.4-0.1-2.6  v-6.2c0-1.5-0.3-2.6-0.8-3.2c-0.5-0.6-1.3-0.9-2.5-0.9h-1.8v14.5H21V42.2z M28.2,56.8c1.1,0,1.8-0.3,2.4-0.8  c0.5-0.5,0.8-1.5,0.8-2.8v-2.6c0-1.2-0.2-2.1-0.7-2.7c-0.4-0.5-1.1-0.8-2-0.8h-2.4v9.7H28.2z"></path>	<path d="M49.1,76.6c-2.6,0-4.6-0.7-5.9-2.2c-1.4-1.5-2.1-3.6-2.1-6.3V50.3c0-2.7,0.7-4.8,2.1-6.3c1.4-1.5,3.4-2.2,5.9-2.2  c2.6,0,4.6,0.7,5.9,2.2c1.4,1.5,2.1,3.6,2.1,6.3v17.8c0,2.7-0.7,4.8-2.1,6.3C53.7,75.9,51.7,76.6,49.1,76.6z M49.1,71.8  c1.8,0,2.7-1.1,2.7-3.3V49.9c0-2.2-0.9-3.3-2.7-3.3c-1.8,0-2.7,1.1-2.7,3.3v18.5C46.4,70.7,47.3,71.8,49.1,71.8z"></path>	<path d="M65.9,47.1h-5.5v-4.8h16.3v4.8h-5.5v29h-5.3V47.1z"></path>	<path d="M80.4,42.2h5.3V56h5.7V42.2h5.3v33.9h-5.3V60.9h-5.7v15.2h-5.3V42.2z"></path>	<path d="M101.8,42.2h14.4v4.8H107v9h7.2v4.8H107v10.4h9.1v4.8h-14.4V42.2z"></path>	<path d="M120.4,42.2h7.8c2.7,0,4.7,0.6,5.9,1.9c1.2,1.3,1.9,3.2,1.9,5.9v2.1c0,3.5-1.2,5.7-3.5,6.7v0.1c1.3,0.4,2.2,1.2,2.7,2.4  c0.5,1.2,0.8,2.8,0.8,4.8v6c0,1,0,1.8,0.1,2.4c0.1,0.6,0.2,1.2,0.5,1.7h-5.4c-0.2-0.5-0.3-1.1-0.4-1.5c-0.1-0.5-0.1-1.4-0.1-2.6  v-6.2c0-1.5-0.3-2.6-0.8-3.2c-0.5-0.6-1.3-0.9-2.5-0.9h-1.8v14.5h-5.3V42.2z M127.6,56.8c1.1,0,1.8-0.3,2.4-0.8  c0.5-0.5,0.8-1.5,0.8-2.8v-2.6c0-1.2-0.2-2.1-0.7-2.7c-0.4-0.5-1.1-0.8-2-0.8h-2.4v9.7H127.6z"></path>	<path d="M140.9,42.2h5.3V56h5.7V42.2h5.3v33.9h-5.3V60.9h-5.7v15.2h-5.3V42.2z"></path>	<path d="M169.9,76.6c-2.6,0-4.6-0.7-5.9-2.2c-1.4-1.5-2.1-3.6-2.1-6.3V50.3c0-2.7,0.7-4.8,2.1-6.3c1.4-1.5,3.4-2.2,5.9-2.2  c2.6,0,4.6,0.7,5.9,2.2c1.4,1.5,2.1,3.6,2.1,6.3v17.8c0,2.7-0.7,4.8-2.1,6.3C174.5,75.9,172.5,76.6,169.9,76.6z M169.9,71.8  c1.8,0,2.7-1.1,2.7-3.3V49.9c0-2.2-0.9-3.3-2.7-3.3c-1.8,0-2.7,1.1-2.7,3.3v18.5C167.2,70.7,168.1,71.8,169.9,71.8z"></path>	<path d="M190.3,76.6c-2.6,0-4.6-0.7-5.9-2.2c-1.4-1.5-2.1-3.6-2.1-6.3V50.3c0-2.7,0.7-4.8,2.1-6.3c1.4-1.5,3.4-2.2,5.9-2.2  c2.6,0,4.6,0.7,5.9,2.2c1.4,1.5,2.1,3.6,2.1,6.3v17.8c0,2.7-0.7,4.8-2.1,6.3C194.9,75.9,192.9,76.6,190.3,76.6z M190.3,71.8  c1.8,0,2.7-1.1,2.7-3.3V49.9c0-2.2-0.9-3.3-2.7-3.3s-2.7,1.1-2.7,3.3v18.5C187.6,70.7,188.5,71.8,190.3,71.8z"></path>	<path d="M203.1,42.2h8.1c2.6,0,4.6,0.7,5.9,2.1c1.3,1.4,2,3.5,2,6.2v17.1c0,2.7-0.7,4.8-2,6.2c-1.3,1.4-3.3,2.1-5.9,2.1h-8.1V42.2z   M211,71.3c0.9,0,1.5-0.3,2-0.8c0.5-0.5,0.7-1.4,0.7-2.5V50.4c0-1.2-0.2-2-0.7-2.5c-0.4-0.5-1.1-0.8-2-0.8h-2.7v24.2H211z"></path></mask><path class="st14" d="M120.4,42.2h7.8c2.7,0,4.7,0.6,5.9,1.9c1.2,1.3,1.9,3.2,1.9,5.9v2.1c0,3.5-1.2,5.7-3.5,6.7v0.1 c1.3,0.4,2.2,1.2,2.7,2.4c0.5,1.2,0.8,2.8,0.8,4.8v6c0,1,0,1.8,0.1,2.4c0.1,0.6,0.2,1.2,0.5,1.7h-5.4c-0.2-0.5-0.3-1.1-0.4-1.5 c-0.1-0.5-0.1-1.4-0.1-2.6v-6.2c0-1.5-0.3-2.6-0.8-3.2c-0.5-0.6-1.3-0.9-2.5-0.9h-1.8v14.5h-5.3V42.2z M127.6,56.8 c1.1,0,1.8-0.3,2.4-0.8c0.5-0.5,0.8-1.5,0.8-2.8v-2.6c0-1.2-0.2-2.1-0.7-2.7c-0.4-0.5-1.1-0.8-2-0.8h-2.4v9.7H127.6z"></path><defs>			<filter id="Adobe_OpacityMaskFilter_00000080888747813044498500000011095095287773055151_" filterUnits="userSpaceOnUse" x="140.9" y="42.2" width="16.2" height="33.9">			</filter></defs><mask maskUnits="userSpaceOnUse" x="140.9" y="42.2" width="16.2" height="33.9" id="path-1-outside-1_3160_8987_00000055679787519679873430000003542154624395695758_">			<rect x="-0.6" y="40.8" style="fill:#FFFFFF;filter:url(#Adobe_OpacityMaskFilter_00000080888747813044498500000011095095287773055151_);" width="220" height="37"></rect>	<path d="M0.4,42.2h8c2.7,0,4.7,0.6,5.9,1.9c1.2,1.3,1.9,3.2,1.9,5.9v1.4c0,1.7-0.3,3.2-0.9,4.3c-0.5,1.1-1.4,1.9-2.5,2.4v0.1  c2.6,0.9,3.9,3.3,3.9,7.1v2.9c0,2.6-0.7,4.6-2.1,6c-1.3,1.4-3.3,2-5.9,2H0.4V42.2z M7.7,56c1.1,0,1.8-0.3,2.4-0.8  c0.5-0.5,0.8-1.5,0.8-2.8v-1.9c0-1.2-0.2-2.1-0.7-2.7c-0.4-0.5-1.1-0.8-2-0.8H5.7v9H7.7z M8.7,71.3c0.9,0,1.6-0.2,2.1-0.7  c0.4-0.5,0.7-1.4,0.7-2.6v-3c0-1.5-0.3-2.6-0.8-3.2c-0.5-0.6-1.4-0.9-2.6-0.9H5.7v10.4H8.7z"></path>	<path d="M21,42.2h7.8c2.7,0,4.7,0.6,5.9,1.9c1.2,1.3,1.9,3.2,1.9,5.9v2.1c0,3.5-1.2,5.7-3.5,6.7v0.1c1.3,0.4,2.2,1.2,2.7,2.4  c0.5,1.2,0.8,2.8,0.8,4.8v6c0,1,0,1.8,0.1,2.4c0.1,0.6,0.2,1.2,0.5,1.7h-5.4c-0.2-0.5-0.3-1.1-0.4-1.5c-0.1-0.5-0.1-1.4-0.1-2.6  v-6.2c0-1.5-0.3-2.6-0.8-3.2c-0.5-0.6-1.3-0.9-2.5-0.9h-1.8v14.5H21V42.2z M28.2,56.8c1.1,0,1.8-0.3,2.4-0.8  c0.5-0.5,0.8-1.5,0.8-2.8v-2.6c0-1.2-0.2-2.1-0.7-2.7c-0.4-0.5-1.1-0.8-2-0.8h-2.4v9.7H28.2z"></path>	<path d="M49.1,76.6c-2.6,0-4.6-0.7-5.9-2.2c-1.4-1.5-2.1-3.6-2.1-6.3V50.3c0-2.7,0.7-4.8,2.1-6.3c1.4-1.5,3.4-2.2,5.9-2.2  c2.6,0,4.6,0.7,5.9,2.2c1.4,1.5,2.1,3.6,2.1,6.3v17.8c0,2.7-0.7,4.8-2.1,6.3C53.7,75.9,51.7,76.6,49.1,76.6z M49.1,71.8  c1.8,0,2.7-1.1,2.7-3.3V49.9c0-2.2-0.9-3.3-2.7-3.3c-1.8,0-2.7,1.1-2.7,3.3v18.5C46.4,70.7,47.3,71.8,49.1,71.8z"></path>	<path d="M65.9,47.1h-5.5v-4.8h16.3v4.8h-5.5v29h-5.3V47.1z"></path>	<path d="M80.4,42.2h5.3V56h5.7V42.2h5.3v33.9h-5.3V60.9h-5.7v15.2h-5.3V42.2z"></path>	<path d="M101.8,42.2h14.4v4.8H107v9h7.2v4.8H107v10.4h9.1v4.8h-14.4V42.2z"></path>	<path d="M120.4,42.2h7.8c2.7,0,4.7,0.6,5.9,1.9c1.2,1.3,1.9,3.2,1.9,5.9v2.1c0,3.5-1.2,5.7-3.5,6.7v0.1c1.3,0.4,2.2,1.2,2.7,2.4  c0.5,1.2,0.8,2.8,0.8,4.8v6c0,1,0,1.8,0.1,2.4c0.1,0.6,0.2,1.2,0.5,1.7h-5.4c-0.2-0.5-0.3-1.1-0.4-1.5c-0.1-0.5-0.1-1.4-0.1-2.6  v-6.2c0-1.5-0.3-2.6-0.8-3.2c-0.5-0.6-1.3-0.9-2.5-0.9h-1.8v14.5h-5.3V42.2z M127.6,56.8c1.1,0,1.8-0.3,2.4-0.8  c0.5-0.5,0.8-1.5,0.8-2.8v-2.6c0-1.2-0.2-2.1-0.7-2.7c-0.4-0.5-1.1-0.8-2-0.8h-2.4v9.7H127.6z"></path>	<path d="M140.9,42.2h5.3V56h5.7V42.2h5.3v33.9h-5.3V60.9h-5.7v15.2h-5.3V42.2z"></path>	<path d="M169.9,76.6c-2.6,0-4.6-0.7-5.9-2.2c-1.4-1.5-2.1-3.6-2.1-6.3V50.3c0-2.7,0.7-4.8,2.1-6.3c1.4-1.5,3.4-2.2,5.9-2.2  c2.6,0,4.6,0.7,5.9,2.2c1.4,1.5,2.1,3.6,2.1,6.3v17.8c0,2.7-0.7,4.8-2.1,6.3C174.5,75.9,172.5,76.6,169.9,76.6z M169.9,71.8  c1.8,0,2.7-1.1,2.7-3.3V49.9c0-2.2-0.9-3.3-2.7-3.3c-1.8,0-2.7,1.1-2.7,3.3v18.5C167.2,70.7,168.1,71.8,169.9,71.8z"></path>	<path d="M190.3,76.6c-2.6,0-4.6-0.7-5.9-2.2c-1.4-1.5-2.1-3.6-2.1-6.3V50.3c0-2.7,0.7-4.8,2.1-6.3c1.4-1.5,3.4-2.2,5.9-2.2  c2.6,0,4.6,0.7,5.9,2.2c1.4,1.5,2.1,3.6,2.1,6.3v17.8c0,2.7-0.7,4.8-2.1,6.3C194.9,75.9,192.9,76.6,190.3,76.6z M190.3,71.8  c1.8,0,2.7-1.1,2.7-3.3V49.9c0-2.2-0.9-3.3-2.7-3.3s-2.7,1.1-2.7,3.3v18.5C187.6,70.7,188.5,71.8,190.3,71.8z"></path>	<path d="M203.1,42.2h8.1c2.6,0,4.6,0.7,5.9,2.1c1.3,1.4,2,3.5,2,6.2v17.1c0,2.7-0.7,4.8-2,6.2c-1.3,1.4-3.3,2.1-5.9,2.1h-8.1V42.2z   M211,71.3c0.9,0,1.5-0.3,2-0.8c0.5-0.5,0.7-1.4,0.7-2.5V50.4c0-1.2-0.2-2-0.7-2.5c-0.4-0.5-1.1-0.8-2-0.8h-2.7v24.2H211z"></path></mask><path class="st16" d="M140.9,42.2h5.3V56h5.7V42.2h5.3v33.9h-5.3V60.9h-5.7v15.2h-5.3V42.2z"></path><defs>			<filter id="Adobe_OpacityMaskFilter_00000106146911448705378350000016635537027932654219_" filterUnits="userSpaceOnUse" x="161.9" y="41.8" width="16" height="34.8">			</filter></defs><mask maskUnits="userSpaceOnUse" x="161.9" y="41.8" width="16" height="34.8" id="path-1-outside-1_3160_8987_00000091002203011697428120000000853802988163429050_">			<rect x="-0.6" y="40.8" style="fill:#FFFFFF;filter:url(#Adobe_OpacityMaskFilter_00000106146911448705378350000016635537027932654219_);" width="220" height="37"></rect>	<path d="M0.4,42.2h8c2.7,0,4.7,0.6,5.9,1.9c1.2,1.3,1.9,3.2,1.9,5.9v1.4c0,1.7-0.3,3.2-0.9,4.3c-0.5,1.1-1.4,1.9-2.5,2.4v0.1  c2.6,0.9,3.9,3.3,3.9,7.1v2.9c0,2.6-0.7,4.6-2.1,6c-1.3,1.4-3.3,2-5.9,2H0.4V42.2z M7.7,56c1.1,0,1.8-0.3,2.4-0.8  c0.5-0.5,0.8-1.5,0.8-2.8v-1.9c0-1.2-0.2-2.1-0.7-2.7c-0.4-0.5-1.1-0.8-2-0.8H5.7v9H7.7z M8.7,71.3c0.9,0,1.6-0.2,2.1-0.7  c0.4-0.5,0.7-1.4,0.7-2.6v-3c0-1.5-0.3-2.6-0.8-3.2c-0.5-0.6-1.4-0.9-2.6-0.9H5.7v10.4H8.7z"></path>	<path d="M21,42.2h7.8c2.7,0,4.7,0.6,5.9,1.9c1.2,1.3,1.9,3.2,1.9,5.9v2.1c0,3.5-1.2,5.7-3.5,6.7v0.1c1.3,0.4,2.2,1.2,2.7,2.4  c0.5,1.2,0.8,2.8,0.8,4.8v6c0,1,0,1.8,0.1,2.4c0.1,0.6,0.2,1.2,0.5,1.7h-5.4c-0.2-0.5-0.3-1.1-0.4-1.5c-0.1-0.5-0.1-1.4-0.1-2.6  v-6.2c0-1.5-0.3-2.6-0.8-3.2c-0.5-0.6-1.3-0.9-2.5-0.9h-1.8v14.5H21V42.2z M28.2,56.8c1.1,0,1.8-0.3,2.4-0.8  c0.5-0.5,0.8-1.5,0.8-2.8v-2.6c0-1.2-0.2-2.1-0.7-2.7c-0.4-0.5-1.1-0.8-2-0.8h-2.4v9.7H28.2z"></path>	<path d="M49.1,76.6c-2.6,0-4.6-0.7-5.9-2.2c-1.4-1.5-2.1-3.6-2.1-6.3V50.3c0-2.7,0.7-4.8,2.1-6.3c1.4-1.5,3.4-2.2,5.9-2.2  c2.6,0,4.6,0.7,5.9,2.2c1.4,1.5,2.1,3.6,2.1,6.3v17.8c0,2.7-0.7,4.8-2.1,6.3C53.7,75.9,51.7,76.6,49.1,76.6z M49.1,71.8  c1.8,0,2.7-1.1,2.7-3.3V49.9c0-2.2-0.9-3.3-2.7-3.3c-1.8,0-2.7,1.1-2.7,3.3v18.5C46.4,70.7,47.3,71.8,49.1,71.8z"></path>	<path d="M65.9,47.1h-5.5v-4.8h16.3v4.8h-5.5v29h-5.3V47.1z"></path>	<path d="M80.4,42.2h5.3V56h5.7V42.2h5.3v33.9h-5.3V60.9h-5.7v15.2h-5.3V42.2z"></path>	<path d="M101.8,42.2h14.4v4.8H107v9h7.2v4.8H107v10.4h9.1v4.8h-14.4V42.2z"></path>	<path d="M120.4,42.2h7.8c2.7,0,4.7,0.6,5.9,1.9c1.2,1.3,1.9,3.2,1.9,5.9v2.1c0,3.5-1.2,5.7-3.5,6.7v0.1c1.3,0.4,2.2,1.2,2.7,2.4  c0.5,1.2,0.8,2.8,0.8,4.8v6c0,1,0,1.8,0.1,2.4c0.1,0.6,0.2,1.2,0.5,1.7h-5.4c-0.2-0.5-0.3-1.1-0.4-1.5c-0.1-0.5-0.1-1.4-0.1-2.6  v-6.2c0-1.5-0.3-2.6-0.8-3.2c-0.5-0.6-1.3-0.9-2.5-0.9h-1.8v14.5h-5.3V42.2z M127.6,56.8c1.1,0,1.8-0.3,2.4-0.8  c0.5-0.5,0.8-1.5,0.8-2.8v-2.6c0-1.2-0.2-2.1-0.7-2.7c-0.4-0.5-1.1-0.8-2-0.8h-2.4v9.7H127.6z"></path>	<path d="M140.9,42.2h5.3V56h5.7V42.2h5.3v33.9h-5.3V60.9h-5.7v15.2h-5.3V42.2z"></path>	<path d="M169.9,76.6c-2.6,0-4.6-0.7-5.9-2.2c-1.4-1.5-2.1-3.6-2.1-6.3V50.3c0-2.7,0.7-4.8,2.1-6.3c1.4-1.5,3.4-2.2,5.9-2.2  c2.6,0,4.6,0.7,5.9,2.2c1.4,1.5,2.1,3.6,2.1,6.3v17.8c0,2.7-0.7,4.8-2.1,6.3C174.5,75.9,172.5,76.6,169.9,76.6z M169.9,71.8  c1.8,0,2.7-1.1,2.7-3.3V49.9c0-2.2-0.9-3.3-2.7-3.3c-1.8,0-2.7,1.1-2.7,3.3v18.5C167.2,70.7,168.1,71.8,169.9,71.8z"></path>	<path d="M190.3,76.6c-2.6,0-4.6-0.7-5.9-2.2c-1.4-1.5-2.1-3.6-2.1-6.3V50.3c0-2.7,0.7-4.8,2.1-6.3c1.4-1.5,3.4-2.2,5.9-2.2  c2.6,0,4.6,0.7,5.9,2.2c1.4,1.5,2.1,3.6,2.1,6.3v17.8c0,2.7-0.7,4.8-2.1,6.3C194.9,75.9,192.9,76.6,190.3,76.6z M190.3,71.8  c1.8,0,2.7-1.1,2.7-3.3V49.9c0-2.2-0.9-3.3-2.7-3.3s-2.7,1.1-2.7,3.3v18.5C187.6,70.7,188.5,71.8,190.3,71.8z"></path>	<path d="M203.1,42.2h8.1c2.6,0,4.6,0.7,5.9,2.1c1.3,1.4,2,3.5,2,6.2v17.1c0,2.7-0.7,4.8-2,6.2c-1.3,1.4-3.3,2.1-5.9,2.1h-8.1V42.2z   M211,71.3c0.9,0,1.5-0.3,2-0.8c0.5-0.5,0.7-1.4,0.7-2.5V50.4c0-1.2-0.2-2-0.7-2.5c-0.4-0.5-1.1-0.8-2-0.8h-2.7v24.2H211z"></path></mask><path class="st18" d="M169.9,76.6c-2.6,0-4.6-0.7-5.9-2.2c-1.4-1.5-2.1-3.6-2.1-6.3V50.3c0-2.7,0.7-4.8,2.1-6.3 c1.4-1.5,3.4-2.2,5.9-2.2c2.6,0,4.6,0.7,5.9,2.2c1.4,1.5,2.1,3.6,2.1,6.3v17.8c0,2.7-0.7,4.8-2.1,6.3 C174.5,75.9,172.5,76.6,169.9,76.6z M169.9,71.8c1.8,0,2.7-1.1,2.7-3.3V49.9c0-2.2-0.9-3.3-2.7-3.3c-1.8,0-2.7,1.1-2.7,3.3v18.5 C167.2,70.7,168.1,71.8,169.9,71.8z"></path><defs>			<filter id="Adobe_OpacityMaskFilter_00000147916173791280725900000005722040042968213408_" filterUnits="userSpaceOnUse" x="182.3" y="41.8" width="16" height="34.8">			</filter></defs><mask maskUnits="userSpaceOnUse" x="182.3" y="41.8" width="16" height="34.8" id="path-1-outside-1_3160_8987_00000033365405994792761200000001765173537015172759_">			<rect x="-0.6" y="40.8" style="fill:#FFFFFF;filter:url(#Adobe_OpacityMaskFilter_00000147916173791280725900000005722040042968213408_);" width="220" height="37"></rect>	<path d="M0.4,42.2h8c2.7,0,4.7,0.6,5.9,1.9c1.2,1.3,1.9,3.2,1.9,5.9v1.4c0,1.7-0.3,3.2-0.9,4.3c-0.5,1.1-1.4,1.9-2.5,2.4v0.1  c2.6,0.9,3.9,3.3,3.9,7.1v2.9c0,2.6-0.7,4.6-2.1,6c-1.3,1.4-3.3,2-5.9,2H0.4V42.2z M7.7,56c1.1,0,1.8-0.3,2.4-0.8  c0.5-0.5,0.8-1.5,0.8-2.8v-1.9c0-1.2-0.2-2.1-0.7-2.7c-0.4-0.5-1.1-0.8-2-0.8H5.7v9H7.7z M8.7,71.3c0.9,0,1.6-0.2,2.1-0.7  c0.4-0.5,0.7-1.4,0.7-2.6v-3c0-1.5-0.3-2.6-0.8-3.2c-0.5-0.6-1.4-0.9-2.6-0.9H5.7v10.4H8.7z"></path>	<path d="M21,42.2h7.8c2.7,0,4.7,0.6,5.9,1.9c1.2,1.3,1.9,3.2,1.9,5.9v2.1c0,3.5-1.2,5.7-3.5,6.7v0.1c1.3,0.4,2.2,1.2,2.7,2.4  c0.5,1.2,0.8,2.8,0.8,4.8v6c0,1,0,1.8,0.1,2.4c0.1,0.6,0.2,1.2,0.5,1.7h-5.4c-0.2-0.5-0.3-1.1-0.4-1.5c-0.1-0.5-0.1-1.4-0.1-2.6  v-6.2c0-1.5-0.3-2.6-0.8-3.2c-0.5-0.6-1.3-0.9-2.5-0.9h-1.8v14.5H21V42.2z M28.2,56.8c1.1,0,1.8-0.3,2.4-0.8  c0.5-0.5,0.8-1.5,0.8-2.8v-2.6c0-1.2-0.2-2.1-0.7-2.7c-0.4-0.5-1.1-0.8-2-0.8h-2.4v9.7H28.2z"></path>	<path d="M49.1,76.6c-2.6,0-4.6-0.7-5.9-2.2c-1.4-1.5-2.1-3.6-2.1-6.3V50.3c0-2.7,0.7-4.8,2.1-6.3c1.4-1.5,3.4-2.2,5.9-2.2  c2.6,0,4.6,0.7,5.9,2.2c1.4,1.5,2.1,3.6,2.1,6.3v17.8c0,2.7-0.7,4.8-2.1,6.3C53.7,75.9,51.7,76.6,49.1,76.6z M49.1,71.8  c1.8,0,2.7-1.1,2.7-3.3V49.9c0-2.2-0.9-3.3-2.7-3.3c-1.8,0-2.7,1.1-2.7,3.3v18.5C46.4,70.7,47.3,71.8,49.1,71.8z"></path>	<path d="M65.9,47.1h-5.5v-4.8h16.3v4.8h-5.5v29h-5.3V47.1z"></path>	<path d="M80.4,42.2h5.3V56h5.7V42.2h5.3v33.9h-5.3V60.9h-5.7v15.2h-5.3V42.2z"></path>	<path d="M101.8,42.2h14.4v4.8H107v9h7.2v4.8H107v10.4h9.1v4.8h-14.4V42.2z"></path>	<path d="M120.4,42.2h7.8c2.7,0,4.7,0.6,5.9,1.9c1.2,1.3,1.9,3.2,1.9,5.9v2.1c0,3.5-1.2,5.7-3.5,6.7v0.1c1.3,0.4,2.2,1.2,2.7,2.4  c0.5,1.2,0.8,2.8,0.8,4.8v6c0,1,0,1.8,0.1,2.4c0.1,0.6,0.2,1.2,0.5,1.7h-5.4c-0.2-0.5-0.3-1.1-0.4-1.5c-0.1-0.5-0.1-1.4-0.1-2.6  v-6.2c0-1.5-0.3-2.6-0.8-3.2c-0.5-0.6-1.3-0.9-2.5-0.9h-1.8v14.5h-5.3V42.2z M127.6,56.8c1.1,0,1.8-0.3,2.4-0.8  c0.5-0.5,0.8-1.5,0.8-2.8v-2.6c0-1.2-0.2-2.1-0.7-2.7c-0.4-0.5-1.1-0.8-2-0.8h-2.4v9.7H127.6z"></path>	<path d="M140.9,42.2h5.3V56h5.7V42.2h5.3v33.9h-5.3V60.9h-5.7v15.2h-5.3V42.2z"></path>	<path d="M169.9,76.6c-2.6,0-4.6-0.7-5.9-2.2c-1.4-1.5-2.1-3.6-2.1-6.3V50.3c0-2.7,0.7-4.8,2.1-6.3c1.4-1.5,3.4-2.2,5.9-2.2  c2.6,0,4.6,0.7,5.9,2.2c1.4,1.5,2.1,3.6,2.1,6.3v17.8c0,2.7-0.7,4.8-2.1,6.3C174.5,75.9,172.5,76.6,169.9,76.6z M169.9,71.8  c1.8,0,2.7-1.1,2.7-3.3V49.9c0-2.2-0.9-3.3-2.7-3.3c-1.8,0-2.7,1.1-2.7,3.3v18.5C167.2,70.7,168.1,71.8,169.9,71.8z"></path>	<path d="M190.3,76.6c-2.6,0-4.6-0.7-5.9-2.2c-1.4-1.5-2.1-3.6-2.1-6.3V50.3c0-2.7,0.7-4.8,2.1-6.3c1.4-1.5,3.4-2.2,5.9-2.2  c2.6,0,4.6,0.7,5.9,2.2c1.4,1.5,2.1,3.6,2.1,6.3v17.8c0,2.7-0.7,4.8-2.1,6.3C194.9,75.9,192.9,76.6,190.3,76.6z M190.3,71.8  c1.8,0,2.7-1.1,2.7-3.3V49.9c0-2.2-0.9-3.3-2.7-3.3s-2.7,1.1-2.7,3.3v18.5C187.6,70.7,188.5,71.8,190.3,71.8z"></path>	<path d="M203.1,42.2h8.1c2.6,0,4.6,0.7,5.9,2.1c1.3,1.4,2,3.5,2,6.2v17.1c0,2.7-0.7,4.8-2,6.2c-1.3,1.4-3.3,2.1-5.9,2.1h-8.1V42.2z   M211,71.3c0.9,0,1.5-0.3,2-0.8c0.5-0.5,0.7-1.4,0.7-2.5V50.4c0-1.2-0.2-2-0.7-2.5c-0.4-0.5-1.1-0.8-2-0.8h-2.7v24.2H211z"></path></mask><path class="st20" d="M190.3,76.6c-2.6,0-4.6-0.7-5.9-2.2c-1.4-1.5-2.1-3.6-2.1-6.3V50.3c0-2.7,0.7-4.8,2.1-6.3 c1.4-1.5,3.4-2.2,5.9-2.2c2.6,0,4.6,0.7,5.9,2.2c1.4,1.5,2.1,3.6,2.1,6.3v17.8c0,2.7-0.7,4.8-2.1,6.3 C194.9,75.9,192.9,76.6,190.3,76.6z M190.3,71.8c1.8,0,2.7-1.1,2.7-3.3V49.9c0-2.2-0.9-3.3-2.7-3.3s-2.7,1.1-2.7,3.3v18.5 C187.6,70.7,188.5,71.8,190.3,71.8z"></path><defs>			<filter id="Adobe_OpacityMaskFilter_00000145044514220577836980000008279475174689073062_" filterUnits="userSpaceOnUse" x="203.1" y="42.2" width="15.9" height="33.9">			</filter></defs><mask maskUnits="userSpaceOnUse" x="203.1" y="42.2" width="15.9" height="33.9" id="path-1-outside-1_3160_8987_00000058578417029428647520000002261407397923397016_">			<rect x="-0.6" y="40.8" style="fill:#FFFFFF;filter:url(#Adobe_OpacityMaskFilter_00000145044514220577836980000008279475174689073062_);" width="220" height="37"></rect>	<path d="M0.4,42.2h8c2.7,0,4.7,0.6,5.9,1.9c1.2,1.3,1.9,3.2,1.9,5.9v1.4c0,1.7-0.3,3.2-0.9,4.3c-0.5,1.1-1.4,1.9-2.5,2.4v0.1  c2.6,0.9,3.9,3.3,3.9,7.1v2.9c0,2.6-0.7,4.6-2.1,6c-1.3,1.4-3.3,2-5.9,2H0.4V42.2z M7.7,56c1.1,0,1.8-0.3,2.4-0.8  c0.5-0.5,0.8-1.5,0.8-2.8v-1.9c0-1.2-0.2-2.1-0.7-2.7c-0.4-0.5-1.1-0.8-2-0.8H5.7v9H7.7z M8.7,71.3c0.9,0,1.6-0.2,2.1-0.7  c0.4-0.5,0.7-1.4,0.7-2.6v-3c0-1.5-0.3-2.6-0.8-3.2c-0.5-0.6-1.4-0.9-2.6-0.9H5.7v10.4H8.7z"></path>	<path d="M21,42.2h7.8c2.7,0,4.7,0.6,5.9,1.9c1.2,1.3,1.9,3.2,1.9,5.9v2.1c0,3.5-1.2,5.7-3.5,6.7v0.1c1.3,0.4,2.2,1.2,2.7,2.4  c0.5,1.2,0.8,2.8,0.8,4.8v6c0,1,0,1.8,0.1,2.4c0.1,0.6,0.2,1.2,0.5,1.7h-5.4c-0.2-0.5-0.3-1.1-0.4-1.5c-0.1-0.5-0.1-1.4-0.1-2.6  v-6.2c0-1.5-0.3-2.6-0.8-3.2c-0.5-0.6-1.3-0.9-2.5-0.9h-1.8v14.5H21V42.2z M28.2,56.8c1.1,0,1.8-0.3,2.4-0.8  c0.5-0.5,0.8-1.5,0.8-2.8v-2.6c0-1.2-0.2-2.1-0.7-2.7c-0.4-0.5-1.1-0.8-2-0.8h-2.4v9.7H28.2z"></path>	<path d="M49.1,76.6c-2.6,0-4.6-0.7-5.9-2.2c-1.4-1.5-2.1-3.6-2.1-6.3V50.3c0-2.7,0.7-4.8,2.1-6.3c1.4-1.5,3.4-2.2,5.9-2.2  c2.6,0,4.6,0.7,5.9,2.2c1.4,1.5,2.1,3.6,2.1,6.3v17.8c0,2.7-0.7,4.8-2.1,6.3C53.7,75.9,51.7,76.6,49.1,76.6z M49.1,71.8  c1.8,0,2.7-1.1,2.7-3.3V49.9c0-2.2-0.9-3.3-2.7-3.3c-1.8,0-2.7,1.1-2.7,3.3v18.5C46.4,70.7,47.3,71.8,49.1,71.8z"></path>	<path d="M65.9,47.1h-5.5v-4.8h16.3v4.8h-5.5v29h-5.3V47.1z"></path>	<path d="M80.4,42.2h5.3V56h5.7V42.2h5.3v33.9h-5.3V60.9h-5.7v15.2h-5.3V42.2z"></path>	<path d="M101.8,42.2h14.4v4.8H107v9h7.2v4.8H107v10.4h9.1v4.8h-14.4V42.2z"></path>	<path d="M120.4,42.2h7.8c2.7,0,4.7,0.6,5.9,1.9c1.2,1.3,1.9,3.2,1.9,5.9v2.1c0,3.5-1.2,5.7-3.5,6.7v0.1c1.3,0.4,2.2,1.2,2.7,2.4  c0.5,1.2,0.8,2.8,0.8,4.8v6c0,1,0,1.8,0.1,2.4c0.1,0.6,0.2,1.2,0.5,1.7h-5.4c-0.2-0.5-0.3-1.1-0.4-1.5c-0.1-0.5-0.1-1.4-0.1-2.6  v-6.2c0-1.5-0.3-2.6-0.8-3.2c-0.5-0.6-1.3-0.9-2.5-0.9h-1.8v14.5h-5.3V42.2z M127.6,56.8c1.1,0,1.8-0.3,2.4-0.8  c0.5-0.5,0.8-1.5,0.8-2.8v-2.6c0-1.2-0.2-2.1-0.7-2.7c-0.4-0.5-1.1-0.8-2-0.8h-2.4v9.7H127.6z"></path>	<path d="M140.9,42.2h5.3V56h5.7V42.2h5.3v33.9h-5.3V60.9h-5.7v15.2h-5.3V42.2z"></path>	<path d="M169.9,76.6c-2.6,0-4.6-0.7-5.9-2.2c-1.4-1.5-2.1-3.6-2.1-6.3V50.3c0-2.7,0.7-4.8,2.1-6.3c1.4-1.5,3.4-2.2,5.9-2.2  c2.6,0,4.6,0.7,5.9,2.2c1.4,1.5,2.1,3.6,2.1,6.3v17.8c0,2.7-0.7,4.8-2.1,6.3C174.5,75.9,172.5,76.6,169.9,76.6z M169.9,71.8  c1.8,0,2.7-1.1,2.7-3.3V49.9c0-2.2-0.9-3.3-2.7-3.3c-1.8,0-2.7,1.1-2.7,3.3v18.5C167.2,70.7,168.1,71.8,169.9,71.8z"></path>	<path d="M190.3,76.6c-2.6,0-4.6-0.7-5.9-2.2c-1.4-1.5-2.1-3.6-2.1-6.3V50.3c0-2.7,0.7-4.8,2.1-6.3c1.4-1.5,3.4-2.2,5.9-2.2  c2.6,0,4.6,0.7,5.9,2.2c1.4,1.5,2.1,3.6,2.1,6.3v17.8c0,2.7-0.7,4.8-2.1,6.3C194.9,75.9,192.9,76.6,190.3,76.6z M190.3,71.8  c1.8,0,2.7-1.1,2.7-3.3V49.9c0-2.2-0.9-3.3-2.7-3.3s-2.7,1.1-2.7,3.3v18.5C187.6,70.7,188.5,71.8,190.3,71.8z"></path>	<path d="M203.1,42.2h8.1c2.6,0,4.6,0.7,5.9,2.1c1.3,1.4,2,3.5,2,6.2v17.1c0,2.7-0.7,4.8-2,6.2c-1.3,1.4-3.3,2.1-5.9,2.1h-8.1V42.2z   M211,71.3c0.9,0,1.5-0.3,2-0.8c0.5-0.5,0.7-1.4,0.7-2.5V50.4c0-1.2-0.2-2-0.7-2.5c-0.4-0.5-1.1-0.8-2-0.8h-2.7v24.2H211z"></path></mask><path class="st22" d="M203.1,42.2h8.1c2.6,0,4.6,0.7,5.9,2.1c1.3,1.4,2,3.5,2,6.2v17.1c0,2.7-0.7,4.8-2,6.2 c-1.3,1.4-3.3,2.1-5.9,2.1h-8.1V42.2z M211,71.3c0.9,0,1.5-0.3,2-0.8c0.5-0.5,0.7-1.4,0.7-2.5V50.4c0-1.2-0.2-2-0.7-2.5 c-0.4-0.5-1.1-0.8-2-0.8h-2.7v24.2H211z"></path><g>	<path class="st0" d="M8.8,34.8c-2.6,0-4.5-0.7-5.8-2.2c-1.3-1.5-2-3.6-2-6.3v-1.9h5v2.3C6,28.9,6.9,30,8.7,30c0.9,0,1.6-0.3,2-0.8  c0.5-0.5,0.7-1.4,0.7-2.6c0-1.4-0.3-2.7-1-3.7c-0.6-1.1-1.8-2.4-3.5-3.9c-2.2-1.9-3.7-3.7-4.6-5.2c-0.9-1.6-1.3-3.4-1.3-5.3  c0-2.7,0.7-4.7,2-6.2C4.5,0.7,6.4,0,9,0c2.5,0,4.4,0.7,5.7,2.2c1.3,1.5,2,3.5,2,6.3v1.4h-5V8.2c0-1.2-0.2-2-0.7-2.5  c-0.4-0.5-1.1-0.8-2-0.8c-1.8,0-2.6,1.1-2.6,3.2c0,1.2,0.3,2.4,1,3.4c0.7,1.1,1.9,2.4,3.6,3.9c2.2,1.9,3.7,3.7,4.6,5.3  c0.8,1.6,1.2,3.4,1.2,5.6c0,2.8-0.7,4.9-2.1,6.4C13.3,34.1,11.4,34.8,8.8,34.8z"></path>	<path class="st0" d="M21,0.5h5.3v33.9H21V0.5z"></path>	<path class="st0" d="M38.2,34.8c-2.6,0-4.5-0.7-5.8-2.2c-1.3-1.5-2-3.6-2-6.3v-1.9h5v2.3c0,2.2,0.9,3.3,2.7,3.3  c0.9,0,1.6-0.3,2-0.8c0.5-0.5,0.7-1.4,0.7-2.6c0-1.4-0.3-2.7-1-3.7c-0.6-1.1-1.8-2.4-3.5-3.9c-2.2-1.9-3.7-3.7-4.6-5.2  c-0.9-1.6-1.3-3.4-1.3-5.3c0-2.7,0.7-4.7,2-6.2C33.9,0.7,35.9,0,38.4,0c2.5,0,4.4,0.7,5.7,2.2c1.3,1.5,2,3.5,2,6.3v1.4h-5V8.2  c0-1.2-0.2-2-0.7-2.5c-0.4-0.5-1.1-0.8-2-0.8c-1.8,0-2.6,1.1-2.6,3.2c0,1.2,0.3,2.4,1,3.4c0.7,1.1,1.9,2.4,3.6,3.9  c2.2,1.9,3.7,3.7,4.6,5.3c0.8,1.6,1.2,3.4,1.2,5.6c0,2.8-0.7,4.9-2.1,6.4C42.8,34.1,40.8,34.8,38.2,34.8z"></path>	<path class="st0" d="M54.6,5.3H49V0.5h16.3v4.8h-5.5v29h-5.3V5.3z"></path>	<path class="st0" d="M69.1,0.5h14.4v4.8h-9.1v9h7.2v4.8h-7.2v10.4h9.1v4.8H69.1V0.5z"></path>	<path class="st0" d="M87.7,0.5h7.8c2.7,0,4.7,0.6,5.9,1.9c1.2,1.3,1.9,3.2,1.9,5.9v2.1c0,3.5-1.2,5.7-3.5,6.7v0.1  c1.3,0.4,2.2,1.2,2.7,2.4c0.5,1.2,0.8,2.8,0.8,4.8v6c0,1,0,1.8,0.1,2.4c0.1,0.6,0.2,1.2,0.5,1.7h-5.4c-0.2-0.5-0.3-1.1-0.4-1.5  c-0.1-0.5-0.1-1.4-0.1-2.6V24c0-1.5-0.3-2.6-0.8-3.2c-0.5-0.6-1.3-0.9-2.5-0.9H93v14.5h-5.3V0.5z M94.9,15c1.1,0,1.8-0.3,2.4-0.8  c0.5-0.5,0.8-1.5,0.8-2.8V8.8c0-1.2-0.2-2.1-0.7-2.7c-0.4-0.5-1.1-0.8-2-0.8H93V15H94.9z"></path>	<path class="st0" d="M115.1,34.8c-2.6,0-4.5-0.7-5.8-2.2c-1.3-1.5-2-3.6-2-6.3v-1.9h5v2.3c0,2.2,0.9,3.3,2.7,3.3  c0.9,0,1.6-0.3,2-0.8c0.5-0.5,0.7-1.4,0.7-2.6c0-1.4-0.3-2.7-1-3.7c-0.6-1.1-1.8-2.4-3.5-3.9c-2.2-1.9-3.7-3.7-4.6-5.2  c-0.9-1.6-1.3-3.4-1.3-5.3c0-2.7,0.7-4.7,2-6.2c1.3-1.5,3.3-2.2,5.9-2.2c2.5,0,4.4,0.7,5.7,2.2c1.3,1.5,2,3.5,2,6.3v1.4h-5V8.2  c0-1.2-0.2-2-0.7-2.5c-0.4-0.5-1.1-0.8-2-0.8c-1.8,0-2.6,1.1-2.6,3.2c0,1.2,0.3,2.4,1,3.4c0.7,1.1,1.9,2.4,3.6,3.9  c2.2,1.9,3.7,3.7,4.6,5.3c0.8,1.6,1.2,3.4,1.2,5.6c0,2.8-0.7,4.9-2.1,6.4C119.7,34.1,117.7,34.8,115.1,34.8z"></path>	<path class="st0" d="M135.5,11.8h3.5v22.6h-3.5V11.8z"></path>	<path class="st0" d="M142.5,11.8h4.4l3.4,13.5h0.1V11.8h3.1v22.6h-3.6l-4.2-16.5h-0.1v16.5h-3.1V11.8z"></path>	<path class="st0" d="M165.6,15h-3.7v-3.2h10.9V15h-3.7v19.4h-3.5V15z"></path>	<path class="st0" d="M175.3,11.8h3.5V21h3.8v-9.2h3.5v22.6h-3.5V24.2h-3.8v10.2h-3.5V11.8z"></path>	<path class="st0" d="M189.5,11.8h9.6V15h-6.1v6h4.8v3.2h-4.8v6.9h6.1v3.2h-9.6V11.8z"></path></g></svg>