<svg width="56" height="53" viewBox="0 0 56 53" fill="none" xmlns="http://www.w3.org/2000/svg">
<g clip-path="url(#clip0_3436_31637)">
<path d="M26.3067 51.2496C10.6669 29.9116 7.76392 27.7216 7.76392 19.8796C7.76392 9.13767 17.0167 0.429688 28.4307 0.429688C39.8446 0.429688 49.0974 9.13767 49.0974 19.8796C49.0974 27.7216 46.1944 29.9116 30.5546 51.2496C29.5283 52.645 27.333 52.6448 26.3067 51.2496ZM28.4307 27.9837C33.1865 27.9837 37.0418 24.3554 37.0418 19.8796C37.0418 15.4038 33.1865 11.7755 28.4307 11.7755C23.6748 11.7755 19.8195 15.4038 19.8195 19.8796C19.8195 24.3554 23.6748 27.9837 28.4307 27.9837Z" fill="#FEB913"/>
<path d="M37.0418 19.8815C37.0418 24.3573 33.1865 27.9856 28.4307 27.9856C23.6748 27.9856 19.8195 24.3573 19.8195 19.8815C19.8195 15.4057 23.6748 11.7773 28.4307 11.7773C33.1865 11.7773 37.0418 15.4057 37.0418 19.8815Z" fill="#00234F"/>
</g>
<defs>
<clipPath id="clip0_3436_31637">
<rect width="55.1113" height="51.8664" fill="white" transform="translate(0.875 0.429688)"/>
</clipPath>
</defs>
</svg>
