<svg xmlns="http://www.w3.org/2000/svg" width="18" height="24" viewBox="0 0 18 24" fill="none"><path d="M17.3391 4.41L13.4062 0.6345C12.9844 0.2295 12.4125 0 11.8172 0H2.25C1.00781 0.0045 0 0.972 0 2.1645V20.8845C0 22.077 1.00781 23.0445 2.25 23.0445H15.75C16.9922 23.0445 18 22.077 18 20.8845V5.94C18 5.3685 17.7609 4.815 17.3391 4.41ZM15.5672 5.7645H12V2.34L15.5672 5.7645ZM2.25 20.8845V2.1645H9.75V6.8445C9.75 7.443 10.2516 7.9245 10.875 7.9245H15.75V20.8845H2.25ZM13.9781 14.418C13.4063 13.878 11.775 14.0265 10.9594 14.1255C10.1531 13.653 9.61406 13.0005 9.23438 12.042C9.41719 11.3175 9.70781 10.215 9.4875 9.522C9.29062 8.343 7.71563 8.46 7.49063 9.2565C7.28438 9.981 7.47188 10.989 7.81875 12.276C7.35 13.3515 6.65156 14.796 6.15937 15.624C5.22187 16.0875 3.95625 16.803 3.76875 17.703C3.61406 18.414 4.9875 20.187 7.33594 16.299C8.38594 15.966 9.52969 15.5565 10.5422 15.3945C11.4281 15.8535 12.4641 16.1595 13.1578 16.1595C14.3531 16.1595 14.4703 14.8905 13.9781 14.418ZM4.69219 17.919C4.93125 17.3025 5.84062 16.5915 6.11719 16.344C5.22656 17.7075 4.69219 17.9505 4.69219 17.919ZM8.51719 9.342C8.86406 9.342 8.83125 10.7865 8.60156 11.178C8.39531 10.5525 8.4 9.342 8.51719 9.342ZM7.37344 15.489C7.82812 14.7285 8.21719 13.824 8.53125 13.0275C8.92031 13.707 9.41719 14.2515 9.94219 14.625C8.96719 14.8185 8.11875 15.2145 7.37344 15.489ZM13.5422 15.264C13.5422 15.264 13.3078 15.534 11.7938 14.913C13.4391 14.796 13.7109 15.156 13.5422 15.264Z" fill="#FEB913"></path></svg>