<svg xmlns="http://www.w3.org/2000/svg" xmlns:xlink="http://www.w3.org/1999/xlink" id="Layer_1" x="0px" y="0px" width="38px" height="36px" viewBox="0 0 38 36" style="enable-background:new 0 0 38 36;" xml:space="preserve"><style type="text/css">	.st0{fill:#FFFFFF;}</style><g>	<path class="st0" d="M35,35.9L22.4,24.1c-2.3,1.7-5.1,2.7-8.1,2.7C6.9,26.8,1,20.9,1,13.6s6-13.2,13.3-13.2s13.3,5.9,13.3,13.2  c0,3.1-1.1,6.1-3.1,8.4L37,33.7L35,35.9z M14.3,3.5C8.6,3.5,4,8,4,13.6s4.6,10.2,10.3,10.2c2.7,0,5.2-1,7.1-2.8c0,0,0,0,0,0  c2.1-1.9,3.2-4.6,3.2-7.4C24.6,8,20,3.5,14.3,3.5z"></path></g></svg>