<svg xmlns="http://www.w3.org/2000/svg" xmlns:xlink="http://www.w3.org/1999/xlink" id="Layer_1" x="0px" y="0px" width="45px" height="45px" viewBox="0 0 45 45" style="enable-background:new 0 0 45 45;" xml:space="preserve"><style type="text/css">	.st0{fill:#FEB913;stroke:#FEB913;stroke-width:4;}	.st1{fill:#001838;stroke:#001838;}</style><path class="st0" d="M22.5,2L22.5,2C33.8,2,43,11.2,43,22.5l0,0C43,33.8,33.8,43,22.5,43l0,0C11.2,43,2,33.8,2,22.5l0,0 C2,11.2,11.2,2,22.5,2z"></path><path class="st1" d="M18.8,29.7L18.8,29.7L18.8,29.7c0.3,0.2,0.6,0.3,0.9,0.3c0.3,0,0.6-0.1,0.9-0.3l0,0l0,0L33.2,17 c0.5-0.5,0.5-1.2,0-1.7c-0.5-0.5-1.3-0.5-1.7,0l0,0l0,0L19.7,27.2L13.5,21l0,0l0,0c-0.5-0.5-1.3-0.5-1.7,0c-0.5,0.5-0.5,1.2,0,1.7 L18.8,29.7z"></path></svg>