<svg xmlns="http://www.w3.org/2000/svg" width="520" height="619" viewBox="0 0 520 619" fill="none"><rect width="489" height="619" fill="white"></rect><rect x="102" y="89" width="41" height="41" rx="20.5" fill="#FEB913" stroke="#FEB913" stroke-width="4"></rect><path d="M118.754 116.907L118.754 116.907L118.763 116.916C119.015 117.154 119.323 117.256 119.634 117.256C119.949 117.256 120.245 117.152 120.501 116.933L120.516 116.921L120.53 116.907L133.245 104.192C133.743 103.714 133.741 102.95 133.239 102.473C132.75 102.009 131.987 102.009 131.498 102.473L131.498 102.473L131.488 102.483L119.65 114.347L113.503 108.201L113.503 108.201L113.494 108.192C113.005 107.727 112.242 107.727 111.753 108.192C111.251 108.668 111.249 109.433 111.748 109.911L118.754 116.907Z" fill="#001838" stroke="#001838"></path><path d="M183.422 100.938H186.27V112.785C186.27 114.09 186.023 115.141 185.531 115.938C185.047 116.734 184.391 117.316 183.562 117.684C182.742 118.051 181.828 118.234 180.82 118.234C179.773 118.234 178.84 118.051 178.02 117.684C177.199 117.316 176.555 116.734 176.086 115.938C175.617 115.141 175.383 114.09 175.383 112.785V100.938H178.219V112.785C178.219 113.598 178.32 114.227 178.523 114.672C178.734 115.117 179.031 115.426 179.414 115.598C179.805 115.77 180.273 115.855 180.82 115.855C181.367 115.855 181.832 115.77 182.215 115.598C182.605 115.426 182.902 115.117 183.105 114.672C183.316 114.227 183.422 113.598 183.422 112.785V100.938ZM191.684 108.027V118H188.953V105.32H191.52L191.684 108.027ZM191.191 111.203H190.324C190.316 110.289 190.414 109.457 190.617 108.707C190.82 107.957 191.109 107.312 191.484 106.773C191.867 106.234 192.32 105.82 192.844 105.531C193.375 105.234 193.965 105.086 194.613 105.086C195.113 105.086 195.57 105.172 195.984 105.344C196.406 105.508 196.766 105.777 197.062 106.152C197.359 106.527 197.586 107.016 197.742 107.617C197.906 108.219 197.988 108.953 197.988 109.82V118H195.258V109.797C195.258 109.203 195.191 108.734 195.059 108.391C194.934 108.039 194.746 107.789 194.496 107.641C194.246 107.484 193.93 107.406 193.547 107.406C193.195 107.406 192.871 107.508 192.574 107.711C192.285 107.906 192.035 108.18 191.824 108.531C191.621 108.875 191.465 109.277 191.355 109.738C191.246 110.191 191.191 110.68 191.191 111.203ZM203.473 107.898V118H200.742V105.32H203.309L203.473 107.898ZM203.027 111.203H202.102C202.086 110.32 202.164 109.508 202.336 108.766C202.516 108.023 202.781 107.375 203.133 106.82C203.492 106.266 203.941 105.84 204.48 105.543C205.02 105.238 205.652 105.086 206.379 105.086C206.848 105.086 207.281 105.172 207.68 105.344C208.086 105.508 208.438 105.77 208.734 106.129C209.039 106.488 209.273 106.949 209.438 107.512C209.602 108.074 209.684 108.754 209.684 109.551V118H206.953V109.809C206.953 109.199 206.883 108.723 206.742 108.379C206.609 108.027 206.414 107.777 206.156 107.629C205.898 107.48 205.586 107.406 205.219 107.406C204.82 107.406 204.48 107.508 204.199 107.711C203.918 107.906 203.691 108.18 203.52 108.531C203.348 108.875 203.223 109.277 203.145 109.738C203.066 110.191 203.027 110.68 203.027 111.203ZM209.508 110.477L208.23 110.77C208.215 109.996 208.293 109.27 208.465 108.59C208.637 107.902 208.895 107.297 209.238 106.773C209.59 106.25 210.027 105.84 210.551 105.543C211.082 105.238 211.695 105.086 212.391 105.086C212.93 105.086 213.414 105.176 213.844 105.355C214.281 105.527 214.652 105.801 214.957 106.176C215.262 106.551 215.492 107.039 215.648 107.641C215.812 108.234 215.895 108.957 215.895 109.809V118H213.152V109.797C213.152 109.164 213.082 108.676 212.941 108.332C212.809 107.988 212.613 107.75 212.355 107.617C212.098 107.477 211.789 107.406 211.43 107.406C211.117 107.406 210.84 107.488 210.598 107.652C210.363 107.809 210.164 108.027 210 108.309C209.836 108.59 209.711 108.918 209.625 109.293C209.547 109.66 209.508 110.055 209.508 110.477ZM224.543 115.422V109.105C224.543 108.668 224.48 108.316 224.355 108.051C224.238 107.785 224.062 107.594 223.828 107.477C223.602 107.352 223.316 107.289 222.973 107.289C222.613 107.289 222.309 107.363 222.059 107.512C221.816 107.66 221.633 107.863 221.508 108.121C221.383 108.371 221.32 108.66 221.32 108.988H218.59C218.59 108.48 218.691 107.992 218.895 107.523C219.105 107.055 219.406 106.637 219.797 106.27C220.188 105.902 220.66 105.613 221.215 105.402C221.77 105.191 222.387 105.086 223.066 105.086C223.879 105.086 224.602 105.223 225.234 105.496C225.867 105.762 226.363 106.195 226.723 106.797C227.09 107.391 227.273 108.172 227.273 109.141V115.059C227.273 115.645 227.309 116.168 227.379 116.629C227.457 117.082 227.562 117.477 227.695 117.812V118H224.918C224.793 117.695 224.699 117.305 224.637 116.828C224.574 116.352 224.543 115.883 224.543 115.422ZM224.906 110.277L224.918 112.047H223.605C223.215 112.047 222.863 112.102 222.551 112.211C222.238 112.312 221.973 112.461 221.754 112.656C221.543 112.844 221.379 113.074 221.262 113.348C221.152 113.621 221.098 113.922 221.098 114.25C221.098 114.648 221.152 114.973 221.262 115.223C221.379 115.473 221.547 115.66 221.766 115.785C221.992 115.902 222.266 115.961 222.586 115.961C223.023 115.961 223.402 115.867 223.723 115.68C224.051 115.484 224.301 115.25 224.473 114.977C224.652 114.703 224.723 114.453 224.684 114.227L225.305 115.363C225.242 115.66 225.125 115.973 224.953 116.301C224.789 116.629 224.574 116.941 224.309 117.238C224.043 117.535 223.723 117.777 223.348 117.965C222.973 118.145 222.539 118.234 222.047 118.234C221.336 118.234 220.703 118.086 220.148 117.789C219.594 117.492 219.156 117.066 218.836 116.512C218.523 115.949 218.367 115.277 218.367 114.496C218.367 113.863 218.473 113.289 218.684 112.773C218.895 112.258 219.207 111.816 219.621 111.449C220.035 111.074 220.555 110.785 221.18 110.582C221.812 110.379 222.551 110.277 223.395 110.277H224.906ZM235.195 105.32V107.43H228.973V105.32H235.195ZM230.672 102.215H233.391V114.461C233.391 114.852 233.434 115.148 233.52 115.352C233.605 115.555 233.727 115.691 233.883 115.762C234.039 115.832 234.223 115.867 234.434 115.867C234.59 115.867 234.742 115.855 234.891 115.832C235.047 115.801 235.16 115.773 235.23 115.75V117.953C235.027 118.031 234.793 118.098 234.527 118.152C234.262 118.207 233.941 118.234 233.566 118.234C233.012 118.234 232.516 118.121 232.078 117.895C231.641 117.66 231.297 117.281 231.047 116.758C230.797 116.227 230.672 115.523 230.672 114.648V102.215ZM241.816 115.949C242.168 115.949 242.48 115.875 242.754 115.727C243.035 115.578 243.258 115.348 243.422 115.035C243.586 114.715 243.676 114.301 243.691 113.793H246.258C246.242 114.691 246.035 115.477 245.637 116.148C245.238 116.812 244.707 117.328 244.043 117.695C243.387 118.055 242.656 118.234 241.852 118.234C241.016 118.234 240.285 118.102 239.66 117.836C239.043 117.562 238.531 117.168 238.125 116.652C237.719 116.137 237.414 115.512 237.211 114.777C237.016 114.035 236.918 113.188 236.918 112.234V111.086C236.918 110.141 237.016 109.297 237.211 108.555C237.414 107.812 237.719 107.184 238.125 106.668C238.531 106.152 239.043 105.762 239.66 105.496C240.277 105.223 241.004 105.086 241.84 105.086C242.73 105.086 243.5 105.273 244.148 105.648C244.805 106.016 245.316 106.555 245.684 107.266C246.051 107.977 246.242 108.848 246.258 109.879H243.691C243.676 109.332 243.594 108.875 243.445 108.508C243.297 108.133 243.086 107.852 242.812 107.664C242.547 107.477 242.211 107.383 241.805 107.383C241.359 107.383 240.992 107.469 240.703 107.641C240.422 107.805 240.203 108.047 240.047 108.367C239.898 108.688 239.793 109.078 239.73 109.539C239.676 109.992 239.648 110.508 239.648 111.086V112.234C239.648 112.828 239.676 113.355 239.73 113.816C239.785 114.27 239.887 114.656 240.035 114.977C240.191 115.297 240.414 115.539 240.703 115.703C240.992 115.867 241.363 115.949 241.816 115.949ZM251.062 100V118H248.344V100H251.062ZM250.582 111.203H249.715C249.707 110.32 249.801 109.508 249.996 108.766C250.191 108.023 250.473 107.375 250.84 106.82C251.207 106.266 251.648 105.84 252.164 105.543C252.688 105.238 253.266 105.086 253.898 105.086C254.422 105.086 254.895 105.176 255.316 105.355C255.746 105.527 256.113 105.801 256.418 106.176C256.73 106.551 256.969 107.043 257.133 107.652C257.297 108.254 257.379 108.988 257.379 109.855V118H254.648V109.832C254.648 109.23 254.582 108.754 254.449 108.402C254.324 108.051 254.137 107.797 253.887 107.641C253.637 107.484 253.32 107.406 252.938 107.406C252.562 107.406 252.227 107.508 251.93 107.711C251.633 107.906 251.383 108.18 251.18 108.531C250.984 108.875 250.836 109.277 250.734 109.738C250.633 110.191 250.582 110.68 250.582 111.203ZM264.949 118.234C264.129 118.234 263.398 118.113 262.758 117.871C262.117 117.621 261.574 117.254 261.129 116.77C260.684 116.277 260.344 115.676 260.109 114.965C259.875 114.246 259.758 113.414 259.758 112.469V111.25C259.758 110.18 259.879 109.258 260.121 108.484C260.371 107.703 260.715 107.062 261.152 106.562C261.59 106.062 262.105 105.691 262.699 105.449C263.301 105.207 263.953 105.086 264.656 105.086C265.453 105.086 266.145 105.215 266.73 105.473C267.316 105.73 267.797 106.117 268.172 106.633C268.555 107.148 268.836 107.785 269.016 108.543C269.203 109.301 269.297 110.172 269.297 111.156V112.527H261.07V110.465H266.602V110.172C266.586 109.594 266.516 109.098 266.391 108.684C266.266 108.262 266.062 107.941 265.781 107.723C265.508 107.496 265.129 107.383 264.645 107.383C264.293 107.383 263.98 107.449 263.707 107.582C263.434 107.715 263.207 107.93 263.027 108.227C262.855 108.523 262.723 108.922 262.629 109.422C262.535 109.914 262.488 110.523 262.488 111.25V112.469C262.488 113.102 262.543 113.637 262.652 114.074C262.77 114.512 262.941 114.871 263.168 115.152C263.395 115.426 263.668 115.629 263.988 115.762C264.316 115.887 264.695 115.949 265.125 115.949C265.758 115.949 266.301 115.832 266.754 115.598C267.215 115.355 267.613 115.043 267.949 114.66L269.156 116.336C268.93 116.641 268.625 116.941 268.242 117.238C267.859 117.527 267.395 117.766 266.848 117.953C266.309 118.141 265.676 118.234 264.949 118.234ZM277.863 115.352V100H280.594V118L278.121 118.012L277.863 115.352ZM271.055 112.176V111.18C271.055 110.141 271.148 109.242 271.336 108.484C271.523 107.719 271.797 107.082 272.156 106.574C272.523 106.066 272.965 105.691 273.48 105.449C273.996 105.207 274.578 105.086 275.227 105.086C275.859 105.086 276.406 105.23 276.867 105.52C277.328 105.801 277.719 106.203 278.039 106.727C278.359 107.25 278.613 107.875 278.801 108.602C278.996 109.32 279.129 110.125 279.199 111.016V112.398C279.113 113.258 278.977 114.047 278.789 114.766C278.602 115.477 278.348 116.09 278.027 116.605C277.707 117.121 277.312 117.523 276.844 117.812C276.383 118.094 275.84 118.234 275.215 118.234C274.566 118.234 273.984 118.105 273.469 117.848C272.961 117.59 272.523 117.207 272.156 116.699C271.797 116.191 271.523 115.562 271.336 114.812C271.148 114.055 271.055 113.176 271.055 112.176ZM273.785 111.18V112.176C273.785 112.824 273.824 113.383 273.902 113.852C273.98 114.32 274.105 114.707 274.277 115.012C274.449 115.309 274.676 115.531 274.957 115.68C275.238 115.82 275.578 115.891 275.977 115.891C276.477 115.891 276.883 115.766 277.195 115.516C277.516 115.266 277.762 114.93 277.934 114.508C278.113 114.078 278.238 113.602 278.309 113.078V110.348C278.27 109.934 278.191 109.551 278.074 109.199C277.957 108.84 277.805 108.527 277.617 108.262C277.43 107.996 277.199 107.789 276.926 107.641C276.66 107.484 276.348 107.406 275.988 107.406C275.59 107.406 275.25 107.484 274.969 107.641C274.688 107.789 274.461 108.02 274.289 108.332C274.117 108.637 273.988 109.027 273.902 109.504C273.824 109.973 273.785 110.531 273.785 111.18ZM296.484 113.594C296.484 113.242 296.445 112.93 296.367 112.656C296.297 112.375 296.16 112.121 295.957 111.895C295.754 111.668 295.465 111.445 295.09 111.227C294.723 111.008 294.246 110.785 293.66 110.559C292.988 110.301 292.359 110.02 291.773 109.715C291.195 109.402 290.684 109.051 290.238 108.66C289.801 108.262 289.457 107.797 289.207 107.266C288.957 106.734 288.832 106.117 288.832 105.414C288.832 104.719 288.953 104.086 289.195 103.516C289.445 102.938 289.797 102.441 290.25 102.027C290.711 101.605 291.258 101.281 291.891 101.055C292.523 100.82 293.223 100.703 293.988 100.703C295.09 100.703 296.031 100.938 296.812 101.406C297.602 101.875 298.203 102.504 298.617 103.293C299.039 104.082 299.25 104.957 299.25 105.918H296.414C296.414 105.363 296.328 104.871 296.156 104.441C295.984 104.012 295.719 103.676 295.359 103.434C295 103.191 294.535 103.07 293.965 103.07C293.441 103.07 293.008 103.172 292.664 103.375C292.328 103.578 292.078 103.855 291.914 104.207C291.758 104.559 291.68 104.961 291.68 105.414C291.68 105.727 291.746 106.012 291.879 106.27C292.012 106.52 292.203 106.75 292.453 106.961C292.703 107.172 293.008 107.371 293.367 107.559C293.727 107.746 294.141 107.926 294.609 108.098C295.406 108.387 296.102 108.707 296.695 109.059C297.289 109.41 297.777 109.805 298.16 110.242C298.551 110.672 298.84 111.16 299.027 111.707C299.223 112.254 299.32 112.875 299.32 113.57C299.32 114.273 299.199 114.914 298.957 115.492C298.723 116.062 298.379 116.551 297.926 116.957C297.473 117.363 296.926 117.68 296.285 117.906C295.645 118.125 294.926 118.234 294.129 118.234C293.395 118.234 292.688 118.125 292.008 117.906C291.336 117.688 290.734 117.355 290.203 116.91C289.672 116.457 289.25 115.891 288.938 115.211C288.633 114.531 288.48 113.734 288.48 112.82H291.328C291.328 113.367 291.395 113.836 291.527 114.227C291.66 114.609 291.852 114.926 292.102 115.176C292.359 115.418 292.66 115.598 293.004 115.715C293.355 115.824 293.746 115.879 294.176 115.879C294.707 115.879 295.141 115.785 295.477 115.598C295.82 115.402 296.074 115.133 296.238 114.789C296.402 114.445 296.484 114.047 296.484 113.594ZM307.535 115.422V109.105C307.535 108.668 307.473 108.316 307.348 108.051C307.23 107.785 307.055 107.594 306.82 107.477C306.594 107.352 306.309 107.289 305.965 107.289C305.605 107.289 305.301 107.363 305.051 107.512C304.809 107.66 304.625 107.863 304.5 108.121C304.375 108.371 304.312 108.66 304.312 108.988H301.582C301.582 108.48 301.684 107.992 301.887 107.523C302.098 107.055 302.398 106.637 302.789 106.27C303.18 105.902 303.652 105.613 304.207 105.402C304.762 105.191 305.379 105.086 306.059 105.086C306.871 105.086 307.594 105.223 308.227 105.496C308.859 105.762 309.355 106.195 309.715 106.797C310.082 107.391 310.266 108.172 310.266 109.141V115.059C310.266 115.645 310.301 116.168 310.371 116.629C310.449 117.082 310.555 117.477 310.688 117.812V118H307.91C307.785 117.695 307.691 117.305 307.629 116.828C307.566 116.352 307.535 115.883 307.535 115.422ZM307.898 110.277L307.91 112.047H306.598C306.207 112.047 305.855 112.102 305.543 112.211C305.23 112.312 304.965 112.461 304.746 112.656C304.535 112.844 304.371 113.074 304.254 113.348C304.145 113.621 304.09 113.922 304.09 114.25C304.09 114.648 304.145 114.973 304.254 115.223C304.371 115.473 304.539 115.66 304.758 115.785C304.984 115.902 305.258 115.961 305.578 115.961C306.016 115.961 306.395 115.867 306.715 115.68C307.043 115.484 307.293 115.25 307.465 114.977C307.645 114.703 307.715 114.453 307.676 114.227L308.297 115.363C308.234 115.66 308.117 115.973 307.945 116.301C307.781 116.629 307.566 116.941 307.301 117.238C307.035 117.535 306.715 117.777 306.34 117.965C305.965 118.145 305.531 118.234 305.039 118.234C304.328 118.234 303.695 118.086 303.141 117.789C302.586 117.492 302.148 117.066 301.828 116.512C301.516 115.949 301.359 115.277 301.359 114.496C301.359 113.863 301.465 113.289 301.676 112.773C301.887 112.258 302.199 111.816 302.613 111.449C303.027 111.074 303.547 110.785 304.172 110.582C304.805 110.379 305.543 110.277 306.387 110.277H307.898ZM316.641 118H313.91V104.113C313.91 103.168 314.066 102.375 314.379 101.734C314.699 101.086 315.148 100.594 315.727 100.258C316.312 99.9219 317.004 99.7539 317.801 99.7539C318.043 99.7539 318.281 99.7734 318.516 99.8125C318.75 99.8438 318.973 99.8945 319.184 99.9648L319.125 102.191C319.016 102.16 318.879 102.137 318.715 102.121C318.559 102.105 318.406 102.098 318.258 102.098C317.914 102.098 317.621 102.176 317.379 102.332C317.137 102.488 316.953 102.715 316.828 103.012C316.703 103.309 316.641 103.676 316.641 104.113V118ZM318.703 105.32V107.43H312.316V105.32H318.703ZM325.371 118.234C324.551 118.234 323.82 118.113 323.18 117.871C322.539 117.621 321.996 117.254 321.551 116.77C321.105 116.277 320.766 115.676 320.531 114.965C320.297 114.246 320.18 113.414 320.18 112.469V111.25C320.18 110.18 320.301 109.258 320.543 108.484C320.793 107.703 321.137 107.062 321.574 106.562C322.012 106.062 322.527 105.691 323.121 105.449C323.723 105.207 324.375 105.086 325.078 105.086C325.875 105.086 326.566 105.215 327.152 105.473C327.738 105.73 328.219 106.117 328.594 106.633C328.977 107.148 329.258 107.785 329.438 108.543C329.625 109.301 329.719 110.172 329.719 111.156V112.527H321.492V110.465H327.023V110.172C327.008 109.594 326.938 109.098 326.812 108.684C326.688 108.262 326.484 107.941 326.203 107.723C325.93 107.496 325.551 107.383 325.066 107.383C324.715 107.383 324.402 107.449 324.129 107.582C323.855 107.715 323.629 107.93 323.449 108.227C323.277 108.523 323.145 108.922 323.051 109.422C322.957 109.914 322.91 110.523 322.91 111.25V112.469C322.91 113.102 322.965 113.637 323.074 114.074C323.191 114.512 323.363 114.871 323.59 115.152C323.816 115.426 324.09 115.629 324.41 115.762C324.738 115.887 325.117 115.949 325.547 115.949C326.18 115.949 326.723 115.832 327.176 115.598C327.637 115.355 328.035 115.043 328.371 114.66L329.578 116.336C329.352 116.641 329.047 116.941 328.664 117.238C328.281 117.527 327.816 117.766 327.27 117.953C326.73 118.141 326.098 118.234 325.371 118.234ZM337.031 105.32V107.43H330.809V105.32H337.031ZM332.508 102.215H335.227V114.461C335.227 114.852 335.27 115.148 335.355 115.352C335.441 115.555 335.562 115.691 335.719 115.762C335.875 115.832 336.059 115.867 336.27 115.867C336.426 115.867 336.578 115.855 336.727 115.832C336.883 115.801 336.996 115.773 337.066 115.75V117.953C336.863 118.031 336.629 118.098 336.363 118.152C336.098 118.207 335.777 118.234 335.402 118.234C334.848 118.234 334.352 118.121 333.914 117.895C333.477 117.66 333.133 117.281 332.883 116.758C332.633 116.227 332.508 115.523 332.508 114.648V102.215ZM342.234 116.605L344.953 105.32H347.824L343.641 119.922C343.547 120.242 343.414 120.586 343.242 120.953C343.078 121.32 342.863 121.668 342.598 121.996C342.34 122.332 342.016 122.602 341.625 122.805C341.242 123.016 340.785 123.121 340.254 123.121C340.035 123.121 339.824 123.102 339.621 123.062C339.418 123.023 339.223 122.977 339.035 122.922V120.719C339.098 120.727 339.168 120.734 339.246 120.742C339.324 120.75 339.395 120.754 339.457 120.754C339.84 120.754 340.156 120.695 340.406 120.578C340.656 120.469 340.863 120.289 341.027 120.039C341.191 119.797 341.336 119.473 341.461 119.066L342.234 116.605ZM341.027 105.32L343.254 114.754L343.734 117.812L341.859 118.293L338.086 105.32H341.027Z" fill="#001838"></path><rect x="102" y="169" width="41" height="41" rx="20.5" fill="#FEB913" stroke="#FEB913" stroke-width="4"></rect><path d="M118.754 196.907L118.754 196.907L118.763 196.916C119.015 197.154 119.323 197.256 119.634 197.256C119.949 197.256 120.245 197.152 120.501 196.933L120.516 196.921L120.53 196.907L133.245 184.192C133.743 183.714 133.741 182.95 133.239 182.473C132.75 182.009 131.987 182.009 131.498 182.473L131.498 182.473L131.488 182.483L119.65 194.347L113.503 188.201L113.503 188.201L113.494 188.192C113.005 187.727 112.242 187.727 111.753 188.192C111.251 188.668 111.249 189.433 111.748 189.911L118.754 196.907Z" fill="#001838" stroke="#001838"></path><path d="M175.605 180.938H180.762C181.887 180.938 182.84 181.133 183.621 181.523C184.402 181.914 184.996 182.492 185.402 183.258C185.816 184.016 186.023 184.957 186.023 186.082C186.023 186.934 185.895 187.684 185.637 188.332C185.387 188.98 185.023 189.527 184.547 189.973C184.07 190.41 183.496 190.75 182.824 190.992L181.992 191.449H177.633L177.621 189.059H180.691C181.246 189.059 181.707 188.938 182.074 188.695C182.441 188.453 182.715 188.117 182.895 187.688C183.082 187.258 183.176 186.77 183.176 186.223C183.176 185.637 183.094 185.129 182.93 184.699C182.766 184.262 182.508 183.926 182.156 183.691C181.805 183.449 181.34 183.328 180.762 183.328H178.453V198H175.605V180.938ZM183.551 198L180.305 190.336L183.27 190.324L186.598 197.848V198H183.551ZM193.254 198.234C192.434 198.234 191.703 198.113 191.062 197.871C190.422 197.621 189.879 197.254 189.434 196.77C188.988 196.277 188.648 195.676 188.414 194.965C188.18 194.246 188.062 193.414 188.062 192.469V191.25C188.062 190.18 188.184 189.258 188.426 188.484C188.676 187.703 189.02 187.062 189.457 186.562C189.895 186.062 190.41 185.691 191.004 185.449C191.605 185.207 192.258 185.086 192.961 185.086C193.758 185.086 194.449 185.215 195.035 185.473C195.621 185.73 196.102 186.117 196.477 186.633C196.859 187.148 197.141 187.785 197.32 188.543C197.508 189.301 197.602 190.172 197.602 191.156V192.527H189.375V190.465H194.906V190.172C194.891 189.594 194.82 189.098 194.695 188.684C194.57 188.262 194.367 187.941 194.086 187.723C193.812 187.496 193.434 187.383 192.949 187.383C192.598 187.383 192.285 187.449 192.012 187.582C191.738 187.715 191.512 187.93 191.332 188.227C191.16 188.523 191.027 188.922 190.934 189.422C190.84 189.914 190.793 190.523 190.793 191.25V192.469C190.793 193.102 190.848 193.637 190.957 194.074C191.074 194.512 191.246 194.871 191.473 195.152C191.699 195.426 191.973 195.629 192.293 195.762C192.621 195.887 193 195.949 193.43 195.949C194.062 195.949 194.605 195.832 195.059 195.598C195.52 195.355 195.918 195.043 196.254 194.66L197.461 196.336C197.234 196.641 196.93 196.941 196.547 197.238C196.164 197.527 195.699 197.766 195.152 197.953C194.613 198.141 193.98 198.234 193.254 198.234ZM202.688 180V198H199.957V180H202.688ZM208.5 185.32V198H205.77V185.32H208.5ZM205.629 182.004C205.629 181.566 205.762 181.203 206.027 180.914C206.293 180.617 206.664 180.469 207.141 180.469C207.617 180.469 207.988 180.617 208.254 180.914C208.52 181.203 208.652 181.566 208.652 182.004C208.652 182.426 208.52 182.781 208.254 183.07C207.988 183.359 207.617 183.504 207.141 183.504C206.664 183.504 206.293 183.359 206.027 183.07C205.762 182.781 205.629 182.426 205.629 182.004ZM217.301 195.422V189.105C217.301 188.668 217.238 188.316 217.113 188.051C216.996 187.785 216.82 187.594 216.586 187.477C216.359 187.352 216.074 187.289 215.73 187.289C215.371 187.289 215.066 187.363 214.816 187.512C214.574 187.66 214.391 187.863 214.266 188.121C214.141 188.371 214.078 188.66 214.078 188.988H211.348C211.348 188.48 211.449 187.992 211.652 187.523C211.863 187.055 212.164 186.637 212.555 186.27C212.945 185.902 213.418 185.613 213.973 185.402C214.527 185.191 215.145 185.086 215.824 185.086C216.637 185.086 217.359 185.223 217.992 185.496C218.625 185.762 219.121 186.195 219.48 186.797C219.848 187.391 220.031 188.172 220.031 189.141V195.059C220.031 195.645 220.066 196.168 220.137 196.629C220.215 197.082 220.32 197.477 220.453 197.812V198H217.676C217.551 197.695 217.457 197.305 217.395 196.828C217.332 196.352 217.301 195.883 217.301 195.422ZM217.664 190.277L217.676 192.047H216.363C215.973 192.047 215.621 192.102 215.309 192.211C214.996 192.312 214.73 192.461 214.512 192.656C214.301 192.844 214.137 193.074 214.02 193.348C213.91 193.621 213.855 193.922 213.855 194.25C213.855 194.648 213.91 194.973 214.02 195.223C214.137 195.473 214.305 195.66 214.523 195.785C214.75 195.902 215.023 195.961 215.344 195.961C215.781 195.961 216.16 195.867 216.48 195.68C216.809 195.484 217.059 195.25 217.23 194.977C217.41 194.703 217.48 194.453 217.441 194.227L218.062 195.363C218 195.66 217.883 195.973 217.711 196.301C217.547 196.629 217.332 196.941 217.066 197.238C216.801 197.535 216.48 197.777 216.105 197.965C215.73 198.145 215.297 198.234 214.805 198.234C214.094 198.234 213.461 198.086 212.906 197.789C212.352 197.492 211.914 197.066 211.594 196.512C211.281 195.949 211.125 195.277 211.125 194.496C211.125 193.863 211.23 193.289 211.441 192.773C211.652 192.258 211.965 191.816 212.379 191.449C212.793 191.074 213.312 190.785 213.938 190.582C214.57 190.379 215.309 190.277 216.152 190.277H217.664ZM222.844 180H225.562V195.281L225.352 198H222.844V180ZM232.395 191.168V192.164C232.395 193.18 232.309 194.066 232.137 194.824C231.965 195.582 231.707 196.215 231.363 196.723C231.02 197.23 230.59 197.609 230.074 197.859C229.559 198.109 228.957 198.234 228.27 198.234C227.629 198.234 227.074 198.094 226.605 197.812C226.145 197.523 225.754 197.121 225.434 196.605C225.121 196.082 224.871 195.461 224.684 194.742C224.504 194.023 224.371 193.23 224.285 192.363V190.969C224.363 190.102 224.492 189.309 224.672 188.59C224.859 187.863 225.109 187.242 225.422 186.727C225.734 186.203 226.125 185.801 226.594 185.52C227.062 185.23 227.617 185.086 228.258 185.086C228.953 185.086 229.559 185.211 230.074 185.461C230.59 185.711 231.02 186.09 231.363 186.598C231.707 187.098 231.965 187.73 232.137 188.496C232.309 189.254 232.395 190.145 232.395 191.168ZM229.664 192.164V191.168C229.664 190.527 229.629 189.973 229.559 189.504C229.496 189.035 229.383 188.648 229.219 188.344C229.062 188.031 228.844 187.797 228.562 187.641C228.281 187.484 227.926 187.406 227.496 187.406C227.121 187.406 226.797 187.48 226.523 187.629C226.258 187.777 226.031 187.988 225.844 188.262C225.656 188.527 225.508 188.836 225.398 189.188C225.289 189.531 225.215 189.902 225.176 190.301V193.031C225.23 193.555 225.34 194.035 225.504 194.473C225.676 194.91 225.922 195.258 226.242 195.516C226.57 195.773 226.996 195.902 227.52 195.902C227.934 195.902 228.277 195.832 228.551 195.691C228.824 195.551 229.043 195.328 229.207 195.023C229.379 194.719 229.496 194.332 229.559 193.863C229.629 193.387 229.664 192.82 229.664 192.164ZM237.586 185.32V198H234.855V185.32H237.586ZM234.715 182.004C234.715 181.566 234.848 181.203 235.113 180.914C235.379 180.617 235.75 180.469 236.227 180.469C236.703 180.469 237.074 180.617 237.34 180.914C237.605 181.203 237.738 181.566 237.738 182.004C237.738 182.426 237.605 182.781 237.34 183.07C237.074 183.359 236.703 183.504 236.227 183.504C235.75 183.504 235.379 183.359 235.113 183.07C234.848 182.781 234.715 182.426 234.715 182.004ZM243.398 180V198H240.668V180H243.398ZM249.211 185.32V198H246.48V185.32H249.211ZM246.34 182.004C246.34 181.566 246.473 181.203 246.738 180.914C247.004 180.617 247.375 180.469 247.852 180.469C248.328 180.469 248.699 180.617 248.965 180.914C249.23 181.203 249.363 181.566 249.363 182.004C249.363 182.426 249.23 182.781 248.965 183.07C248.699 183.359 248.328 183.504 247.852 183.504C247.375 183.504 247.004 183.359 246.738 183.07C246.473 182.781 246.34 182.426 246.34 182.004ZM257.25 185.32V187.43H251.027V185.32H257.25ZM252.727 182.215H255.445V194.461C255.445 194.852 255.488 195.148 255.574 195.352C255.66 195.555 255.781 195.691 255.938 195.762C256.094 195.832 256.277 195.867 256.488 195.867C256.645 195.867 256.797 195.855 256.945 195.832C257.102 195.801 257.215 195.773 257.285 195.75V197.953C257.082 198.031 256.848 198.098 256.582 198.152C256.316 198.207 255.996 198.234 255.621 198.234C255.066 198.234 254.57 198.121 254.133 197.895C253.695 197.66 253.352 197.281 253.102 196.758C252.852 196.227 252.727 195.523 252.727 194.648V182.215ZM262.453 196.605L265.172 185.32H268.043L263.859 199.922C263.766 200.242 263.633 200.586 263.461 200.953C263.297 201.32 263.082 201.668 262.816 201.996C262.559 202.332 262.234 202.602 261.844 202.805C261.461 203.016 261.004 203.121 260.473 203.121C260.254 203.121 260.043 203.102 259.84 203.062C259.637 203.023 259.441 202.977 259.254 202.922V200.719C259.316 200.727 259.387 200.734 259.465 200.742C259.543 200.75 259.613 200.754 259.676 200.754C260.059 200.754 260.375 200.695 260.625 200.578C260.875 200.469 261.082 200.289 261.246 200.039C261.41 199.797 261.555 199.473 261.68 199.066L262.453 196.605ZM261.246 185.32L263.473 194.754L263.953 197.812L262.078 198.293L258.305 185.32H261.246Z" fill="#001838"></path><rect x="102" y="249" width="41" height="41" rx="20.5" fill="#FEB913" stroke="#FEB913" stroke-width="4"></rect><path d="M118.754 276.907L118.754 276.907L118.763 276.916C119.015 277.154 119.323 277.256 119.634 277.256C119.949 277.256 120.245 277.152 120.501 276.933L120.516 276.921L120.53 276.907L133.245 264.192C133.743 263.714 133.741 262.95 133.239 262.473C132.75 262.009 131.987 262.009 131.498 262.473L131.498 262.473L131.488 262.483L119.65 274.347L113.503 268.201L113.503 268.201L113.494 268.192C113.005 267.727 112.242 267.727 111.753 268.192C111.251 268.668 111.249 269.433 111.748 269.911L118.754 276.907Z" fill="#001838" stroke="#001838"></path><path d="M175.605 260.938H180.762C181.887 260.938 182.84 261.133 183.621 261.523C184.402 261.914 184.996 262.492 185.402 263.258C185.816 264.016 186.023 264.957 186.023 266.082C186.023 266.934 185.895 267.684 185.637 268.332C185.387 268.98 185.023 269.527 184.547 269.973C184.07 270.41 183.496 270.75 182.824 270.992L181.992 271.449H177.633L177.621 269.059H180.691C181.246 269.059 181.707 268.938 182.074 268.695C182.441 268.453 182.715 268.117 182.895 267.688C183.082 267.258 183.176 266.77 183.176 266.223C183.176 265.637 183.094 265.129 182.93 264.699C182.766 264.262 182.508 263.926 182.156 263.691C181.805 263.449 181.34 263.328 180.762 263.328H178.453V278H175.605V260.938ZM183.551 278L180.305 270.336L183.27 270.324L186.598 277.848V278H183.551ZM193.254 278.234C192.434 278.234 191.703 278.113 191.062 277.871C190.422 277.621 189.879 277.254 189.434 276.77C188.988 276.277 188.648 275.676 188.414 274.965C188.18 274.246 188.062 273.414 188.062 272.469V271.25C188.062 270.18 188.184 269.258 188.426 268.484C188.676 267.703 189.02 267.062 189.457 266.562C189.895 266.062 190.41 265.691 191.004 265.449C191.605 265.207 192.258 265.086 192.961 265.086C193.758 265.086 194.449 265.215 195.035 265.473C195.621 265.73 196.102 266.117 196.477 266.633C196.859 267.148 197.141 267.785 197.32 268.543C197.508 269.301 197.602 270.172 197.602 271.156V272.527H189.375V270.465H194.906V270.172C194.891 269.594 194.82 269.098 194.695 268.684C194.57 268.262 194.367 267.941 194.086 267.723C193.812 267.496 193.434 267.383 192.949 267.383C192.598 267.383 192.285 267.449 192.012 267.582C191.738 267.715 191.512 267.93 191.332 268.227C191.16 268.523 191.027 268.922 190.934 269.422C190.84 269.914 190.793 270.523 190.793 271.25V272.469C190.793 273.102 190.848 273.637 190.957 274.074C191.074 274.512 191.246 274.871 191.473 275.152C191.699 275.426 191.973 275.629 192.293 275.762C192.621 275.887 193 275.949 193.43 275.949C194.062 275.949 194.605 275.832 195.059 275.598C195.52 275.355 195.918 275.043 196.254 274.66L197.461 276.336C197.234 276.641 196.93 276.941 196.547 277.238C196.164 277.527 195.699 277.766 195.152 277.953C194.613 278.141 193.98 278.234 193.254 278.234ZM205.664 274.66C205.664 274.395 205.586 274.16 205.43 273.957C205.281 273.746 205.039 273.539 204.703 273.336C204.367 273.133 203.918 272.914 203.355 272.68C202.77 272.438 202.25 272.195 201.797 271.953C201.344 271.711 200.961 271.445 200.648 271.156C200.336 270.859 200.098 270.52 199.934 270.137C199.77 269.754 199.688 269.309 199.688 268.801C199.688 268.277 199.785 267.793 199.98 267.348C200.176 266.902 200.457 266.512 200.824 266.176C201.191 265.832 201.633 265.566 202.148 265.379C202.664 265.184 203.246 265.086 203.895 265.086C204.809 265.086 205.59 265.254 206.238 265.59C206.895 265.918 207.395 266.379 207.738 266.973C208.09 267.559 208.266 268.234 208.266 269H205.535C205.535 268.68 205.477 268.391 205.359 268.133C205.242 267.867 205.062 267.656 204.82 267.5C204.578 267.336 204.27 267.254 203.895 267.254C203.551 267.254 203.262 267.32 203.027 267.453C202.801 267.578 202.629 267.75 202.512 267.969C202.402 268.18 202.348 268.418 202.348 268.684C202.348 268.879 202.383 269.051 202.453 269.199C202.523 269.348 202.641 269.492 202.805 269.633C202.969 269.766 203.188 269.902 203.461 270.043C203.742 270.184 204.098 270.344 204.527 270.523C205.379 270.852 206.086 271.191 206.648 271.543C207.211 271.895 207.633 272.305 207.914 272.773C208.195 273.242 208.336 273.824 208.336 274.52C208.336 275.082 208.23 275.59 208.02 276.043C207.816 276.496 207.52 276.887 207.129 277.215C206.746 277.543 206.281 277.797 205.734 277.977C205.195 278.148 204.594 278.234 203.93 278.234C202.938 278.234 202.098 278.039 201.41 277.648C200.73 277.25 200.215 276.738 199.863 276.113C199.512 275.488 199.336 274.828 199.336 274.133H201.973C201.996 274.633 202.102 275.023 202.289 275.305C202.484 275.586 202.73 275.781 203.027 275.891C203.324 275.992 203.633 276.043 203.953 276.043C204.336 276.043 204.652 275.992 204.902 275.891C205.152 275.781 205.34 275.621 205.465 275.41C205.598 275.199 205.664 274.949 205.664 274.66ZM213.445 267.758V282.875H210.727V265.32H213.223L213.445 267.758ZM220.266 271.156V272.164C220.266 273.156 220.176 274.031 219.996 274.789C219.816 275.547 219.551 276.184 219.199 276.699C218.855 277.207 218.43 277.59 217.922 277.848C217.414 278.105 216.82 278.234 216.141 278.234C215.5 278.234 214.941 278.094 214.465 277.812C213.996 277.531 213.602 277.137 213.281 276.629C212.961 276.121 212.703 275.52 212.508 274.824C212.32 274.121 212.184 273.355 212.098 272.527V270.98C212.184 270.105 212.316 269.309 212.496 268.59C212.684 267.863 212.938 267.238 213.258 266.715C213.586 266.191 213.984 265.789 214.453 265.508C214.922 265.227 215.48 265.086 216.129 265.086C216.809 265.086 217.406 265.207 217.922 265.449C218.438 265.691 218.867 266.062 219.211 266.562C219.562 267.062 219.824 267.695 219.996 268.461C220.176 269.219 220.266 270.117 220.266 271.156ZM217.535 272.164V271.156C217.535 270.508 217.492 269.949 217.406 269.48C217.328 269.004 217.195 268.613 217.008 268.309C216.828 268.004 216.598 267.777 216.316 267.629C216.043 267.48 215.703 267.406 215.297 267.406C214.938 267.406 214.621 267.48 214.348 267.629C214.074 267.777 213.844 267.984 213.656 268.25C213.469 268.508 213.32 268.816 213.211 269.176C213.102 269.527 213.031 269.91 213 270.324V273.195C213.07 273.695 213.188 274.156 213.352 274.578C213.516 274.992 213.754 275.324 214.066 275.574C214.387 275.824 214.805 275.949 215.32 275.949C215.719 275.949 216.059 275.871 216.34 275.715C216.621 275.559 216.848 275.324 217.02 275.012C217.199 274.699 217.328 274.309 217.406 273.84C217.492 273.363 217.535 272.805 217.535 272.164ZM227.426 278.234C226.605 278.234 225.875 278.113 225.234 277.871C224.594 277.621 224.051 277.254 223.605 276.77C223.16 276.277 222.82 275.676 222.586 274.965C222.352 274.246 222.234 273.414 222.234 272.469V271.25C222.234 270.18 222.355 269.258 222.598 268.484C222.848 267.703 223.191 267.062 223.629 266.562C224.066 266.062 224.582 265.691 225.176 265.449C225.777 265.207 226.43 265.086 227.133 265.086C227.93 265.086 228.621 265.215 229.207 265.473C229.793 265.73 230.273 266.117 230.648 266.633C231.031 267.148 231.312 267.785 231.492 268.543C231.68 269.301 231.773 270.172 231.773 271.156V272.527H223.547V270.465H229.078V270.172C229.062 269.594 228.992 269.098 228.867 268.684C228.742 268.262 228.539 267.941 228.258 267.723C227.984 267.496 227.605 267.383 227.121 267.383C226.77 267.383 226.457 267.449 226.184 267.582C225.91 267.715 225.684 267.93 225.504 268.227C225.332 268.523 225.199 268.922 225.105 269.422C225.012 269.914 224.965 270.523 224.965 271.25V272.469C224.965 273.102 225.02 273.637 225.129 274.074C225.246 274.512 225.418 274.871 225.645 275.152C225.871 275.426 226.145 275.629 226.465 275.762C226.793 275.887 227.172 275.949 227.602 275.949C228.234 275.949 228.777 275.832 229.23 275.598C229.691 275.355 230.09 275.043 230.426 274.66L231.633 276.336C231.406 276.641 231.102 276.941 230.719 277.238C230.336 277.527 229.871 277.766 229.324 277.953C228.785 278.141 228.152 278.234 227.426 278.234ZM238.465 275.949C238.816 275.949 239.129 275.875 239.402 275.727C239.684 275.578 239.906 275.348 240.07 275.035C240.234 274.715 240.324 274.301 240.34 273.793H242.906C242.891 274.691 242.684 275.477 242.285 276.148C241.887 276.812 241.355 277.328 240.691 277.695C240.035 278.055 239.305 278.234 238.5 278.234C237.664 278.234 236.934 278.102 236.309 277.836C235.691 277.562 235.18 277.168 234.773 276.652C234.367 276.137 234.062 275.512 233.859 274.777C233.664 274.035 233.566 273.188 233.566 272.234V271.086C233.566 270.141 233.664 269.297 233.859 268.555C234.062 267.812 234.367 267.184 234.773 266.668C235.18 266.152 235.691 265.762 236.309 265.496C236.926 265.223 237.652 265.086 238.488 265.086C239.379 265.086 240.148 265.273 240.797 265.648C241.453 266.016 241.965 266.555 242.332 267.266C242.699 267.977 242.891 268.848 242.906 269.879H240.34C240.324 269.332 240.242 268.875 240.094 268.508C239.945 268.133 239.734 267.852 239.461 267.664C239.195 267.477 238.859 267.383 238.453 267.383C238.008 267.383 237.641 267.469 237.352 267.641C237.07 267.805 236.852 268.047 236.695 268.367C236.547 268.688 236.441 269.078 236.379 269.539C236.324 269.992 236.297 270.508 236.297 271.086V272.234C236.297 272.828 236.324 273.355 236.379 273.816C236.434 274.27 236.535 274.656 236.684 274.977C236.84 275.297 237.062 275.539 237.352 275.703C237.641 275.867 238.012 275.949 238.465 275.949ZM250.148 265.32V267.43H243.926V265.32H250.148ZM245.625 262.215H248.344V274.461C248.344 274.852 248.387 275.148 248.473 275.352C248.559 275.555 248.68 275.691 248.836 275.762C248.992 275.832 249.176 275.867 249.387 275.867C249.543 275.867 249.695 275.855 249.844 275.832C250 275.801 250.113 275.773 250.184 275.75V277.953C249.98 278.031 249.746 278.098 249.48 278.152C249.215 278.207 248.895 278.234 248.52 278.234C247.965 278.234 247.469 278.121 247.031 277.895C246.594 277.66 246.25 277.281 246 276.758C245.75 276.227 245.625 275.523 245.625 274.648V262.215Z" fill="#001838"></path><rect x="102" y="329" width="41" height="41" rx="20.5" fill="#FEB913" stroke="#FEB913" stroke-width="4"></rect><path d="M118.754 356.907L118.754 356.907L118.763 356.916C119.015 357.154 119.323 357.256 119.634 357.256C119.949 357.256 120.245 357.152 120.501 356.933L120.516 356.921L120.53 356.907L133.245 344.192C133.743 343.714 133.741 342.95 133.239 342.473C132.75 342.009 131.987 342.009 131.498 342.473L131.498 342.473L131.488 342.483L119.65 354.347L113.503 348.201L113.503 348.201L113.494 348.192C113.005 347.727 112.242 347.727 111.753 348.192C111.251 348.668 111.249 349.433 111.748 349.911L118.754 356.907Z" fill="#001838" stroke="#001838"></path><path d="M183.914 351.934H186.75C186.695 353.168 186.445 354.219 186 355.086C185.555 355.945 184.914 356.602 184.078 357.055C183.25 357.508 182.238 357.734 181.043 357.734C180.137 357.734 179.324 357.57 178.605 357.242C177.895 356.914 177.289 356.441 176.789 355.824C176.289 355.199 175.906 354.438 175.641 353.539C175.383 352.641 175.254 351.621 175.254 350.48V347.457C175.254 346.316 175.387 345.297 175.652 344.398C175.926 343.5 176.316 342.738 176.824 342.113C177.332 341.488 177.949 341.016 178.676 340.695C179.41 340.367 180.238 340.203 181.16 340.203C182.34 340.203 183.332 340.43 184.137 340.883C184.941 341.336 185.562 342 186 342.875C186.438 343.75 186.691 344.816 186.762 346.074H183.926C183.887 345.223 183.77 344.543 183.574 344.035C183.387 343.52 183.098 343.148 182.707 342.922C182.324 342.695 181.809 342.582 181.16 342.582C180.621 342.582 180.156 342.684 179.766 342.887C179.383 343.09 179.066 343.395 178.816 343.801C178.574 344.199 178.391 344.703 178.266 345.312C178.148 345.914 178.09 346.621 178.09 347.434V350.48C178.09 351.262 178.141 351.953 178.242 352.555C178.344 353.156 178.508 353.668 178.734 354.09C178.961 354.504 179.262 354.82 179.637 355.039C180.012 355.25 180.48 355.355 181.043 355.355C181.715 355.355 182.25 355.25 182.648 355.039C183.055 354.828 183.355 354.473 183.551 353.973C183.746 353.473 183.867 352.793 183.914 351.934ZM191.766 347.27V357.5H189.035V344.82H191.637L191.766 347.27ZM194.824 344.738L194.812 347.434C194.656 347.395 194.488 347.371 194.309 347.363C194.137 347.348 193.965 347.34 193.793 347.34C193.418 347.34 193.094 347.406 192.82 347.539C192.547 347.672 192.316 347.863 192.129 348.113C191.941 348.363 191.793 348.664 191.684 349.016C191.582 349.367 191.52 349.766 191.496 350.211L190.91 350.234C190.91 349.438 190.973 348.699 191.098 348.02C191.223 347.332 191.41 346.734 191.66 346.227C191.918 345.711 192.238 345.309 192.621 345.02C193.004 344.73 193.449 344.586 193.957 344.586C194.098 344.586 194.258 344.602 194.438 344.633C194.617 344.664 194.746 344.699 194.824 344.738ZM202.16 354.922V348.605C202.16 348.168 202.098 347.816 201.973 347.551C201.855 347.285 201.68 347.094 201.445 346.977C201.219 346.852 200.934 346.789 200.59 346.789C200.23 346.789 199.926 346.863 199.676 347.012C199.434 347.16 199.25 347.363 199.125 347.621C199 347.871 198.938 348.16 198.938 348.488H196.207C196.207 347.98 196.309 347.492 196.512 347.023C196.723 346.555 197.023 346.137 197.414 345.77C197.805 345.402 198.277 345.113 198.832 344.902C199.387 344.691 200.004 344.586 200.684 344.586C201.496 344.586 202.219 344.723 202.852 344.996C203.484 345.262 203.98 345.695 204.34 346.297C204.707 346.891 204.891 347.672 204.891 348.641V354.559C204.891 355.145 204.926 355.668 204.996 356.129C205.074 356.582 205.18 356.977 205.312 357.312V357.5H202.535C202.41 357.195 202.316 356.805 202.254 356.328C202.191 355.852 202.16 355.383 202.16 354.922ZM202.523 349.777L202.535 351.547H201.223C200.832 351.547 200.48 351.602 200.168 351.711C199.855 351.812 199.59 351.961 199.371 352.156C199.16 352.344 198.996 352.574 198.879 352.848C198.77 353.121 198.715 353.422 198.715 353.75C198.715 354.148 198.77 354.473 198.879 354.723C198.996 354.973 199.164 355.16 199.383 355.285C199.609 355.402 199.883 355.461 200.203 355.461C200.641 355.461 201.02 355.367 201.34 355.18C201.668 354.984 201.918 354.75 202.09 354.477C202.27 354.203 202.34 353.953 202.301 353.727L202.922 354.863C202.859 355.16 202.742 355.473 202.57 355.801C202.406 356.129 202.191 356.441 201.926 356.738C201.66 357.035 201.34 357.277 200.965 357.465C200.59 357.645 200.156 357.734 199.664 357.734C198.953 357.734 198.32 357.586 197.766 357.289C197.211 356.992 196.773 356.566 196.453 356.012C196.141 355.449 195.984 354.777 195.984 353.996C195.984 353.363 196.09 352.789 196.301 352.273C196.512 351.758 196.824 351.316 197.238 350.949C197.652 350.574 198.172 350.285 198.797 350.082C199.43 349.879 200.168 349.777 201.012 349.777H202.523ZM211.266 357.5H208.535V343.613C208.535 342.668 208.691 341.875 209.004 341.234C209.324 340.586 209.773 340.094 210.352 339.758C210.938 339.422 211.629 339.254 212.426 339.254C212.668 339.254 212.906 339.273 213.141 339.312C213.375 339.344 213.598 339.395 213.809 339.465L213.75 341.691C213.641 341.66 213.504 341.637 213.34 341.621C213.184 341.605 213.031 341.598 212.883 341.598C212.539 341.598 212.246 341.676 212.004 341.832C211.762 341.988 211.578 342.215 211.453 342.512C211.328 342.809 211.266 343.176 211.266 343.613V357.5ZM213.328 344.82V346.93H206.941V344.82H213.328ZM220.547 344.82V346.93H214.324V344.82H220.547ZM216.023 341.715H218.742V353.961C218.742 354.352 218.785 354.648 218.871 354.852C218.957 355.055 219.078 355.191 219.234 355.262C219.391 355.332 219.574 355.367 219.785 355.367C219.941 355.367 220.094 355.355 220.242 355.332C220.398 355.301 220.512 355.273 220.582 355.25V357.453C220.379 357.531 220.145 357.598 219.879 357.652C219.613 357.707 219.293 357.734 218.918 357.734C218.363 357.734 217.867 357.621 217.43 357.395C216.992 357.16 216.648 356.781 216.398 356.258C216.148 355.727 216.023 355.023 216.023 354.148V341.715ZM228.539 354.16C228.539 353.895 228.461 353.66 228.305 353.457C228.156 353.246 227.914 353.039 227.578 352.836C227.242 352.633 226.793 352.414 226.23 352.18C225.645 351.938 225.125 351.695 224.672 351.453C224.219 351.211 223.836 350.945 223.523 350.656C223.211 350.359 222.973 350.02 222.809 349.637C222.645 349.254 222.562 348.809 222.562 348.301C222.562 347.777 222.66 347.293 222.855 346.848C223.051 346.402 223.332 346.012 223.699 345.676C224.066 345.332 224.508 345.066 225.023 344.879C225.539 344.684 226.121 344.586 226.77 344.586C227.684 344.586 228.465 344.754 229.113 345.09C229.77 345.418 230.27 345.879 230.613 346.473C230.965 347.059 231.141 347.734 231.141 348.5H228.41C228.41 348.18 228.352 347.891 228.234 347.633C228.117 347.367 227.938 347.156 227.695 347C227.453 346.836 227.145 346.754 226.77 346.754C226.426 346.754 226.137 346.82 225.902 346.953C225.676 347.078 225.504 347.25 225.387 347.469C225.277 347.68 225.223 347.918 225.223 348.184C225.223 348.379 225.258 348.551 225.328 348.699C225.398 348.848 225.516 348.992 225.68 349.133C225.844 349.266 226.062 349.402 226.336 349.543C226.617 349.684 226.973 349.844 227.402 350.023C228.254 350.352 228.961 350.691 229.523 351.043C230.086 351.395 230.508 351.805 230.789 352.273C231.07 352.742 231.211 353.324 231.211 354.02C231.211 354.582 231.105 355.09 230.895 355.543C230.691 355.996 230.395 356.387 230.004 356.715C229.621 357.043 229.156 357.297 228.609 357.477C228.07 357.648 227.469 357.734 226.805 357.734C225.812 357.734 224.973 357.539 224.285 357.148C223.605 356.75 223.09 356.238 222.738 355.613C222.387 354.988 222.211 354.328 222.211 353.633H224.848C224.871 354.133 224.977 354.523 225.164 354.805C225.359 355.086 225.605 355.281 225.902 355.391C226.199 355.492 226.508 355.543 226.828 355.543C227.211 355.543 227.527 355.492 227.777 355.391C228.027 355.281 228.215 355.121 228.34 354.91C228.473 354.699 228.539 354.449 228.539 354.16ZM236.332 347.398V357.5H233.602V344.82H236.168L236.332 347.398ZM235.887 350.703H234.961C234.945 349.82 235.023 349.008 235.195 348.266C235.375 347.523 235.641 346.875 235.992 346.32C236.352 345.766 236.801 345.34 237.34 345.043C237.879 344.738 238.512 344.586 239.238 344.586C239.707 344.586 240.141 344.672 240.539 344.844C240.945 345.008 241.297 345.27 241.594 345.629C241.898 345.988 242.133 346.449 242.297 347.012C242.461 347.574 242.543 348.254 242.543 349.051V357.5H239.812V349.309C239.812 348.699 239.742 348.223 239.602 347.879C239.469 347.527 239.273 347.277 239.016 347.129C238.758 346.98 238.445 346.906 238.078 346.906C237.68 346.906 237.34 347.008 237.059 347.211C236.777 347.406 236.551 347.68 236.379 348.031C236.207 348.375 236.082 348.777 236.004 349.238C235.926 349.691 235.887 350.18 235.887 350.703ZM242.367 349.977L241.09 350.27C241.074 349.496 241.152 348.77 241.324 348.09C241.496 347.402 241.754 346.797 242.098 346.273C242.449 345.75 242.887 345.34 243.41 345.043C243.941 344.738 244.555 344.586 245.25 344.586C245.789 344.586 246.273 344.676 246.703 344.855C247.141 345.027 247.512 345.301 247.816 345.676C248.121 346.051 248.352 346.539 248.508 347.141C248.672 347.734 248.754 348.457 248.754 349.309V357.5H246.012V349.297C246.012 348.664 245.941 348.176 245.801 347.832C245.668 347.488 245.473 347.25 245.215 347.117C244.957 346.977 244.648 346.906 244.289 346.906C243.977 346.906 243.699 346.988 243.457 347.152C243.223 347.309 243.023 347.527 242.859 347.809C242.695 348.09 242.57 348.418 242.484 348.793C242.406 349.16 242.367 349.555 242.367 349.977ZM257.402 354.922V348.605C257.402 348.168 257.34 347.816 257.215 347.551C257.098 347.285 256.922 347.094 256.688 346.977C256.461 346.852 256.176 346.789 255.832 346.789C255.473 346.789 255.168 346.863 254.918 347.012C254.676 347.16 254.492 347.363 254.367 347.621C254.242 347.871 254.18 348.16 254.18 348.488H251.449C251.449 347.98 251.551 347.492 251.754 347.023C251.965 346.555 252.266 346.137 252.656 345.77C253.047 345.402 253.52 345.113 254.074 344.902C254.629 344.691 255.246 344.586 255.926 344.586C256.738 344.586 257.461 344.723 258.094 344.996C258.727 345.262 259.223 345.695 259.582 346.297C259.949 346.891 260.133 347.672 260.133 348.641V354.559C260.133 355.145 260.168 355.668 260.238 356.129C260.316 356.582 260.422 356.977 260.555 357.312V357.5H257.777C257.652 357.195 257.559 356.805 257.496 356.328C257.434 355.852 257.402 355.383 257.402 354.922ZM257.766 349.777L257.777 351.547H256.465C256.074 351.547 255.723 351.602 255.41 351.711C255.098 351.812 254.832 351.961 254.613 352.156C254.402 352.344 254.238 352.574 254.121 352.848C254.012 353.121 253.957 353.422 253.957 353.75C253.957 354.148 254.012 354.473 254.121 354.723C254.238 354.973 254.406 355.16 254.625 355.285C254.852 355.402 255.125 355.461 255.445 355.461C255.883 355.461 256.262 355.367 256.582 355.18C256.91 354.984 257.16 354.75 257.332 354.477C257.512 354.203 257.582 353.953 257.543 353.727L258.164 354.863C258.102 355.16 257.984 355.473 257.812 355.801C257.648 356.129 257.434 356.441 257.168 356.738C256.902 357.035 256.582 357.277 256.207 357.465C255.832 357.645 255.398 357.734 254.906 357.734C254.195 357.734 253.562 357.586 253.008 357.289C252.453 356.992 252.016 356.566 251.695 356.012C251.383 355.449 251.227 354.777 251.227 353.996C251.227 353.363 251.332 352.789 251.543 352.273C251.754 351.758 252.066 351.316 252.48 350.949C252.895 350.574 253.414 350.285 254.039 350.082C254.672 349.879 255.41 349.777 256.254 349.777H257.766ZM265.629 347.527V357.5H262.898V344.82H265.465L265.629 347.527ZM265.137 350.703H264.27C264.262 349.789 264.359 348.957 264.562 348.207C264.766 347.457 265.055 346.812 265.43 346.273C265.812 345.734 266.266 345.32 266.789 345.031C267.32 344.734 267.91 344.586 268.559 344.586C269.059 344.586 269.516 344.672 269.93 344.844C270.352 345.008 270.711 345.277 271.008 345.652C271.305 346.027 271.531 346.516 271.688 347.117C271.852 347.719 271.934 348.453 271.934 349.32V357.5H269.203V349.297C269.203 348.703 269.137 348.234 269.004 347.891C268.879 347.539 268.691 347.289 268.441 347.141C268.191 346.984 267.875 346.906 267.492 346.906C267.141 346.906 266.816 347.008 266.52 347.211C266.23 347.406 265.98 347.68 265.77 348.031C265.566 348.375 265.41 348.777 265.301 349.238C265.191 349.691 265.137 350.18 265.137 350.703ZM280.547 354.16C280.547 353.895 280.469 353.66 280.312 353.457C280.164 353.246 279.922 353.039 279.586 352.836C279.25 352.633 278.801 352.414 278.238 352.18C277.652 351.938 277.133 351.695 276.68 351.453C276.227 351.211 275.844 350.945 275.531 350.656C275.219 350.359 274.98 350.02 274.816 349.637C274.652 349.254 274.57 348.809 274.57 348.301C274.57 347.777 274.668 347.293 274.863 346.848C275.059 346.402 275.34 346.012 275.707 345.676C276.074 345.332 276.516 345.066 277.031 344.879C277.547 344.684 278.129 344.586 278.777 344.586C279.691 344.586 280.473 344.754 281.121 345.09C281.777 345.418 282.277 345.879 282.621 346.473C282.973 347.059 283.148 347.734 283.148 348.5H280.418C280.418 348.18 280.359 347.891 280.242 347.633C280.125 347.367 279.945 347.156 279.703 347C279.461 346.836 279.152 346.754 278.777 346.754C278.434 346.754 278.145 346.82 277.91 346.953C277.684 347.078 277.512 347.25 277.395 347.469C277.285 347.68 277.23 347.918 277.23 348.184C277.23 348.379 277.266 348.551 277.336 348.699C277.406 348.848 277.523 348.992 277.688 349.133C277.852 349.266 278.07 349.402 278.344 349.543C278.625 349.684 278.98 349.844 279.41 350.023C280.262 350.352 280.969 350.691 281.531 351.043C282.094 351.395 282.516 351.805 282.797 352.273C283.078 352.742 283.219 353.324 283.219 354.02C283.219 354.582 283.113 355.09 282.902 355.543C282.699 355.996 282.402 356.387 282.012 356.715C281.629 357.043 281.164 357.297 280.617 357.477C280.078 357.648 279.477 357.734 278.812 357.734C277.82 357.734 276.98 357.539 276.293 357.148C275.613 356.75 275.098 356.238 274.746 355.613C274.395 354.988 274.219 354.328 274.219 353.633H276.855C276.879 354.133 276.984 354.523 277.172 354.805C277.367 355.086 277.613 355.281 277.91 355.391C278.207 355.492 278.516 355.543 278.836 355.543C279.219 355.543 279.535 355.492 279.785 355.391C280.035 355.281 280.223 355.121 280.348 354.91C280.48 354.699 280.547 354.449 280.547 354.16ZM288.281 339.5V357.5H285.562V339.5H288.281ZM287.801 350.703H286.934C286.926 349.82 287.02 349.008 287.215 348.266C287.41 347.523 287.691 346.875 288.059 346.32C288.426 345.766 288.867 345.34 289.383 345.043C289.906 344.738 290.484 344.586 291.117 344.586C291.641 344.586 292.113 344.676 292.535 344.855C292.965 345.027 293.332 345.301 293.637 345.676C293.949 346.051 294.188 346.543 294.352 347.152C294.516 347.754 294.598 348.488 294.598 349.355V357.5H291.867V349.332C291.867 348.73 291.801 348.254 291.668 347.902C291.543 347.551 291.355 347.297 291.105 347.141C290.855 346.984 290.539 346.906 290.156 346.906C289.781 346.906 289.445 347.008 289.148 347.211C288.852 347.406 288.602 347.68 288.398 348.031C288.203 348.375 288.055 348.777 287.953 349.238C287.852 349.691 287.801 350.18 287.801 350.703ZM300.211 344.82V357.5H297.48V344.82H300.211ZM297.34 341.504C297.34 341.066 297.473 340.703 297.738 340.414C298.004 340.117 298.375 339.969 298.852 339.969C299.328 339.969 299.699 340.117 299.965 340.414C300.23 340.703 300.363 341.066 300.363 341.504C300.363 341.926 300.23 342.281 299.965 342.57C299.699 342.859 299.328 343.004 298.852 343.004C298.375 343.004 298.004 342.859 297.738 342.57C297.473 342.281 297.34 341.926 297.34 341.504ZM305.859 347.258V362.375H303.141V344.82H305.637L305.859 347.258ZM312.68 350.656V351.664C312.68 352.656 312.59 353.531 312.41 354.289C312.23 355.047 311.965 355.684 311.613 356.199C311.27 356.707 310.844 357.09 310.336 357.348C309.828 357.605 309.234 357.734 308.555 357.734C307.914 357.734 307.355 357.594 306.879 357.312C306.41 357.031 306.016 356.637 305.695 356.129C305.375 355.621 305.117 355.02 304.922 354.324C304.734 353.621 304.598 352.855 304.512 352.027V350.48C304.598 349.605 304.73 348.809 304.91 348.09C305.098 347.363 305.352 346.738 305.672 346.215C306 345.691 306.398 345.289 306.867 345.008C307.336 344.727 307.895 344.586 308.543 344.586C309.223 344.586 309.82 344.707 310.336 344.949C310.852 345.191 311.281 345.562 311.625 346.062C311.977 346.562 312.238 347.195 312.41 347.961C312.59 348.719 312.68 349.617 312.68 350.656ZM309.949 351.664V350.656C309.949 350.008 309.906 349.449 309.82 348.98C309.742 348.504 309.609 348.113 309.422 347.809C309.242 347.504 309.012 347.277 308.73 347.129C308.457 346.98 308.117 346.906 307.711 346.906C307.352 346.906 307.035 346.98 306.762 347.129C306.488 347.277 306.258 347.484 306.07 347.75C305.883 348.008 305.734 348.316 305.625 348.676C305.516 349.027 305.445 349.41 305.414 349.824V352.695C305.484 353.195 305.602 353.656 305.766 354.078C305.93 354.492 306.168 354.824 306.48 355.074C306.801 355.324 307.219 355.449 307.734 355.449C308.133 355.449 308.473 355.371 308.754 355.215C309.035 355.059 309.262 354.824 309.434 354.512C309.613 354.199 309.742 353.809 309.82 353.34C309.906 352.863 309.949 352.305 309.949 351.664Z" fill="#001838"></path><rect x="102" y="409" width="41" height="41" rx="20.5" fill="#FEB913" stroke="#FEB913" stroke-width="4"></rect><path d="M118.754 436.907L118.754 436.907L118.763 436.916C119.015 437.154 119.323 437.256 119.634 437.256C119.949 437.256 120.245 437.152 120.501 436.933L120.516 436.921L120.53 436.907L133.245 424.192C133.743 423.714 133.741 422.95 133.239 422.473C132.75 422.009 131.987 422.009 131.498 422.473L131.498 422.473L131.488 422.483L119.65 434.347L113.503 428.201L113.503 428.201L113.494 428.192C113.005 427.727 112.242 427.727 111.753 428.192C111.251 428.668 111.249 429.433 111.748 429.911L118.754 436.907Z" fill="#001838" stroke="#001838"></path><path d="M181.23 431.172H177.633V428.793H181.23C181.816 428.793 182.289 428.668 182.648 428.418C183.016 428.168 183.281 427.824 183.445 427.387C183.617 426.949 183.703 426.453 183.703 425.898C183.703 425.367 183.617 424.867 183.445 424.398C183.281 423.93 183.02 423.551 182.66 423.262C182.301 422.973 181.824 422.828 181.23 422.828H178.43V437.5H175.594V420.438H181.23C182.355 420.438 183.316 420.672 184.113 421.141C184.91 421.609 185.52 422.254 185.941 423.074C186.363 423.887 186.574 424.82 186.574 425.875C186.574 426.977 186.363 427.922 185.941 428.711C185.52 429.5 184.91 430.109 184.113 430.539C183.316 430.961 182.355 431.172 181.23 431.172ZM191.602 427.27V437.5H188.871V424.82H191.473L191.602 427.27ZM194.66 424.738L194.648 427.434C194.492 427.395 194.324 427.371 194.145 427.363C193.973 427.348 193.801 427.34 193.629 427.34C193.254 427.34 192.93 427.406 192.656 427.539C192.383 427.672 192.152 427.863 191.965 428.113C191.777 428.363 191.629 428.664 191.52 429.016C191.418 429.367 191.355 429.766 191.332 430.211L190.746 430.234C190.746 429.438 190.809 428.699 190.934 428.02C191.059 427.332 191.246 426.734 191.496 426.227C191.754 425.711 192.074 425.309 192.457 425.02C192.84 424.73 193.285 424.586 193.793 424.586C193.934 424.586 194.094 424.602 194.273 424.633C194.453 424.664 194.582 424.699 194.66 424.738ZM195.785 431.676V430.656C195.785 429.672 195.906 428.801 196.148 428.043C196.391 427.285 196.734 426.652 197.18 426.145C197.633 425.629 198.164 425.242 198.773 424.984C199.383 424.719 200.055 424.586 200.789 424.586C201.539 424.586 202.219 424.719 202.828 424.984C203.445 425.242 203.977 425.629 204.422 426.145C204.875 426.652 205.223 427.285 205.465 428.043C205.707 428.801 205.828 429.672 205.828 430.656V431.676C205.828 432.66 205.707 433.531 205.465 434.289C205.223 435.047 204.875 435.684 204.422 436.199C203.977 436.707 203.449 437.09 202.84 437.348C202.23 437.605 201.555 437.734 200.812 437.734C200.078 437.734 199.402 437.605 198.785 437.348C198.176 437.09 197.645 436.707 197.191 436.199C196.738 435.684 196.391 435.047 196.148 434.289C195.906 433.531 195.785 432.66 195.785 431.676ZM198.516 430.656V431.676C198.516 432.309 198.57 432.863 198.68 433.34C198.789 433.809 198.945 434.199 199.148 434.512C199.352 434.824 199.594 435.059 199.875 435.215C200.156 435.371 200.469 435.449 200.812 435.449C201.195 435.449 201.527 435.371 201.809 435.215C202.098 435.059 202.336 434.824 202.523 434.512C202.719 434.199 202.863 433.809 202.957 433.34C203.051 432.863 203.098 432.309 203.098 431.676V430.656C203.098 430.031 203.043 429.484 202.934 429.016C202.824 428.539 202.668 428.145 202.465 427.832C202.262 427.512 202.016 427.273 201.727 427.117C201.445 426.961 201.133 426.883 200.789 426.883C200.453 426.883 200.145 426.961 199.863 427.117C199.59 427.273 199.352 427.512 199.148 427.832C198.945 428.145 198.789 428.539 198.68 429.016C198.57 429.484 198.516 430.031 198.516 430.656ZM211.758 437.5H209.027V423.613C209.027 422.668 209.184 421.875 209.496 421.234C209.816 420.586 210.266 420.094 210.844 419.758C211.43 419.422 212.121 419.254 212.918 419.254C213.16 419.254 213.398 419.273 213.633 419.312C213.867 419.344 214.09 419.395 214.301 419.465L214.242 421.691C214.133 421.66 213.996 421.637 213.832 421.621C213.676 421.605 213.523 421.598 213.375 421.598C213.031 421.598 212.738 421.676 212.496 421.832C212.254 421.988 212.07 422.215 211.945 422.512C211.82 422.809 211.758 423.176 211.758 423.613V437.5ZM213.82 424.82V426.93H207.434V424.82H213.82ZM220.488 437.734C219.668 437.734 218.938 437.613 218.297 437.371C217.656 437.121 217.113 436.754 216.668 436.27C216.223 435.777 215.883 435.176 215.648 434.465C215.414 433.746 215.297 432.914 215.297 431.969V430.75C215.297 429.68 215.418 428.758 215.66 427.984C215.91 427.203 216.254 426.562 216.691 426.062C217.129 425.562 217.645 425.191 218.238 424.949C218.84 424.707 219.492 424.586 220.195 424.586C220.992 424.586 221.684 424.715 222.27 424.973C222.855 425.23 223.336 425.617 223.711 426.133C224.094 426.648 224.375 427.285 224.555 428.043C224.742 428.801 224.836 429.672 224.836 430.656V432.027H216.609V429.965H222.141V429.672C222.125 429.094 222.055 428.598 221.93 428.184C221.805 427.762 221.602 427.441 221.32 427.223C221.047 426.996 220.668 426.883 220.184 426.883C219.832 426.883 219.52 426.949 219.246 427.082C218.973 427.215 218.746 427.43 218.566 427.727C218.395 428.023 218.262 428.422 218.168 428.922C218.074 429.414 218.027 430.023 218.027 430.75V431.969C218.027 432.602 218.082 433.137 218.191 433.574C218.309 434.012 218.48 434.371 218.707 434.652C218.934 434.926 219.207 435.129 219.527 435.262C219.855 435.387 220.234 435.449 220.664 435.449C221.297 435.449 221.84 435.332 222.293 435.098C222.754 434.855 223.152 434.543 223.488 434.16L224.695 435.836C224.469 436.141 224.164 436.441 223.781 436.738C223.398 437.027 222.934 437.266 222.387 437.453C221.848 437.641 221.215 437.734 220.488 437.734ZM232.898 434.16C232.898 433.895 232.82 433.66 232.664 433.457C232.516 433.246 232.273 433.039 231.938 432.836C231.602 432.633 231.152 432.414 230.59 432.18C230.004 431.938 229.484 431.695 229.031 431.453C228.578 431.211 228.195 430.945 227.883 430.656C227.57 430.359 227.332 430.02 227.168 429.637C227.004 429.254 226.922 428.809 226.922 428.301C226.922 427.777 227.02 427.293 227.215 426.848C227.41 426.402 227.691 426.012 228.059 425.676C228.426 425.332 228.867 425.066 229.383 424.879C229.898 424.684 230.48 424.586 231.129 424.586C232.043 424.586 232.824 424.754 233.473 425.09C234.129 425.418 234.629 425.879 234.973 426.473C235.324 427.059 235.5 427.734 235.5 428.5H232.77C232.77 428.18 232.711 427.891 232.594 427.633C232.477 427.367 232.297 427.156 232.055 427C231.812 426.836 231.504 426.754 231.129 426.754C230.785 426.754 230.496 426.82 230.262 426.953C230.035 427.078 229.863 427.25 229.746 427.469C229.637 427.68 229.582 427.918 229.582 428.184C229.582 428.379 229.617 428.551 229.688 428.699C229.758 428.848 229.875 428.992 230.039 429.133C230.203 429.266 230.422 429.402 230.695 429.543C230.977 429.684 231.332 429.844 231.762 430.023C232.613 430.352 233.32 430.691 233.883 431.043C234.445 431.395 234.867 431.805 235.148 432.273C235.43 432.742 235.57 433.324 235.57 434.02C235.57 434.582 235.465 435.09 235.254 435.543C235.051 435.996 234.754 436.387 234.363 436.715C233.98 437.043 233.516 437.297 232.969 437.477C232.43 437.648 231.828 437.734 231.164 437.734C230.172 437.734 229.332 437.539 228.645 437.148C227.965 436.75 227.449 436.238 227.098 435.613C226.746 434.988 226.57 434.328 226.57 433.633H229.207C229.23 434.133 229.336 434.523 229.523 434.805C229.719 435.086 229.965 435.281 230.262 435.391C230.559 435.492 230.867 435.543 231.188 435.543C231.57 435.543 231.887 435.492 232.137 435.391C232.387 435.281 232.574 435.121 232.699 434.91C232.832 434.699 232.898 434.449 232.898 434.16ZM243.82 434.16C243.82 433.895 243.742 433.66 243.586 433.457C243.438 433.246 243.195 433.039 242.859 432.836C242.523 432.633 242.074 432.414 241.512 432.18C240.926 431.938 240.406 431.695 239.953 431.453C239.5 431.211 239.117 430.945 238.805 430.656C238.492 430.359 238.254 430.02 238.09 429.637C237.926 429.254 237.844 428.809 237.844 428.301C237.844 427.777 237.941 427.293 238.137 426.848C238.332 426.402 238.613 426.012 238.98 425.676C239.348 425.332 239.789 425.066 240.305 424.879C240.82 424.684 241.402 424.586 242.051 424.586C242.965 424.586 243.746 424.754 244.395 425.09C245.051 425.418 245.551 425.879 245.895 426.473C246.246 427.059 246.422 427.734 246.422 428.5H243.691C243.691 428.18 243.633 427.891 243.516 427.633C243.398 427.367 243.219 427.156 242.977 427C242.734 426.836 242.426 426.754 242.051 426.754C241.707 426.754 241.418 426.82 241.184 426.953C240.957 427.078 240.785 427.25 240.668 427.469C240.559 427.68 240.504 427.918 240.504 428.184C240.504 428.379 240.539 428.551 240.609 428.699C240.68 428.848 240.797 428.992 240.961 429.133C241.125 429.266 241.344 429.402 241.617 429.543C241.898 429.684 242.254 429.844 242.684 430.023C243.535 430.352 244.242 430.691 244.805 431.043C245.367 431.395 245.789 431.805 246.07 432.273C246.352 432.742 246.492 433.324 246.492 434.02C246.492 434.582 246.387 435.09 246.176 435.543C245.973 435.996 245.676 436.387 245.285 436.715C244.902 437.043 244.438 437.297 243.891 437.477C243.352 437.648 242.75 437.734 242.086 437.734C241.094 437.734 240.254 437.539 239.566 437.148C238.887 436.75 238.371 436.238 238.02 435.613C237.668 434.988 237.492 434.328 237.492 433.633H240.129C240.152 434.133 240.258 434.523 240.445 434.805C240.641 435.086 240.887 435.281 241.184 435.391C241.48 435.492 241.789 435.543 242.109 435.543C242.492 435.543 242.809 435.492 243.059 435.391C243.309 435.281 243.496 435.121 243.621 434.91C243.754 434.699 243.82 434.449 243.82 434.16ZM251.766 424.82V437.5H249.035V424.82H251.766ZM248.895 421.504C248.895 421.066 249.027 420.703 249.293 420.414C249.559 420.117 249.93 419.969 250.406 419.969C250.883 419.969 251.254 420.117 251.52 420.414C251.785 420.703 251.918 421.066 251.918 421.504C251.918 421.926 251.785 422.281 251.52 422.57C251.254 422.859 250.883 423.004 250.406 423.004C249.93 423.004 249.559 422.859 249.293 422.57C249.027 422.281 248.895 421.926 248.895 421.504ZM254.285 431.676V430.656C254.285 429.672 254.406 428.801 254.648 428.043C254.891 427.285 255.234 426.652 255.68 426.145C256.133 425.629 256.664 425.242 257.273 424.984C257.883 424.719 258.555 424.586 259.289 424.586C260.039 424.586 260.719 424.719 261.328 424.984C261.945 425.242 262.477 425.629 262.922 426.145C263.375 426.652 263.723 427.285 263.965 428.043C264.207 428.801 264.328 429.672 264.328 430.656V431.676C264.328 432.66 264.207 433.531 263.965 434.289C263.723 435.047 263.375 435.684 262.922 436.199C262.477 436.707 261.949 437.09 261.34 437.348C260.73 437.605 260.055 437.734 259.312 437.734C258.578 437.734 257.902 437.605 257.285 437.348C256.676 437.09 256.145 436.707 255.691 436.199C255.238 435.684 254.891 435.047 254.648 434.289C254.406 433.531 254.285 432.66 254.285 431.676ZM257.016 430.656V431.676C257.016 432.309 257.07 432.863 257.18 433.34C257.289 433.809 257.445 434.199 257.648 434.512C257.852 434.824 258.094 435.059 258.375 435.215C258.656 435.371 258.969 435.449 259.312 435.449C259.695 435.449 260.027 435.371 260.309 435.215C260.598 435.059 260.836 434.824 261.023 434.512C261.219 434.199 261.363 433.809 261.457 433.34C261.551 432.863 261.598 432.309 261.598 431.676V430.656C261.598 430.031 261.543 429.484 261.434 429.016C261.324 428.539 261.168 428.145 260.965 427.832C260.762 427.512 260.516 427.273 260.227 427.117C259.945 426.961 259.633 426.883 259.289 426.883C258.953 426.883 258.645 426.961 258.363 427.117C258.09 427.273 257.852 427.512 257.648 427.832C257.445 428.145 257.289 428.539 257.18 429.016C257.07 429.484 257.016 430.031 257.016 430.656ZM269.379 427.527V437.5H266.648V424.82H269.215L269.379 427.527ZM268.887 430.703H268.02C268.012 429.789 268.109 428.957 268.312 428.207C268.516 427.457 268.805 426.812 269.18 426.273C269.562 425.734 270.016 425.32 270.539 425.031C271.07 424.734 271.66 424.586 272.309 424.586C272.809 424.586 273.266 424.672 273.68 424.844C274.102 425.008 274.461 425.277 274.758 425.652C275.055 426.027 275.281 426.516 275.438 427.117C275.602 427.719 275.684 428.453 275.684 429.32V437.5H272.953V429.297C272.953 428.703 272.887 428.234 272.754 427.891C272.629 427.539 272.441 427.289 272.191 427.141C271.941 426.984 271.625 426.906 271.242 426.906C270.891 426.906 270.566 427.008 270.27 427.211C269.98 427.406 269.73 427.68 269.52 428.031C269.316 428.375 269.16 428.777 269.051 429.238C268.941 429.691 268.887 430.18 268.887 430.703ZM284.309 434.922V428.605C284.309 428.168 284.246 427.816 284.121 427.551C284.004 427.285 283.828 427.094 283.594 426.977C283.367 426.852 283.082 426.789 282.738 426.789C282.379 426.789 282.074 426.863 281.824 427.012C281.582 427.16 281.398 427.363 281.273 427.621C281.148 427.871 281.086 428.16 281.086 428.488H278.355C278.355 427.98 278.457 427.492 278.66 427.023C278.871 426.555 279.172 426.137 279.562 425.77C279.953 425.402 280.426 425.113 280.98 424.902C281.535 424.691 282.152 424.586 282.832 424.586C283.645 424.586 284.367 424.723 285 424.996C285.633 425.262 286.129 425.695 286.488 426.297C286.855 426.891 287.039 427.672 287.039 428.641V434.559C287.039 435.145 287.074 435.668 287.145 436.129C287.223 436.582 287.328 436.977 287.461 437.312V437.5H284.684C284.559 437.195 284.465 436.805 284.402 436.328C284.34 435.852 284.309 435.383 284.309 434.922ZM284.672 429.777L284.684 431.547H283.371C282.98 431.547 282.629 431.602 282.316 431.711C282.004 431.812 281.738 431.961 281.52 432.156C281.309 432.344 281.145 432.574 281.027 432.848C280.918 433.121 280.863 433.422 280.863 433.75C280.863 434.148 280.918 434.473 281.027 434.723C281.145 434.973 281.312 435.16 281.531 435.285C281.758 435.402 282.031 435.461 282.352 435.461C282.789 435.461 283.168 435.367 283.488 435.18C283.816 434.984 284.066 434.75 284.238 434.477C284.418 434.203 284.488 433.953 284.449 433.727L285.07 434.863C285.008 435.16 284.891 435.473 284.719 435.801C284.555 436.129 284.34 436.441 284.074 436.738C283.809 437.035 283.488 437.277 283.113 437.465C282.738 437.645 282.305 437.734 281.812 437.734C281.102 437.734 280.469 437.586 279.914 437.289C279.359 436.992 278.922 436.566 278.602 436.012C278.289 435.449 278.133 434.777 278.133 433.996C278.133 433.363 278.238 432.789 278.449 432.273C278.66 431.758 278.973 431.316 279.387 430.949C279.801 430.574 280.32 430.285 280.945 430.082C281.578 429.879 282.316 429.777 283.16 429.777H284.672ZM292.734 419.5V437.5H290.004V419.5H292.734ZM298.547 424.82V437.5H295.816V424.82H298.547ZM295.676 421.504C295.676 421.066 295.809 420.703 296.074 420.414C296.34 420.117 296.711 419.969 297.188 419.969C297.664 419.969 298.035 420.117 298.301 420.414C298.566 420.703 298.699 421.066 298.699 421.504C298.699 421.926 298.566 422.281 298.301 422.57C298.035 422.859 297.664 423.004 297.188 423.004C296.711 423.004 296.34 422.859 296.074 422.57C295.809 422.281 295.676 421.926 295.676 421.504ZM307.336 434.16C307.336 433.895 307.258 433.66 307.102 433.457C306.953 433.246 306.711 433.039 306.375 432.836C306.039 432.633 305.59 432.414 305.027 432.18C304.441 431.938 303.922 431.695 303.469 431.453C303.016 431.211 302.633 430.945 302.32 430.656C302.008 430.359 301.77 430.02 301.605 429.637C301.441 429.254 301.359 428.809 301.359 428.301C301.359 427.777 301.457 427.293 301.652 426.848C301.848 426.402 302.129 426.012 302.496 425.676C302.863 425.332 303.305 425.066 303.82 424.879C304.336 424.684 304.918 424.586 305.566 424.586C306.48 424.586 307.262 424.754 307.91 425.09C308.566 425.418 309.066 425.879 309.41 426.473C309.762 427.059 309.938 427.734 309.938 428.5H307.207C307.207 428.18 307.148 427.891 307.031 427.633C306.914 427.367 306.734 427.156 306.492 427C306.25 426.836 305.941 426.754 305.566 426.754C305.223 426.754 304.934 426.82 304.699 426.953C304.473 427.078 304.301 427.25 304.184 427.469C304.074 427.68 304.02 427.918 304.02 428.184C304.02 428.379 304.055 428.551 304.125 428.699C304.195 428.848 304.312 428.992 304.477 429.133C304.641 429.266 304.859 429.402 305.133 429.543C305.414 429.684 305.77 429.844 306.199 430.023C307.051 430.352 307.758 430.691 308.32 431.043C308.883 431.395 309.305 431.805 309.586 432.273C309.867 432.742 310.008 433.324 310.008 434.02C310.008 434.582 309.902 435.09 309.691 435.543C309.488 435.996 309.191 436.387 308.801 436.715C308.418 437.043 307.953 437.297 307.406 437.477C306.867 437.648 306.266 437.734 305.602 437.734C304.609 437.734 303.77 437.539 303.082 437.148C302.402 436.75 301.887 436.238 301.535 435.613C301.184 434.988 301.008 434.328 301.008 433.633H303.645C303.668 434.133 303.773 434.523 303.961 434.805C304.156 435.086 304.402 435.281 304.699 435.391C304.996 435.492 305.305 435.543 305.625 435.543C306.008 435.543 306.324 435.492 306.574 435.391C306.824 435.281 307.012 435.121 307.137 434.91C307.27 434.699 307.336 434.449 307.336 434.16ZM315.129 427.398V437.5H312.398V424.82H314.965L315.129 427.398ZM314.684 430.703H313.758C313.742 429.82 313.82 429.008 313.992 428.266C314.172 427.523 314.438 426.875 314.789 426.32C315.148 425.766 315.598 425.34 316.137 425.043C316.676 424.738 317.309 424.586 318.035 424.586C318.504 424.586 318.938 424.672 319.336 424.844C319.742 425.008 320.094 425.27 320.391 425.629C320.695 425.988 320.93 426.449 321.094 427.012C321.258 427.574 321.34 428.254 321.34 429.051V437.5H318.609V429.309C318.609 428.699 318.539 428.223 318.398 427.879C318.266 427.527 318.07 427.277 317.812 427.129C317.555 426.98 317.242 426.906 316.875 426.906C316.477 426.906 316.137 427.008 315.855 427.211C315.574 427.406 315.348 427.68 315.176 428.031C315.004 428.375 314.879 428.777 314.801 429.238C314.723 429.691 314.684 430.18 314.684 430.703ZM321.164 429.977L319.887 430.27C319.871 429.496 319.949 428.77 320.121 428.09C320.293 427.402 320.551 426.797 320.895 426.273C321.246 425.75 321.684 425.34 322.207 425.043C322.738 424.738 323.352 424.586 324.047 424.586C324.586 424.586 325.07 424.676 325.5 424.855C325.938 425.027 326.309 425.301 326.613 425.676C326.918 426.051 327.148 426.539 327.305 427.141C327.469 427.734 327.551 428.457 327.551 429.309V437.5H324.809V429.297C324.809 428.664 324.738 428.176 324.598 427.832C324.465 427.488 324.27 427.25 324.012 427.117C323.754 426.977 323.445 426.906 323.086 426.906C322.773 426.906 322.496 426.988 322.254 427.152C322.02 427.309 321.82 427.527 321.656 427.809C321.492 428.09 321.367 428.418 321.281 428.793C321.203 429.16 321.164 429.555 321.164 429.977Z" fill="#001838"></path><rect x="102" y="489" width="41" height="41" rx="20.5" fill="#FEB913" stroke="#FEB913" stroke-width="4"></rect><path d="M118.754 516.907L118.754 516.907L118.763 516.916C119.015 517.154 119.323 517.256 119.634 517.256C119.949 517.256 120.245 517.152 120.501 516.933L120.516 516.921L120.53 516.907L133.245 504.192C133.743 503.714 133.741 502.95 133.239 502.473C132.75 502.009 131.987 502.009 131.498 502.473L131.498 502.473L131.488 502.483L119.65 514.347L113.503 508.201L113.503 508.201L113.494 508.192C113.005 507.727 112.242 507.727 111.753 508.192C111.251 508.668 111.249 509.433 111.748 509.911L118.754 516.907Z" fill="#001838" stroke="#001838"></path><path d="M184.781 515.121V517.5H177.691V515.121H184.781ZM178.441 500.438V517.5H175.594V500.438H178.441ZM191.684 517.734C190.863 517.734 190.133 517.613 189.492 517.371C188.852 517.121 188.309 516.754 187.863 516.27C187.418 515.777 187.078 515.176 186.844 514.465C186.609 513.746 186.492 512.914 186.492 511.969V510.75C186.492 509.68 186.613 508.758 186.855 507.984C187.105 507.203 187.449 506.562 187.887 506.062C188.324 505.562 188.84 505.191 189.434 504.949C190.035 504.707 190.688 504.586 191.391 504.586C192.188 504.586 192.879 504.715 193.465 504.973C194.051 505.23 194.531 505.617 194.906 506.133C195.289 506.648 195.57 507.285 195.75 508.043C195.938 508.801 196.031 509.672 196.031 510.656V512.027H187.805V509.965H193.336V509.672C193.32 509.094 193.25 508.598 193.125 508.184C193 507.762 192.797 507.441 192.516 507.223C192.242 506.996 191.863 506.883 191.379 506.883C191.027 506.883 190.715 506.949 190.441 507.082C190.168 507.215 189.941 507.43 189.762 507.727C189.59 508.023 189.457 508.422 189.363 508.922C189.27 509.414 189.223 510.023 189.223 510.75V511.969C189.223 512.602 189.277 513.137 189.387 513.574C189.504 514.012 189.676 514.371 189.902 514.652C190.129 514.926 190.402 515.129 190.723 515.262C191.051 515.387 191.43 515.449 191.859 515.449C192.492 515.449 193.035 515.332 193.488 515.098C193.949 514.855 194.348 514.543 194.684 514.16L195.891 515.836C195.664 516.141 195.359 516.441 194.977 516.738C194.594 517.027 194.129 517.266 193.582 517.453C193.043 517.641 192.41 517.734 191.684 517.734ZM204.105 514.922V508.605C204.105 508.168 204.043 507.816 203.918 507.551C203.801 507.285 203.625 507.094 203.391 506.977C203.164 506.852 202.879 506.789 202.535 506.789C202.176 506.789 201.871 506.863 201.621 507.012C201.379 507.16 201.195 507.363 201.07 507.621C200.945 507.871 200.883 508.16 200.883 508.488H198.152C198.152 507.98 198.254 507.492 198.457 507.023C198.668 506.555 198.969 506.137 199.359 505.77C199.75 505.402 200.223 505.113 200.777 504.902C201.332 504.691 201.949 504.586 202.629 504.586C203.441 504.586 204.164 504.723 204.797 504.996C205.43 505.262 205.926 505.695 206.285 506.297C206.652 506.891 206.836 507.672 206.836 508.641V514.559C206.836 515.145 206.871 515.668 206.941 516.129C207.02 516.582 207.125 516.977 207.258 517.312V517.5H204.48C204.355 517.195 204.262 516.805 204.199 516.328C204.137 515.852 204.105 515.383 204.105 514.922ZM204.469 509.777L204.48 511.547H203.168C202.777 511.547 202.426 511.602 202.113 511.711C201.801 511.812 201.535 511.961 201.316 512.156C201.105 512.344 200.941 512.574 200.824 512.848C200.715 513.121 200.66 513.422 200.66 513.75C200.66 514.148 200.715 514.473 200.824 514.723C200.941 514.973 201.109 515.16 201.328 515.285C201.555 515.402 201.828 515.461 202.148 515.461C202.586 515.461 202.965 515.367 203.285 515.18C203.613 514.984 203.863 514.75 204.035 514.477C204.215 514.203 204.285 513.953 204.246 513.727L204.867 514.863C204.805 515.16 204.688 515.473 204.516 515.801C204.352 516.129 204.137 516.441 203.871 516.738C203.605 517.035 203.285 517.277 202.91 517.465C202.535 517.645 202.102 517.734 201.609 517.734C200.898 517.734 200.266 517.586 199.711 517.289C199.156 516.992 198.719 516.566 198.398 516.012C198.086 515.449 197.93 514.777 197.93 513.996C197.93 513.363 198.035 512.789 198.246 512.273C198.457 511.758 198.77 511.316 199.184 510.949C199.598 510.574 200.117 510.285 200.742 510.082C201.375 509.879 202.113 509.777 202.957 509.777H204.469ZM216.012 514.852V499.5H218.742V517.5L216.27 517.512L216.012 514.852ZM209.203 511.676V510.68C209.203 509.641 209.297 508.742 209.484 507.984C209.672 507.219 209.945 506.582 210.305 506.074C210.672 505.566 211.113 505.191 211.629 504.949C212.145 504.707 212.727 504.586 213.375 504.586C214.008 504.586 214.555 504.73 215.016 505.02C215.477 505.301 215.867 505.703 216.188 506.227C216.508 506.75 216.762 507.375 216.949 508.102C217.145 508.82 217.277 509.625 217.348 510.516V511.898C217.262 512.758 217.125 513.547 216.938 514.266C216.75 514.977 216.496 515.59 216.176 516.105C215.855 516.621 215.461 517.023 214.992 517.312C214.531 517.594 213.988 517.734 213.363 517.734C212.715 517.734 212.133 517.605 211.617 517.348C211.109 517.09 210.672 516.707 210.305 516.199C209.945 515.691 209.672 515.062 209.484 514.312C209.297 513.555 209.203 512.676 209.203 511.676ZM211.934 510.68V511.676C211.934 512.324 211.973 512.883 212.051 513.352C212.129 513.82 212.254 514.207 212.426 514.512C212.598 514.809 212.824 515.031 213.105 515.18C213.387 515.32 213.727 515.391 214.125 515.391C214.625 515.391 215.031 515.266 215.344 515.016C215.664 514.766 215.91 514.43 216.082 514.008C216.262 513.578 216.387 513.102 216.457 512.578V509.848C216.418 509.434 216.34 509.051 216.223 508.699C216.105 508.34 215.953 508.027 215.766 507.762C215.578 507.496 215.348 507.289 215.074 507.141C214.809 506.984 214.496 506.906 214.137 506.906C213.738 506.906 213.398 506.984 213.117 507.141C212.836 507.289 212.609 507.52 212.438 507.832C212.266 508.137 212.137 508.527 212.051 509.004C211.973 509.473 211.934 510.031 211.934 510.68ZM226.395 517.734C225.574 517.734 224.844 517.613 224.203 517.371C223.562 517.121 223.02 516.754 222.574 516.27C222.129 515.777 221.789 515.176 221.555 514.465C221.32 513.746 221.203 512.914 221.203 511.969V510.75C221.203 509.68 221.324 508.758 221.566 507.984C221.816 507.203 222.16 506.562 222.598 506.062C223.035 505.562 223.551 505.191 224.145 504.949C224.746 504.707 225.398 504.586 226.102 504.586C226.898 504.586 227.59 504.715 228.176 504.973C228.762 505.23 229.242 505.617 229.617 506.133C230 506.648 230.281 507.285 230.461 508.043C230.648 508.801 230.742 509.672 230.742 510.656V512.027H222.516V509.965H228.047V509.672C228.031 509.094 227.961 508.598 227.836 508.184C227.711 507.762 227.508 507.441 227.227 507.223C226.953 506.996 226.574 506.883 226.09 506.883C225.738 506.883 225.426 506.949 225.152 507.082C224.879 507.215 224.652 507.43 224.473 507.727C224.301 508.023 224.168 508.422 224.074 508.922C223.98 509.414 223.934 510.023 223.934 510.75V511.969C223.934 512.602 223.988 513.137 224.098 513.574C224.215 514.012 224.387 514.371 224.613 514.652C224.84 514.926 225.113 515.129 225.434 515.262C225.762 515.387 226.141 515.449 226.57 515.449C227.203 515.449 227.746 515.332 228.199 515.098C228.66 514.855 229.059 514.543 229.395 514.16L230.602 515.836C230.375 516.141 230.07 516.441 229.688 516.738C229.305 517.027 228.84 517.266 228.293 517.453C227.754 517.641 227.121 517.734 226.395 517.734ZM235.664 507.27V517.5H232.934V504.82H235.535L235.664 507.27ZM238.723 504.738L238.711 507.434C238.555 507.395 238.387 507.371 238.207 507.363C238.035 507.348 237.863 507.34 237.691 507.34C237.316 507.34 236.992 507.406 236.719 507.539C236.445 507.672 236.215 507.863 236.027 508.113C235.84 508.363 235.691 508.664 235.582 509.016C235.48 509.367 235.418 509.766 235.395 510.211L234.809 510.234C234.809 509.438 234.871 508.699 234.996 508.02C235.121 507.332 235.309 506.734 235.559 506.227C235.816 505.711 236.137 505.309 236.52 505.02C236.902 504.73 237.348 504.586 237.855 504.586C237.996 504.586 238.156 504.602 238.336 504.633C238.516 504.664 238.645 504.699 238.723 504.738ZM246.469 514.16C246.469 513.895 246.391 513.66 246.234 513.457C246.086 513.246 245.844 513.039 245.508 512.836C245.172 512.633 244.723 512.414 244.16 512.18C243.574 511.938 243.055 511.695 242.602 511.453C242.148 511.211 241.766 510.945 241.453 510.656C241.141 510.359 240.902 510.02 240.738 509.637C240.574 509.254 240.492 508.809 240.492 508.301C240.492 507.777 240.59 507.293 240.785 506.848C240.98 506.402 241.262 506.012 241.629 505.676C241.996 505.332 242.438 505.066 242.953 504.879C243.469 504.684 244.051 504.586 244.699 504.586C245.613 504.586 246.395 504.754 247.043 505.09C247.699 505.418 248.199 505.879 248.543 506.473C248.895 507.059 249.07 507.734 249.07 508.5H246.34C246.34 508.18 246.281 507.891 246.164 507.633C246.047 507.367 245.867 507.156 245.625 507C245.383 506.836 245.074 506.754 244.699 506.754C244.355 506.754 244.066 506.82 243.832 506.953C243.605 507.078 243.434 507.25 243.316 507.469C243.207 507.68 243.152 507.918 243.152 508.184C243.152 508.379 243.188 508.551 243.258 508.699C243.328 508.848 243.445 508.992 243.609 509.133C243.773 509.266 243.992 509.402 244.266 509.543C244.547 509.684 244.902 509.844 245.332 510.023C246.184 510.352 246.891 510.691 247.453 511.043C248.016 511.395 248.438 511.805 248.719 512.273C249 512.742 249.141 513.324 249.141 514.02C249.141 514.582 249.035 515.09 248.824 515.543C248.621 515.996 248.324 516.387 247.934 516.715C247.551 517.043 247.086 517.297 246.539 517.477C246 517.648 245.398 517.734 244.734 517.734C243.742 517.734 242.902 517.539 242.215 517.148C241.535 516.75 241.02 516.238 240.668 515.613C240.316 514.988 240.141 514.328 240.141 513.633H242.777C242.801 514.133 242.906 514.523 243.094 514.805C243.289 515.086 243.535 515.281 243.832 515.391C244.129 515.492 244.438 515.543 244.758 515.543C245.141 515.543 245.457 515.492 245.707 515.391C245.957 515.281 246.145 515.121 246.27 514.91C246.402 514.699 246.469 514.449 246.469 514.16ZM254.203 499.5V517.5H251.484V499.5H254.203ZM253.723 510.703H252.855C252.848 509.82 252.941 509.008 253.137 508.266C253.332 507.523 253.613 506.875 253.98 506.32C254.348 505.766 254.789 505.34 255.305 505.043C255.828 504.738 256.406 504.586 257.039 504.586C257.562 504.586 258.035 504.676 258.457 504.855C258.887 505.027 259.254 505.301 259.559 505.676C259.871 506.051 260.109 506.543 260.273 507.152C260.438 507.754 260.52 508.488 260.52 509.355V517.5H257.789V509.332C257.789 508.73 257.723 508.254 257.59 507.902C257.465 507.551 257.277 507.297 257.027 507.141C256.777 506.984 256.461 506.906 256.078 506.906C255.703 506.906 255.367 507.008 255.07 507.211C254.773 507.406 254.523 507.68 254.32 508.031C254.125 508.375 253.977 508.777 253.875 509.238C253.773 509.691 253.723 510.18 253.723 510.703ZM266.133 504.82V517.5H263.402V504.82H266.133ZM263.262 501.504C263.262 501.066 263.395 500.703 263.66 500.414C263.926 500.117 264.297 499.969 264.773 499.969C265.25 499.969 265.621 500.117 265.887 500.414C266.152 500.703 266.285 501.066 266.285 501.504C266.285 501.926 266.152 502.281 265.887 502.57C265.621 502.859 265.25 503.004 264.773 503.004C264.297 503.004 263.926 502.859 263.66 502.57C263.395 502.281 263.262 501.926 263.262 501.504ZM271.781 507.258V522.375H269.062V504.82H271.559L271.781 507.258ZM278.602 510.656V511.664C278.602 512.656 278.512 513.531 278.332 514.289C278.152 515.047 277.887 515.684 277.535 516.199C277.191 516.707 276.766 517.09 276.258 517.348C275.75 517.605 275.156 517.734 274.477 517.734C273.836 517.734 273.277 517.594 272.801 517.312C272.332 517.031 271.938 516.637 271.617 516.129C271.297 515.621 271.039 515.02 270.844 514.324C270.656 513.621 270.52 512.855 270.434 512.027V510.48C270.52 509.605 270.652 508.809 270.832 508.09C271.02 507.363 271.273 506.738 271.594 506.215C271.922 505.691 272.32 505.289 272.789 505.008C273.258 504.727 273.816 504.586 274.465 504.586C275.145 504.586 275.742 504.707 276.258 504.949C276.773 505.191 277.203 505.562 277.547 506.062C277.898 506.562 278.16 507.195 278.332 507.961C278.512 508.719 278.602 509.617 278.602 510.656ZM275.871 511.664V510.656C275.871 510.008 275.828 509.449 275.742 508.98C275.664 508.504 275.531 508.113 275.344 507.809C275.164 507.504 274.934 507.277 274.652 507.129C274.379 506.98 274.039 506.906 273.633 506.906C273.273 506.906 272.957 506.98 272.684 507.129C272.41 507.277 272.18 507.484 271.992 507.75C271.805 508.008 271.656 508.316 271.547 508.676C271.438 509.027 271.367 509.41 271.336 509.824V512.695C271.406 513.195 271.523 513.656 271.688 514.078C271.852 514.492 272.09 514.824 272.402 515.074C272.723 515.324 273.141 515.449 273.656 515.449C274.055 515.449 274.395 515.371 274.676 515.215C274.957 515.059 275.184 514.824 275.355 514.512C275.535 514.199 275.664 513.809 275.742 513.34C275.828 512.863 275.871 512.305 275.871 511.664Z" fill="#001838"></path></svg>