<svg xmlns="http://www.w3.org/2000/svg" width="232" height="213" viewBox="0 0 232 213" fill="none"><path d="M116 24.9871C139.2 24.9871 172.55 29.6996 175.45 39.8496C177.988 49.2746 205.9 148.6 205.9 148.6C213.512 180.137 177.625 187.75 172.912 187.75L176.175 210.225C176.175 210.225 222.212 204.425 230.187 164.55C230.55 162.375 231.275 157.662 230.187 153.675L197.562 29.6996C189.225 2.14962 128.325 2.51212 116 2.14962C104.037 1.78712 42.775 2.14962 34.4375 30.0621L1.8125 154.037C0.724995 158.387 1.45 162.737 2.175 164.912C12.6875 207.325 56.1875 210.587 56.1875 210.587L59.45 188.112C48.575 188.475 20.3 175.787 25.7375 150.775C25.7375 150.775 54.0125 49.2746 56.9125 39.8496C59.45 29.6996 92.8 25.3496 116 24.9871Z" fill="#E03A3E"></path><path d="M175.45 212.037L171.825 187.025H173.275C176.9 187.025 192.85 183.4 201.188 172.887C206.262 166.362 207.712 158.387 205.537 149.325C205.175 148.237 177.987 49.9998 175.087 40.5748C174 36.5873 166.387 32.5998 153.7 30.0623C142.825 27.8873 129.05 26.4373 116.725 26.4373C104.037 26.4373 90.2625 27.8873 79.75 30.0623C67.0625 32.5998 59.45 36.2248 58.3625 40.5748C55.825 49.9998 27.9125 148.962 27.1875 151.5C25.375 159.837 27.1875 167.087 32.625 173.612C40.2375 182.675 53.2875 187.387 59.8125 187.387H61.2625L57.6375 212.4H56.55C56.1875 212.4 45.3125 211.675 32.9875 205.512C21.025 199.35 6.525 187.75 0.725002 165.275C2.26125e-06 162.375 -0.362498 158.025 0.362502 153.675L32.9875 29.6998C36.6125 17.3748 50.3875 9.03732 73.225 4.32482C93.1625 0.337317 112.375 0.699817 116 1.06232C116.725 1.06232 117.45 1.06232 118.537 1.06232C126.875 1.42482 144.637 1.78732 161.312 5.41232C182.7 10.1248 195.025 18.0998 198.65 30.0623L231.275 154.037C232.362 159.475 231.637 164.55 231.275 165.637C229.1 177.237 221.85 193.187 200.825 204.062C188.137 210.587 176.9 212.037 176.537 212.037H175.45ZM112.012 3.23732C96.7875 3.23732 43.1375 5.04982 35.1625 30.4248L2.5375 154.4C1.8125 158.025 2.175 162.375 2.9 164.912C7.25 182.312 17.4 195 33.35 202.975C43.1375 207.687 52.2 209.137 55.1 209.5L58.3625 189.2C51.1125 188.837 38.7875 184.125 30.8125 174.7C25.0125 167.812 23.2 159.475 25.0125 150.775C25.375 149.687 53.2875 49.2748 56.1875 39.8498C58.725 28.2498 93.525 24.2623 116 23.8998V24.9873V23.8998C128.688 23.8998 142.825 25.3498 153.7 27.5248C167.475 30.4248 175.087 34.4123 176.9 39.4873C179.437 48.9123 206.987 147.512 207.35 148.237C209.887 158.387 208.075 166.725 202.637 173.975C194.3 184.487 179.8 188.112 174.362 188.837L177.625 209.137C180.887 208.775 190.312 206.6 200.462 201.525C216.775 193.187 226.562 180.862 229.825 164.55C230.188 162.012 230.55 157.662 229.825 154.037L197.2 30.0623C192.125 13.0248 165.662 3.96232 118.9 2.87482C117.812 2.87482 117.087 2.87482 116.362 2.87482C115.637 3.23732 114.188 3.23732 112.012 3.23732Z" fill="#E03A3E"></path></svg>