<svg xmlns="http://www.w3.org/2000/svg" xmlns:xlink="http://www.w3.org/1999/xlink" id="Layer_1" x="0px" y="0px" width="289.4px" height="265.6px" viewBox="0 0 289.4 265.6" style="enable-background:new 0 0 289.4 265.6;" xml:space="preserve"><style type="text/css">	.st0{fill:#E9CCAB;}	.st1{fill:#FFFFFF;}	.st2{fill:#E03A3E;}	.st3{fill:#D4A46B;}	.st4{fill:#00AEEF;}	.st5{fill:none;}</style><g>	<g>		<path class="st0" d="M125.6,252.2l19.7,7.2l22.9-7.2H221l1.8,4.5c0,0,50.2-3.6,61.4-56.5c0.4-2.7,0.4-6.3-0.9-11.7L243.9,38.4   C233.6,5.2,159.6,5.2,144.8,4.8c-14.8-0.4-88.8,0-99.1,34.1L6.3,189c-1.3,5.4-1.3,9-0.9,11.7c11.7,52.9,61,55.6,61,55.6l1.8-4.5   L125.6,252.2z"></path>		<path class="st1" d="M145.3,259.8l-19.7-7.2H68.6l-1.8,4.5h-0.4c0,0-12.6-0.9-26.4-8.1c-12.6-7.2-29.1-20.6-35-48.4   c-0.4-2.7-0.4-6.3,0.9-11.7L45.3,38.8C56.5,2.1,141.2,4.3,144.8,4.3c0.9,0,1.8,0,3.1,0c10.3,0.4,31.4,0.9,52,4.9   c25.5,5.4,40.3,15.2,44.8,29.1l39,150.6c1.3,5.4,1.3,9,0.9,11.7c-5.8,27.3-22.4,41.2-35.4,48.4c-13.9,7.6-26.4,8.5-26.4,8.5h-0.4   l-1.8-4.5h-52.4L145.3,259.8z M68.2,251.3L68.2,251.3H126l0,0l19.3,7.2l22.9-6.7h53.3l1.8,4.5c2.2,0,13.4-1.8,26-8.1   c12.6-6.7,28.7-20.6,34.5-47.5c0.4-2.7,0.4-5.8-0.9-11.2L243.4,38.8c-4-13.4-18.8-22.9-43.9-28.2c-20.2-4.5-41.7-4.9-51.5-4.9   c-1.3,0-2.2,0-3.1,0c-3.6,0-87.4-2.2-98.6,33.6L6.8,189.4c-1.3,5.4-1.3,9-0.9,11.2c5.8,27.3,22,40.8,34.5,47.5   c12.6,6.7,23.8,7.6,25.5,8.1L68.2,251.3z"></path>	</g>	<g>		<path class="st2" d="M144.8,30.8c28.7,0,69.9,5.8,73.5,18.4c3.1,11.7,37.7,134.5,37.7,134.5c9.4,39-35,48.4-40.8,48.4l4,27.8   c0,0,56.9-7.2,66.8-56.5c0.4-2.7,1.3-8.5,0-13.4L245.7,36.6C235.4,2.5,160.1,3,144.8,2.5C130,2.1,54.3,2.5,44,37L3.6,190.3   c-1.3,5.4-0.4,10.8,0.4,13.4c13,52.4,66.8,56.5,66.8,56.5l4-27.8c-13.4,0.4-48.4-15.2-41.7-46.2c0,0,35-125.5,38.5-137.2   C74.9,36.6,116.1,31.2,144.8,30.8z"></path>		<path class="st2" d="M218.3,262.1l-4.5-30.9h1.8c4.5,0,24.2-4.5,34.5-17.5c6.3-8.1,8.1-17.9,5.4-29.1   c-0.4-1.3-34.1-122.8-37.7-134.5c-1.3-4.9-10.8-9.9-26.4-13c-13.4-2.7-30.5-4.5-45.7-4.5C130,32.6,113,34.3,100,37   c-15.7,3.1-25.1,7.6-26.4,13c-3.1,11.7-37.7,134-38.5,137.2c-2.2,10.3,0,19.3,6.7,27.3c9.4,11.2,25.5,17,33.6,17h1.8l-4.5,30.9   h-1.3c-0.4,0-13.9-0.9-29.1-8.5c-14.8-7.6-32.7-22-39.9-49.8c-0.9-3.6-1.3-9-0.4-14.3L42.2,36.6C46.7,21.3,63.7,11,91.9,5.2   c24.7-4.9,48.4-4.5,52.9-4c0.9,0,1.8,0,3.1,0c10.3,0.4,32.3,0.9,52.9,5.4c26.4,5.8,41.7,15.7,46.2,30.5l40.3,153.3   c1.3,6.7,0.4,13,0,14.3c-2.7,14.3-11.7,34.1-37.7,47.5c-15.7,8.1-29.6,9.9-30,9.9H218.3z M139.9,3.9c-18.8,0-85.2,2.2-95,33.6   L4.5,190.8c-0.9,4.5-0.4,9.9,0.4,13c5.4,21.5,17.9,37.2,37.7,47.1c12.1,5.8,23.3,7.6,26.9,8.1l4-25.1c-9-0.4-24.2-6.3-34.1-17.9   c-7.2-8.5-9.4-18.8-7.2-29.6l0,0c0.4-1.3,35-125.5,38.5-137.2c3.1-14.3,46.2-19.3,74-19.7v1.3v-1.3c15.7,0,33.2,1.8,46.6,4.5   c17,3.6,26.4,8.5,28.7,14.8c3.1,11.7,37.2,133.6,37.7,134.5c3.1,12.6,0.9,22.9-5.8,31.8c-10.3,13-28.2,17.5-35,18.4l4,25.1   c4-0.4,15.7-3.1,28.2-9.4c20.2-10.3,32.3-25.5,36.3-45.7c0.4-3.1,0.9-8.5,0-13L245.2,37C239,16,206.2,4.8,148.4,3.4   c-1.3,0-2.2,0-3.1,0C144.4,3.9,142.6,3.9,139.9,3.9z"></path>	</g>	<path class="st1" d="M68.6,257.6l-1.3-0.4c-19.3-3.6-52.9-15.7-61.9-55.6c-0.4-3.1-0.4-8.1,0.9-13L45.8,39.3  c4.5-14.8,20.6-25.1,48.4-30.5c23.3-4.5,46.2-4,50.7-4c0.9,0,1.8,0,3.1,0c10.3,0.4,31.4,0.9,51.5,4.9c25.5,5.4,40.8,15.2,44.8,29.6  l39,148.8c0.9,4.9,1.3,8.5,0.9,12.1c-5.8,44.8-56,55.6-61.9,56.9H221l-3.6-22h1.3c6.3-0.9,26-7.6,35.9-21.5  c5.4-8.1,6.7-17,4.5-26.9c-0.4-1.3-35.4-127.7-39-139.9c-1.3-5.4-11.2-10.3-27.3-13.4C178.9,30.8,161,29,145.3,29  c-16.1,0-34.1,1.8-47.5,4.5c-16.1,3.6-26,8.1-27.3,13.4c-3.6,12.1-38.5,139-39,139.9c-2.2,9.9-0.9,19.3,4.5,26.9  c10.3,15.2,31.4,21.1,35.9,21.5h1.3L68.6,257.6z M140.4,7.4c-18.4,0-82.5,2.2-91.9,32.7L9,189c-0.9,4.5-1.3,9.4-0.9,11.7  c8.1,37.7,39.4,49.8,58.3,53.3l2.7-16.6c-8.5-1.8-26.9-9-36.3-22.4c-5.8-8.5-7.6-18.4-4.9-29.1c0.4-1.3,35.4-128.2,39-140.3  c4.5-14.3,48.9-19.7,78-20.2c27.8,0,73.5,5.4,78,20.2c3.6,12.1,38.5,139,39,139.9c2.7,10.8,0.9,20.6-4.9,29.1  c-10.3,14.8-29.6,21.1-36.3,22.4l2.7,16.6c5.4-1.3,19.3-4.9,32.3-13.9c15.2-10.3,23.8-23.8,26-40.3c0.4-2.7,0-6.3-0.9-10.8  l-39-148.8C235.4,19.6,204,8.3,148,7.4c-1.3,0-2.2,0-3.1,0C144.4,7.4,142.6,7.4,140.4,7.4z"></path>	<path class="st1" d="M42.6,233.8c1.3-2.2,3.6-2.7,5.8-1.3c0.9,0.4,1.8,1.3,2.2,2.7c0,0.9,0,1.8-0.4,2.7l-3.6,6.3l-1.8-1.3l3.6-5.8  c0.9-1.3,0.4-2.2-0.4-2.7c-1.3-0.9-2.2-0.4-2.7,0.9l-4,5.8l-1.8-1.3L42.6,233.8z"></path>	<path class="st1" d="M29.6,232.5l-1.3-1.3l6.7-8.1l1.8,1.3l-1.8,8.5l0,0l4.9-5.8l1.8,1.3l-7.2,8.1l-1.8-1.3l1.8-8.5l0,0L29.6,232.5  z"></path>	<path class="st1" d="M31.9,218.6l1.3,1.8l-8.5,6.7l-1.3-1.8L31.9,218.6z"></path>	<path class="st1" d="M27.4,211.8l0.9,1.8l-7.6,4l1.3,2.7l-1.8,0.9l-4-7.6l1.8-0.9l1.3,2.7L27.4,211.8z"></path>	<path class="st1" d="M15.3,200.6l0.9,5.4l2.2-0.4l-0.9-4.9l1.8-0.4l0.9,4.9l2.7-0.4l-1.3-5.8l2.2,0l1.8,8.1l-10.8,1.8l-1.3-7.6  L15.3,200.6z"></path>	<path class="st1" d="M14.8,193v-2.2c0-0.9,0.4-2.2,3.6-2.2c1.8,0,3.6,0.9,3.1,2.7v2.2L14.8,193z M23.8,195.7l0.4-4.5  c0.4-3.6-2.7-4.5-5.4-4.9c-1.8,0-4.9,0.4-5.4,4l-0.4,4.5L23.8,195.7z"></path>	<path class="st1" d="M22.9,174.6l0.9-2.7c0-0.9,0.9-1.3,1.8-1.3c0.9,0.4,1.3,0.9,0.9,2.2l-0.9,2.7L22.9,174.6z M26.9,177.8l1.3-4  c0.4-2.2,0.4-2.7,0-3.6s-0.9-1.3-1.8-1.3c-0.9-0.4-2.2,0-3.1,0.9c0-0.4-0.4-1.3-1.8-1.8c-0.9-0.4-2.7,0-3.6,2.2l-1.3,4.9  L26.9,177.8z M18.9,173.7l0.4-2.7c0.4-0.9,0.9-1.3,1.3-1.3c0.9,0,0.9,0.9,0.9,1.8l-0.9,2.7L18.9,173.7z"></path>	<path class="st1" d="M25.2,162.1l-2.7-0.9l0.9-2.7c0.4-1.3,1.3-1.3,1.8-1.3c0.9,0.4,1.3,0.9,0.9,2.2L25.2,162.1z M30.1,165.7  l0.4-2.2l-4-0.9l0.9-2.2c0.4-1.8,0.9-1.3,2.2-1.3c0.9,0.4,1.8,0.4,2.2,0.4l0.4-2.2h-0.4c-0.4,0.4-0.4,0.4-2.2,0s-2.2,0-3.1,0.4  c0-0.9-0.9-1.8-2.2-2.2c-0.9-0.4-3.1-0.4-3.6,2.2l-1.3,5.4L30.1,165.7z"></path>	<path class="st1" d="M28.7,150.4c-2.7-0.9-3.1-2.7-2.7-3.6c0.4-1.3,1.3-2.7,4.5-1.8c2.7,0.9,3.1,2.7,2.7,3.6  C32.8,149.5,31.9,151.3,28.7,150.4z M28.3,152.7c4.9,1.3,6.3-2.2,6.7-3.6c0.4-1.3,0.9-4.9-4-6.3s-6.3,2.2-6.7,3.6  C23.8,147.3,23.4,151.3,28.3,152.7z"></path>	<path class="st1" d="M38.2,136.1l-0.4,2.2l-8.5-2.2l-0.9,3.1l-1.8-0.4l2.2-8.5l1.8,0.4l-0.9,3.1L38.2,136.1z"></path>	<path class="st1" d="M35.9,126.7l4.5,1.3l-0.4,2.2l-10.3-2.7l0.4-2.2l4,0.9l0.9-4l-4-0.9l0.4-2.2l10.3,2.7l-0.4,2.2l-4.5-1.3  L35.9,126.7z"></path>	<path class="st1" d="M36.8,107.9l-1.3,5.4l1.8,0.4l1.3-4.9l1.8,0.4l-1.3,4.9l2.7,0.9l1.3-5.8l1.8,0.4l-2.2,7.6l-9.9-2.2l2.2-7.6  L36.8,107.9z"></path>	<path class="st1" d="M41.3,102.5l-3.1-0.4l0.9-2.7c0.4-1.3,1.3-1.3,1.8-1.3c0.9,0.4,1.3,0.9,0.9,2.2L41.3,102.5z M46.2,106.5  l0.4-2.2l-4-0.9l0.4-2.2c0.4-1.8,0.9-1.3,2.2-1.3c0.9,0.4,1.8,0.4,2.2,0.4L48,98h-0.4c-0.4,0.4-0.4,0.4-2.2,0  c-1.8-0.4-2.2,0-3.1,0.4c0-0.9-0.9-1.8-1.8-2.2s-3.1-0.4-3.6,2.2l-1.3,5.4L46.2,106.5z"></path>	<path class="st1" d="M45.8,90.8l4.5,1.3l-0.4,2.2l-10.3-2.7l0.4-2.2l4,0.9l0.9-4l-4-0.9l0.9-2.2L52,85.9l-0.4,2.2l-4.5-1.3  L45.8,90.8z"></path>	<path class="st1" d="M48.5,78.7c-2.7-0.9-3.1-2.7-2.7-3.6c0.4-1.3,1.3-2.7,4.5-1.8c2.7,0.9,3.1,2.7,2.7,3.6  C52.5,78.3,51.2,79.6,48.5,78.7z M47.6,81c4.9,1.3,6.3-2.2,6.7-3.6c0.4-1.3,0.9-4.9-4-6.3c-4.9-1.3-6.3,2.2-6.7,3.6  C43.1,76,43.1,79.6,47.6,81z"></path>	<path class="st1" d="M52,65.7c-2.7-0.9-3.1-2.7-2.7-3.6c0.4-1.3,1.3-2.7,4.5-1.8c2.7,0.9,3.1,2.7,2.7,3.6  C56.1,65.3,54.7,66.6,52,65.7z M51.2,68c4.9,1.3,6.3-2.2,6.7-3.6c0.4-1.3,0.9-4.9-4-6.3s-6.3,2.2-6.7,3.6  C47.1,63,46.7,66.6,51.2,68z"></path>	<path class="st1" d="M52.5,51.4l0.4-2.2c0.4-0.9,0.9-2.2,4-1.3c1.8,0.4,3.1,1.8,2.7,3.1l-0.4,2.2L52.5,51.4z M60.1,55.9l1.3-4.5  c0.9-3.6-1.8-5.4-4-5.8c-1.8-0.4-4.9-0.9-6.3,2.7l-1.3,4.5L60.1,55.9z"></path>	<path class="st1" d="M65.5,35.2c-1.3-1.8-0.9-3.1,0-3.6c0.9-0.4,2.2-0.9,3.6,0.9c1.3,1.8,0.9,3.1,0,3.6  C68.2,36.6,66.8,37,65.5,35.2z M64.1,36.1c2.2,2.7,4.9,1.3,5.8,0.9c0.9-0.4,2.7-2.7,0.4-5.8c-2.7-2.7-5.4-1.3-6.3-0.9  C63.7,31.2,61.5,33.4,64.1,36.1z"></path>	<path class="st1" d="M76.3,33l-1.3,0.9l-3.6-7.2l4.9-2.2l0.4,1.3l-3.6,0.9l0.9,1.8l3.1-1.3l0.4,0.9l-3.1,1.3L76.3,33z"></path>	<path class="st1" d="M94.2,19.6c-0.4-0.4-0.9-1.8-2.7-1.3c-0.9,0.4-2.2,1.3-1.8,4c0.4,2.2,1.3,3.6,3.1,3.1c1.3-0.4,1.8-1.3,1.8-2.7  l2.2-0.4c0,2.2-0.9,4.5-3.6,4.9c-2.7,0.4-5.4-0.9-5.8-4.5c-0.9-3.1,0.9-5.8,3.6-6.3c3.1-0.9,4.9,1.3,5.4,2.7L94.2,19.6z"></path>	<path class="st1" d="M104,16.9L104,16.9l1.8,4l-2.7,0.4L104,16.9z M103.1,23.1l4-0.4l0.9,2.2l2.2-0.4l-5.4-9.9l-2.7,0.4l-1.8,10.8  l2.2-0.4L103.1,23.1z"></path>	<path class="st1" d="M115.2,17.8l-0.4-2.7l2.7-0.4c1.3,0,1.8,0.9,1.8,1.3c0,0.9-0.4,1.3-1.8,1.8L115.2,17.8z M113.5,24h2.2l-0.4-4  h2.2c1.8,0,1.8,0.4,1.8,1.8c0,0.9,0.4,1.8,0.4,2.2h2.2v-0.4c-0.4,0-0.4-0.4-0.4-2.2c0-1.8-0.4-2.2-1.8-2.7c0.9-0.4,1.3-1.3,1.3-2.7  c0-0.9-0.9-3.1-3.6-2.7l-5.4,0.4L113.5,24z"></path>	<path class="st1" d="M127.8,17.3v-3.1h1.8c1.3,0,1.8,0.4,2.2,1.3c0,0.4,0,1.8-1.8,1.8L127.8,17.3z M128.2,19.1h2.7  c2.7,0,3.1-2.7,3.1-3.6c0-2.2-1.3-3.1-3.6-3.1h-4.9l0.4,10.8h2.2L128.2,19.1z"></path>	<path class="st1" d="M145.3,13.7h-5.8V16h5.4v1.8h-5.4v2.7h5.8v1.8h-8.1V11.5h7.6L145.3,13.7z"></path>	<path class="st1" d="M156.5,11.9h2.2l-0.4,10.8H156l-4-7.6l0,0l-0.4,7.6h-2.2l0.4-10.8h2.2l4,7.6l0,0L156.5,11.9z"></path>	<path class="st1" d="M166.3,23.1h-2.2l0.4-9l-3.1-0.4v-1.8l8.5,0.4v1.8l-2.7,0.4L166.3,23.1z"></path>	<path class="st1" d="M181.6,16l-5.8-0.4l-0.4,2.2l5.4,0.4V20l-5.4-0.4l-0.4,2.7l5.8,0.4v1.8l-8.1-0.9l1.3-10.8l7.6,0.9V16z"></path>	<path class="st1" d="M187.4,19.6l0.4-2.7l2.7,0.4c1.3,0,1.3,0.9,1.3,1.8c0,0.9-0.9,1.3-1.8,1.3L187.4,19.6z M184.3,25.4l2.2,0.4  l0.9-4.5l2.2,0.4c1.8,0.4,1.8,0.9,1.3,2.2c0,0.9,0,1.8,0,2.2l2.2,0.4v-0.4c-0.4-0.4-0.4-0.4,0-2.2s0-2.2-0.9-2.7  c0.9,0,1.8-0.9,2.2-2.2c0-0.9,0-3.1-2.7-3.6l-5.4-0.9L184.3,25.4z"></path>	<path class="st1" d="M199.1,24.5c0,0.4,0,1.8,1.8,2.2c0.9,0.4,2.2,0.4,2.2-0.9c0-0.9-0.4-1.3-1.3-1.8l-0.9-0.4  c-1.8-0.9-3.1-1.8-2.7-4c0.4-0.9,1.3-2.7,4.9-1.8c3.1,0.9,3.6,3.1,3.1,4.5l-2.2-0.9c0-0.4,0-1.8-1.8-2.2c-0.9,0-1.8,0-2.2,0.9  c0,0.9,0.4,1.3,0.9,1.3l2.2,1.3c1.3,0.9,2.7,1.8,2.2,3.6c-0.9,3.1-4,2.7-4.9,2.2c-3.6-0.9-4-3.1-3.6-4.5L199.1,24.5z"></path>	<path class="st1" d="M220.1,29L220.1,29l-0.4,3.1l-1.8-0.9L220.1,29z M216.6,32.1l2.7,1.3l-0.4,1.8l1.8,0.9l1.3-8.5l-1.8-0.9  l-6.3,5.8l1.3,0.9L216.6,32.1z"></path>	<path class="st1" d="M230.9,35.7l0.9,1.3l-6.3,4.9l-0.9-1.3l2.2-6.3l0,0l-4.5,3.6l-0.9-1.3l6.3-4.9l0.9,1.3l-1.8,6.3l0,0  L230.9,35.7z"></path>	<path class="st1" d="M233.1,44.2l0.4,1.3c0,0.9,0.4,1.8-1.8,2.7c-1.3,0.4-2.7,0.4-3.1-0.9l-0.4-1.3L233.1,44.2z M226.4,44.2  l0.9,3.1c0.9,2.7,3.1,2.7,4.9,1.8c1.3-0.4,3.6-1.8,2.7-4l-0.9-3.6L226.4,44.2z"></path>	<path class="st1" d="M235.4,65.7c-2.2,0.4-3.6,0-4-2.2c-0.9-3.6,1.3-4,3.1-4.5l0.4,1.8c-1.8,0.4-2.2,0.9-2.2,1.8  c0.4,0.9,0.9,0.9,1.8,0.9l7.2-2.2l0.4,2.2L235.4,65.7z"></path>	<path class="st1" d="M239.4,70.7c2.7-0.9,4,0.4,4.5,1.8c0.4,1.3,0,3.1-2.7,3.6c-2.7,0.9-4-0.4-4.5-1.8  C236.3,73.3,236.3,71.5,239.4,70.7z M238.5,68.9c-4.9,1.3-4.5,4.9-4,6.3c0.4,1.3,1.8,4.9,6.7,3.6c4.9-1.3,4.5-4.9,4-6.3  C245.2,70.7,243.4,67.5,238.5,68.9z"></path>	<path class="st1" d="M238.1,85.4l-0.4-2.2l10.3-2.7l0.4,2.2L238.1,85.4z"></path>	<path class="st1" d="M251.1,92.6l0.4,1.8l-10.3,3.1l-0.4-2.2L247,89l0,0l-7.2,2.2l-0.9-1.8l10.3-2.7l0.4,2.2l-5.8,6.3l0,0  L251.1,92.6z"></path>	<path class="st1" d="M252.9,107l-1.3-5.4l-2.2,0.4l1.3,4.9l-1.8,0.4l-1.3-4.9l-2.7,0.9l1.8,5.8l-1.8,0.4l-2.2-7.6l10.3-2.7l2.2,7.6  H252.9z"></path>	<path class="st1" d="M252,113.7l2.7-0.9l0.9,2.7c0.4,1.3-0.4,1.8-0.9,1.8c-0.9,0.4-1.3,0-1.8-1.3L252,113.7z M245.7,113.2l0.4,2.2  l4-0.9l0.4,2.2c0.4,1.8,0,1.8-1.3,2.2c-0.9,0.4-1.3,0.4-1.8,0.9l0.4,2.2h0.4c0-0.4,0.4-0.4,1.8-0.9c1.8-0.4,2.2-0.9,2.2-2.2  c0.4,0.9,1.8,1.3,2.7,0.9c0.9-0.4,2.7-1.3,1.8-4l-1.3-5.4L245.7,113.2z"></path>	<path class="st1" d="M252.4,125.8c-0.4,0-1.8,0.9-0.9,2.7c0.4,0.9,0.9,2.2,1.8,1.8c0.9,0,0.9-0.9,0.9-2.2v-1.3c0-1.8,0-3.6,2.2-4  c1.3-0.4,3.1-0.4,4,3.1c0.9,3.1-0.9,4.5-2.2,4.9l-0.4-1.8c0.4,0,1.3-0.4,0.9-2.7c-0.4-0.9-0.9-1.8-1.8-1.3c-0.9,0-0.9,0.9-0.9,1.3  v2.7c0,1.3,0,3.1-1.8,3.6c-3.1,0.9-4-2.2-4.5-3.1c-0.9-3.6,0.9-4.9,2.2-5.4L252.4,125.8z"></path>	<path class="st1" d="M258.2,143.7c2.2-0.4,3.1,0.4,3.1,1.3c0.4,0.9,0,2.2-2.2,2.7c-2.2,0.4-3.1-0.4-3.1-1.3  C256,145.5,256,144.2,258.2,143.7z M257.8,141.9c-3.6,0.9-3.1,3.6-3.1,4.9c0.4,0.9,1.3,3.6,4.9,2.7c3.6-0.9,3.1-3.6,3.1-4.9  C262.7,143.7,261.4,141,257.8,141.9z"></path>	<path class="st1" d="M257.3,154.9l-0.4-1.8l7.6-2.2l1.3,5.4l-1.3,0.4l-0.9-4l-1.8,0.4l0.9,3.6l-1.3,0.4l-0.9-3.6L257.3,154.9z"></path>	<path class="st1" d="M270.3,170.2L270.3,170.2l-3.6,2.2l-0.9-2.2H270.3z M263.6,170.2l0.9,3.6l-1.8,1.3l0.4,2.2l9.4-6.3l-0.9-2.7  l-11.2-0.9l0.4,2.2L263.6,170.2z"></path>	<path class="st1" d="M266.8,190.3l-0.4-2.2l8.5-1.8l0,0h-9l-0.4-2.2l8.5-3.6l0,0l-8.5,1.8L265,180l9.9-1.8l0.9,3.1l-7.6,3.6l0,0  h8.5l0.9,3.1L266.8,190.3z"></path>	<path class="st1" d="M275.3,202l0.4-5.8h-2.2l-0.4,5.4h-1.8l0.4-5.4H269l-0.4,5.8h-1.8l0.4-8.1l10.8,0.4l-0.4,7.6H275.3z"></path>	<path class="st1" d="M270.8,208.7l2.7,0.9l-0.9,2.7c-0.4,1.3-1.3,1.3-1.8,0.9c-0.9-0.4-1.3-0.9-0.9-2.2L270.8,208.7z M265.9,204.7  l-0.9,2.2l4,1.3l-0.9,2.2c-0.4,1.3-1.3,1.3-2.7,0.9c-0.9-0.4-1.8-0.4-2.2-0.4l-0.9,2.2h0.4c0.4-0.4,0.9-0.4,2.2,0.4  c1.8,0.9,2.2,0.4,3.1-0.4c0,0.9,0.9,2.2,1.8,2.2c0.9,0.4,3.1,0.4,4-2.2l1.8-4.9L265.9,204.7z"></path>	<path class="st1" d="M260,217.2l1.3-1.8l9,5.8l-1.3,1.8L260,217.2z"></path>	<path class="st1" d="M258.2,230.2c0.4,0.4,1.8,0.9,3.1-0.4c0.9-0.9,1.3-2.2-0.9-4.5c-1.3-1.3-3.1-2.2-4.5-0.9  c-0.9,0.9-0.9,1.8-0.4,3.1l-1.3,1.8c-1.3-1.8-1.3-4,0.4-6.3c1.8-1.8,4.9-2.2,7.6,0.4c2.7,2.7,2.7,5.4,0.4,7.6  c-2.2,2.2-4.9,1.8-5.8,0.4L258.2,230.2z"></path>	<path class="st1" d="M250.2,237.8L250.2,237.8l-3.6-2.7l2.2-1.3L250.2,237.8z M248.4,231.6l-3.1,2.2l-1.8-1.8l-2.2,1.3l9,6.7  l2.2-1.3l-2.7-11.2l-1.8,1.8L248.4,231.6z"></path>	<g>		<path class="st3" d="M145.3,222.2c0,0,5.4-11.2,32.3-8.1c23.8,2.7,51.1-16.6,36.8-63.2c0,0-13.9-31.8,5.8-56   c0,0-14.3-11.2-20.2-34.5c0,0-31.4,16.6-54.7-1.3l0,0c-23.3,18.4-54.7,1.3-54.7,1.3c-5.8,23.3-20.2,34.5-20.2,34.5   c19.3,24.2,5.8,56,5.8,56c-14.3,46.6,13,65.9,36.8,63.2C139.5,211,145.3,222.2,145.3,222.2z"></path>		<path d="M145.3,224l-0.9-1.8c0,0-5.8-10.8-31.4-7.6c-12.6,1.3-24.7-3.1-32.7-12.1c-7.2-8.5-13.4-24.2-5.4-52l0,0   c0-0.4,13.4-31.4-5.4-55.1l-0.4-0.9L70,94c0,0,14.3-11.2,19.7-34.1l0.4-1.3L91,59c0.4,0,30.9,16.1,53.8-1.3h0.4h0.4h0.4   C169,75.1,199.5,59.4,200,59l0.9-0.4l0.4,1.3C206.7,82.8,221,93.5,221,94l0.9,0.4l-0.4,0.9c-18.8,23.3-5.8,54.7-5.4,55.1l0,0   c8.5,27.8,1.8,43.9-5.4,52c-7.6,9.4-19.7,13.9-32.7,12.1c-25.5-3.1-31.4,7.2-31.4,7.6L145.3,224z M122,212.7   c15.2,0,21.1,5.4,23.3,8.1c2.2-3.1,10.3-9.9,32.3-7.2c12.1,1.3,23.8-2.7,30.9-11.7c6.7-8.1,13-23.3,4.9-50.2   c-0.4-1.3-13-32.3,5.4-56c-3.1-2.7-14.3-13.4-19.3-33.2c-2.7,1.3-9,4-17.9,5.8c-13.9,2.7-26.4,0-36.3-7.2   c-9.9,7.2-22.4,9.9-36.3,7.2c-8.5-1.3-15.2-4.5-17.9-5.8c-4.9,20.2-16.1,30.5-19.3,33.2c18.4,23.8,5.8,54.7,5.4,56   c-8.1,26.9-1.8,42.1,4.9,50.2c7.2,8.5,18.8,13,30.9,11.7C116.1,212.7,118.8,212.7,122,212.7z"></path>	</g>	<g>		<path class="st4" d="M145.3,215.9c0,0,3.6-9.4,27.8-7.2c0,0,22.9,3.6,32.7-11.2s9-20.2,3.1-44.4c-6.3-24.2-8.5-35.9,4-57.4   c0,0-13.9-16.1-16.1-28.7c0,0-28.7,12.6-52-2.2c-22.9,14.3-51.5,2.2-51.5,2.2C91,79.6,77.1,95.8,77.1,95.8   c12.6,22,10.3,33.2,4.5,57.4c-5.8,24.2-7.2,29.6,3.1,44.4c10.3,14.8,32.7,11.2,32.7,11.2C141.2,206.5,145.3,215.9,145.3,215.9z"></path>		<path d="M145.3,217.2l-0.4-1.3c0,0-4-9-27.8-7.2c0,0-23.3,3.6-33.2-11.2c-10.3-14.8-9.4-20.2-3.1-44.8s8.1-35.4-4-56.9v-0.4v-0.4   c0,0,13.9-16.1,16.1-28.7v-0.4l0.4,0.4c0.4,0,28.7,12.1,51.1-2.2h0.4h0.4c22.4,14.3,51.1,2.2,51.5,1.8l0.4-0.4v0.4   c2.2,12.1,16.1,28.2,16.1,28.2v0.4v0.4c-12.6,21.5-10.3,32.3-4,56.9c6.3,24.7,7.2,30-3.1,44.8s-33.2,11.2-33.2,11.2   c-23.3-2.2-27.3,6.7-27.3,7.2L145.3,217.2z M123.8,207.8c14.8,0,19.7,4.9,21.1,7.2c1.3-2.2,7.6-8.5,27.8-6.7   c0.4,0,22.9,3.6,32.3-10.8c9.9-14.8,9-19.7,2.7-43.9c-6.3-24.2-8.5-35.9,4-57.4c-1.8-2.2-13.9-16.1-16.1-28.2   c-4,1.8-30.5,11.2-51.5-2.2c-21.1,13-47.1,3.6-51.1,2.2c-2.2,11.7-14.3,26-16.1,28.2c12.6,21.5,10.3,33.2,4,57.4   s-6.7,29.6,3.1,43.9s32.3,10.8,32.3,10.8C119.3,207.8,122,207.8,123.8,207.8z"></path>	</g>	<polygon class="st2" points="144.4,91.3 123.8,143.3 143.9,189.4 146.2,189.4 165.9,144.2  "></polygon>	<g>		<path class="st3" d="M96,76.5l41.2,123.3h15.7l40.8-122.8l-46.6,111.2c0,0-2.7-0.4-4,0L96,76.5z"></path>		<path d="M136.8,200.2L95.5,76.5l0.9-0.4l47.1,111.2c0.9,0,2.7,0,3.1,0L192.8,76l0.9,0.4l-40.8,123.3L136.8,200.2z M100,87.2   l37.2,111.6h15.2l36.8-111.2l-41.7,100.4h-0.4c-0.9,0-2.7-0.4-3.6,0H143v-0.4L100,87.2z"></path>	</g>	<g>					<rect x="58.2" y="123.6" transform="matrix(0.3703 -0.9289 0.9289 0.3703 -50.4491 192.9821)" class="st3" width="117.9" height="20.2"></rect>		<path d="M104.9,193l-19.7-7.6l43.9-110.3l19.7,7.6v0.4L104.9,193z M86.6,184.5l17.9,7.2L148,83.2L130,76L86.6,184.5z"></path>	</g>	<g>		<g>			<g>				<rect x="133.6" y="75" transform="matrix(0.3721 -0.9282 0.9282 0.3721 12.6614 172.8266)" width="0.9" height="4"></rect>				<rect x="124.6" y="94.2" transform="matrix(0.3712 -0.9286 0.9286 0.3712 -9.0811 175.4673)" width="0.9" height="0.4"></rect>				<rect x="127.3" y="89.5" transform="matrix(0.372 -0.9282 0.9282 0.372 -3.9327 175.4558)" width="0.9" height="2.2"></rect>				<rect x="129.1" y="85" transform="matrix(0.372 -0.9282 0.9282 0.372 1.3976 174.3528)" width="0.9" height="2.2"></rect>				<rect x="130.7" y="79.9" transform="matrix(0.3722 -0.9282 0.9282 0.3722 7.1082 172.632)" width="0.9" height="2.2"></rect>			</g>			<g>				<rect x="126.1" y="93.1" transform="matrix(0.372 -0.9282 0.9282 0.372 -8.8051 177.1662)" width="0.9" height="4"></rect>				<rect x="117.3" y="112.8" transform="matrix(0.3723 -0.9281 0.9281 0.3723 -31.0337 180.2172)" width="0.9" height="0.4"></rect>				<rect x="119.7" y="107.5" transform="matrix(0.3722 -0.9282 0.9282 0.3722 -25.3984 179.7572)" width="0.9" height="2.2"></rect>				<rect x="121.6" y="103" transform="matrix(0.3722 -0.9282 0.9282 0.3722 -20.0688 178.6546)" width="0.9" height="2.2"></rect>				<rect x="123.4" y="98.6" transform="matrix(0.3721 -0.9282 0.9282 0.3721 -14.7369 177.5591)" width="0.9" height="2.2"></rect>			</g>		</g>		<g>			<g>				<rect x="118.8" y="111.6" transform="matrix(0.372 -0.9282 0.9282 0.372 -30.5782 182.0858)" width="0.9" height="4"></rect>				<rect x="109.8" y="130.8" transform="matrix(0.3723 -0.9281 0.9281 0.3723 -52.418 184.5356)" width="0.9" height="0.4"></rect>				<rect x="112.6" y="125.7" transform="matrix(0.3722 -0.9282 0.9282 0.3722 -46.6783 184.5695)" width="0.9" height="2.2"></rect>				<rect x="114.5" y="121.2" transform="matrix(0.3722 -0.9282 0.9282 0.3722 -41.3487 183.4669)" width="0.9" height="2.2"></rect>				<rect x="116.3" y="116.7" transform="matrix(0.3722 -0.9282 0.9282 0.3722 -36.019 182.3637)" width="0.9" height="2.2"></rect>			</g>			<g>				<rect x="111.7" y="129.8" transform="matrix(0.3721 -0.9282 0.9282 0.3721 -51.9311 186.8824)" width="0.9" height="4"></rect>				<rect x="102.6" y="149" transform="matrix(0.3723 -0.9281 0.9281 0.3723 -73.7728 189.3453)" width="0.9" height="0.4"></rect>				<rect x="105.5" y="143.9" transform="matrix(0.372 -0.9282 0.9282 0.372 -68.04 189.4061)" width="0.9" height="2.2"></rect>				<rect x="107.4" y="139.4" transform="matrix(0.3719 -0.9283 0.9283 0.3719 -62.6883 188.3258)" width="0.9" height="2.2"></rect>				<rect x="108.8" y="134.7" transform="matrix(0.3721 -0.9282 0.9282 0.3721 -57.4868 186.7007)" width="0.9" height="2.2"></rect>			</g>		</g>	</g>	<g>					<rect x="162.3" y="74.7" transform="matrix(0.9302 -0.367 0.367 0.9302 -37.0155 72.5736)" class="st3" width="20.2" height="117.9"></rect>		<path d="M184.3,193L140.8,82.3l19.7-7.6L204,185.4L184.3,193z M142.1,82.8l42.6,108.9l17.9-7.2l-43-108.9L142.1,82.8z"></path>	</g>	<g>		<g>			<path class="st3" d="M145.7,139.7v-13l0,0c-0.9-3.1-6.3-0.4-9.4-0.9c-2.7-0.4-0.9-2.2-0.9-2.2c3.6-1.8,4.9-2.7,4.9-2.7    c4-2.2,5.4,0.4,5.4,0.4V120h6.7v37.7h-6.7v-1.8h-0.9c0,0.4-0.4,1.3-0.9,1.3s-0.9-0.9-0.9-1.8c0-0.9,0.4-1.8,0.9-1.8    s0.9,0.4,0.9,0.9c0,0,0.4,0.4,1.3-0.4v-9.9l0,0l-5.8-6.7v-4L145.7,139.7"></path>			<path d="M152.9,157.6h-7.2v-1.8h-0.9c0,0.4-0.4,1.3-1.3,1.3s-1.3-0.9-1.3-1.8c0-0.9,0.4-1.8,1.3-1.8c0.4,0,0.9,0.4,0.9,0.9    c0,0,0.4,0,0.9-0.4v-9.9l-5.8-6.7V133l5.8,6.7v-12.6c-0.4-1.8-2.7-1.3-5.4-0.9c-1.3,0.4-3.1,0.4-4,0.4s-1.3-0.4-1.3-0.9    c-0.4-0.9,0.4-1.8,0.4-1.8l0,0c3.6-1.8,4.9-2.7,4.9-2.7c2.7-1.3,4.5-0.9,5.4,0V120h7.2v37.7H152.9z M146.2,157.2h6.3V120h-6.3    v2.2l-0.4-0.9c0,0-1.3-2.2-4.9-0.4c0,0-1.3,0.9-4.9,2.7c0,0-0.4,0.9-0.4,1.3c0,0.4,0.9,0.4,1.3,0.9c0.9,0,2.7,0,4-0.4    c2.7-0.4,5.4-0.9,5.8,1.3l0,0l0,0v13.9l-6.3-6.7v3.1l5.8,6.7l0,0l0,0v9.9l0,0c-0.4,0.4-0.9,0.9-1.3,0.9c-0.4,0-0.4,0-0.4,0l0,0    c0-0.4-0.4-0.9-0.4-0.9c-0.4,0-0.9,0.4-0.9,1.3s0.4,1.3,0.9,1.3s0.4-0.4,0.9-0.9l0,0h1.3V157.2z"></path>		</g>	</g>	<g>		<path class="st3" d="M176.7,172.9c-35.4,13-63.7,0-63.7,0l6.3-15.2c0,0,25.5,9,51.5,0L176.7,172.9z"></path>		<path d="M144.4,179.1c-18.8,0-31.8-5.8-31.8-5.8h-0.4l6.3-16.1h0.4c0.4,0,25.5,8.5,51.5,0h0.4l6.3,16.1h-0.4   C165,177.8,154.2,179.1,144.4,179.1z M113.5,172.9c3.6,1.3,30.5,11.7,62.8,0l-5.8-14.3c-24.2,8.1-47.5,1.3-51.1,0L113.5,172.9z"></path>	</g>	<path d="M151.1,197.5c-0.9,0-1.3,0-2.2-0.4l0.4-0.9c4,1.3,4.9-1.3,4.9-1.3c0.4-1.3,0-2.7-0.4-4c-2.7-3.1-9.9-2.7-9.9-2.7v-0.9  c0.4,0,8.1-0.4,10.8,3.1c0.9,1.3,1.3,2.7,0.9,4.5C154.7,195.3,154.2,197.5,151.1,197.5z"></path>	<g>		<ellipse class="st3" cx="145.1" cy="200.1" rx="8.5" ry="8.5"></ellipse>		<path d="M144.8,208.7L144.8,208.7c-2.7,0-4.9-0.9-6.3-2.7c-1.8-1.8-2.7-4-2.2-6.3c0-2.2,0.9-4.5,2.7-6.3c1.8-1.8,4-2.7,6.3-2.2   c2.2,0,4.5,0.9,6.3,2.7c1.8,1.8,2.7,4,2.2,6.3C153.8,205.1,149.8,208.7,144.8,208.7z M144.8,192.1c-2.2,0-4,0.9-5.4,2.2   c-1.3,1.3-2.2,3.6-2.7,5.4c0,2.2,0.9,4,2.2,5.8c1.3,1.3,3.6,2.2,5.4,2.7c4.5,0,8.1-3.1,8.1-7.6c0-2.2-0.9-4-2.2-5.8   C149.3,193,147.1,192.1,144.8,192.1L144.8,192.1C145.3,192.1,144.8,192.1,144.8,192.1z"></path>	</g>	<path d="M122.9,171.1l4.5-7.2l3.1,0.9l-6.3,9l-4-0.9l-0.9-11.2l3.1,0.9L122.9,171.1z"></path>	<path d="M131.4,164.8l2.7,0.4l-1.8,10.3l-2.7-0.4L131.4,164.8z"></path>	<path d="M139.9,165.7l3.6,7.2l0.4-7.2h2.7l-0.4,10.3h-3.6l-4-7.6l-0.4,7.6h-2.7l0.4-10.3H139.9z"></path>	<path d="M148,172v-1.8c-0.4-3.6,0.4-4.5,3.6-4.9h1.8c3.6-0.4,4.5,0.4,4.5,3.1l-2.7,0.4c0-0.9-0.4-1.3-2.2-1.3H152  c-1.3,0-1.8,0.4-1.8,2.7v1.3c0,1.8,0.4,2.2,2.2,2.2h0.9c1.8,0,1.8-0.4,1.8-1.3l2.7-0.4c0.4,2.7-0.4,3.6-4,4h-1.3  C149.8,176,148.4,175.5,148,172z"></path>	<path d="M158.7,164.3l2.7-0.4l2.2,10.3l-2.7,0.4L158.7,164.3z"></path>	<path d="M170.8,163.4l-2.7,0.9l2.2,8.1l-2.7,0.9l-1.8-8.5l-2.7,0.9l-0.4-1.8l7.6-2.2L170.8,163.4z"></path>	<g>		<line class="st5" x1="130" y1="75.6" x2="86.6" y2="185"></line>		<rect x="49.5" y="130" transform="matrix(0.3702 -0.9289 0.9289 0.3702 -53.045 182.6832)" width="117.4" height="0.9"></rect>	</g>	<path d="M103.6,161.6l8.1,3.1l1.8-4.9l1.8,0.9l-3.1,8.1l-9.9-4L103.6,161.6z"></path>	<path d="M109.4,146h11.7l-1.3,3.1H117l-1.8,4.5l2.2,1.8l-1.3,3.1l-8.5-8.1L109.4,146z M113.9,152.7l1.3-3.1h-4.9L113.9,152.7z"></path>	<path d="M118.4,131.6c1.8,0.4,1.8,0.9,1.8,1.8c0.4-0.9,1.3-1.3,3.1-0.9c2.2,0.9,2.7,2.2,1.3,4.9l-2.7,7.2l-9.9-4l2.7-6.3  C115.7,131.2,116.6,130.7,118.4,131.6z M117.9,136.1c0.4-0.9,0-1.3-0.4-1.3c-0.4-0.4-0.9,0-1.3,0.9l-0.9,2.2l1.8,0.9L117.9,136.1z   M122.4,137.4c0.4-0.9,0-1.3-0.4-1.8c-0.9-0.4-1.3,0-1.8,0.9l-1.3,3.1l2.2,0.9L122.4,137.4z"></path>	<path d="M122.9,129.8l-1.8-0.9c-3.1-1.3-3.6-2.7-2.2-6.7l0.4-1.8c1.8-4,3.1-4.9,6.3-3.6l1.8,0.9c3.6,1.3,4,2.7,2.2,6.7l-0.9,1.8  C127.4,130.3,126.5,131.2,122.9,129.8z M122.4,126.2l1.8,0.4c1.8,0.4,2.2,0.4,3.1-1.3l0.4-0.9c0.9-1.8,0.4-2.7-1.3-3.1l-1.3-0.4  c-1.8-0.4-2.2-0.4-3.1,1.3l-0.4,0.9C120.6,124.4,120.6,125.3,122.4,126.2z"></path>	<path d="M134.1,109.6c-0.9-0.4-1.8,0-2.2,1.3l-0.4,1.8l3.1,1.3l-1.3,3.1l-9.9-4l2.2-4.9c1.3-3.6,2.7-4.5,4.9-3.1  c1.8,0.9,1.8,1.8,1.8,2.7c0.4-0.9,1.3-1.8,2.7-1.3l2.2,0.9l-1.3,3.1L134.1,109.6z M129.6,109.6c0.4-0.9,0.4-1.3-0.4-1.8  c-0.9-0.4-1.3,0-1.8,0.9l-0.9,2.2l2.2,0.9L129.6,109.6z"></path>	<path d="M128.2,101.6l-7.2-2.7l0.4-0.9l6.7,2.7c0.9-0.9,5.8-4.9,14.3-2.2l-0.4,0.9C133.2,96.2,128.2,101.1,128.2,101.6L128.2,101.6  z"></path>	<g>		<g>			<g>				<rect x="131.7" y="74.5" transform="matrix(0.3721 -0.9282 0.9282 0.3721 11.9818 170.6866)" width="0.9" height="4"></rect>				<rect x="123.1" y="93.8" transform="matrix(0.3712 -0.9286 0.9286 0.3712 -9.6554 173.8179)" width="0.9" height="0.4"></rect>				<rect x="125.5" y="88.5" transform="matrix(0.3719 -0.9283 0.9283 0.3719 -4.0979 173.2228)" width="0.9" height="2.2"></rect>				<rect x="127.4" y="84" transform="matrix(0.3721 -0.9282 0.9282 0.3721 1.2086 172.093)" width="0.9" height="2.2"></rect>				<rect x="129.2" y="79.5" transform="matrix(0.3721 -0.9282 0.9282 0.3721 6.5384 170.99)" width="0.9" height="2.2"></rect>			</g>			<g>				<rect x="124.6" y="92.7" transform="matrix(0.372 -0.9282 0.9282 0.372 -9.3746 175.511)" width="0.9" height="4"></rect>				<rect x="115.5" y="111.8" transform="matrix(0.3718 -0.9283 0.9283 0.3718 -31.1806 178.0421)" width="0.9" height="0.4"></rect>				<rect x="118.4" y="106.7" transform="matrix(0.372 -0.9282 0.9282 0.372 -25.481 178.0233)" width="0.9" height="2.2"></rect>				<rect x="120.2" y="102.2" transform="matrix(0.3722 -0.9282 0.9282 0.3722 -20.151 176.8991)" width="0.9" height="2.2"></rect>				<rect x="122.1" y="97.7" transform="matrix(0.372 -0.9282 0.9282 0.372 -14.8204 175.8171)" width="0.9" height="2.2"></rect>			</g>		</g>		<g>			<g>				<rect x="117.5" y="110.8" transform="matrix(0.372 -0.9282 0.9282 0.372 -30.6561 180.3243)" width="0.9" height="4"></rect>				<rect x="108.3" y="130.4" transform="matrix(0.3727 -0.9279 0.9279 0.3727 -53.0145 182.8041)" width="0.9" height="0.4"></rect>				<rect x="111.1" y="125.3" transform="matrix(0.3722 -0.9282 0.9282 0.3722 -47.2514 182.9203)" width="0.9" height="2.2"></rect>				<rect x="112.6" y="120.6" transform="matrix(0.3722 -0.9282 0.9282 0.3722 -42.0278 181.3266)" width="0.9" height="2.2"></rect>				<rect x="114.4" y="116.1" transform="matrix(0.3722 -0.9282 0.9282 0.3722 -36.6982 180.224)" width="0.9" height="2.2"></rect>			</g>			<g>				<rect x="109.8" y="129.2" transform="matrix(0.3721 -0.9282 0.9282 0.3721 -52.6108 184.7424)" width="0.9" height="4"></rect>				<rect x="101.2" y="148.6" transform="matrix(0.3712 -0.9286 0.9286 0.3712 -74.2908 187.9176)" width="0.9" height="0.4"></rect>				<rect x="103.6" y="143.3" transform="matrix(0.3719 -0.9283 0.9283 0.3719 -68.6989 187.2896)" width="0.9" height="2.2"></rect>				<rect x="105.4" y="138.8" transform="matrix(0.372 -0.9282 0.9282 0.372 -63.3899 186.1634)" width="0.9" height="2.2"></rect>				<rect x="107.3" y="134.3" transform="matrix(0.372 -0.9282 0.9282 0.372 -58.0596 185.0603)" width="0.9" height="2.2"></rect>			</g>		</g>	</g>	<rect x="102.7" y="147.4" transform="matrix(0.3721 -0.9282 0.9282 0.3721 -73.8841 189.5244)" width="0.9" height="4"></rect>	<rect x="93.6" y="166.5" transform="matrix(0.3712 -0.9286 0.9286 0.3712 -95.6852 192.2228)" width="0.9" height="0.4"></rect>	<rect x="96.5" y="161.4" transform="matrix(0.3719 -0.9283 0.9283 0.3719 -89.9752 192.075)" width="0.9" height="2.2"></rect>	<rect x="98.3" y="156.9" transform="matrix(0.372 -0.9282 0.9282 0.372 -84.6647 190.9454)" width="0.9" height="2.2"></rect>	<rect x="100.2" y="152.4" transform="matrix(0.372 -0.9282 0.9282 0.372 -79.3344 189.8424)" width="0.9" height="2.2"></rect>	<rect x="95.6" y="165.6" transform="matrix(0.372 -0.9282 0.9282 0.372 -95.2529 194.3564)" width="0.9" height="4"></rect>	<rect x="86.5" y="184.7" transform="matrix(0.3727 -0.9279 0.9279 0.3727 -117.0811 196.6911)" width="0.9" height="0.4"></rect>	<rect x="89.2" y="180" transform="matrix(0.3722 -0.9282 0.9282 0.3722 -111.835 196.9432)" width="0.9" height="2.2"></rect>	<rect x="90.6" y="175.4" transform="matrix(0.372 -0.9282 0.9282 0.372 -106.622 195.3751)" width="0.9" height="2.2"></rect>	<rect x="92.6" y="170.5" transform="matrix(0.372 -0.9282 0.9282 0.372 -100.8008 194.1655)" width="0.9" height="2.2"></rect>	<rect x="88.1" y="183.5" transform="matrix(0.3721 -0.9282 0.9282 0.3721 -116.6403 198.6685)" width="0.9" height="4"></rect>	<rect x="104.2" y="147.8" transform="matrix(0.3721 -0.9282 0.9282 0.3721 -73.3112 191.1731)" width="0.9" height="4"></rect>	<rect x="95.4" y="167.5" transform="matrix(0.3712 -0.9286 0.9286 0.3712 -95.4948 194.4705)" width="0.9" height="0.4"></rect>	<rect x="97.8" y="162.2" transform="matrix(0.372 -0.9282 0.9282 0.372 -89.9131 193.8043)" width="0.9" height="2.2"></rect>	<rect x="99.7" y="157.7" transform="matrix(0.372 -0.9282 0.9282 0.372 -84.5828 192.7012)" width="0.9" height="2.2"></rect>	<rect x="101.5" y="153.2" transform="matrix(0.372 -0.9282 0.9282 0.372 -79.2525 191.5981)" width="0.9" height="2.2"></rect>	<rect x="96.9" y="166.4" transform="matrix(0.372 -0.9282 0.9282 0.372 -95.1636 196.106)" width="0.9" height="4"></rect>	<rect x="87.8" y="185.5" transform="matrix(0.3723 -0.9281 0.9281 0.3723 -116.9965 198.5495)" width="0.9" height="0.4"></rect>	<rect x="90.7" y="180.4" transform="matrix(0.3723 -0.9281 0.9281 0.3723 -111.2816 198.5623)" width="0.9" height="2.2"></rect>	<rect x="92.6" y="175.9" transform="matrix(0.3722 -0.9282 0.9282 0.3722 -105.9323 197.4899)" width="0.9" height="2.2"></rect>	<rect x="94.4" y="171.4" transform="matrix(0.3719 -0.9283 0.9283 0.3719 -100.5922 196.44)" width="0.9" height="2.2"></rect>	<rect x="89.8" y="184.5" transform="matrix(0.372 -0.9282 0.9282 0.372 -116.4455 200.9189)" width="0.9" height="4"></rect>	<g>		<line class="st5" x1="202.7" y1="185" x2="159.6" y2="75.6"></line>		<rect x="180.7" y="71.6" transform="matrix(0.9305 -0.3662 0.3662 0.9305 -35.1336 75.3769)" width="0.9" height="117.4"></rect>	</g>	<path d="M156.9,105.2l1.8-0.9c3.1-1.3,4.5-0.4,6.3,3.6l0.4,1.8c1.8,4,1.3,5.8-2.2,7.2l-1.8,0.9c-3.6,1.3-4.5,0.9-6.3-3.6l-0.9-1.8  C153.3,107.9,153.3,106.5,156.9,105.2z M160.1,107.9l-1.8,0.4c-1.8,0.4-1.8,1.3-1.3,3.1l0.4,0.9c0.9,1.8,1.3,2.2,3.1,1.3l1.3-0.4  c1.8-0.4,1.8-1.3,1.3-3.1l-0.4-0.9C162.3,107.4,161.9,107,160.1,107.9z"></path>	<path d="M170.4,121.3l-5.4,5.8l8.1,0.9l1.8,4.5l-9.9,4l-1.8-3.1l7.2-2.7l-8.5-0.4l-1.3-3.1l5.8-6.3l-7.2,2.7l-0.9-2.7l9.9-4  L170.4,121.3z"></path>	<path d="M177.1,139.2l-4.9,7.2l6.7-2.7l1.3,3.1l-9.9,4l-1.8-4l4.9-8.1l-7.2,2.7l-1.3-3.1l9.9-4L177.1,139.2z"></path>	<path d="M181.1,149.1l1.3,3.1l-9.9,4l-1.3-3.1L181.1,149.1z"></path>	<path d="M186.5,162.5l-8.5,8.1l-1.3-3.1l2.2-1.8l-1.8-4.5h-2.7l-1.3-3.1h11.7L186.5,162.5z M178.9,160.7l1.3,3.1l3.6-3.1H178.9z"></path>	<path d="M161.9,101.6L161.9,101.6c-0.4-0.4-4.5-5.4-13.4-2.2l-0.4-0.9c9-2.7,13,1.3,14.3,2.2l6.7-2.2l0.4,0.9L161.9,101.6z"></path>	<g>		<g>			<g>				<rect x="155.2" y="76.1" transform="matrix(0.9309 -0.3653 0.3653 0.9309 -17.1019 62.7146)" width="4" height="0.9"></rect>				<rect x="166.3" y="93.4" transform="matrix(0.9302 -0.367 0.367 0.9302 -22.8318 67.6739)" width="0.4" height="0.9"></rect>				<rect x="162.7" y="89" transform="matrix(0.9309 -0.3653 0.3653 0.9309 -21.3542 66.0138)" width="2.2" height="0.9"></rect>				<rect x="160.9" y="84.5" transform="matrix(0.9309 -0.3653 0.3653 0.9309 -19.8387 65.057)" width="2.2" height="0.9"></rect>				<rect x="159.1" y="80" transform="matrix(0.9309 -0.3653 0.3653 0.9309 -18.3232 64.1001)" width="2.2" height="0.9"></rect>			</g>			<g>				<rect x="162.4" y="94.5" transform="matrix(0.9309 -0.3653 0.3653 0.9309 -23.3144 66.6143)" width="4" height="0.9"></rect>				<rect x="173.5" y="111.8" transform="matrix(0.9309 -0.3653 0.3653 0.9309 -28.9974 71.228)" width="0.4" height="0.9"></rect>				<rect x="169.9" y="107.4" transform="matrix(0.9309 -0.3653 0.3653 0.9309 -27.5666 69.9137)" width="2.2" height="0.9"></rect>				<rect x="168.1" y="102.9" transform="matrix(0.9309 -0.3653 0.3653 0.9309 -26.0511 68.9568)" width="2.2" height="0.9"></rect>				<rect x="166.3" y="98.4" transform="matrix(0.9309 -0.3653 0.3653 0.9309 -24.5358 68.0001)" width="2.2" height="0.9"></rect>			</g>		</g>		<g>			<g>				<rect x="169.4" y="112.4" transform="matrix(0.9309 -0.3653 0.3653 0.9309 -29.3861 70.4342)" width="4" height="0.9"></rect>				<rect x="180.7" y="130.2" transform="matrix(0.9309 -0.3653 0.3653 0.9309 -35.2102 75.1365)" width="0.4" height="0.9"></rect>				<rect x="177.1" y="125.7" transform="matrix(0.9309 -0.3653 0.3653 0.9309 -33.7794 73.8222)" width="2.2" height="0.9"></rect>				<rect x="175.3" y="121.3" transform="matrix(0.9309 -0.3653 0.3653 0.9309 -32.2639 72.8652)" width="2.2" height="0.9"></rect>				<rect x="173.6" y="116.8" transform="matrix(0.9309 -0.3653 0.3653 0.9309 -30.7486 71.9085)" width="2.2" height="0.9"></rect>			</g>			<g>				<rect x="176.6" y="130.8" transform="matrix(0.9309 -0.3653 0.3653 0.9309 -35.5986 74.3341)" width="4" height="0.9"></rect>				<rect x="187.8" y="148.1" transform="matrix(0.9317 -0.3633 0.3633 0.9317 -41.1296 78.456)" width="0.4" height="0.9"></rect>				<rect x="184.3" y="144.1" transform="matrix(0.9309 -0.3653 0.3653 0.9309 -39.9919 77.7221)" width="2.2" height="0.9"></rect>				<rect x="182.5" y="139.6" transform="matrix(0.9309 -0.3653 0.3653 0.9309 -38.4764 76.7652)" width="2.2" height="0.9"></rect>				<rect x="180.8" y="135.1" transform="matrix(0.9309 -0.3653 0.3653 0.9309 -36.9611 75.8085)" width="2.2" height="0.9"></rect>			</g>		</g>	</g>	<rect x="183.9" y="149.2" transform="matrix(0.9309 -0.3653 0.3653 0.9309 -41.8147 78.2432)" width="4" height="0.9"></rect>	<rect x="195" y="166.5" transform="matrix(0.9302 -0.367 0.367 0.9302 -47.6493 83.3006)" width="0.4" height="0.9"></rect>	<rect x="191.5" y="162.5" transform="matrix(0.9309 -0.3653 0.3653 0.9309 -46.2081 81.6312)" width="2.2" height="0.9"></rect>	<rect x="189.6" y="157.6" transform="matrix(0.9309 -0.3653 0.3653 0.9309 -44.5515 80.5857)" width="2.2" height="0.9"></rect>	<rect x="187.8" y="153.1" transform="matrix(0.9309 -0.3653 0.3653 0.9309 -43.0361 79.6287)" width="2.2" height="0.9"></rect>	<rect x="191.1" y="167.6" transform="matrix(0.9309 -0.3653 0.3653 0.9309 -48.0274 82.1432)" width="4" height="0.9"></rect>	<rect x="202.2" y="184.9" transform="matrix(0.9309 -0.3653 0.3653 0.9309 -53.7102 86.7566)" width="0.4" height="0.9"></rect>	<rect x="198.6" y="180.4" transform="matrix(0.9309 -0.3653 0.3653 0.9309 -52.2795 85.4425)" width="2.2" height="0.9"></rect>	<rect x="196.8" y="176" transform="matrix(0.9309 -0.3653 0.3653 0.9309 -50.7641 84.4856)" width="2.2" height="0.9"></rect>	<rect x="195" y="171.5" transform="matrix(0.9309 -0.3653 0.3653 0.9309 -49.2486 83.5287)" width="2.2" height="0.9"></rect>	<rect x="198.1" y="185.5" transform="matrix(0.9309 -0.3653 0.3653 0.9309 -54.0989 85.963)" width="4" height="0.9"></rect>	<g>		<g>			<g>				<rect x="153.8" y="76.5" transform="matrix(0.9309 -0.3653 0.3653 0.9309 -17.3324 62.2174)" width="4" height="0.9"></rect>				<rect x="164.5" y="94" transform="matrix(0.9309 -0.3653 0.3653 0.9309 -23.104 66.69)" width="0.4" height="0.9"></rect>				<rect x="161" y="89.9" transform="matrix(0.9309 -0.3653 0.3653 0.9309 -21.8143 65.4643)" width="2.2" height="0.9"></rect>				<rect x="159.2" y="85.5" transform="matrix(0.9309 -0.3653 0.3653 0.9309 -20.2988 64.5076)" width="2.2" height="0.9"></rect>				<rect x="157.4" y="81" transform="matrix(0.9309 -0.3653 0.3653 0.9309 -18.7835 63.5507)" width="2.2" height="0.9"></rect>			</g>			<g>				<rect x="161" y="94.8" transform="matrix(0.9309 -0.3653 0.3653 0.9309 -23.5448 66.1173)" width="4" height="0.9"></rect>				<rect x="171.7" y="112.3" transform="matrix(0.9302 -0.367 0.367 0.9302 -29.3919 70.9576)" width="0.4" height="0.9"></rect>				<rect x="168.2" y="108.3" transform="matrix(0.9309 -0.3653 0.3653 0.9309 -28.0269 69.3643)" width="2.2" height="0.9"></rect>				<rect x="166.4" y="103.8" transform="matrix(0.9309 -0.3653 0.3653 0.9309 -26.5114 68.4073)" width="2.2" height="0.9"></rect>				<rect x="164.5" y="98.9" transform="matrix(0.9309 -0.3653 0.3653 0.9309 -24.8548 67.3619)" width="2.2" height="0.9"></rect>			</g>		</g>		<g>			<g>				<rect x="168.2" y="113.2" transform="matrix(0.9309 -0.3653 0.3653 0.9309 -29.7576 70.0258)" width="4" height="0.9"></rect>				<rect x="178.9" y="130.7" transform="matrix(0.9302 -0.367 0.367 0.9302 -35.6309 74.8908)" width="0.4" height="0.9"></rect>				<rect x="175.2" y="126.3" transform="matrix(0.9309 -0.3653 0.3653 0.9309 -34.0985 73.1841)" width="2.2" height="0.9"></rect>				<rect x="173.5" y="121.8" transform="matrix(0.9309 -0.3653 0.3653 0.9309 -32.5831 72.2272)" width="2.2" height="0.9"></rect>				<rect x="171.7" y="117.3" transform="matrix(0.9309 -0.3653 0.3653 0.9309 -31.0676 71.2702)" width="2.2" height="0.9"></rect>			</g>			<g>				<rect x="175.4" y="131.6" transform="matrix(0.9309 -0.3653 0.3653 0.9309 -35.9701 73.9257)" width="4" height="0.9"></rect>				<rect x="186.1" y="149.1" transform="matrix(0.9302 -0.367 0.367 0.9302 -41.8699 78.8153)" width="0.4" height="0.9"></rect>				<rect x="182.4" y="144.6" transform="matrix(0.9309 -0.3653 0.3653 0.9309 -40.3111 77.084)" width="2.2" height="0.9"></rect>				<rect x="180.7" y="140.1" transform="matrix(0.9309 -0.3653 0.3653 0.9309 -38.7956 76.1271)" width="2.2" height="0.9"></rect>				<rect x="178.9" y="135.7" transform="matrix(0.9309 -0.3653 0.3653 0.9309 -37.2801 75.1702)" width="2.2" height="0.9"></rect>			</g>		</g>	</g>	<rect x="182.4" y="149.5" transform="matrix(0.9309 -0.3653 0.3653 0.9309 -42.0452 77.7462)" width="4" height="0.9"></rect>	<rect x="193.2" y="167" transform="matrix(0.9309 -0.3653 0.3653 0.9309 -47.8168 82.2186)" width="0.4" height="0.9"></rect>	<rect x="189.7" y="163" transform="matrix(0.9309 -0.3653 0.3653 0.9309 -46.5271 80.9931)" width="2.2" height="0.9"></rect>	<rect x="187.9" y="158.5" transform="matrix(0.9309 -0.3653 0.3653 0.9309 -45.0118 80.0362)" width="2.2" height="0.9"></rect>	<rect x="186.1" y="154" transform="matrix(0.9309 -0.3653 0.3653 0.9309 -43.4964 79.0793)" width="2.2" height="0.9"></rect>	<rect x="189.6" y="167.9" transform="matrix(0.9309 -0.3653 0.3653 0.9309 -48.2577 81.6462)" width="4" height="0.9"></rect>	<rect x="200.4" y="185.4" transform="matrix(0.9309 -0.3653 0.3653 0.9309 -54.0294 86.1185)" width="0.4" height="0.9"></rect>	<rect x="196.9" y="181.4" transform="matrix(0.9309 -0.3653 0.3653 0.9309 -52.7398 84.8931)" width="2.2" height="0.9"></rect>	<rect x="195.1" y="176.9" transform="matrix(0.9309 -0.3653 0.3653 0.9309 -51.2244 83.9362)" width="2.2" height="0.9"></rect>	<rect x="193.2" y="172" transform="matrix(0.9309 -0.3653 0.3653 0.9309 -49.5678 82.8906)" width="2.2" height="0.9"></rect>	<rect x="196.9" y="186.3" transform="matrix(0.9309 -0.3653 0.3653 0.9309 -54.4705 85.5546)" width="4" height="0.9"></rect>	<g>		<ellipse class="st3" cx="144.9" cy="81.3" rx="9.9" ry="9.9"></ellipse>		<path d="M144.8,91.7L144.8,91.7c-3.1,0-5.8-1.3-7.6-3.1c-1.8-2.2-3.1-4.5-3.1-7.6c0-2.7,1.3-5.4,3.1-7.2c2.2-1.8,4.9-3.1,7.6-3.1   l0,0c5.8,0,10.3,4.9,10.3,10.8c0,2.7-1.3,5.4-3.1,7.2C150.2,90.8,147.5,91.7,144.8,91.7z M144.8,71.5c-2.7,0-4.9,0.9-6.7,2.7   c-1.8,1.8-2.7,4-3.1,6.7c0,2.7,0.9,4.9,2.7,6.7c1.8,1.8,4,2.7,6.7,3.1c2.7,0,4.9-0.9,6.7-2.7c1.8-1.8,2.7-4,3.1-6.7   C154.7,76.5,150.2,72,144.8,71.5L144.8,71.5z"></path>	</g>	<g>		<ellipse class="st3" cx="144.9" cy="81.3" rx="4.5" ry="4.5"></ellipse>		<path d="M144.8,86.3L144.8,86.3c-1.3,0-2.7-0.4-3.6-1.3c-0.9-0.9-1.3-2.2-1.3-3.6c0-2.7,2.2-4.9,5.4-4.9l0,0   c1.3,0,2.7,0.4,3.6,1.3c0.9,0.9,1.3,2.2,1.3,3.6c0,1.3-0.4,2.7-1.3,3.6C147.5,85.9,146.2,86.3,144.8,86.3z M144.8,77.4   c-2.2,0-4,1.8-4,4c0,0.9,0.4,2.2,1.3,3.1c0.9,0.9,1.8,1.3,2.7,1.3c1.3,0,2.2-0.4,3.1-1.3c0.9-0.9,1.3-1.8,1.3-2.7   c0-0.9-0.4-2.2-1.3-3.1C147.1,77.8,146.2,77.4,144.8,77.4L144.8,77.4z"></path>	</g>	<path d="M141.7,200.2c-0.4,0-1.3,0-1.8-0.4c-0.9-0.4-3.1-0.9-2.7-1.8c0-0.4,0.4-0.4,1.3-0.4c0.4,0,1.3,0,2.2,0  c0.9,0,1.3,0.4,1.8,0.4c0.4,0.4,0.9,0.4,0.9,0.9l0,0C142.6,199.7,142.1,200.2,141.7,200.2L141.7,200.2z M138.1,198.4  c-0.4,0-0.9,0-0.9,0s0.9,0.4,2.2,0.9s2.2,0.4,2.7,0c0,0-0.9-0.9-2.2-0.9C139.5,198.4,138.6,198.4,138.1,198.4z"></path>	<path d="M151.6,202.4c-0.4,0-1.3,0-1.8,0c-0.9-0.4-2.7-0.9-2.7-1.8c0-0.9,2.2-0.4,3.1-0.4c0.9,0.4,2.7,0.9,2.7,1.8l0,0  C152.9,202.4,152.5,202.4,151.6,202.4z M148.4,200.6c-0.4,0-0.9,0-0.9,0s0.9,0.4,2.2,0.9c1.3,0.4,2.2,0,2.7,0c0,0-0.9-0.4-2.2-0.9  C149.3,200.6,148.9,200.6,148.4,200.6z"></path>	<g>		<ellipse class="st3" cx="145" cy="200.2" rx="2.7" ry="2.7"></ellipse>		<path d="M144.8,203.3L144.8,203.3c-1.8,0-3.1-1.3-3.1-3.6c0-1.8,1.8-3.1,3.6-3.1c0.9,0,1.8,0.4,2.2,0.9c0.4,0.4,0.9,1.3,0.9,2.2   C148,202,146.6,203.3,144.8,203.3z M144.8,197.5c-1.3,0-2.2,0.9-2.2,2.2c0,1.3,0.9,2.2,2.2,2.7c1.3,0,2.2-0.9,2.7-2.2   c0-0.4,0-1.3-0.4-1.8C146.2,198,145.7,197.5,144.8,197.5L144.8,197.5z"></path>	</g>	<rect x="145.7" y="120" width="0.4" height="36.8"></rect>	<g>		<g>			<path class="st3" d="M144.8,264.7c0,0-4.5-7.2-10.8-6.3c-6.3,0.9-12.6,1.8-21.1,0c0,0-16.1,6.7-31.8,0.9l0.9-1.3    c0,0-14.3,0.4-22.4-9.9c0,0,6.3-2.2,10.3-2.7c0,0-4-1.3-6.3-6.3c0,0,11.7-3.6,19.7,2.7c0,0,11.7-6.7,23.8-0.4c0,0,0,0.9-1.3-2.7    c0,0,12.6-4.9,20.2,3.1c0,0,0-2.7-0.4-4.5c0,0,16.1-0.4,18.4,17.5l0.4,1.3l0.4-1.3c2.2-18.4,18.4-17.5,18.4-17.5    c-0.4,1.8-0.4,4.5-0.4,4.5c7.6-7.6,20.2-3.1,20.2-3.1c-1.3,3.6-1.3,2.7-1.3,2.7c12.1-6.3,23.8,0.4,23.8,0.4    c8.1-6.3,19.7-2.7,19.7-2.7c-1.8,4.5-6.3,6.3-6.3,6.3c4,0.4,10.3,2.7,10.3,2.7c-8.1,10.3-22.4,9.9-22.4,9.9l0.9,1.3    c-15.7,6.3-31.8-0.9-31.8-0.9c-8.1,2.2-14.3,1.3-21.1,0C149.3,257.1,144.8,264.7,144.8,264.7z"></path>			<path d="M144.8,265.6l-0.4-0.4c0,0-4.5-7.2-10.3-6.3c-5.8,0.9-12.6,1.8-21.1,0c-1.8,0.4-17,6.7-31.8,0.4l-0.4-0.4l0.9-0.9    c-3.1,0-14.8-1.3-21.5-10.3l-0.4-0.4h0.4c0.4,0,4.9-1.8,9-2.7c-1.3-0.9-3.6-2.7-4.9-5.8v-0.4h0.4c0.4,0,11.7-3.6,20.2,2.2    c1.8-0.9,12.1-5.8,22.4-0.9c0-0.4-0.4-0.9-0.4-1.8v-0.4h0.4c0,0,12.1-4.5,19.7,2.2c0-0.9,0-2.2-0.4-3.1v-0.4h0.4    c0,0,16.6-0.4,18.8,17.9l0,0l0,0c2.2-18.4,18.8-17.9,18.8-17.9h0.4v0.4c-0.4,0.9-0.4,2.2-0.4,3.1c8.1-6.7,19.7-2.2,19.7-2.2h0.4    v0.4c-0.4,0.4-0.4,1.3-0.4,1.8c10.8-4.9,20.6,0,22.4,0.9c8.5-5.8,19.7-2.7,20.2-2.2h0.4v0.4c-1.3,3.1-3.6,4.9-4.9,5.8    c4,0.9,8.5,2.2,9,2.7h0.4l-1.8,0.9c-6.7,9-18.4,9.9-21.5,10.3l0.9,0.9l-0.4,0.4c-14.8,5.8-30.5,0-31.8-0.4    c-8.5,2.2-15.2,0.9-21.1,0c-5.8-0.9-10.3,5.8-10.3,6.3H144.8z M135.4,257.6c4.9,0,8.5,4.5,9.4,5.8c1.3-1.8,5.4-6.7,10.8-5.8    c5.8,0.9,12.6,1.8,20.6,0l0,0l0,0c0,0,15.7,6.7,30.9,0.9l-1.3-1.3h0.9c0,0,13.4,0,21.5-9.4c-1.8-0.4-6.3-2.2-9.4-2.7v-0.9    c0,0,3.6-1.3,5.8-5.4c-2.2-0.4-12.1-2.7-18.8,2.7h-0.4h-0.4c0,0-11.2-6.3-22.9-0.4c0,0.4-0.4,0.4-0.4,0h-0.4v-0.9l0,0    c0-0.4,0.4-0.9,0.9-2.2c-2.2-0.9-12.6-3.6-19.3,3.1l0,1.3V241c0,0,0-2.2,0.4-4c-3.1,0-15.2,1.3-17.5,17l-0.9,3.1l-0.9-2.7    c-1.8-15.7-14.3-17-17.5-17c0.4,1.8,0.4,3.6,0.4,4v1.3l-0.9-0.9c-6.7-6.7-17-3.6-19.3-3.1c0.4,1.3,0.9,1.8,0.9,2.2l0,0v0.4h-0.4    h-0.4c-11.7-5.8-22.9,0.4-22.9,0.4h-0.4H83c-7.2-5.4-16.6-3.1-18.8-2.7c1.8,4,5.8,5.4,5.8,5.4v0.9c-3.1,0.4-7.6,1.8-9.4,2.7    c8.1,9.4,21.5,9.4,21.5,9.4H83l-0.9,0.9c15.2,5.8,30.9-0.9,30.9-0.9l0,0l0,0c8.5,2.2,14.8,0.9,20.6,0    C134.5,257.6,135,257.6,135.4,257.6z"></path>		</g>		<g>			<path d="M140.4,258.5c-15.2-11.2-14.8-21.1-14.8-21.5v-0.4h0.4c17,0.4,18.8,18.4,18.8,18.4h-0.9c0,0-0.4-4.5-3.1-9    c-3.1-5.8-8.1-8.5-14.8-9c0,1.8,1.3,10.3,14.3,20.2V258.5z"></path>			<path d="M142.6,257.1c-8.5-12.1-10.8-13-10.8-13v-0.4C131.8,243.7,134.5,244.6,142.6,257.1L142.6,257.1z"></path>			<path d="M115.7,249.1c0,0-0.4-0.4-1.3-0.9c-1.3-1.3-3.6-3.6-5.4-4.9c-12.1-8.5-24.7-1.3-25.1-0.9l-0.4-1.3c0,0,11.2-6.7,22.9-0.9    c-0.4-0.9-0.9-1.8-0.9-1.8v-0.4h0.4c16.6-4.5,21.5,4,22,4.5l-0.9,0.4c0,0-4.5-8.5-20.2-4.5c0.4,0.9,0.9,2.2,2.7,3.1    c0.4,0,0.4,0.4,0.9,0.9c1.8,1.3,3.6,3.1,5.4,4.9C116.1,248.2,116.1,248.6,115.7,249.1L115.7,249.1z"></path>			<path d="M104.9,247.7c-4-1.8-11.7-2.7-11.7-2.7v-0.4c0.4,0,7.6,0.9,11.7,2.7V247.7z"></path>			<path d="M132.7,251.7c-10.3-9.4-18.4-9.4-18.4-9.4v-0.4C114.4,241.9,122.9,241.9,132.7,251.7L132.7,251.7z"></path>			<path d="M86.6,245.5c-5.4-9.9-19.3-7.2-22.4-6.7c0.4,1.3,2.2,4,5.8,5.8v0.9c-4.9-2.2-6.3-6.3-6.7-6.7v-0.4h0.4    c0,0,17-4.9,23.8,6.7L86.6,245.5z"></path>			<path d="M81.6,258c-2.7,0-13.9-0.4-21.1-9.9l-0.9-0.4l0.4-0.4c0,0,21.5-9.4,34.1,1.3l-0.4,0.9c-11.2-9.4-29.1-2.7-32.7-1.3    c8.1,9.9,20.6,9,20.6,9V258C82.1,258,81.6,258,81.6,258z"></path>			<path d="M89.7,251.7c-6.3-1.8-17-0.4-17-0.4v-0.4c0,0,11.2-1.8,17.5,0.4L89.7,251.7z"></path>			<path d="M80.7,244.1c-1.8-1.3-8.5-1.8-8.5-1.8v-0.4C72.7,241.9,78.9,242.3,80.7,244.1L80.7,244.1z"></path>			<path d="M95.5,262.1c-2.2,0-4,0-5.4-0.4c-5.8-0.9-8.5-2.2-9-2.2l-0.4-0.4l0.4-0.4c0,0,12.1-17.5,39.4-9.9l-0.4,0.9    c-13.9-4-23.3-0.9-29.1,1.8c-4.9,2.7-8.1,5.8-9,7.2c2.7,0.9,14.3,5.4,31.4-0.9l0.4,0.9C106.7,261.6,100.5,262.1,95.5,262.1z"></path>			<path d="M121.5,259.8c-12.6-0.4-13.9-5.8-14.3-5.8v-0.4h0.4c0,0,13.9-10.3,27.8-0.4c1.3,1.3,5.4,4.9,7.2,4.9v0.9    c-2.2-0.4-7.6-4.9-7.6-5.4c-12.6-9-24.7-1.3-26.4,0c0.4,0.9,3.1,4.5,13,4.9c0,0,9-0.4,13-1.3c1.8-0.4,3.1,0,4.9,0.9l0,0l-0.4,0.9    l0,0c-1.3-0.9-2.7-0.9-4.5-0.9C130.5,259.4,122,259.8,121.5,259.8z"></path>			<path d="M96.4,256.7L96.4,256.7c-0.4-0.4,2.2-4,13.4-4.5v0.4C99.1,253.1,96.4,256.7,96.4,256.7z"></path>			<path d="M140.8,259.4c-7.6-6.7-22.4-4.9-22.4-4.9V254C118.4,254,133.2,252.2,140.8,259.4L140.8,259.4z"></path>		</g>		<g>			<path d="M149.3,258l-0.4-0.9c13-9.4,14.3-17.9,14.3-20.2c-15.7,0.4-17.5,17.5-17.5,17.5h-0.9c0,0,2.2-17.9,18.8-18.4h0.4v0.4    C164.6,237.4,164.6,246.8,149.3,258z"></path>			<path d="M147.5,256.7L147.5,256.7c8.1-12.6,10.8-13.4,10.8-13.4v0.4C158.3,244.1,156,245,147.5,256.7z"></path>			<path d="M174.4,249.1C174,249.1,174,248.6,174.4,249.1c-0.4-0.4-0.4-0.9,0-1.3c1.8-2.2,3.6-3.6,5.4-4.9c0.4-0.4,0.4-0.4,0.9-0.9    c1.8-0.9,2.2-2.7,2.7-3.1c-8.1-2.2-13-0.9-16.1,0.4c-3.1,1.3-4.5,3.6-4.5,3.6l-0.9-0.4c0-0.4,4.9-9,22-4.5h0.4v0.4    c0,0,0,0.9-0.9,1.8c11.7-5.8,22.9,0.9,22.9,0.9l-0.4,0.9c-0.4-0.4-13-7.6-25.1,0.9c-1.8,1.3-4,3.6-5.4,4.9    C174.9,248.6,174.4,249.1,174.4,249.1z"></path>			<path d="M184.7,247.3l-0.4-0.4c4-2.2,11.2-2.7,11.7-2.7v0.4C196.4,244.6,188.8,245.5,184.7,247.3z"></path>			<path d="M157.4,251.7L157.4,251.7c9.9-9.9,18.4-10.3,18.4-10.3v0.4C175.8,242.3,167.2,242.3,157.4,251.7z"></path>			<path d="M203.1,245.5l-0.9-0.4c6.7-11.7,23.8-6.7,23.8-6.7h0.4v0.4c0,0-1.8,4.5-6.7,6.7l-0.4-0.9c3.6-1.3,5.4-4.5,5.8-5.8    C222.4,238.3,208.9,235.6,203.1,245.5z"></path>			<path d="M208.5,258c-0.4,0-0.4,0-0.4,0v-0.9c0,0,12.6,0.9,20.6-9c-3.6-1.3-21.5-8.1-32.7,1.3l-0.4-0.9c13-10.8,34.1-1.3,34.1-1.3    l0.4,0.4v0.4C222.4,257.6,211.2,258,208.5,258z"></path>			<path d="M200.4,251.3v-0.4c6.3-1.8,17.5-0.4,17.5-0.4v0.4C217.4,251.3,206.2,249.5,200.4,251.3z"></path>			<path d="M209.4,244.1L209.4,244.1c1.8-1.8,8.1-2.2,8.5-2.2v0.4C217.9,242.3,211.2,242.8,209.4,244.1z"></path>			<path d="M194.6,262.1c-4.9,0-11.2-0.9-17.9-3.6l0.4-0.9c17,6.3,28.7,1.8,31.4,0.9c-2.2-2.7-13.9-16.1-38.1-9l-0.4-0.9    c14.3-4,24.2-0.9,30,2.2c6.3,3.6,9.4,7.6,9.4,8.1l0.4,0.4l-0.4,0.4C208.9,259.4,203.6,262.1,194.6,262.1z"></path>			<path d="M168.1,259.8c0,0-9-0.4-13-1.3c-1.3,0-3.1,0-4.5,0.9l0,0l-0.4-0.4l0,0c1.8-0.9,3.1-1.3,4.9-0.9c4.5,0.4,13,1.3,13,1.3    c9.9-0.4,12.6-4,13-4.9c-1.8-1.3-13.9-9-26.4,0c0,0-5.4,4.9-7.6,5.4v-0.9c1.8-0.4,5.8-3.6,7.2-4.9c14.3-10.3,27.8,0,28.2,0.4h0.4    v0.4C182.5,254,180.7,259.4,168.1,259.8z"></path>			<path d="M193.7,256.7c0,0-2.7-3.6-13.4-4v-0.4C191,252.6,193.7,256.2,193.7,256.7L193.7,256.7z"></path>			<path d="M148.9,259.4L148.9,259.4c7.6-7.2,22.4-5.4,22.4-5.4v0.4C171.3,254.4,156.9,252.6,148.9,259.4z"></path>		</g>		<path d="M144.8,264.3c0,0,2.7-4.5,4.9-5.4c0,0-0.4-0.4,0-1.3c0.4-0.4,1.3-0.9,0.9-1.8l0,0c-3.6,2.7-4,2.2-4,2.2   c-0.9-0.9,0.9-2.7,0-2.2c-1.3,0.9-1.8-1.3-1.8-1.3l0,0c0,0-0.4,2.2-1.3,1.8s0.4,1.3,0,2.2c0,0-0.4,0.4-4-2.2l0,0   c-0.4,0.9,0.4,1.3,0.9,1.8c0.4,0.4,0,1.3,0,1.3C142.1,259.8,144.8,264.3,144.8,264.3z"></path>	</g></g></svg>