<?xml version="1.0" encoding="utf-8"?>
<!-- Generator: Adobe Illustrator 26.5.1, SVG Export Plug-In . SVG Version: 6.00 Build 0)  -->
<svg version="1.1" id="Layer_1" xmlns="http://www.w3.org/2000/svg" xmlns:xlink="http://www.w3.org/1999/xlink" x="0px" y="0px"
	 width="5955.4px" height="4967.2px" viewBox="0 0 5955.4 4967.2" style="enable-background:new 0 0 5955.4 4967.2;"
	 xml:space="preserve">
<style type="text/css">
	.st0{fill-rule:evenodd;clip-rule:evenodd;fill:#004095;}
	.st1{clip-path:url(#SVGID_00000116227783965196782290000008994077834624517011_);}
	.st2{fill:#FEB913;}
	.st3{fill:#00234F;}
	.st4{clip-path:url(#SVGID_00000168805131025707600470000015686530494399887029_);}
	.st5{clip-path:url(#SVGID_00000031914263706930011770000004594141816341056685_);}
	.st6{clip-path:url(#SVGID_00000181802150872159312250000015826712515407041169_);}
	.st7{clip-path:url(#SVGID_00000067199834863783730640000012210682971260886656_);}
	.st8{clip-path:url(#SVGID_00000183953123514069779850000004672404363348669349_);}
	.st9{clip-path:url(#SVGID_00000098920107382436141370000013723714323179548344_);}
	.st10{clip-path:url(#SVGID_00000116204247686350237670000015275117860618710201_);}
	.st11{clip-path:url(#SVGID_00000142140786923391079540000008778695072026975411_);}
	.st12{clip-path:url(#SVGID_00000085962395782526288850000011996317244745931945_);}
</style>
<path class="st0" d="M3662.3,4468.6c12.1,5.9,27.1,0.9,34,0.7c7.2-0.7,15.7,5.2,27.8,7c12.1,1.6,6.6-0.3,26.5,3.9
	c20,4.3,20.6,4.3,36.6,5.2c16,0.7,36-10.5,26.2-16.8c-10.1-5.9-17.3,3.9-17.3-9.9s-1.3-25.6-11.8-20c-10.5,5.6-8.5,6.8-16,3.6
	c-7.2-3.6-13.4-4.6-15.7,2.9c-2,7.2-3.6,7.2-16,5.6c-12.1-1.6-20.9-2.7-23.2,2.9c-2.3,5.9,2.9,8.2-5.9,5.9
	c-9.1-2.7-7.5-8.6-22.3-9.9c-14.8-1.3-16.4-2.3-18.9,2.3c-2.7,4.9-20.9,6.3-20.9,6.3s-38.9,8.6-28.5,15.1
	c10.5,6.6,4.3,10.5,19.6,6.6c15-3.9,25.8-11.5,25.8-11.5L3662.3,4468.6z M3608.3,3574.7c0,0-33-6.8-40.8,8.9
	c-7.8,15.4-20,21-4.6,24.9c15,3.9,40.5,5,44.4,6.6c3.9,1.6,23.2,8.2,36,6.6c12.5-1.6,21.6-7.9,10.8-21.3
	c-10.8-13.4-16-18.1-22.8-20.7c-6.8-2.7-22.8-5-22.8-5H3608.3z M2664.9,4162.7c1.6,0.9,3.6,1.6,5.5,2.7c13,5.9,11.1-0.9,22.6,1.6
	c11.1,2.7,6.9,2.7,17.3,17.4c10.1,14.8,12.8,9.5,30.1,14.8c17.3,5.2,17.3,12.2,27.8,14.8c10.5,2.7,14.8-7,22.6,2.7
	c7.8,9.6,3.2,18.4,14.8,10.5c11.1-7.9,6.9-22.7,32.6-15.8c26.2,7,26.2,2.7,39.9,11.5c13.7,8.6,2.7,8.6,17.3,15.4
	c14.8,6.8,11.1-7,23.2,1.6c12.1,8.8,30.5,38.5,52,34.8c21.6-3.2,23.5-33.8,43.1-28.6c20,5.2,13,28.6,26.2,25.3
	c12.8-3.6,7.8-10.5,28.5-6.8c20.9,3.2,12.1,4.9,30.5,8.6c18,3.6,28.5-5.9,28.5-5.9s1.6,0.7,29.4-30.6c27.8-31.2,7.8-35.8,30.5-46
	c22.3-10.5,51.7-19.4,44.8-7.2c-6.9,12.5-26.9,12.5-29.4,26.3c-2.7,13.8-25.8,26-11.1,28.6c14.8,2.7,3.2-16.5,32.1-26
	c28.5-9.5,17.3-26.3,44.8-23.6c27.8,2.7,33.7,0,59.9,6.3c25.8,5.9,37.3,8.6,38.9,19c1.6,10.5-20.9,26,24.2,42.6
	c45.1,16.5,45.1,10.2,61.5,4.3c16.4-6.3,63.1-12.2,49.4,5.9c-14.1,18.4-27.8,29.6-18.3,38.5c9.5,8.6,18.9,5.2,28.5,15.8
	c9.5,10.2-2.7,22.4,8.9,35.5c11.1,13.1,20.6,25.3,13.7,33.1c-6.8,7.5-21.2,18.1-18.7,28.9c2.7,10.9,5.5,13.1,15.7,8.2
	c9.8-4.6,6.6-2,15.3-2c8.8,0,18-9.5,25.1-2c7.5,7.9,5.2,9.5,9.1,15.8c3.9,6.3,9.5,9.9,9.8,13.4c0.7,3.6-2.9,8.6,5.9,9.5
	c8.5,0.9,17.3,2.7,18.3-7.9c1.3-10.2,0-15.4,14.1-15.1c13.7,0.3,21.9-2.7,34.6-8.2c12.5-5.6,35.3,9.2,51,3.9
	c15.3-5.2,17.3-19.7,39.6-14.5c22.6,5.2,23.2-7.2,37.3-3.9c14.4,3.6,23.9,19,33.3,18.8c9.5-0.3,6.9-12.2,17.3-8.2
	c10.5,3.9,16.4-2.3,22.6-3.6c5.9-1.3,30.7-3.2,37.6,11.5c6.9,14.8,41.9,20.7,46.7,32.8c4.6,12.2-4.3,14.1,4.6,24.3
	c9.1,10.5,30.5,20.7,22.8,26.3c-7.2,5.6-12.8,9.5-6.9,18.1c6.2,8.9,11.8,25.6,4.3,30.6c-7.2,5-9.8,5.2-30.5-2.7
	c-20.9-7.9-18.7,2.9-38.3-5.2c-19.3-8.2-27.8-17.7-38.5-27c-10.8-9.2,2.3-15.1-20.6-20.1c-22.8-4.6-28.1-5.6-34.6,2.7
	c-6.6,8.2-2.3,21,13.4,20c15.7-0.9,34.4,8.2,35.7,11.8c1.3,3.2,5.5,14.1,11.1,20c5.5,5.6,5.5,20.7,0.9,25.6
	c-4.8,4.6-7.2,15.1-15.7,32.2c-8.9,16.8-12.1,12.5-8.2,36.7c3.9,24.3,0.7,9.5,5.9,31.9c5.2,22,14.4,24.7,10.5,39.1
	c-3.9,14.1-16.4,10.9-15.7,28.3c0.9,17.4-17.7,13.8-17.7,28.9c0,15.1-1.3,30.2-14.1,37.4c-13,7.5-18,10.9-22.3,27
	c-4.3,16.1-16,14.5-16,14.5s0.9,5.6,0.9,13.8c0,8.2-1.3,11.8-1.3,11.8s11.1,12.9,27.1,20.7c16,7.9,22.3,12.2,37.3,3.9
	c15-8.2,4.3-14.1,35-35.5c30.8-21.3,30.8-29.6,49-49.9c18-20.7,27.5-34.5,41.9-33.1c14.4,1.4,21.9,12.2,40.5,3.9
	c18.7-8.2,20.9-18.4,22.8-25.6c2.3-7.5,17.3-18.4,17.3-18.4s7.8-5.6,2-15.1c-6.2-9.5-14.1-2.9-18-24.7c-3.9-22-4.6-29.2,8.9-33.1
	c13.4-3.9,23.9-24.7,27.1-34.8c3.6-9.8,45.1-61.1,83.1-71.6c38.3-10.5,45.8-38.1,53-36.5c6.9,1.6,9.5,24.3,31.7,21.7
	c22.6-2.7,28.7-2.7,28.7-17.4c0-14.7-25.1-33.8-8.8-36.5c16.7-2.7,2.7-7.9,30.5-4.3c27.8,3.2,35.3-4.6,35.3-4.6s5.2-39.1,45.1-48.7
	c14.4-3.2,33.7-7.2,54-11.5c-4.8-13.8-11.8-27.9-21.9-35.5c-13-10.2-17.3-10.2-27.1-10.5c-8.5-0.7-20.3-1-41.2-5.9
	c-25.5-5.9-44.2-13.8-59.9-20.7c-15-6.3-27.5-11.8-40.6-13.1c-21.9-2-25.8-4.3-37.3-11.5c-3.9-2.7-9.1-5.6-17-9.8l-5.5-2.9
	c-22.6-12.2-33-17.7-60.2-15.4c-17.3,1.3-36.6,4.9-53.3,7.9c-13.4,2.7-25.1,4.6-32.4,5.2c-17.3,0.7-27.8-15.4-42.6-38.1
	c-1.6-2.3-3.2-5.2-6.8-10.2h0.3c-9.1-13.4-20-20.4-29.8-26.9c-8.9-5.9-17-11.1-23.2-19.7c-5.9-8.6-11.1-20.4-15-32.6
	c-4.8-14.5-8.5-29.6-9.5-39.4c-0.7-6.8-14.8-58.2-31-116c-22.6-79.8-49.7-171.5-53.3-180.3c-3.2-8.8-14.4-31.5-25.5-51.9
	c-8.2-14.1-16-27.2-21.6-32.8c-2.3-2.7-4.6-5.6-7.2-8.8c-11.8-3.6-38-8.2-46.1-8.2c-8.9,0-22.6-18.1-31-33.8
	c-8.9-15.4-27.8-35.5-43.5-36.5c-15.3-0.9-35.3-0.7-35.3-8.6c0-7.9,16.4-23.6-8.9-30.6c-24.8-7-32.1-10.5-38-25.3
	c-6.2-14.8-30.5-24.9-24.2-43.3c5.9-18.4,22.6-3.6,8.5-30.6c-13.7-26.9-18.9-26.9-24.2-46.7c-5.2-20-12.1,2.7-21.6-26.3
	c-9.5-28.6-5.2-11.1-6.8-40.7c-1.6-29.6,23.2-61.8-7.8-68c-31-5.9-18.9,2-62.2-1.6c-43.5-3.2-72.9,5.2-78.1,7c-5,2-25.8,0-40.6,10.5
	s-17.3,24.3-26.8,10.5c-9.5-13.8-9.5-19-28.5-24.3c-18.9-5.2-55.6-29.6-90-33.8c-34.6-4.6-33,5.9-50.4-15.8
	c-17.3-21.7,11.4-14.8-34.6-32.2c-25.8-9.9-38.5-20.7-52.4-29.2c-32.6,36.2-76.1,89-118.7,153.8
	c-80.4,121.9-248.5,327.1-267.2,349.9l31.4,393.5L2664.9,4162.7z"/>
<path class="st0" d="M5121.4,3734.8c-5.1,12.1-6.1,33.1-4.6,44.3c1.9,11.5-6.8,19,12,19c18.8,0,24.3-8.6,28.4,0
	c4.2,8.8,0.7,12.1,15.2,8.8c14.6-3.6,6.1,1.6,19-5.2c12.7-6.9,9.3-14.8,23.9-6.2c14.6,8.9,16.2,8.9,29.1,3.6
	c12.7-5.2,17.8-11.1,30.6-7.9c12.9,3.6,37.5,11.5,34.2-3.2c-3.5-14.8-34.2-21.6-21.3-33.1c12.7-11.1,35.9-53.8,8.4-46.8
	c-27.4,6.9-28.1,20.9-46.1,31.5c-17.8,10.2-25.5,4.9-41.7,12.8c-16.5,7.9-13.9,21.6-28.4,22.7c-14.6,0.9-10.9-6.2-30.6-8.6
	c-19.7-2.7-28.1-2-19.7-14.1c8.8-12.1,17.1-25.9,6.7-27.5c-10-2-15.1,10.2-15.1,10.2L5121.4,3734.8z"/>
<path class="st0" d="M5342.8,3121c0.7,3.6,0,35.3,8.3,52.6c8.2,17.3,27.9,12.1,18.8,20.3c-8.9,8.2-21.7,11.4-17.1,21.9
	c4.3,10.5,0.7,19.6,14.5,39.2c12.2,2.7,6.9,14.8,5.2,29.4c-2,14.8-0.9,26.8-2,33.7c-0.7,6.8-7.5,15.7-12.2,26.8
	c-4.3,11.4-20.1,26.2-0.7,23.5c19.1-2.7,46.1-33,47-18.3c0.7,14.8-14.9,45.1-14.9,55.3c0,10.1-1.9,34,6.9,41.5
	c8.6,7.8,35.5,27.8,48.7,7.8c13.1-20,32.8-39.6,54.9-50.1c21.7-10.5,15.4-4.3,46.1-26.8c30.3-22.6,46-20.9,48.7-33.7
	c2.7-13,18.4-55.6,32.2-52c13.8,3.2,0,22.6,18.1,23.2c18.4,0.9,18.4-6.9,31.6-12.1c12.9-5.2,9.5-20,14.9-33.7
	c5.2-13.7,33.9-18.3,29.6-5.2c-4.6,13-26.4,20.9-17.4,37.3c8.6,16.4,4.3,25.8-0.9,32.6c-5.2,7.2-27.9,28.8-13.1,32.1
	c14.9,3.6,16.9,1,28.9-7.5c12.2-8.8,20.1-7.2,20.1-19.3c0-12.1-10.6-26.9-7.2-42.2c3.6-15.7-6.9-38.9,3.6-46.7
	c10.6-7.8,7.9-29.4,13.1-33.7c5-4.6,34.5-4.6,36.5,0.7c1.6,5.2-17.4,17.3,2.7,35.6c20.1,18,12.9,26.8,20.8,32.6
	c7.9,6.2,21.7-1.6,21.7-20.6s0-38.3,7.9-31c7.9,6.9,7.9,16.4,14.9,23.2c6.9,6.8,0,13,15.7,7.8c15.4-5.2,10.2-14.1,20.1-18.3
	c9.5-4.3,19.7-2.7,7.6-20.6c-12.2-18.3-24.9-33-24.9-44.2c0-11.2,6.9-32.1-2.7-41.5c-9.5-9.5-7.9-26.8-21.7-16.4
	c-14.1,10.1-10.6,39.6-17.4,38.9c-6.9-1-26.3-6.2-26.3-18.3c0-12.1,6.8-57.2-8.6-47.8c-15.8,9.8-13.1,26.2-17.4,34
	c-4.3,7.5-13.1,15.3-3.6,27.5c9.5,12.1,21.7,26.2,9.5,26.2c-12.2,0-19.1-2.7-26.9-18.3c-7.6-15.3-24.9-23.2-19.1-45.8
	c6.3-22.6,15.8-46.7,11.5-54.6c-4.6-7.8-12.2-31-26.3-5.2c-13.8,26.2,0,46.1-19.1,41.5c-19-4.3-20-11.1-27-21.6
	c-6.8-10.5,1.6-31-10.5-40.5c-12.2-9.5-27.6-13.7-43.4-12.1s-21,13-21,13s-1.6-38.3-17.1-26.2c-15.7,12.1,16.5,16.4,9.6,32.1
	c-7.2,15.7-25.3,22.6-26.9,29.4c-2,6.9,4.3,11.1-2.7,8.5c-6.8-2.3-24.4-18-29.6-5c-5.3,12.8-6.3,28.5-19.1,28.5
	c-12.8,0-40.1,17.3-35.9-9.5c4.3-26.8,25.3-48.4,5.3-45.1c-20.1,3.6-30.6,32.1-37.5,28.8c-6.9-3.6-20.1-11.4-20.7,3.2
	c-1,14.8,8.6,36.3-1,41.5c-9.5,5.2-39.1-22.6-30.6-44.2c8.8-21.6,25.3-41.5,10.6-57.9c-14.9-16.4-26-17.3-15.4-29.4
	c10.2-12.1,19.7-18.3,8.6-29.4c-11.1-11.1-26.9-25.8-31.2-18.9c-4.6,6.8-26.4-2.7-9.6-11.4c16.5-8.5,24.4-19.6,20.8-26.9
	c-3.3-6.8-5.9-20.6-19-5.2c-13.1,15.7-23.7,10.5-31.2,26.8c-7.9,16.7-2,30.5-3.6,47.8c-1.6,17.3-13.1,22.6-9.5,43.1
	c3.6,20.9,4.3,26.2,11.1,48.4c7.2,22.5,16.8,50.4,16.8,50.4L5342.8,3121z M5283,2983c3.2-3.9,5.2-9.1,8.8-17.7
	c9.5-23.5,2.7-32.1,14.9-52c12.2-20,21-42.6,10.6-57.9c-10.6-15.7-3.6-17.3-24.4-10.5c-21,6.9-37.5,15.3-33.2,2.7
	c4.6-13,21.7-31.4,8.8-38.3c-13.1-6.8-22.7-0.7-22.7-17.3c0-16.6,2.7-28.5-21.7-33.7c-24.4-5.2-43.4-18.9-55.9-13
	c-12.2,6.2-21.7-1.6-32.8,2.7c-11.1,4.6-0.9,14.8-11.1,29.4c-10.6,14.8-22,33-26.3,8.8c-4.3-24.2-13.1-45.8-27.6-42.5
	c-14.8,3.6-28,9.5-30.6,23.5c-2.7,13.7-23.7,7.5-29.6,38c-6.3,30.5-13.1,49.4-14.8,69.3c-1.6,20-20.1,5.2-20.1,27.5
	s-8.6,63.4-13.1,42.5c-4.3-20.6-1.6-35.3-12.2-33.7c-10.2,1.6-40.7,12.1-35.5,1.6c5.2-10.5,32.2-11.1,35.5-20.6
	c3.6-9.5-13.8-24.2,4.6-33c18.1-8.5,55.6-38,46.7-42.5c-8.6-4.3-24.4-9.5-12.9-20.6c11.1-11.1,30.3-16.4,31.2-33
	c0.9-16.4,6.3-17,15.8-25.8c9.5-8.5,27-42.5,4.3-40.5c-22.7,1.6-26.9,15.3-37.5,8.5c-10.6-6.9-32.2-23.2-38.2-5.2
	c-6.3,18.3-21,37.3-33.2,31.4c-12.2-6.2-7.9-30.5-32.2-17.3c-24.4,12.8-26,25.8-38.2,26.9c-12.2,0.7-20.1,27.5-31.2,14.8
	c-11.5-13,8.6-28.8-20.1-30.5c-28.9-1.6-10.6-13.7-34.8-14.8c-24.4-1,0.9,6.2-40.1,1.6c-40.7-4.3-35.5-15.3-62.5-14.8
	c-26.9,0.9-34.8-12.1-39.1-18.9c-4.6-6.8-28-18-15.8-18.9c12.2-0.9,14.8,6.8,34.8,6.8s25.3,1.6,26.9-15.7c1.6-17-6.8-22.3-13.8-32.8
	c-7.2-10.5-7.9-22.6-31.5-15.7c-23.3,6.9-20.8,18.3-26,5.2c-5.2-13-14.8-3.2-28-9.5c-12.9-5.9,12.2-20-4.3-31
	c-16.5-11.4-40.1-14.1-40.1-14.1s-8.6-24.8-19-9.5c-10.6,15.7-17.4,37.3-20.8,24.2c-3.6-12.8,13.8-18.9,7.5-36.3
	c-5.9-17.3-8.6-31-17-20c-8.9,11.4-11.5,23.5-22.7,2c-11.5-21.6,3.2-24.2-16.8-30.5c-19.7-5.9-39.8-31-73.6-40.6
	c-34.2-9.5-47-1.6-51.6-20.9c-4.3-18.9-4.9-23.2-12.9-31c-7.9-7.8-28-28.5-33.9-15.7c-1.6,3.2-2.3,6.6-2.3,9.5
	c6.6,17,14.5,32.1,23,40.8c11.8,11.4,26.7,19.3,39.1,25.8c6.3,3.2,12.2,6.2,17,9.5c13.1,8.9,19,18.3,8.8,33.3
	c-2.9,4.6-4.3,9.1-4.3,13.7c0,6.6,2.7,12.8,5.9,18c3.6,5.5,7.9,9.8,11.5,12.1c1.3,0.9,2.3,1.3,2.3,1.3c0.7,0,5.2-3.2,10.6-7.5
	c3.9-2.9,8.6-6.6,13.5-9.8c12.9-7.8,25.3-11.8,33.9,1.3c7.9,12.5,4.3,33,0.7,52.4c-2.7,14.4-5.2,27.8-2.3,33
	c3.2,5.9,12.2,8.8,21.7,12.5c10.9,3.6,22.7,7.8,32.8,17c9.9,9.1,17.7,17.7,23.7,27.5c5.9,10.2,10.2,21.2,13.1,35
	c1.6,8.2,0.9,18,0.3,27.8c-1.3,20.9-2.7,44.2,20.4,56c17,8.5,38.5,7.5,55.6,6.6c22-1,38.7-2,40.1,16c0.9,10.5,12.5,22.8,22.4,33.7
	c8.9,9.8,16.8,18.7,17.7,26.5c0.3,2.7,1.3,6.6,2.7,11.1c5.2,18.7,12.9,45.8-9.2,59.2c-9.5,5.9-17,7.5-24.7,9.1
	c-11.1,2.7-22.7,5.2-44.1,23.2c-18.8,15.7-34.8,29.4-50,37.6c-16.8,8.9-31.9,11.1-46.4,3c-13.8-7.8-43.7-22.6-64.1-27.8
	c-5.2-1.3-9.5-2-12.5-2c-0.3,0-0.3-2-0.3-0.9c-0.3,0.3,0,1.6,0.9,3.2c2.7,5.2,5,10.2,7.2,14.8c12.5,24.2,21.3,40.8,0.9,55.6
	c-2.7,2-5,3.9-6.6,5.9c-2.3,3.2-3.6,6.6-3.6,9.8c0.3,3.6,2,7.5,5.2,11.8c3.2,4.6,7.9,9.1,13.8,14.1c6.8,5.5,14.2,9.8,21.3,14.1
	c19.4,12.1,39.1,24.2,58.8,60.8c15.1,28.1,29,31.4,40.8,34c8.6,1.6,16.5,3.6,24,11.1c6.3,6.2,11.8,14.1,17,21.9
	c8.6,12.8,16.5,24.2,23,21.6c2.7-0.9,5.2-2.3,7.9-3.2c17.7-7.8,38.2-17,54.9-0.7c4.3,4.6,6.6,4.3,9.5,3.2c7.2-2,17-4.3,38.7,5.9
	l7.5,3.6c15.4,7.5,27,12.8,33.2,12.8c2.7,0,3.9-3,3.9-10.5s-7.2-26.8-15.4-49c-11.8-30.7-25.3-67.4-26.3-91.2
	c-0.7-18,5.2-30.1,22-30.5c41.4-1.6,50,11.8,50.9,33.3c0,5.5-0.3,11.4-0.7,17.3v0.9c-0.3,4.8-0.7,8.5-0.9,12.1
	c-1.3,17-2,26.5,2.9,28.1c4.9,1.3,8.2,4.3,11.8,7.8c7,5.9,14.5,12.8,31.9-7.5c24.9-29.1,98.6-72.9,149.6-103
	c10.6-6.6,20.1-12.1,29.6-17.7c15.8-9.8,41.4-33,68.7-57.9c51.3-46.7,108.4-98.7,128.5-81.8c12.9,10.8,27.9,33.7,40.1,53.6
	L5283,2983z"/>
<path class="st0" d="M3016.2,2178.1c0,0-36.5,0.9-26.9,31.2c9.5,30.6,17.4,63.5,17.4,99.3c0,35.9-0.9,52.3,7.5,61.9
	c8.9,9.5,9.5,14.9-2.7,26c-12.2,11.5-43.3,41.8-31.8,54c11.1,12.2,25.9,11.5,35.4,1.6c9.5-9.5,31.1-25,38.1-16.5
	c7.2,8.9,6.2,28.9,13.1,40.2c6.9,11.1,3.6,16.5,23.6,13.8c19.7-2.7,64.9-50.4,60.6-66.2c-4.3-15.4,8.6-17.4,8.6-31.2
	c0-13.8-7.9-26.9,11.5-28c19-0.7,20.7-3.2,25.9,7.9c5.2,11.1,18.4,7,25.9,10.6c7.9,3.2-15.4,16.5,14.8,14.9
	c30.6-1.6,18.4-14.9,41-6.3c22.3,8.9,20.7,23.7,32.2,7.9c11.1-15.8,21.6-19,12.2-37.5c-9.5-18.1-27.9-30.3-43.6-24.4
	c-15.4,6.3-21.6-7.9-28.6-12.2c-6.8-4.3-20.7-22.7-32.2-35.5c-11.1-13.1-13.8-30.6-43.3-29.6c-29.5,0.7-43.3-7-55.8-17.4
	c-12.2-10.6-32.8-31.2-46.5-18.5c-14.1,13.1-17.4,22.7-22.7,7.9c-5.2-14.9-14.1-22.7-6.3-26.9c7.9-4.3,30.6,4.3,20.9-12.2
	c-9.5-16.5-13.1-42.8-24.3-33.2c-11.5,9.9-14.8,23.7-14.8,23.7l-9.5-5.2L3016.2,2178.1z M2618.6,2917.9c1.3-22,3.6-43.1,3.9-50.7
	c0.9-16.5,10.5-20.8,12.2-43.4c1.6-22.7,0.9-30.3,15.7-50.4c14.8-20.1,20.7-17.4,15.4-32.3c-5.3-14.9,3.6-21,11.5-28
	c7.9-7,10.2,3.6,7.9-15.8c-2.7-19-2-23.3,19.7-39.8c21.6-16.5,30.6-10.6,26.8-26.9c-3.2-16.8,29.5-7.9,7.2-23.7
	c-22.7-15.4-25.2-27.6-12.5-27.6c12.7,0,28.8,14.9,48.8-1c20-15.8,24.3-15.8,28.6-28c4.3-12.2-28.6-64.2-52.2-64.2
	c-23.6,0-24.3,14.9-33.8,1.6c-9.5-13.1-5.2-16.5-21.6-17.4c-16.4-1-51.2-11.1-43.3-17.4c7.5-6.3,21.6,1,37,4.3
	c15.7,3.6,33.1,0,43.6,4.3c10.2,4.6,11.1,11.5,28.6,9.9c17.4-2,17.4,12.2,35.4,12.9c18.4,1,16.8,2.7,27.9-9.5
	c11.5-12.2-0.9,1.6,4.3-28.7c5.2-30.6,7.9-48,20.9-33.9c13.1,13.8,6.9,19,22.7,13.8c15.4-5.2,24.3-13.8,32.7-17.4
	c8.9-3.6,14.1,7,22.7-15.8c8.6-22.4-6.9-50.4,10.5-66.7c17.4-16.8,29.5-34.8,23.3-47c-5.9-12.2-20-21-31.1-13.8
	c-11.1,7-42.7,24.4-64.3,7.5c-21.6-16.5-25.9-29.6-38.1-33.9c-12.2-4.3-20-12.2-35.8-12.2c-15.7,0-64.3-11.1-41.7-13.8
	c22.7-2.7,59,0.7,79-2c20-2.3,23.3,8.9,42.7,21c19,12.2,17.4,22.7,34.5,22.7c17.1,0,17.4-1,30.6-5.2c13.1-4.3,10.5,5.2,20.9-13.8
	c10.2-19.4,4.9-42.7,14.8-54.9c9.5-12.2,22.3-19,16.4-28.7c-6.2-9.9-31.1-3.6-35.8-14.9c-4.3-11.5-23.3-21-2.7-24.7
	c20.9-3.2,27.9,0,37.4-3.2c9.5-3.6,20-16.5,23.6-2.7c3.2,13.8-2.7,26.9,12.8,26c15.7-0.7,19-8.6,26.3-14.9c6.8-5.9,20-3.3,25.9-0.7
	c6.3,2.7,21.6-3.6,9.5-16.8c-12.2-12.9-28.6-26.9-39-31.9c-10.5-5.2-13.8-30.6,4.3-21c18.4,9.5,43.6,37.5,50.6,39.1
	c6.9,1.6,5.9,15.8,15.4-4.3c9.5-20.1-5.9-16.5,12.2-24.4c18.4-7.9,15.7-31.2,33.1-52.3c17.4-20.8,18.4-43.4,5.2-55.6
	c-13.1-12.2-23.6-17.4-41.7-38.5c-18.4-20.8,22.7-12.9-15.7-29.6c-38.1-16.5-64.9-26-22.7-39.1c42.6-12.9,61.7-19,48.8-33.9
	c-28.8-32.6-19-19-36.7-46.1c-11.1-17.4-31.8-16.5-36.5-15.8c-4.3,1-25.9-14.9-25.9-24.7c0-9.9-7.5-13.5-17.4-9.5
	c-9.8,3.9-13.8,9.2-22.7,4.6c-8.6-4.3-16.1-16.5-30.2-9.9c-14.5,6.6-11.8,5.2-24,11.1c-12.2,6.3-22.9,7.5-13.8,24
	c8.9,16.5,11.5,17.4,9.5,32.3c-2.3,14.9,21.6,23.3,25.9,25.3c4.3,1.6,17.7,2,6.6,12.2c-11.5,9.9-2.7,20.4-8.2,24.4
	c-5.6,3.9-17.4,18.8-17.4,18.8s-7.5,22.4-1.6,35.9c5.6,13.5,18.4,3.6,5.9,22.4c-12.5,18.8-3,49-18.1,34.8
	c-15.4-14.5-17-28.9-19.3-35.2c-2-6.6-23.3-4.6-20,8.2c3.6,12.5,5.9,18.8,9.8,32.6c3.6,13.8,16.8,9.9,23.3,19
	c6.6,9.2,2.9,28,7.9,33.5c4.6,5.6,2,9.5-7.9,15.8c-9.8,5.9-9.8,15.4-16.4,18.8c-6.6,3-8.2,8.6-22.7-17.1
	c-14.5-25.6-19-24.4-34.7-48.4c-15.7-24-13.8-28-11.8-46.1c2.3-18.5,4.6,2,14.1-12.5c9.5-14.9,15.4-12.5,5.9-33.5
	c-9.5-21.3-20.7-20.1-33.8-36.6c-13.1-16.8-8.6-18.5-20-24.7c-11.1-5.9-18.7-32.6-25.9-10.2c-7.5,22-0.7,29.9-9.1,42.1
	c-8.6,12.2-2.7,17.8-0.9,32.3c2,14.5-2.9,29.2-8.2,36.2c-5.3,7-19,20.4-17.4-2.3c2-22.7,6.9-30.9-5.6-47.3
	c-12.5-16.5-11.8-31.9-19-40.5c-7.5-8.9-40-9.2-19-14.5c20.7-5.2,28.8-9.9,23.3-20.1c-5.6-9.9-3.2-5.9-14.5-12.2
	c-10.9-5.9-9.5-4.3-15.4-13.8c-6.3-9.5-20-29.2-18.7-9.5c1.3,19.4-0.3,26.9-6.6,29.2c-5.9,2-21.3,9.9-27.2-11.8
	c-6.2-21.7,12.2-29.6,13.8-37.5c1.6-7.9-27.9-13.8-17.4-22.7c10.5-8.6,16.4,2.7,29.5,2c13.1-1,20-5.2,7.9-21
	c-12.2-15.8-17.4-3.6-30.6-23.3c-12.8-20.1-1.6-25.3-16.4-34.2c-14.8-8.6-20-8.6-20-26.9c0-18.3-1.6-20.8-8.6-36.6
	c-6.9-15.4-22.7-31.2-27.9-36.6c-5.2-5.2-5.9-17.4-18-20.1c-12.2-2.7-46.9-11.1-16.8-23.3c30.6-12.2,33.1-5.2,35.8-26.9
	c2.7-21.7,0.7-17.4,0-31.2c-0.9-14.2-20-23.7-2-26.3c18.4-2.7,26.8,13.1,35.8,10.6c8.6-2.7,11.1,2.7,17.4-13.8
	c5.9-16.8,5.2-41.1,12.2-53.3c6.9-12.2,24.3-26.9,26.8-41.8c2.7-14.9,6.9-54.7-3.6-59.9c-10.2-5.2-42.4,16.5-50.2,10.2
	c-7.9-5.9-11.5-24.4-27.9-18.1c-16.4,5.9-28.6,13.8-50.2,17.4c-21.6,3.3-39-3.6-32.2,19c6.9,22.7,15.4,28.7,7.9,32.3
	c-7.9,3.2-16.8,2.7-12.2,26c4.3,23.7-4.6,54.9,5,75c9.8,20.1,19.3,20.1,19.3,33.9c0,13.8,2.7,23.3,0.7,29.6
	c-1.6,5.9-16.4,17.4-12.2,28.7c4.6,11.5,14.8,20.1,6.3,30.6c-8.9,10.6-30.6,26-19,30.3c11.1,4.6,26.8,13.1,14.8,16.8
	c-12.2,3.3-10.5-7-22,0c-11.1,7-13.8,10.2-13.8,25c0,14.7-10.5,33.2-4.3,46.4c5.9,12.9,15.7-1,20.7,13.8c5.2,14.9-10.2,12.2-12.8,28
	c-2.7,15.4-15.7,21.7-0.9,39.1c14.8,17.4,21,10.2,25.2,24.9c4.3,14.9-0.9,11.5,26.8,24.7c27.5,12.9,33.8-1,35.4,9.5
	c2,10.2,3.6,20.8,14.8,15.4c11.5-5.2,32.2,0,22.7,6.3c-9.5,5.9-18.4-4.3-23.3,11.1c-5.2,15.8-0.9,26.3-6.3,33.2
	c-5.2,7-25.2,7-13.1,18.1c12.2,11.5,22.7,21,26.3,5.2c3.2-15.4,12.2-23.3,15.4-15.4c3.6,7.5-5,12.9,2,24.4
	c6.9,11.1,10.2,9.5,0.7,17.4c-9.5,7.5-15.4,18.1-29.5,32.8c-13.8,14.9-20.7,13.8-25.9,25.3c-5.2,11.1-13.1-11.5-22.7,7
	c-9.5,18.5,21,29.6,9.5,41.8c-11.1,12.2-17.4,15.8-8.6,26.9c8.6,11.1,12.2,26.9,12.2,26.9s2.7,13.8-6.9,8.6
	c-9.5-5-7.9-28.7-23.6-31.2c-15.4-2.7-21.6,0-20-12.9c2-13.1,9.8-23.7,14.1-42.8c4.3-19,5.2-40.7-8.9-36.6
	c-13.8,4.3-13.8,12.9-20-2.7c-5.9-15.8-7.5-13.8-16.4-18.5c-8.6-4.3-20-16.5-12.2-16.5c7.9,0,25.2,11.1,39,7
	c14.1-4.3,6.2-13.8,25.2-26.9c19-13.1,30.6-2.7,23.3-17.4c-6.9-14.9-18.1-1.6-26.8-26.9c-8.6-25.3-8.6-45-8.6-45s10.5-28-2.7-22.7
	c-13.1,5.2-16.4,18.1-28.6,9.5c-12.2-8.9-10.5-10.6-16.8-17.4c-5.9-7-9.5-33.2-27.5-24.4c-18.4,8.6-21,18.1-19.3,35.5
	c2,17.4-20.7,21-20.7,34.2c0,13.2,16.4,26,0.9,30.3c-15.7,4.3-37.4,0.9-32.2,13.1c5.2,12.2,18,9.5,36.5,15.8
	c18.1,5.9,13.1,11.1,21.6,16.5c8.6,5.3,17.4,13.8,15.7,20.8c-2,7-0.9,14.2-11.5,16.8c-10.5,2.7-28.6-2.7-24.9,12.9
	c3.2,15.8,0.7,34.8,11.1,37.5c10.5,2.7,26.8-13.1,43.3-1.6c16.4,11.1,16.4,14.9,7.9,21.7c-8.6,7,6.9,30.3-12.2,21.7
	c-19-8.6-20-31.2-39-26c-19,5.2-48.6,9.5-62.6,5.2c-13.8-4.6-31.8-15.8-46.5-9.9c-14.8,6.3-30.6,8.9-46.3,6.3
	c-15.4-2.7-28.6,8.6-47.6-13.1c-19-21.7-14.1-39.1-35.8-37.5c-21.6,2-22.3,8.9-29.5,2c-6.9-7-0.7-18.5-13.8-28.9
	c-13.1-10.2-33.8,3.6-25.9-19c7.5-22.7,5.9-48.7-6.2-52.9c-12.2-4.3-20.7-2.7-32.2,2.7c-11.1,5.2-22.7,10.9-48.6,14.2
	c-25.9,3.6-34.7-9.9-38.7,7.2c-3.9,16.8,1.3,16.5-5.9,23c-7.5,6.6-12.9,13.5-3.9,20.4c8.6,7,12.5,13.1,23.3,6.6
	c10.9-6.6,10.2-21.7,20.9-17.8c10.9,3.6,19,10.9,28.6,3.6c9.5-7,15.7-12.2,24.9-15.1c8.9-2.9,18.4-16.1,23.6-5.2
	c5.2,10.9,16.8,9.2-0.3,17.1c-17,7.9-17,9.9-31.8,18.1c-14.8,8.6-2-0.3-26.8,9.2c-24.7,9.5-35.4,9.2-36.7,21.7
	c-1.3,12.9-10.2,12.2-13.4,21.4c-3.6,9.2-2.9,11.8-0.3,20.4c2.7,8.9,8.9,10.6,13.8,21.4c4.6,10.9-10.2,12.9-2.3,29.9
	c7.9,17.4,3.9,26.3-1.3,26.9c-5.2,1,0,29.6-11.1,19.7c-11.1-9.9-22.3-16.1-15-29.6c6.9-13.5,24.7-15.1,12.9-33.2
	c-11.5-17.8-9.5-29.2-14.1-35.9c-5-6.6-14.1-1.3-22.7-10.6c-8.9-9.2-1.6-25.3-15-29.6c-13.4-4.3-18.7-16.5-24.9-21.4
	c-5.9-4.6-12.2,0.3-28.2,2.7c-16.1,2.3-79.4,15.1-104.6,2.3c-24.9-13.1-20.7-22.7-44.3-26.9c-23.3-4.6-38.1-7-43.3-21.7
	c-5.2-14.9-17.4-18.5,6.2-24.7c23.3-5.9,19-17.1,24.9-18.1c6.3-0.9,25.2,5.9,33.1,1c7.9-5.2,10.5-16.8-1.6-34.8
	c-12.2-18.4-43.6-55.9-59-58.6c-15.7-2.3-17.4,8.9-29.5,0c-12.2-8.6-22.7-15.4-38.4-24.4c-15.4-8.6-12.2-4.3-26.8-24.4
	c-14.8-20.1-18.1-20.8-44.3-40.8c-25.9-20.1-18.1-28.7-23.3-45.4c-0.9-2.7-2.7-5.9-5-9.2c-9.1,22-19.3,47-25.6,63.5
	c-4.3,10.8-10.5,23.3-17.4,36.8c-15.4,30.6-33.4,66.5-29.2,86.6c2.7,11.8,7.5,23.7,13.1,34.2c8.9,16.5,18,28.3,20.4,29.6
	c3,2,66.3,84.3,120.7,157.6c36.5,49,69.2,94.5,77.8,109.2c9.8,17.8,3.9,31.6-1.3,43.1c-1.3,3.6-2.9,7-3.2,9.5
	c-1,5.6,4.3,10.6,33.1,15.8c35.8,6.6,58.1,2.7,72.8,0c19-3.3,28.2-5,37.7,13.8c6.6,13.1,11.8,32.8,16.8,51.6
	c5.6,21.7,11.1,41.8,15.7,45c4.6,3.6,14.8,5.9,26.3,8.6c14.5,3.6,31.5,7.5,45.9,15.4c25.6,13.8,303.4,95,304.5,95.4l5,1.3l-0.3,5.2
	l-17.7,489.5c153.8,7,293.6-1,418.9-17.4L2618.6,2917.9z M2375.8,523c-6.9,14.5-5.6,28-2.3,30.3c3.6,2,18.1,9.9,18.7,14.2
	c0.9,4.3,2.3,19,7.9,10.2c5.6-9.2,6.6-25,7.5-40.2c0.7-15.1-10.2-30.6-17.4-28.3C2382.7,511.5,2375.8,523,2375.8,523z M2694.6,572.4
	c2.7,3,19.3,8.6,20,16.8c0.9,8.6,5.2,18.8,0.9,23.7c-4.3,4.6-17.7,4.3-22,12.2c-4.6,7.9-3.6,2-9.1,19c-5.6,17.1-18.7,36.6-18.7,36.6
	s-5.2-19-9.5-1.6c-4.3,17.4-5.6,40.2-10.5,50.4c-5,10.6-5.2,23-14.5,24.4c-8.9,1.3-10.9-19.4-25.6-8.9
	c-14.8,10.2-15.4,16.8-27.5,18.1s-13.1-2-25.2-3.9c-12.2-1.6-17.7,21-26.8,8.2c-9.1-12.5-4.3-19.4,1.3-26.3
	c5.6-7,13.1-11.8,9.8-26.3c-3-14.2,0.7-12.2-9.5-24.7c-9.8-12.5-29.5-17.1-25.2-24.4c4.6-7.5,24-3.9,23.6-13.1
	c-0.3-9.2,9.1-16.1,13.4-15.4c4.3,0.3,6.9,2.9,11.8-5.2c4.6-8.2-6.6-23-14.1-23.7c-7.2-0.3-18,6.3-22,10.6
	c-3.9,4.3-2.9,3.9-10.5-0.3c-7.2-4.6-12.5,2.9-16.1,5.2c-3.2,2-5.2,7.5-12.5-2.7c-7.5-10.6-16.1-9.2-11.8-19.4
	c4.3-9.9,15.7-4.3,5-13.5c-11.1-8.9-13.1-12.2-13.4-18.1c-0.7-6.3-20-17.1-14.5-25.3c5.6-8.2,2.7-22.7,2.7-22.7s10.5-3.2,16.4,3.9
	c6.3,7.5,31.1,12.2,18.7,1.3c-12.5-10.9-31.1-21.7-28.6-24.4c2.7-2.7,5.9-18.1,8.2-28c2-9.5-6.3-15.1,5.2-15.1
	c11.5,0,22.9,12.9,13.8-3.9c-9.1-16.5-19.7-34.8-6.2-41.8c13.4-7,21.3,3.2,26.3-8.2c4.6-11.1,16.8-7.9,2-16.5
	c-14.8-8.9-25.6-0.9-17-11.8c8.2-10.9,11.5-19,25.9-11.8c14.5,7.5,32.5,12.9,35.1,25.6c2.7,13.1,3.6,34.2,13.8,52
	c10.5,17.8,32.8,45.7,37.4,44.1c5-2,1.6-13.8,15.7-9.9c13.8,3.9,22,3.2,15.4,11.5c-6.3,8.2-28.2,2-18.1,11.8
	c9.8,9.5,20.7-6.3,25.9,0.7c5.2,7,19.7,6.6,20.4,24c0.9,17.4-6.3,26.9-3,33.9c3.6,7,15,17.4,21,13.1c5.6-4.3,22.3,0,22.3,0H2694.6z
	 M2408.9,689.4c-3.2,11.5-6.3,29.9,1.6,37.1c7.9,7.5,17.7,12.9,17.7,12.9s-2.9,12.5-5.9,24c-3.2,11.1-36.1,9.9-14.8,23
	c21.3,12.9,35.8,1.6,38.1,9.5c2.3,7.9,4.3,18.8,13.8,13.5c9.8-5.2,6.6-14.9,16.8-17.1c9.8-2,16.4,4.3,20.4-9.5
	c3.9-13.8,3.9-23.3-0.9-40.5c-4.6-17.1,3.2-34.8-17.4-35.2c-20.4-0.3-13.4,3.9-28.6-6.6c-15-10.6-23.3-17.8-27.9-17.8
	C2417.4,682.8,2408.9,689.4,2408.9,689.4z M2253.3,615.4c-16.1,5.9-25.2,9.9-16.4,21.4c8.6,11.1,26.3,2.7,17.4,18.5
	c-9.1,16.1-0.7,26,3.2,25.3c3.9-0.3,17-3,18.7,1.6c1.6,5,3,11.5,2.7,20.8c-0.3,8.9-5.2,12.2-11.8,9.5c-6.2-2.7-13.4-16.8-18.7-2.3
	c-5,14.5,5,30.9,5.2,33.2c0.7,2,6.3,11.1,18.1,10.2c11.5-0.7,10.8-9.5,23.3-8.9c12.5,0.3,18.7,7,24.6,7.2
	c6.3,0.3,16.1-10.9,14.5,5.2c-1.6,16.1-5.9,24.4,3.9,30.6c9.8,5.9,10.9,4.3,18.7,10.2c7.9,6.3,19,13.5,23.3,5.9
	c4.6-7.9,8.9-15.8,13.1-35.9c4.3-20.1,19.7-9.2,6.6-28.7c-13.1-19.7-20-19.7-27.9-38.5c-7.9-18.8-9.5-40.5-21.3-37.1
	c-11.5,3-4.6,26-19.7,5c-15.4-20.8-24-7-28.8-17.1c-4.6-10.6,5.6-38.8-12.8-41.8c-18.7-3.3-24.7-0.9-25.9,1.3
	c-0.9,2-9.8,4.6-9.8,4.3V615.4z M2512.2,812.1c-8.9,0.3-12.5,8.9-22,4.3c-9.5-5-12.2-12.2-21.6-0.3c-9.5,11.5-20.7,23.7-1.6,29.9
	c19,5.9,34.7,6.6,41.3,11.8c6.3,5,24.7,14.2,24.7-2c0-16.1-0.3-24.7,3.6-35.5c3.9-10.9,2.9-21-7.2-20.4c-9.8,0.4-17,12.5-17,12.2
	H2512.2z M2606.6,820.4c-9.1,5.2-19,27.3-5.2,34.8c13.8,7.2,6.6,23.7,21.3,22.4c14.8-1.3,25.6-3,20.7-20.4
	c-4.6-17.4-17.4-39.8-19.7-41.8c-2.7-1.6-16.1,3.6-17,5H2606.6z M2598.1,1070.3c-6.6,7.2-19.3,21-14.1,30.6
	c5.2,9.5,8.2,14.5,14.1,28.7c5.6,14.5,8.6,19.7,9.8,32.3c1.3,12.9,22.7,31.9,24.6,26.3c2.3-5.9,6.3-18.1,18.7-14.9
	c12.8,3,6.3,12.5,20.9,12.9c14.8,0.7,17.7,17.1,26.8-2.9c9.1-20.1,26.8-26.7,26.8-14.5c0,12.2-7.9,22.4,7.2,24
	c15.4,1.6,18.4-6.6,30.2-6.6c11.8,0,19,6.3,22.9-2.9c3.9-9.2-0.7-11.1,12.2-10.6c12.5,1,15.4,5.6,24-2c8.2-7.9,19.3-12.2,24.9-10.6
	c5.6,1.6,12.2,3.2,20-3.6c7.9-7,6.9-20.4,14.8-16.5c7.9,3.9,20.4,15.1,20.4,15.1s29.2,1.3,37-9.5c7.9-10.9,5.6-15.1,20.7-14.9
	c15.4,0.7,11.8,3.6,14.8-7.2c3-10.9-7.9-17.4-0.7-30.6c6.9-13.1,0-15.1-2-24.7c-1.6-9.5,2-23.7-2-39.1c-3.9-15.8-12.2-26.3-28.2-23
	c-16.1,2.9-7.9-3.3-37.4-6.6c-29.5-3.6-62.6-1.3-75.1,12.5c-12.5,13.8-30.6,13.1-39,25.3c-8.6,12.2-20.4,30.9-34.7,26.9
	c-14.1-3.9-20.7-15.8-38.1-6.3c-17.4,9.5-17.7,15.8-24.3,15.4c-6.6-0.7-14.5-15.4-14.8-25c-0.7-9.5,0.3-3.9-2.3-22.7
	c-2.7-18.5,15.7-42.1-7.9-47.4c-23.3-5.2-30.2-2-38.1-9.9c-7.9-7.9-10.9-25.3-2.3-23.7c8.9,2,8.9-9.5,15.4-3.2
	c6.3,5.9,6.3,13.5,13.8,16.1c7.2,2.7,17.7-9.2,28.6-5.6c10.9,3.2,3.9,8.2,17.7,9.5c14.1,1.3,11.8-17.1,30.2-10.6
	c18.1,6.6,19-0.3,23.3,2.3c4.3,2.3,11.8,11.5,24.9,4.6c12.9-7,7.2-16.1,15.4-19c8.2-3,14.5,4.3,17-0.9c2.7-5.2-6.3-12.5,6.9-10.6
	c13.1,2.3,11.1,5.9,17.7,2c6.6-3.9,18.4,6.6,21.6,2c3.6-4.3,0.9-14.2,5.2-17.4c4.3-3,7.9-3.6,21.3-1.6c13.4,2.3,18.4,4.3,13.4,13.5
	c-5,9.2-9.8,14.2-0.3,16.1c9.5,2.3,15.4,7.9,21.6-4.6c5.9-12.9,10.8-19.4,22.9-28.3c12.2-9.2,12.2-19.7,22-28.9
	c10.2-9.2,14.8-10.2,9.1-21.4c-5.6-10.9-18.1-38.2-24-38.2c-5.6,0-2.7,17.4-12.2,21c-9.5,3.2-12.2-9.9-13.8-13.5
	c-1.6-3.9,5.6-9.2-10.8-11.5c-16.4-2-22.3-0.3-35.8,2.3c-13.4,2.7-11.5-6.3-21.6-2c-9.8,4.6-13.4,3.9-16.1-9.5
	c-2.7-13.5-10.2-35.2,3.2-22c13.4,13.1,9.5,17.8,17.7,20.1c8.2,2,1.3-2,20-1c18.7,0.9,19,1.6,29.5-2c10.2-3.9,15-7.2,18.7-17.4
	c3.2-10.6,6.9,0,7.2-20.8c0.3-20.4-3.6-11.5-11.8-33c-8.2-21.4-0.3-26.7,8.2-26.3c8.8,0.7,11.5,17.1,22.7-2
	c11.5-19,28.2-21.7,7.9-26.7c-20.4-4.6-37.4-12.5-18.7-14.2c18.7-2,20.4-9.9,17.7-14.2c-2.3-4.3-3.2-8.6-13.4-13.5
	c-9.8-4.6-4.3-5.6-0.3-16.8c3.9-11.5-1.3-26.9-1.3-26.9s-20.4-5.9-26.8-7.5c-6.6-1.6-1.3-15.8-12.2-8.6c-10.9,7-3,18.1-15,14.9
	c-12.2-3.6-21.3-7.2-12.8-14.9c8.9-7.9,12.2-12.2,14.8-14.9c2.7-2.7,8.9-1.3,11.8-6.3c2.9-4.6-1.6-3.2,15.7,1
	c17.4,4.3,30.8-10.2,22.9-14.2c-7.9-3.6-12.2-3.2-24-3.2c-11.8,0-20.7-8.2-24.3-6.3c-3.6,2.3-12.5-6.6-2.7-9.5
	c10.2-2.9,11.1,7.5,28.2-5.2c17-12.5,14.5-10.2,19.7-15.4c5-5.2,13.8-13.5,11.5-25c-2-11.1,17.4-9.9,20.7-12.2
	c2.9-2,5.6-14.9,5.9-31.2c0.3-16.5,5.6-21.7,0-26.7c-5.6-4.6-15.7,7.5-10.5-8.2c5.2-15.4,2-12.5,13.4-24.4
	c11.8-11.8,11.5-22.7,7.5-33.5c-3.9-10.9,0.3-34.8,2.9-58.6c2.7-24,13.4-25.3,11.1-41.4c-2-16.1,5.9-25.3,7.5-35.5
	c1.6-10.6-0.3-26-7.5-16.8c-6.8,9.2-11.1,17.8-18.4,26.7c-7.5,8.6-14.5,11.1-14.8,3.9c-0.7-7.5-5.9-5-8.8-3.6
	c-2.9,1.3-17-4.3-5.9-12.2c10.9-7.9,10.9-2,17-16.1c6.6-13.8,18.7-29.9,29.2-56.9c10.5-26.9,12.2-21,6.9-40.2
	c-5.2-19,2.3-32.6-16.4-28.9c-18.7,3.2-16.4,12.5-29.9,6.3c-13.4-5.9-14.8-17.8-19.7-18.5c-4.6-0.9-24.5-8.9-35.4,4.3
	c-10.9,13.1-11.8,34.2-16.1,17.8c-4.3-16.5,9.8-31.9-9.1-22.1c-19,9.5-36.5,9.9-55.4,11.1c-19.3,1.3-17,13.5-22.3,15.1
	c-5.2,2-12.5-3.2-16.1,4.6c-3.2,7.5,15.7,12.9,2,16.8c-14.1,3.9-30.6-5.9-40.7-2.3c-9.8,3.9-20.4,8.9-16.8,16.1
	c3.2,7.5-11.8,10.6-22.9,11.8c-11.5,1.3-20.4-0.7-16.4,12.2c3.6,13.1-9.8,19-15.4,25.3c-5.6,5.9-13.8,7-10.9,20.1
	c2.9,12.9,5.6,11.1,2.7,20.1c-2.9,8.6-11.8,9.9,4.3,16.8c16.1,7,41,21.7,30.2,26.3c-11.1,4.3-19.7,5.6-25.2,1.6
	c-5.6-3.9-20.9-21.4-24.3-23c-3.6-1.6-8.2-25-26.3-14.2c-17.7,11.1-17.7,10.6-14.8,20.8c3.2,9.9-4.3,16.1-5.9,18.1
	c-1.6,2.3-10.9,10.6,0.9,16.5c11.5,6.3,21.6,9.9,5,9.9c-16.7,0-24.6-8.6-31.1-7.9c-6.6,0.3,1.6,19-16.1,26.9s-18.1,1.6-28.6,9.9
	c-10.5,8.2-16.4,14.9-13.1,26.7c3.6,11.8,10.5,17.8,16.4,11.1c6.3-6.6,16.8-11.5,13.1,0c-3.2,11.8-22,23.7-4.3,21.7
	c17.7-1.6,17.7,2,13.4,16.8c-4.3,14.9,7.9,25,13.1,29.6c5,4.3,2.7,4.6,9.8,5.6c7.5,1,8.6,12.5,12.5,20.4c3.9,7.9,10.5,9.5,18.7,8.9
	c8.2-1,9.5-11.8,19.7-5c9.8,7,18.1,15.8,31.1,11.8c13.1-3.9,21.3-20.4,33.4-25c12.2-4.3,7.9,3.2,13.8,7.9c6.2,5,15.4,1.6,23.6-7
	c8.2-8.9,34.1-39.5,34.1-61.5s0.9-48.7,6.9-47.7c6.3,1,0.9,44.4,5.2,60.8c4.3,16.5-2,30.6-2,33.5c0,2.9,2.7,1.3,10.2,5.2
	c7.9,3.9,9.1,16.5-4.9,20.8c-9.6,3.1-21.2,7.8-34.7,14.2c-20.7,9.5-28.8,7.5-26.6,16.8c2.3,9.2,7.2,18.5,20,25.6
	c12.5,7.5,23.3,21.4,23.3,27.6c0,5.9,14.5,23.3-4.3,7.5c-18.7-15.4-19-16.8-36.7-29.9c-18.1-13.1-23.6-25.3-34.1-21.7
	c-10.2,3.6-16.8,1.6-28.6,4.3c-11.8,2.7-14.5,9.2-11.1,20.1c2.9,10.9,0,21.7,10.2,21.7s22,4.3,10.5,9.2c-11.1,4.9-13.8,8.9-8.6,13.5
	c5.2,5,13.8-0.3,23.6,14.9c10.2,15.1,23.6,11.1,29.2,24.4c5.6,13.1,9.1,24.9,3.9,26.9c-5.2,2.3-7.2,16.5,0,18.8
	c7.5,2.3,22.7,0.4,27.9-1c5.2-1.3,26.3-1.6,23.6,3.9c-2.3,5.6-11.5,18.8-25.9,15.4c-14.5-3.6-25.9-8.9-32.2-1
	c-5.9,7.9-25.6,13.1-32.2,27.3c-6.6,14.5,5,35.9-2.7,41.8c-7.2,6.3-22,26.3-4.6,29.2c17.4,3,1.6-4.3,26.3,0
	c24.9,4.3,19.3-34.6,32.2-20.1c13.1,14.5,13.1,24,5.9,31.9c-7.5,7.5-7.9,15.4-3.2,23.3c4.9,7.9,4.6,23,9.1,29.6
	c5,6.6,16.1-1.6,21,0.3c4.6,2.3,5.9,13.1-8.6,13.5c-14.1,0.7-22,0-27.5-9.9c-5.6-9.9-1.3-26-17.7-29.6c-16.8-3.6-34.7-10.6-42.4,0
	c-7.2,10.6-10.5,28.3-1.6,30.9c8.6,2.7,12.5,20.1,17.7,24.4c5.2,4.3,12.2-3.6,14.5,7.9c2,11.1-1.3,16.1-11.8,18.1
	c-10.5,2.3-12.2,5.2-17.7,13.5c-5.6,8.6-1.6,3.6-12.5,14.9c-11.1,11.5-14.8,18.8-14.8,25.3c0,6.5-3.6,3.9-11.1,2.7
	c-7.2-1.3-12.2-5-14.1,3c-2.3,7.9,0.7,14.5-3.9,16.1c-5,2-12.2-5.2-21.6-1.6c-9.5,3.6-23.6,2.3-31.5,3.6c-7.5,0.9-3.2,20.4-16.4,8.9
	c-12.8-11.1-9.5-18.8-15-24.9c-5.6-6.6-15.7-17.4-27.9-16.8c-12.2,1,3.9,1.3-22.7-3.2c-26.3-5-39,7-40.4,9.2
	c-1.3,2,8.9,17.1,10.9,27.6c2.3,10.6,20.9,9.5,18.7,20.4c-2,10.9-8.6,22.4,3.9,24.9c12.8,2.7,7.5,3.9,23.6,8.6
	c16.1,5,18.7,7.9,22.9-0.3c4.3-8.2,14.8-15.1,21.6-10.9c6.9,4.3,7.9,15.1,2.7,18.8c-5.2,3.2-33.8,27.6-21.3,32.6
	c12.5,4.6,16.1-15.1,26.6-15.8c10.5-0.3,24,3.6,25.6,10.6c1.6,7,3.9,9.5,5.6,14.9c1.6,5.2-3.6,9.5,0.3,14.5c3.9,4.6,9.8,8.9,9.8,8.9
	L2598.1,1070.3z M2464.2,1078.2c-3,5.2-16.4,16.5-11.8,21.7c5,5.2,4.6,6.3,14.1-0.7c9.5-7,20.7-14.5,16.1-19.7
	C2477.6,1074.3,2464.2,1078.2,2464.2,1078.2z M2490.8,1094.4c-0.9,2.7-13.4,4.3-14.8,16.5c-1.3,12.2-5.6,19.4-9.1,24
	c-3.2,5-5.9,13.1-0.3,21.4c5.6,8.2,17.7,7.9,24,16.5c5.9,8.9,20.4-9.5,24.6-3c4.3,6.6,5.2,25.3,19,24c13.8-1.3,15.7,1.6,18.7-8.2
	c3-10.2,3.9-42.8,4.3-53.6c0.7-10.9,14.1-7.5,2.3-25.3c-11.8-17.8-13.4-40.7-37-36.8c-23.3,3.9-31.5,24.7-31.5,24.7L2490.8,1094.4z
	 M2351.7,1069.6c8.6,7,15.7,13.5,4.6,18.8c-11.5,5-22.3,5.6-16.1,16.1c5.9,10.2,21.6,11.1,12.5,17.1c-9.1,6.3-9.5,16.1-8.2,21
	c1.3,5,13.4,22.7,20,20.4c6.6-2,20.4-4.6,34.7-8.2c14.1-3.6,26.3,11.8,29.9-14.5c3.6-26-8.2-24.7-2.3-37.8
	c6.3-12.9,22.7,2.3,13.1-12.9c-9.5-15.4-20.4-20.1-16.1-31c4.3-10.9,3-37.8-0.9-62.6c-3.6-24.4-1.6-22.4-7.5-31.2
	c-6.3-8.6-7.9-22.7-17.4-13.5c-9.5,9.2-3.6,24.9-14.1,17.8c-10.2-7-9.8-16.8-21-14.9c-11.5,2.3-10.2,9.2-14.1-0.3
	c-3.9-9.5-20-15.4-22.9-9.9c-2.9,5.6-16.8,10.2-3.9,16.5c13.1,6.3,16.1,7.9,17.4,16.1c1.3,8.2,3.9,13.1,9.5,18.5
	c5.6,5,9.1,13.8,6.9,17.1c-2,3.6-11.5,7.9-18-3c-6.6-10.9-7.5-20.4-13.1-27.3c-5.6-7-13.4-16.1-18.7-6.3
	c-5.2,10.2-5.9,14.5-5.6,22.4s12.2,14.2,8.9,20.8c-3.6,6.6-5.9,15.4-10.2,15.4c-4.3,0-12.5-7.5-12.2-19.4c0.3-11.5,11.1-14.9,0.9-22
	c-10.5-7.5-17-5.2-17-12.5c0-7.3,3.6-14.9-8.6-21c-12.2-5.9-14.1-19.7-21.6-16.1c-7.9,3.6-3.6,17.4,0.7,26.7
	c4.3,9.2-2.7,20.8-3.9,25.6c-1.3,4.6-12.8,19,2,21.7c14.8,2.7,29.2,2.3,29.2,2.3s12.5,11.1,10.2,17.4c-2.3,5.9,16.1,15.1,14.8,17.8
	c-1.3,2.7-27.2,16.5-17.4,23.3c9.8,7,20.7,6.6,32.2,5.2c11.1-1.3,16.4-7,21.6-11.8c5.2-4.6,9.8-7.2,14.8-4.6c5,2.7,7.2,2.7,7.2,2.7
	L2351.7,1069.6z M2223.1,1094.4c0,0-17,26.3-14.8,34.8c2,8.6,13.8,16.1,19,13.5c5.2-2.7,17.4-0.3,22.7-16.1c5-15.8,2.9-22-3.6-29.9
	c-6.6-7.9-23.3-2.3-23.3-2.3V1094.4z M2040.7,1130.9c2-0.7,4.6-1.3,7.2-1.3c19.3,0,5.2-8.2,32.2-5.9c26.8,2,25.2,4.3,33.4,9.2
	c8.2,4.6,16.4,12.5,26.3,8.6c9.5-3.9,39.7-20.8,47.2-45.7c7.2-24.7,20-32.8,10.2-54.3c-9.5-21.3-17-43.8-27.2-30.6
	c-9.8,13.1-19,31.2-23.3,22.4c-4.6-9.2-6.6-4.9-14.8-10.6c-8.2-5.6,0.7-12.2-6.9-22.4c-7.9-9.9,0-23.7,0.7-35.2
	c0.9-11.1-13.4-16.8-11.1-26.9c2-9.9,15.4-18.8,10.9-25c-5-6.6-18.7-13.8-25.2,2c-6.6,15.8-16.4,31.2-20,41.8
	c-3.2,10.6-16.1,9.5-8.2,23c7.9,13.5,17,9.5,3.9,19c-13.1,9.9-14.8,19.4-8.2,24.7c6.6,5,38.8,7.2,22.7,21
	c-16.1,14.2-18.1,12.9-27.9,12.2c-2.9,0-5.9-0.7-8.6-1.6l-13.1,75.7H2040.7z M2113.5,720.3c2.9,1.3,6.6,1.3,11.5-2
	c12.5-8.2,14.1-12.2,11.5-23c-2.7-10.9,11.5-19,2-28.3c-4.3-3.9-9.1-6.6-14.1-8.2l-10.9,61.5H2113.5z M2097.4,810.8
	c5.9-2,10.5-5.6,13.4-13.1c5.2-13.1,20-29.6,14.1-38.5c-3.9-5.2-7.9-13.1-15.4-16.5L2097.4,810.8z M1990.5,1412.8
	c10.5-0.7,30.8,1.6,11.8-23.3l-6.3-8.2l5.2-28.7c12.5,7.5,1,10.2,15.7,31.6c18.4,26.3,11.5,11.5,20.9,46.1
	c9.5,34.8,5.9,42.8,5.9,67.1s11.5,38.5,16.8,30.6c5.3-7.9,14.8-18.5,19-24.4c4.3-6.3-17.4-22.7-19-41.1c-2-18.1,9.5-59.9,11.1-86.2
	c1.6-26-25.2-32.8-0.9-39.8c24.7-7.2,35.8-9.5,43.6,5.2c7.9,14.5,13.8,18.1,20,21.7c5.9,3.2,21.6-14.2,5.2-26.9
	c-16.8-13.1-43.6-29.6-27.2-39.1c16.8-9.9,40-19.4,53.1-11.5c13.1,7.9,27.9,1.6,26.8,26.9c-1,25.3-9.5,15.8-9.5,41.1
	c0,25.3-2.7,30.3-12.2,31.2c-9.5,0.7-14.8-19-16.8,7c-1.6,26,8.9,52.9,15.7,94.7c6.9,41.8,28.6,40.2,12.2,72.4
	c-16.4,32.3-28.6,30.6-17.4,51.3c11.5,21,20,36.6,26.8,49.7c6.9,13.1,9.5,17.4,25.2,20.1c15.7,2.7,25.9,7,32.2,18.1
	c5.9,11.5,16.4,3.9,21.3,19.4c4.6,15.1,10.2,17.1,18.1,17.8c7.9,0.3,13.4-17.1,13.4,12.2c0,29.2,11.5,31.2-1.6,33.5
	c-13.1,2-12.2-14.9-21.3-9.5c-9.1,5,1.3,17.8-12.8,11.5c-14.5-5.9-18.1-15.1-24-14.2c-6.3,0.7,7.2-5-9.1,10.9
	c-16.4,15.4-19.7,0.3-19,15.4c0.3,15.4-5.6,13.1-5.6,22.4c0,9.3-5,19,7.5,7.2c12.8-11.5,9.1-27.6,21.3-21.7
	c12.2,6.3,13.1,0.9,14.8,13.5c1.6,12.5-16.8,16.5-4.3,21.7c12.5,5.2,32.2,1.3,20.4,11.5c-11.8,9.9,4.3,0.3-20.7,13.8
	c-25.2,13.5-11.5,19-44.3,17.1c-33.1-2.3-21.6-8.9-53.8-9.9c-32.2-0.7-38.8-3-38.8-14.2c0-11.1,17.7-16.1-11.1-20.4
	c-29.2-4.6-31.8,8.9-32.8-6.3c-0.7-15.1,13.1-48.4-12.8-31.6c-26.3,16.5,1.3,53.3-24.9,49.3c-25.9-3.9-59-19.7-62-14.2
	c-3,5.6,5,13.8-10.5,19.4c-15,5.6-17.4,7-60.6,7.9c-43.3,1-37.4-7.9-66.3-6.6c-29.2,1.3-29.2,11.5-44.9-0.3
	c-15.4-11.8-31.1-25.3-23.3-50c7.9-24.9,48.3-22.7,7.9-40.2c-40.4-17.4-88.9,2.7-99.4-42.1c-10.5-45-1.3-44.5-12.8-60.8
	c-1.6-2.9-2.9-5.9-3.2-8.9c5.2,1,11.5,2.7,17.7,3.9c16.1,3.6,34.5,7.9,52.8,9.5c27.9,2.7,33.8,8.6,40.4,14.9c2,1.6,3.9,3.6,6.6,5.9
	c5.9,4.6,16.1,7,26.3,7.5c13.1,1.3,26.8,0,33.4-2.3c8.9-2.9,100.7,14.2,101,14.2l6.6,1.3l0.9-6.6l51.2-287.8L1990.5,1412.8z
	 M1985.3,1366.4c-11.5-16.5-17-28.7,3.6-19.7L1985.3,1366.4z M2350.4,1283.2c-17.7,2-10.2,15.1-25.2,15.1c-15,0-17,19-13.8,16.1
	c0,0-13.8,18.5-5.9,30.6c7.9,12.2,24.3,9.5,25.9,21c1.6,11.1,4.3,0.7-0.7,21.7c-5.2,20.8-2.7,29.6-15.7,27.6
	c-13.1-1.6-18.4-7-25.9-16.5c-7.9-9.5-5.2-34.8-16.8-20.1c-11.1,14.9-27.5,22.7-24.9,34.8c2.3,12.2,19.7,26,22.3,37.5
	c2.7,11.1-51.8,15.4,11.5,24.4c63.3,8.6,38.1,14.9,46.9,38.2c8.6,23.7,25.9,24.4,32.2,41.8c5.9,17.4,6.9,37.5,15.4,41.8
	c8.9,4.6,29.5,16.8,34.7,0c5.2-16.5,7.9-26.9,6.9-35.5c-0.9-8.9,3.6-4.3,17.4-6.3c13.8-1.6,15.7,4.6,23.3-12.9
	c7.9-17.4,22-2,13.1-31.6c-8.6-29.6-12.2-36.6-4.3-44.5c7.9-7.5,29.5-26.9,11.1-36.6c-18.1-9.5-29.5-2.7-32.2-11.1
	c-2.3-8.9-8.6-15.8,3.6-18.5c12.2-2.7,35.8-29.6,19-33.9c-16.4-4.3-17.4,7-22.7,12.2c-5,5.2-9.5,5.2-20.7,7.9
	c-11.1,2.7-30.6,21-23.3,5.2c6.9-15.8,13.8-17.4,19-25.3c5.2-7.9,24.9-20.8,21.6-33.9c-3.6-13.1,4.3-19,6.9-26.9
	c2.7-7.9-1.6-30.6-13.1-26c-11.1,4.3-31.1,19-22.3,5.9c8.6-13.1,18-28.7,6.9-28.7s-19,2.7-30.6,10.6c-11.1,7.5-10.5,19-13.1,27.6
	c-2.7,8.9-11.1,10.6-11.1,4.3c0-5.9-15.7-16.5-15.7-16.5L2350.4,1283.2z M4145.5,2166.1c-4.9,3.2-13.4,23.7-3.9,20.8
	c9.5-3.2,13.1-7.2,22.3-9.2c8.8-2.3,10.9-19.7,2.9-21.7c-7.9-2.3-21.3,10.2-21.3,10.2V2166.1z M4153.4,2240.7
	c-3.6,4.6,2.7,11.1,6.6,11.5c3.9,0.7,9.5-1.3,16.4-3.9c6.8-2.7,11.8-17.4,0.3-18.1c-11.1-0.9-23.3,10.6-23.3,10.6H4153.4z
	 M4176.1,2258.5c0,0-10.2,0.7-13.1,13.8c-3,13.1-8.9,24.4,7.2,21.4c16.1-3,14.5,2.7,26.3-1.3c11.8-3.9,24-32.3,10.5-35.5
	c-13.4-3.6-30.8,1.6-30.8,1.6H4176.1z M3122.7,1678.8c-6.2,8.9-0.3,15.1,6.6,15.1c6.9,0,11.1,2.9,16.4,7.2
	c5.2,4.6,7.5-3.6,14.8-10.2c7.2-6.6,19-10.2,14.5-15.8c-4.9-5.6-14.8-8.2-26.9-8.6c-12.2-0.7-25.2,12.2-25.2,12.2L3122.7,1678.8z
	 M3205.7,1665c-1.6,1-11.1,10.6-8.6,18.1c2.9,5.2,18.7-9.5,30.6-14.5c5.2-1.3-1.6-18.1-9.5-18.1
	C3210.3,1650.5,3205.7,1665,3205.7,1665z M3228.9,1835.4c3.6,7,18.7,15.8,18.4,5c-0.7-11.1-3.2-23.7-9.1-23.7
	c-6.2,0-9.1,18.8-9.1,18.8L3228.9,1835.4z M3229.9,1786c-2,11.1-0.7,22.7,6.6,20.1c6.9-2.7,19-19.4,12.5-24.4
	c-6.6-4.6-18.7,3.9-19,4.3H3229.9z M3214.5,1698.9c-6.8,12.5-2.9,23.3-6.3,27.6c-3.6,4.3-6.6,8.9-7.9,13.1
	c-1.3,4.3-11.8,23-0.9,24.4c10.9,1.3,20-7,24-18.8c3.9-11.8,9.1-16.1,8.6-25.6c-0.3-9.5-2.7-10.6-2.7-19c0-8.5,0-10.9-4.6-10.6
	C3219.8,1690.3,3214.5,1698.9,3214.5,1698.9z M3262.7,1680.4c-0.7,5.6-7.9,23,4.3,26.7c12.5,3.3,18.1,3.9,20-4.6
	c2.3-8.2,18.4-10.2,11.5-20.4c-6.9-9.9-15.7-16.5-20-15.4C3274.2,1667.3,3262.7,1680.4,3262.7,1680.4z M3432.6,1788.7
	c0,0-16.1,10.2-6.3,16.8c9.8,6.6,16.1,7.5,18.7,12.2c2.7,4.3,10.5,5.6,17.4,0.3c6.9-5.2,18.7-11.1,22-14.5c3.6-3,14.5-23-5.9-25.6
	c-20.4-2.7-45.9,10.9-45.9,10.9V1788.7z M3361.4,1782.4c-10.5,5.9-30.6,7-34.1,34.6c-3.2,28,0,55.9,4.6,71.4
	c4.3,15.8-11.5,34.8,28.6,28.9c40-6.3,52.2-8.9,55.4-25.3c3.6-16.5,6.8-44.5-0.7-60.8c-7.9-16.8,3.2-30.6-3.6-41.1
	c-6.8-10.2-9.5-12.9-20.7-12.9C3379.7,1777.2,3361.4,1782.4,3361.4,1782.4z M3543.5,1933.4c0,0-45.9,47.7-29.9,71
	c15.7,23,25.6,12.2,43.3,21c17.7,8.9,30.2,17.8,21.3,26c-8.9,7.9-30.2-8.9-30.2,13.1c0,22-3.6,27.6-16.8,33
	c-13.4,5.2-25.9,3.6-32.7,15.1c-7.2,11.5-19.7,13.5-31.1,13.5c-11.5,0-60.4-17.8-59.4,3.2c0.9,21.4,22.3,8.9,11.5,26.9
	c-10.5,17.8-24,16.8-26.6,32.6c-2.7,16.1,8.2,40.1,17.7,53.3c9.8,13.5,36.5,24.9,46.3,27.6c9.5,2.7,3.2-7,24-11.5
	c20.4-4.3,35.4-11.5,35.4-30.3s-5.6-28.3,11.5-24c16.8,4.6,14.1,2.7,26.6,3.6c12.5,0.9,24,13.5,27.5-1.6c3.2-15.1-8.2-23-4.6-33.9
	c3.6-10.6,18.7-14.2,22.3-6.3c3.2,8.2-10.9,20.4,4.3,24.9c15,4.3,20.4,5.2,19.3-9.9c-0.7-15.1,0.9-30.3,8.8-25.6
	c8.2,4.3,12.5-2,18.7,16.8c6.2,18.8,18.7,19.7,35.4,28.7c17,8.9,17.7,33.5,36.5,27.3c18.7-6.3,11.5-22,30.2-10.6
	c18.4,11.5,35.4,0,30.8,10.6c-4.3,10.9-18.4-0.7-24.3,12.5c1.6,19,36.5,39.1,48.6,39.8c12.2,1,29.5-9.5,27.9,1c-2,10.6,0,19,10.2,26
	c10.5,7,29.5,24.4,30.6,4.6c0.9-20.1-24.3-28.9-4.3-33.2c20-4.3,17.4-9.5,34.7-5.2c17,4.3,38.1,28.7,63.3,23.7
	c24.9-5.2,32.2-10.6,51.8-10.6c19.7,0,26.9-12.2,53.8-7.9c26.8,4.3,34.1,14.9,38.4,3.6c4.3-11.5,5.2-19.4-3.6-29.6
	c-8.6-10.6,10.5-16.8-10.2-22.7c-20.9-6.3-56.4,21.7-66.3-1.6c-9.5-23.7-14.5-30.6-43.3-34.8c-28.6-4.6-43.3-10.6-57.1-18.5
	c-14.1-7.9-23.6,6.3-30.6-10.6c-6.8-16.5-22.7-36.6,0-32.3c22.7,4.6,43.3,22,48.6,20.1c5.2-1.6,11.5-16.5,30.6-5.2
	c19,11.5,39,4.6,51.8,12.5c13.1,7.5,5.2,3.3,21,0c15.7-3.6,27.9-14.9,37.4-2c9.5,13.1,11.1,4.3,23.3,9.5c12.2,5.2,16.4-7,6.8-17.4
	c-9.5-10.2,0.9-10.2,2-18.1c0.7-7.9-8.8-22.7-14.8-28c-6.3-5.2-24.3,9.5-32.2-10.6c-7.9-19.7,34.7,0.9,25.9-17.1
	c-8.6-18.5-9.5-26.9-23.3-34.2c-14.1-7-18.4-14.9-22.7-23.3c-4.3-8.9-10.5-7.9-20.9-2.7c-10.2,5.2-25.9-10.6-25.9-10.6
	s21.6-33.9,0-29.6c-21.6,4.3-26.8,20.1-34.7,2.7c-7.9-17.4-6.8-30.3-20.7-24.4c-14.1,6.3-2.7,23.7-32.2,11.1
	c-29.5-12.2-45.9-38.2-60.6-45c-14.8-7-17.4-2.7-31.5-5.2c-13.8-2.7-15.4-13.1-31.1-17.4c-15.7-4.3-31.1-10.6-21.6-14.9
	c9.5-4.3,40.7,4.3,40.7,4.3s14.8-0.7,14.1-12.9c-0.9-12.2-2-18.5-17.4-23.7c-15.7-5.2-35.8-4.3-29.5-12.2
	c5.9-7.9,7.9-23.3,24.3-20.8c16.4,2.7,13.1-14.2,29.5-0.9c16.4,13.1,30.2,31.2,36.5,31.2c6.2,0,18.1-5.9,26.9-9.5
	c8.6-3.3,11.1-19,14.8-5.2c3.6,14.2-2.7,28.9,15.7,31.6c18.1,2.7,22.3-8.9,31.8,1.6c9.8,10.6,2,20.8,17.4,24.4
	c15.7,3.6,10.5,5.2,26.3,4.3c15.4-0.7,27.5-5.9,34.7-5.9s28.6,0.7,4.3-21.7c-24.3-22.7-29.5-22.7-29.5-36.8c0-14-7.9-15.4,4.3-23.3
	c12.2-7.9,30.6-19,24.3-28.7c-5.9-9.5-8.6,0.7-5.2-20.1c3.6-21-9.5-24.4-16.4-24.4c-6.9,0-32.2-11.5-12.2-17.4
	c20-6.3,33.1-2.7,31.1-14.9c-1.6-12.2-12.2-7.9-12.8-28c-0.9-20.1-4.6-24.4-22-20.8c-17.4,3.2-20.7-14.9-27.5-2.7
	c-6.9,12.2-6.3,22.4-15.7,23.3c-9.5,1-20.7,11.5-25.2,1c-4.3-10.6,10.5-32.3-8.6-28.9c-19,3.6-32.2,21-32.2,21s-4.3-7.9-14.8-11.1
	c-10.5-3.6-20.7-23.7-32.2-28c-11.1-4.3-26.8,7-32.8,8.6c-6.2,2-2.7-16.5-12.2-18.1c-9.8-1.6-26.3,12.9-35.8,18.1
	c-9.5,5.2-15.7,10.6-27.9,5.2c-12.2-5.2-27.5-21.7-27.5-21.7s-6.3-22.7-34.7-14.9c-28.6,7.9-39,25.3-40.6,6.3
	c-2-19.4,23.3-19.4,8.6-28.9c-14.8-9.5-10.5-11.1-18.4-19c-7.5-7.9-25.9-10.6-4.9-13.8c20.7-3.6,58.1-26.3,48.6-33.2
	c-9.5-7-26.3-20.1-39-5.9c-13.1,13.8-14.8,17.4-20.9,15.4c-5.9-1.6-28.6-2.7-25.2-12.2c3.6-9.5,14.1-16.5,18.4-19
	c4.3-2.7,39-4.3,25.9-22.7c-12.8-18.1-58.1-47-62.4-36.6c-4.3,10.6,4.3,28.7-0.9,32.3c-5.2,3.6-15.4-3.6-25.9-7.9
	c-10.5-4.3-6.3-14.9-4.3-23.3c1.6-8.9,12.2-18.5-2-24.4c-13.8-6.3-28.6-2.7-33.8-2c-5.2,1-7.9-17.1-14.8-1.6
	c-6.9,15.8-12.2,40.9-20,23.7c-7.9-17.4-17.4-41.8-21.6-22.1c-4.3,20.1-13.8-5-16.4-9.5c-2.7-4.3-6.2,11.5-14.8,26.3
	c-8.9,14.9-45.9,44.5-39,14.9c6.8-29.6,19-28,22.7-39.1c3.2-11.5,27-30.6-0.9-37.5c-27.9-7-45.2-15.8-52.2-7.9
	c-6.8,7.9,8.9,67.8-7.9,56.6c-16.4-11.1-17-24.4-25.9-20.1c-8.6,4.3-13.1,3.6-13.1-9.5c0-13.1,17.4-33.9-4.3-18.1
	c-21.6,15.4-39,24.4-31.1,11.1c7.9-13.1,44.9-32.3,15.7-39.1c-29.5-7-19.3,31.2-42.7,2.7c-23.6-28.9-4.3-40.2-25.2-40.2
	c-20.9,0-10.5,8.9-40.6,5.2c-30.6-3.6-34.7-13.1-53.1,5.9c-18.1,19.4-32.7,19.4-18.1,34.2c14.8,14.9,38.1,5.2,34.7,13.8
	c-3.6,8.6-23.6-3.6-24.3,9.5c-0.9,13.1,21.6,24.4,23.3,31.2c1.6,7.2,0,21-13.1,14.9c-12.9-5.9-20.7-17.4-24.9-23.3
	c-4.6-6.3,0-19-15.7-15.8c-15.7,3.6-21.6,0-21.6,14.9c0,14.9-3.6,28.9-11.5,17.4c-7.5-11.1,5.2-14.9-5.9-26.9
	c-11.1-12.2,9.5-15.8,0-31.2c-9.5-15.8-22.7-20.1-24.3-36.6c-1.6-16.8-21-28-6.8-31.2c13.8-3.6,23.3,7.5,23.3,17.1
	c0,9.5,4.3,26.9,22.7,25.3c18.1-1.6,16.4-9.5,30.2-18.1c14.1-8.9,29.5-14.2,29.5-14.2s34.1-7,44.3-12.2c10.5-5.2,13.1-32.3-4.9-39.8
	c-18.4-7.9-26.3-9.9-41-21c-14.8-11.1-20.7-20.8-46.9-11.1c-25.9,9.5-20.7,10.2-41.7,9.5c-20.7-0.9-36.5-7.9-38.1,5.9
	c-1.6,14.2,16.4,52.3,1.6,47c-14.8-5.2-13.8-39.1-33.8-36.6c-20,2.7-8.6-3.6-30.6,14.9c-21.6,18.5-46.9,30.6-59,45.4
	c-12.2,14.9-22.3,4.3-16.4,19.7c6.2,15.8,22.7,10.6,20.9,16.8c-2,5.9-26.3,11.1-27.9,17.4c-1.6,5.9,7.9-2.7,7.9,14.9
	c0,17.5-13.1,16.5-5.2,34.6c7.9,18.5,16.4,24.4,26.9,24.4s25.2-3.2,10.5,9.9c-14.8,12.9-23.6,9.5-17.4,26.9
	c5.9,17.4-0.9,30.3,12.2,37.1c13.1,7.2,32.2,2.7,33.8,8.9c1.6,5.9,6.9,22.7,6.9,33.9c0,11.1-4.3,26.9-11.1,25.3
	c-6.9-2-0.9-12.2-4.3-24.4c-3.6-12.2-9.8-25.3-26.3-31.6c-16.4-5.9-36.5-19-39-39.1c-2.7-19.7-1.6-45-13.1-63.5
	c-11.1-18.1-22.3-19-12.9-44.5c9.5-24.9,5.9-24.4,20-54c13.8-29.6,41.7-54.7,17.4-57.2c-24.6-2.7-63.6-2-89.6,28.7
	c-25.9,30.6-15.7,29.6-29.5,64.5c-13.8,34.8-28.6,85.2-22.7,105.3c6.2,20.1-2.7,28,2,48.7c4.3,21,25.9,45.4,23.3,61.9
	c-2.7,16.5,36.5,16.5,56.5,17.4c20,0.7,26.8,5.2,32.2,14.9c5.2,9.5,14.8,12.2-7.9,12.2c-22.7,0-25.9-10.6-40.6-6.3
	c-14.8,4.6-34.7,6.3-29.5,18.5c5.2,12.2,16.4,32.3,27.5,49.7c11.5,17.4,20,24.4,41,21.7c20.7-2.7,25.9-20.1,40.7-13.1
	c14.8,7,21.6,19,31.1,22.7c9.5,3.6,2,8.6,33.1,4.3c31.1-4.3,68.5-5.2,81.7-3.2c12.8,1.6,17.4-14.9,43.3-9.9
	c25.9,5.2,36.5-2.3,30.2-11.1c-5.9-8.6,11.8-0.3,32.2-13.1c20.7-12.5,20.7-5.6,37-5c16.4,0.4,28.6-3.2,33.4-5
	c4.6-1.6,40.4-4.3,15.4-30.6c-24.7-26-42.9-24.4-36.5-34.6c6.6-10.6,22.3-30.3,32.5-7.2c10.5,23,20,29.2,23.3,28
	c2.9-1.3,12.2,23,22.3,29.9c10.5,7,29.2-17.8,34.5-5.9c5.2,11.8-14.1,19.4,2.7,24c16.4,4.3,16.8-7.5,30.8,1.6
	c13.8,9.2,10.9,18.1,20.4,19.4c9.5,1.3,17.7-0.7,18.7,9.2c0.7,10.2,7.9,13.8-9.5,21.3c-17.4,7.2-29.5,3-24.3,17.8
	c4.9,14.9,5.9,17.8,7.5,24c2,6.3,5.2,11.1,12.9,5c7.2-6.6,16.1-24,26.3-30.3c10.5-5.9,22-28.3,29.2-20.4c7.5,7.9-16.4,16.1-15,24.4
	c1.3,8.2,6.6,37.1,17.4,33.2c10.9-3.9,1.6-24.4,8.9-28.9c7.5-4.3,11.1-1.6,14.8-5c3.9-3.6,13.4,12.2,18,5.9
	c4.3-5.9,10.9-23,13.8-17.1c2.9,6.3-4.3,10.6,4.3,20.1c8.9,9.5,9.5,2.7,36.1,16.1c26.6,13.5,15,17.1,30.8,36.2
	c15.7,19,32.2,32.3,36.5,41.4c4.3,8.9-1.3,20.1-2.3,38.2c-0.7,18.5-4.3,39.1-4.3,39.1s73.8-4.3,77.4-17.4c3.2-12.9-13.1-37.1,0-41.8
	c12.9-4.3,8.6,4.6,30.2,7.9c21.6,3.6,29.5-2.7,44.3-1.6c14.8,0.7,32.2,7.9,33.1,18.1c0.7,10.6,14.8,23.7-6.9,25.3
	c-22,1.6-31.5,0-34.1,14.9c-2.3,14.9-10.2,63.5-20.7,37.5c-10.5-26.3,0-55.6-23.3-49.7c-23.6,6.3-20.9,10.6-37.4,13.8
	c-16.8,3.6-35.8,2-45.3,5.2c-9.5,3.6-14.8,12.9-14.8,12.9L3543.5,1933.4z M3449,2284.7c-9.5,6.3-22.7,13.1-11.1,15.8
	c11.1,2.7,33.8-12.2,29.2-17.4C3462.8,2277.9,3449,2284.7,3449,2284.7z M3503.8,2309.4c-21.3,4.6-42.7,12.9-28.9,18.1
	c11.5,8.9,42.7,31.2,48.6,12.2c6.3-19,14.1-26.9,3.6-29.6C3516.5,2307.5,3503.8,2309.4,3503.8,2309.4z M3445.3,2355.5
	c-11.1,2.7-32.7-1.6-17.4,15.4c15.7,17.4,28.8,30.6,39,24.7c10.5-6.3,29.5-38.5,16.8-43.8
	C3470.7,2346.7,3445.3,2355.5,3445.3,2355.5z M3408.3,2501.6c-7.2,2.7-29.5-2.7-26.3,16.8c3.6,19,11.5,7.5,5.2,26.9
	c-5.9,19-8.6,22.4,3.6,31.9c12.2,9.9,12.8,14.9,23.3,17.4c10.5,2.7,27.9,2,21.6-12.2c-5.9-13.8-5.9-33.9-1.6-40.7
	c4.3-7,11.1-23.3,1.6-31.2c-9.5-7.9-28.6-6.8-27.5-8.8L3408.3,2501.6z M3264.9,2474c-20,9.5-23.3,15.4-37.7,15.4
	c-14.5,0-44.3-8.6-42.4,16.8c2.3,24.9,18.1,37.1,7.5,47.7c-10.5,10.6-17,34.8-6.6,36.6c10.9,1.6,17,8.9,30.6-4.3
	c13.8-13.1,27.5-17.4,36.1-21c8.2-3.2,5.6-31.2,17.7-52c12.2-21,26.8-43.8,19-46.4c-7.9-2.3-24.3,7.2-24.3,7.2H3264.9z
	 M3067.7,2140.5c-1.6,14.2,11.5,10.6,16.8,21c5.2,10.6-16.8,19,4.3,20.1c20.7,0.7,47.6,7,38.1-8.9c-9.5-15.4-14.8-26.9-22.3-29.6
	c-7.9-2.7-36.7-2.7-36.7-2.7L3067.7,2140.5z"/>
<path class="st0" d="M862.5,1386c-5.6-4-9.2-8.3-16.2-17.5c-12.2-15.5-13.2-54.3-16.9-76.8c-3.3-22.9,7.9-36.1-7.6-39.3
	c-15.8-3.6-52.5-34.4-52.5-34.4L95.7,2082.2c0,0,5.2,38.4,23.4,42.7c18.5,4.7,19.5,10.6,26.4,15.9c7,5.3,24.5-13.2,27.7,4.3
	c3.6,17.5-2.7,10.6-5.9,36.1c-0.3,1.6-0.7,2.9-0.7,4.3c173,125.4,422.6,282.3,748.2,424.2c4.7-10.9,16.2-39.7,11.2-42
	c-9.6-4.9-11.5-13-9.6-22.9c1.6-7.6,5.9-16.6,10.8-25.8c0.7-0.7-0.7,0.9-0.9,0.9c-8.3-4.7-29.7-7.2-50.9-9.6
	c-18.5-2.3-36.7-4.3-47.9-7.9c-15.1-2.9-18.9-11.6-16.9-22.5c1.6-7.9,6.6-16.9,11.5-25.4c3.3-6,6.6-11.6,7.9-15.9
	c2-6.3-0.9-13.2-4.7-22.5c-5.2-12.3-11.9-27.8-12.2-51.9c-0.7-31.1-12.9-51.9-18.9-62.2c-2-3.6-3.6-6.3-4-8.6
	c-0.3-0.9-5-5.6-11.5-11.9c-4.9-5.3-11.2-11.2-17.5-18.2c-13.5-15.2-9-20.5,0.3-30.8c3.3-3.6,7.6-8.3,11-15.2
	c4.3-9.2,5.9-20.5,7.9-33.7c2-15.5,4.7-33.4,12.9-54.6c4.7-11.9,7.6-13.9,7-14.2h-3c-6.3,0-14.6,0-22.8-8.6
	c-9.9-10.6-5.6-22.9,0.7-39.3c5.9-16.6,13.9-38.4,8.3-66.9c-7.2-34.1-7.6-34.8-9.6-37c-1.6-2.3-3.6-4.9-7.6-15.2
	c-7.9-19.5-4.3-29.1,0.7-43.3c2.7-7,5.6-15.2,7.6-26.5c4-22.2,14.2-30.8,23.1-38.1c4.7-4,9-7.2,10.3-12.6c2.7-9,7.2-14.9,11.5-20.9
	c4.7-6.3,9-12.6,10.3-22.2c0.7-5.6-4-11-9.2-17.5c-9.6-11-21.1-24.5-20.5-50.3c0.4-25.8,8.3-39.3,16.2-52.3
	c4.7-7.9,9.2-15.9,11.9-26.5c3-11.9-10.6-16.9-26.1-22.9c-12.2-4.3-25.4-9.2-35.6-17.9c-15.8-13.5-13.2-25.1-4.9-35
	c4.9-5.3,11.2-9.9,16.9-13.5c3-2,5.6-4,7.2-5.3c4-3.6,9-19.8,14.9-39c5.2-15.9,11-34.1,17.8-49.3c7.6-17.2,16.9-32.5,26.4-45.6
	C850.9,1400.3,856.9,1392.7,862.5,1386z"/>
<path class="st0" d="M1491.7,1608.5c-13.8-15.1-35.5-30.3-53.5-30.3c-27.9,0,2.7,7-33.1,18.5c-35.5,11.2-64.4,28.7-48.7,3.3
	c15.4-25,44.4-35.6,25.9-42.5c-18.1-7-36.5-4.7-20-17.4c16.8-13.1,25.3-28.9,9.5-29.6c-15.4-0.9-28.6,4.3-36.5,21.7
	c-7.5,17.4-8.6,42.9-33.8,28c-25.3-14.9-19-10.6-15.4-36.6c3.2-26.4-40.1-22.1-4.6-46.5c35.8-24.4,0-65.2-10.9-64.8
	c-10.9,0.7-3,12.2-9.1,24.1c-5.9,11.9-2.3,11.2-16.8,14.9c-14.5,3.6-12.2,15.1-25.6,22.1c-13.4,7.2-18.4,18.5-22.9,5.2
	c-5-12.9,0-19.4-17.4-19.1c-17.4,0.3-24.9,1.6-37.4,3.9c-12.5,2.3-20,23-32.2,19.8c-12.2-3.6-14.5-16.1-28.3-18.5
	c-13.8-2.3-29.5,8.6-42.7,11.9c-12.9,2.9-18.1-8.3-22.9,1.6c-4.6,9.9-25.6,27-22.4,9.9c2.9-16.8,3.6-21,17-28.4
	c13.4-7,26.9-14.2,41.7-12.9c14.8,1.3,29.5,0,37.4,0.7c7.9,0.9,13.4-10.2,34.5-2.9c20.7,7.6,27.2,1.6,36.7-1.6
	c9.5-3.6,16.4-7.6,26.3-8.3c9.5-1,36.7-18.1,19.3-22.4c-17.4-4.3-20,11.9-30.8,5c-10.9-7-4.3-20.1-19.3-14.2
	c-15.4,6.3-15.4,11.5-24,12.9c-8.9,1.3,11.8,5.9-12.2-0.7c-24-6.3-29.9-4.7-39-0.9c-9.1,3.3-6.6-11.9-24.9-6.6
	c-18.1,5.2-18.8,11.2-27.2,14.2c-8.6,3.3-13.1,5.9-15.1-2.9c-2.3-8.6-7.5-11.2-10.2-30.7c-2.7-19.1-10.2-17.1-26-11.2
	c-15.8,6.3-5.2-5.9-32.2-5.2c-26.9,0.9-20,12.2-31.2,18.5c-11.5,5.9-12.2,20.1-30.6,10.2c-2-1-3.9-2-5.6-2.7
	c-5.6,6.6-11.8,14.5-18.1,23.4c-8.9,12.5-17.7,27-24.9,43.1c-6.6,14.5-11.8,32-16.8,47.8c-6.6,20.8-12.2,38.6-18.8,44.9
	c-2.3,1.6-5.2,3.9-8.6,6.3c-5,3.3-10.5,7-14.1,11.2c-3.6,4.3-4.6,9.5,3.2,16.1c8.2,7.2,20.4,11.9,31.2,15.8
	c21.7,7.9,40.1,14.5,34.5,38.2c-2.9,12.5-8.2,21-13.4,29.6c-7,11.5-13.8,23.4-14.1,45.8c-0.7,20.5,9.2,32,17,41.1
	c7.5,8.9,13.8,16.2,12.5,27.7c-1.6,13.1-7.2,20.5-12.9,28.4c-3.6,5-7.2,9.9-9.1,16.5c-2.9,9.2-8.2,13.8-14.5,19.1
	c-7.2,5.9-15.4,12.9-18.8,30.3c-2.3,12.2-5.2,20.8-7.9,28c-4.3,11.5-7,19.1-1,33.9c3.2,8.6,5,10.6,5.9,12.2c3,4,4.3,5.2,11.8,42.2
	c6.6,32-2.3,55.7-8.9,73.8c-4.3,12.2-7.5,20.8-3.2,25.3c4.3,4.6,9.5,4.6,13.1,4.6c3,0,5.2,0,7.5,1c7.5,2.9,8.9,9.5,0.7,30.9
	c-7.5,19.8-9.8,36.8-12.2,51.7c-2,13.8-3.6,26-8.9,37.2c-4.3,8.6-9.2,14.2-13.1,18.5c-3.6,4.3-5.9,6.6-0.3,12.9
	c5.9,6.6,12.2,12.5,17,17.4c8.2,7.9,14.1,13.8,15.1,19.1l2.7,4.3c6.3,11.2,19.3,33.6,20,68.6c0.7,21,6.6,35.2,11.1,46.5
	c5.2,11.9,8.9,20.8,5.2,31.6c-2,5.6-5.6,11.9-9.2,18.5c-4.3,7.6-8.6,15.1-9.8,21c-0.7,3.3,0.9,6.3,6.6,7.2h0.7l0.3,0.3
	c9.8,3.3,27.6,5.2,45.3,7.2c22.7,2.7,45,5.2,55.5,11.2c7.5,4,10.5,9.5,6.3,16.9c-4.6,8.6-8.2,16.1-9.5,22.1c-0.9,3.9-0.3,7,2.3,8.2
	c15.1,7.6,0.7,45.8-5,58.9c198,86,424,166.3,677.1,230.9c209.2,53,401.3,80.1,576,88.3l17.4-484.9c-37.4-11.2-277.8-82-302.1-95.2
	c-13.4-7-29.2-10.9-43-14.2c-13.1-2.9-24.3-5.9-30.8-10.6c-8.6-6.3-14.5-28.7-21-52.8c-4.6-18.1-9.8-37.2-15.8-49
	c-5-9.9-11.1-9-24-6.6c-15.4,2.7-39,6.6-77.1-0.4c-39.4-7.2-46.3-17.4-43.7-30.9c0.7-4.3,2.3-8.3,4.3-12.5
	c3.9-8.9,8.6-19.4,1.6-31.3c-8.2-14.5-40.8-59.3-76.8-108.1c-53.9-72.7-114.9-153.2-117.2-154.4c-3-2-15.1-16.5-24.9-34.9
	c-6.3-11.2-11.8-24.4-14.5-37.2c-5.2-25,13.8-62.9,30.6-95.5c6.6-13.5,13.1-26,16.8-35.6c7.2-18.8,18.8-47.8,28.6-70.8
	L1491.7,1608.5z M1368.5,2628.3c11.1-7.9,20.7-2.7,31.2-0.9c10.5,2,13.8,2,22.7-2.7c8.6-4.3,1.6-42.5,31.2-39.9
	c29.5,2.7,25.3,3.3,38.1,5.2c13.1,1.6,25.3-7.2,14.1-22.8c-11.5-15.8-17.4-15.8-16.8-35.9c1-20.1-13.8-24.4-18.1-32.9
	c-4.6-8.9-13.1-31.6,7-25.3c20,6.3,20,22.8,23.3,28.7c3.6,6.3,15.8,20.1,22.7,28.9c7,8.6,12.2-2,25.3,23.4
	c13.1,25.3,7.9,37.5,30.2,42.9c22.7,5.2,6.3,13.8,39.4,0c32.8-14.2,32.8-12.2,48.5-23.7c15.4-11.2,26.9-27.1,41.7-39.2
	c14.8-12.2,40.8-16.5,56.5-12.9c15.4,3.3,41.7-8.8,48.7,13.8c7,22.8,31.2,31.3,5.2,28c-26.3-3.6-26.9-12.6-36.5-17.4
	c-9.8-5.2-73.2-1-60.1,3.3c13.1,4.3,49.6-3.3,48.5,9.5c-0.7,13.1-9.5,17.4-25.3,19.1c-15.4,2-23.3-17.1-39.7,10.6
	c-16.8,28-31.5,31.3-46.9,41.1c-15.8,9.5-23.6,26-46,32c-22.7,6.3-8.9-27.7-41-10.2c-32.2,17.4-24.9,20.8-41.7,32.9
	c-16.5,12.2-7,29.6-38.1,15.8c-31.2-13.8-37.4-25.3-51.2-15.8c-14.1,9.5-41,12.2-41.7,2c-0.9-10.6,2.7-24.8-14.1-28
	c-16.4-3.6-37.1-7-32.8-15.8c4.3-8.6,15.8-13.8,15.8-13.8V2628.3z M1174.5,1925c0,0-19,3.3-7,22.8c12.2,19.1,26.9,1.6,37.4,5.9
	c10.5,4.3,2.7,13.8,20,15.8c17.4,1.6,18.1-4.6,26.9-3.6c8.6,1,11.1-1.6,25.9,1c14.8,2.7,27.9,16.5,34.8,23.4c7,7,33.8,21,10.5,28
	c-23.6,7-31.2-9.5-44.4-9.5c-13.2,0,10.5,21.7-4.3,29.6c-14.8,7.9-9.5,2.7-33.1,12.2c-23.3,9.5-24.3,11.2-33.8,20.8
	c-9.5,9.5-2.7,28.9,8.6,31.6c11.5,2.3,0,31.3,28.8,26c28.6-5.2,24.3-4.3,34.8-18.5c10.2-13.8,26-34.9,40.8-32.3
	c14.8,2.7,39-10.2,28.6,6.3c-10.2,16.5-17.4,15.8-30.2,25.3c-13.1,9.5-30.6,20.1-30.6,31.3c0,11.2,1.6,10.6,22.7,5.9
	c20.7-4.3,31.2-8.6,44.4-10.2c12.9-2,9.5-3.6,17.4-10.6c7.9-7-10.5-37.5,8.6-40.9c19-3.6,14.8-13.1,36.5,2.7
	c21.7,15.5,22.7,38.2,41,20.8c18.1-17.4-12.2-7.9,20-30.7c31.9-22.4,44-17.1,35.4-35.6c-8.6-18.5,28.6-39.2-33.1-29.6
	c-61.4,9.5-76.2,7.9-86.6-3.6c-10.5-11.2-0.9-24.4,25.9-32.9c26.9-8.9,77.5-11.5,21.7-31.3c-55.5-20.1-37.1-24.4-74.5-11.5
	c-37.4,13.1-40.1,11.5-74.8,1c-34.8-10.6-46-24.4-60.7-11.5c-14.8,13.1-20.7,19.4-27.9,13.1c-7-5.9-29.5-11.2-29.5-11.2L1174.5,1925
	z M1741.9,1303.4c0,0,21.7-7.2,49.6-14.9c27.9-7.9,31.2-16.8,51.2-16.8s27.9-1.6,27.9,13.1s-1,24.4-7.9,34.9
	c-7,10.6-38.1,25.3-26.9,36.6c11.1,11.2,14.8,6.3,24.3,7c9.5,1,12.2-9.5,12.2-9.5s-1.6-28.7,20-23.4c21.7,5.2,10.5-6.3,38.1,22.4
	c27.9,28.9,14.1,13.1,3.6,42.9c-10.5,29.6,10.5,21.7,22.7,13.8c7-4.3,12.2-3.3,17.4-2l-49.9,281.3c-21.7-3.9-90.6-15.8-100.8-12.5
	c-5.2,1.6-17,2.7-28.6,2c-7.9-0.7-15.4-2.3-19.3-5.2c-2-1.6-3.6-3.3-5.6-5c-7.9-7.9-15.4-15.1-48.3-18.1c-17-1.6-35.1-5.9-50.9-9.5
	c-6.6-1.3-12.5-3-18.1-3.9c4.3-9.2,13.8-16.5,20.7-15.8c12.2,0.7,46.9,12.9,62.1,11.2c15.4-1.6,50.8-5.6,67,6.6
	c16.1,12.2,32.2,27.3,43,23.4c10.9-3.6,37.1,3.9,28.3-13.5c-8.6-17.4-15.4-20.8-24.7-34.6c-9.2-14.2-30.6-15.5-44-21.4
	c-13.4-6.3-64.4,0.7-90-12.2c-25.6-13.1-7.5-25-38.5-28c-30.8-2.9-47.6-26-44-30c3.6-3.9,7.2-39.9,45.6-36.6
	c38.1,3,43.3,5.2,52.2,2.7c8.6-2.7-7.5-9.2-26.6-16.8c-19-7.2-11.8-23.4-27.9-18.1c-16.1,5.2-42,5.9-26.3-5.6
	c15.4-11.8,38.1-9.2,18.1-19.8c-20-10.6-32.2-17.1-29.5-20.5c2.7-3.6-11.8-15.1,13.1-27c24.7-11.9,37.8-1,41.7-15.1
	c3.9-14.5-11.8-9.2-4.3-24.8c7.2-15.1,0.3-11.5,18.8-19.4C1725.4,1313.3,1741.9,1303.4,1741.9,1303.4z M2053.8,685.4
	c-4.3,1.3-29.9,10.9-18.1,16.5c11.5,5.6,12.9,2.7,27.6,2.7s10.2,7.6,18.4,9.5c8.2,2.3,4.3-5.2,13.8-5.2c0.9,0,1.6,0.3,2.7,0.3
	l9.5-54.7c-1.6,0.7-3.2,2-4.6,3.3c-6.9,8.6-11.8,17.1-22.9,19.4C2068.7,679.1,2053.8,685.4,2053.8,685.4z M1991.7,716.7
	c0,0-16.8,8.3-8.6,20.8c7.9,12.5,2.9,4.3,7.9,17.4c5.2,13.1,18.4,9.5,28.8,14.2c5.2-4.3,3.6,37.5,7,45.1c3.6,7.9,21.7,19.4,30.6,9.9
	c8.6-9.9,8.6-14.2,21.7-14.9l1.3-0.4l12.9-71.8c-1.6,0.3-3.6,0.7-5.6,1.3c-21.7,7-40.8,20.1-47.6,14.9c-7-5.2-30.6-5.9-31.2-19.1
	c-0.9-13.1,2.7-23.4-3.6-25.3c-5.9-1.6-13.8,8.9-13.4,7.9H1991.7z M1971.7,787.8c-2,9.9-5.9,26.4-3.2,32.9
	c2.7,6.6,12.9,16.2,15.1,18.1c2.3,1.6,9.5,12.9,15.8,3c5.9-10.2-0.7-15.5,8.2-14.9c8.6,0.3,11.5,1.3,9.8-7.6
	c-1.6-8.6,6.3-40.6-12.5-41.8C1986.1,776.3,1971.7,787.8,1971.7,787.8z M1854.8,777.5c0,0,2,12.2-32.2,26.4
	c-33.8,13.8-43.3,43.5-58.1,46.1c-14.8,2.7-28.6-2.7-36.5,7.9c-7.9,10.2-14.8,22.4-12.2,35.6c2.7,13.1,17.4,7,20,15.8
	c2.7,8.6,3.2,34.9,9.5,26c5.9-8.6,9.5-48.8,19-36.6c9.5,12.2-0.9,32.3,8.9,33.9c9.5,2,16.4-4.3,17-13.8c0.9-9.5,2-15.8,12.5-13.1
	c10.2,2.7,17-3.3,18.1-7.9c0.9-4.3,20-2.7,20-18.1c0-15.5,8.6-22.8,15.8-25.3c6.9-2.7,18.1-5.9,13.8,8.9
	c-4.3,14.9-21,32.9-14.8,38.2c5.9,5.2-17.4,12.2,7,11.2c24.3-0.7,21.7,3.6,26-12.9c4.6-16.8,26.3-19.4,26.3-19.4s4.3,0,9.5-14.5
	c5.2-14.9-7-22.1,4.3-36.8c11.5-14.9,26.9-27,25.3-34.6c-1.6-7.9-5.2-38.6-19-26.4c-14.1,12.2-14.1,31.3-25.3,24.4
	c-11.1-7-7.9-19.1-26.9-19.1c-19,0-26,5.2-27.9,4.3V777.5z M1955.3,870.4c0,0-16.5,9.2-8.6,11.9c8.2,2.3,12.9-0.4,16.4,4.3
	c3.9,4.3,8.9,7.2,20.7,0c5.2-7.9,0.9-29.6-12.2-29.3C1958.6,858,1955.3,870.4,1955.3,870.4z M1841,930.7
	c-2.3,0.3-22.9,16.8-29.5,20.5c-6.6,3.3-22,17.4-24,26.7c-1.6,8.9,12.9,19.8,18.4,15.1c5.6-4.9,4.6-17.8,24.3-28
	c19.3-9.9,28.3-18.1,21.7-25.7C1845.3,932.1,1841,930.7,1841,930.7z M1909.6,911c-6.3,9.2,3.9,13.1-2.7,17.4
	c-6.6,4.3-16.1,1.6-19,4.3c-2.9,2.7-12.9,6.3-10.9,15.8c1.6,9.5-0.7,1.6-3.2,12.5c-2.3,10.9-4.6,9.2-12.9,13.5
	c-8.2,4.3-10.9,13.5-11.8,19.1c-0.9,5.9-8.6,11.9-14.8,14.2c-5.9,2-13.1,10.6-12.2,20.1c0.9,9.5,2.3,18.8,17,20.5
	c14.8,1.6,25.6-9.5,21,5.2c-4.3,14.9-6.3,28.9,2.7,21.4c9.1-7.9,7.2,3.6,21,5.9c13.8,2.3,14.5,0.3,20-5.9
	c5.6-6.6,10.5-22.8,17.7-22.8s12.2,1.6,8.2,12.2c-3.9,10.6-10.5,23.4,0.9,22.1c11.1-1.3,16.1-3.9,22.7-3c6.3,1,2-14.9,12.2-11.9
	c9.8,3.3-2,7.6,10.2,10.6c12.2,2.9,20-1.6,25.3,2.9c5.2,5,26.6,9.2,3.6,13.1c-22.9,4-40.1-7.9-54.8,2.7
	c-14.8,10.6-19.7,11.2-29.9,12.5c-10.5,1.3-15.8,4-17,11.5c-1.3,7.2-1.6,32.3,12.9,35.2c14.1,2.9,26.3,5.9,44.6,5.9
	c18.3,0,17.7,8.9,39.4-5.9c9.8-7,16.1-14.5,21.7-21l17-95.2l-4.3-3.3c-8.2-5.9-22.4,9.5-22.7-16.8c-0.3-26.7,19.3-41.1,2-47.4
	c-17-6.6-24.3-10.6-24.3-16.2c0-5.9-21-13.1-24.3-15.5c-2.9-2,3.2-22.4-4.3-26.4c-7.2-4-14.5-18.1-26-13.5
	c-11.8,4.3-24.3,5.9-25.3,5.9L1909.6,911z M1579.6,1048.7c0,0-21,7-14.8,30.7c5.9,23.4,12.2,15.5,4.3,32.9
	c-7.9,17.4-5.2,20.1-33.1,44.5c-27.6,24.4-35.5,23.7-33.8,38.6c1.6,14.9,13.1,17.1-1,20.8c-13.8,3.6-19,7.9-30.2,21
	c-11.5,12.9-44.4,40.9-41.7,56.7c2.7,15.5,23.3,22.4,26.9,35.6c3.2,13.1,0.7,28.7,7.9,38.2c7,9.9,12.9,25.3,9.5,41.1
	c-3.6,15.5-20,12.9,0,18.1c20,5.2,16.5-5.9,31.2-5.9c14.7,0,21.7-20.1,33.1-8.9c11.1,11.5-0.9,21,20.7,12.2
	c21.7-8.6,18.4,3.6,37.4-19.8c19-23.7-15.8-40.2,25.3-53.3c40.8-13.1,41.7-13.1,49.2-29.6c7.9-16.5,7.2-21.7,44.4-30.3
	c37.4-8.9,57.5-19.4,82.7-29.6c24.9-10.6,39.7-1,34.5-20.1c-4.9-19.1-20.7-110.1-53.9-106.4c-32.8,3.6-35.4,28.7-44.9,14.9
	c-9.5-13.8-2.7-31.3-11.5-31.3c-8.8,0-7.5,22.8-18.1-7c-10.5-29.6-2.7-45.4-29.5-48.1c-26.9-2.7-27.9,8.9-39,1
	c-11.5-7.9-7.9-21-24.3-20.1c-16.5,0.7-31.2,4.3-31.2,4.3L1579.6,1048.7z"/>
<path class="st0" d="M5158.3,3908.4h2.3c17.2,0-7.4,19,10.4,24.3c18.2,5.2,29.2-14.8,29.2-14.8s1.6,2.7,23.3-9.5
	c21.5-12.1,30.8-37.3,37.7-20.9c6.8,16.8-13.6,13.1-20.5,32.1c-7.1,19.3,1.6,20.9-12.4,21.6c-13.6,0.9-27.3-13.8-31.5,6.2
	c-4.6,20-20.7,28.6-32.8,63.2c-12,34.7-14.6,45.9-28.3,53.8c-14,7.9-25,20-17.2,29.5c7.8,9.5,14.7,27.9,8.5,39
	c-5.8,11.4,7.8,30.5,15.6,33.1c7.8,2.7,16.3-3.6,25.6,4.3c9.4,7.9,2.7-18.4,17.2-10.5c14.7,7.9,9.4,17.3,20.7,16.4
	c11-0.7,12,7.9,23-5.9c11.3-13.8-3.2-20,7.8-42.5c11-22.3,12.1-2.7,23-39.6c11.3-37.3-5.8-42.7-0.7-71.1
	c5.2-28.9,9.4-26.2,34.4-36.4c24.7-10.5,31.5-14.1,42.9-34.1c11-20,16.3-25.9,31.9-45.9c15.2-20,49-55.4,63.7-93.8
	c14.7-38,12.7-42.3-0.9-51.1c-13.6-8.6-34.4-6.9-17.2-26.9c17.2-20,0.9-43.2,17.2-40.6c16.3,2.7,8.5,22.7,15.6,34.7
	c6.9,12.1,12.1,24.9,18.8,5.9c6.7-19,17.2-31.1,19.8-50.2c2.7-19,13.6-44.3-13-40c-26.6,4.3-43.9,34.7-59.5,13.8
	c-15.2-20.7,0.9-41.6-12.7-55.4c-13.9-13.8-18.2-34.7-35.4-18.4c-17.2,16.8-2.6,20.9-5.2,32.1c-2.6,11.4-13.6-3.2-6.8,25.2
	c6.8,28.6,12,15.7,12,51.1c0,35.4-7.8,26.2,0.9,42.5c8.5,16.4,42.9,16.4,20.5,34.7c-22.1,18-21.5,27.5-45.5,30.2
	c-24.1,2.7-25,9.5-42.9,16.8c-18.2,6.9-42.2,7.5-55.9,17c-14,9.8-35.4,26.2-50.7,15.7h-0.3c-5.2,9.1-13.3,18.4-26,22.7
	c-15.6,5.2-15.2,7.2-12.7,16.4c1.3,4.3,2.9,9.5,4.2,17c0.3,3,0.9,5.9,1.3,8.2L5158.3,3908.4z"/>
<path class="st0" d="M4728.7,4078.1c0.9-3.2,2-7.2,3.3-11.1c5.3-18.4,16.6-30.9,27.4-27.2c11,3.2,20.5,29.2,27.4,27.6
	c7.2-1.6,5.3-8.2,16.2-14.1c11-6.3,17.5-22,19.8-22c2.3,0,18.2-8.2,28.8,3.2c10.6,11.1,14.9,22,21.1,29.9c5.9,7.9,9,11.8,20.2,29.9
	c11,18.4,16.2,29.2,16.6,43.3c0.3,14.5,0.7,64.4,19.1,72.3c18.6,7.9,35,7.9,39.3,20c4.3,12.2,6.9,29.6,9,33.8
	c1.6,4.3,4.9,6.8,15.5,7.9c10.6,1,14.9,0,20.2,7.9s11.2,2.7,13.9-7.9c2.7-10.5-18.2-49.6-0.7-85.1c17.5-35.8,13-42.6,26.1-80.8
	c13.2-38.5-13.2-53.9,9.6-68c22.9-13.8,53.6-54.6,68.5-79.1c8.6-14.1,12.3-28.3,17.2-37.4c0-4.3-0.7-9.2-2-16.1
	c-0.9-6.3-2.7-11.5-3.6-15.8c-5.6-18.8-6.7-23.3,21.5-32.6c9.9-3.2,16.2-10.9,20.2-18.8c-6.3-5.9-10.6-9.5-31.4-8.9
	c-29.8,0.9-77.1-7.9-78.8-30.2c-2-22.7,18.2-48.9-9.9-41c-27.8,7.9-31.4,35.8-35.7,13.1c-4.3-22.7,29.8-48.7,14.9-68.6
	c-14.9-20,3.6-33.8-21.1-26.9c-24.5,6.8-20.9,21.7-40,40.1c-19.1,18.1-15.9,7.5-38.7,5.9c-22.5-1.6-17.5,13.8-31.4,0.9
	c-2.3-2.3-4.7-4.6-6.9-7.2c-7.6,0.9-15.5,5.2-24.9,20.7c-6,9.9-8.6,17.7-10.6,24.3c-5,13.8-7.6,21.7-28.1,28.3
	c-14.2,4.3-22.5,2-30.1,0c-6.6-2-12.3-3.6-23.1,4.3c-9.2,6.3-14.9,9.5-18.9,11.5c-2.6,1.3-4.5,4.5-5.6,9.5
	c-0.7,2.9,2.9,8.9,7.2,15.1c11,16.5,24.2,35.8-4.7,55.9c-4.3,2.9-9.2,6.6-13.9,9.9c-26.8,18.1-43.6,29.9-45.6,46.3
	c-0.7,6.6-2.7,11.8-4.7,17.4c-5.2,14.1-11.2,30.2,6,77.9c6.3,16.8,13.5,30.6,21.1,42.1L4728.7,4078.1z"/>
<path class="st0" d="M4441.2,4438.6c31-5.9,62.2-12.2,79.9-17c32.2-8.6,85.1-13.1,95.7-27c10.6-13.8,9.5-41.7,21-47
	c11.1-5.2,34.6-1.6,39.1-15.4c4.3-14.1,1.6-30.6,12.9-47c11.5-16.8,8.9-26.9,2.7-38.5c-5.9-11.1-16.5-11.1-5.2-28.6
	c11.5-17.4,16.1-34.6,18.4-53.6c2.3-19,0-37.8,9.2-52.9c3.6-6.3,6.3-11.8,8.2-17c-10.6-13.8-20.8-31.5-28.7-53.6
	c-19-52.3-12.2-71-6.3-87.1c2-4.6,3.6-9.2,3.9-14.1c2.7-22.7,21.7-35.5,50.9-55.9c3.9-2.9,8.2-5.9,13.8-9.5
	c18.1-12.9,8.9-26.7,1.3-38.2c-5.9-8.9-11.1-16.5-9.2-24.9c2.7-13.4,3.2-13.8,12.5-18.8c3.2-1.6,8.6-4.3,17.1-10.6
	c15.8-11.1,24.4-8.8,34.2-6.3c5.6,1.6,12.2,3.6,22.4,0.3c14.2-4.6,16.1-10.2,19.4-20.1c2.3-6.8,5.2-15.4,11.8-26.7
	c9.9-16.8,18.8-23.7,27.3-26c-2.9-6.8,0-12.5,15.4-12.5c28.6,0,47,16.8,58.2-11.1c11.5-27.9,26.3-26,36.5-55.5
	c10.6-29.6,8.9-30.6,7.2-45.3c-2-14.8,0-36.5-13.1-26c-13.1,10.6-28,13.8-23.3,4.3c4.3-9.5,14.8-20.1,0-20.1
	c-14.8,0-59.2-2.7-98.4,29.6c-39.4,32.2-102,93-111.5,114.1c-9.5,20.8-71.3,92.1-88.7,156.4c-17.4,64.5-19,85.1-22.7,115.7
	c-3.2,30.3-15.4,30.3-23.3,47.7c-7.9,17.4-17.4,51.6-25.3,33.2c-7.9-18.4,6.3-34.8,10.6-68.6c4.3-33.9-11.5-51.3,7-63.4
	c18.4-12.2,28-5.2,28-36.5c0-31.3-19.4-33.2-4.6-51.3c14.8-18.4,21-36.8,16.8-63.8c-4.6-26.9-7.9-19,7-51.3
	c14.8-32.2,13.1-45,41.8-58.2c28.7-13.2,53.9-18.4,48.7-37.5c-5.2-19-22-55.9-11.8-78.5c10.6-22.7,30.6-31.2,47-43.4
	c16.5-12.5-20.8-22,38.5-39.4c58.8-17,69.4-24.9,74.6-28.6c5.2-3.2,18.4-19,26-24.4c7.9-5.2,11.5,5.2,28-8.6
	c16.5-14.1-3.2-33.2,21.7-33.2c24.9,0,49.6-14.8,60.8-20.1c11.5-5.2,20.1-11.1,44.4-10.6c24.4,0.9,26.9-7,29.6-17
	c2.7-10.6,29-14.8,53.2-54.3c24.4-39.1,14.9-51.3,27.6-78.3c13.1-26.9-19.7-61.5,3.6-90.3c23.3-28.6,27.9-18.1,34.8-33.9
	c7-15.8-24.4-18.4,9.6-37.5c11.5-6.3,19-10.2,24.4-13.8c-11.5-19.4-26.7-42.1-38.5-52.3c-11.1-9.5-63.8,38.5-111.1,81.9
	c-28,25.6-54.3,49.3-70.6,59.8c-7.2,4.3-18.1,10.6-29.9,17.7c-50,29.9-122.6,73.3-146,100.9c-26.3,30.8-39.4,18.8-50.7,8.6
	c-2.7-2.3-4.9-4.3-6.6-5c-15.4-4.3-14.5-18.1-12.9-41.7c0.3-3.9,0.7-7.9,0.9-11.8v-0.9c0.3-5.9,0.7-11.5,0.7-16.1
	c-0.7-13.8-7-22.4-37.5-21.3c-7.2,0.3-9.5,7.2-9.2,17c0.7,22.4,14.2,57.9,25.3,87.8c8.9,23.7,16.5,44.1,16.5,53.9
	c0,17-5.6,23.7-17.1,23.7c-9.2,0-21.7-5.9-38.7-14.1l-7.5-3.6c-17.4-8.2-24.7-6.3-29.9-4.9c-7.2,2-12.5,3.2-22.4-6.6
	c-10.2-10.2-26.3-3.2-40.1,3c-2.9,1.3-5.9,2.7-8.2,3.6c-16.8,6.6-27.3-9.2-38.7-26.7c-4.9-7.2-9.9-14.5-15.4-20.1
	c-5-4.9-10.9-6.3-17.4-7.9c-14.8-2.9-31.6-6.8-49.6-40.7c-18.1-33.5-36.2-44.8-54.3-55.9c-7.5-4.3-14.8-8.9-22.4-15.1
	c-7.2-5.6-12.9-11.1-16.8-16.5c-4.6-6.6-7.2-13.1-7.2-19.4c-0.3-6.6,2-12.5,6.3-18.1c2.7-3.2,5.6-5.9,9.2-8.6
	c11.1-8.2,4.6-21-4.9-39.4c-2.7-4.6-5.2-9.9-7.5-15.1c-2-4.3-2.7-7.5-2.3-10.6c0.7-6.6,5.2-9.9,12.5-10.6c4.3-0.3,10.2,0.7,16.8,2.3
	c21.3,5.9,52.9,21,67.4,29.2c9.9,5.6,20.8,3.6,33.5-3c13.8-7.5,29.6-20.8,47.7-36.2c23.7-20.4,37.1-23.3,49.6-26.3
	c6.6-1.3,13.1-2.7,20.8-7.5c13.5-8.2,7.5-29.9,3.6-45c-1.6-4.9-2.7-9.5-3.2-12.9c-0.3-3.9-6.8-11.1-14.5-19.4
	c-11.1-12.5-24.4-26.7-25.3-41.7c-0.7-5.2-11.8-4.6-26.7-3.9c-18.8,0.9-41.8,2-62.2-8.2c-30.9-15.4-29.2-43.4-27.6-68.4
	c0.7-9.2,1.3-18.1-0.3-24.9c-2.3-12.2-5.9-22-11.1-30.6c-5.2-8.9-12.5-16.5-21.3-24.9c-8.2-7.2-18.8-11.1-28.3-14.5
	c-12.2-4.3-23-7.9-29-18.4c-4.9-9.2-2.3-24.9,0.9-41.7c3-17,6.3-34.8,0.9-43c-2.7-4.3-8.8-1.6-15.4,2.7c-4.3,2.7-8.6,5.9-12.9,9.2
	c-7.2,5.6-13.1,10.2-18.4,10.2c-2.7,0-5.9-1.3-9.5-3.6c-5-2.9-10.6-8.9-15.1-15.8c-4.6-7.2-8.2-16.1-8.2-25.3c0-6.8,2-14.1,6.6-21
	c4.3-6.6,1.3-10.9-5.2-15.4c-4.3-3-9.9-5.6-16.1-8.9c-13.1-7-29.2-15.4-42.1-28.3c-3.6-3.6-6.8-7.9-9.9-12.9c-5,7-17.1,9.2-9.5,30.6
	c9.5,26.9,12.9,15.8,11.1,36.5c-1.6,21-0.7,6.3,10.6,25.3c11.1,19,5.2,27.6,8.6,44.4c3.6,16.5,16.8,18.1,7.2,24.4
	c-9.9,5.9-28-4.3-30.6,14.8c-2.7,19,5.9,23.3-2.7,41.7c-8.6,18.1-9.5,23.3-15.8,37.5c-5.9,13.8-12.9,23.3-24.4,13.8
	c-11.1-9.5-20.8-33.2-32.8-24.4c-12.2,8.6-5.2,10.6-22.7,0c-17.4-10.6-28-16.5-48.7-9.5c-21,6.8-28,5.2-28,26
	c0,20.8,4.3,40.1-9.5,26c-13.8-13.8-28,4.6-26-10.2c1.6-14.8,12.2-11.5,17.4-21c4.9-9.5,26-18.1,17.1-29.6
	c-8.6-11.1-2.3-17.4-11.1-24.9c-8.6-7.9-34.8,10.2-34.8-14.8c0-25-12.9-34.8-24.4-56.6c-11.1-22,13.1-26.3-4.3-40.1
	c-17.4-13.8-37.5-16.5-21-29.6c16.8-13.1,15.8-39.1,5.2-36.5c-10.2,2.7-26-2.7-27.6,14.8c-2,17.4-0.9,32.2-13.1,18.1
	c-12.2-13.8-19-15.4-33.9-12.9c-14.9,2.7-19,24.9-43.7,5c-24.4-19.7-12.9-33.9-31.9-34.6c-19.4-0.9-20.1,17.4-39.1,0.7
	c-19.4-16.5-8.8-32.8-40.1-35.5c-31.2-2.7-24.4-7-46.1-11.5c-22-4.3-37.5-7-36.8,7.9c0.9,14.8-9.5,7.9-13.8,21
	c-4.3,12.9,0,20.1-14.8,20.1c-14.8,0,4.3-10.6-34.8-1c-39.1,9.5-33.9,2.7-61.8,1c-27.6-2-32.8,11.1-47.7,14.8
	c-14.8,3.2-59.2,19.7-43.4,33.9c15.4,13.8,20.8,46,39.8,59.1c19.4,12.9,35.8,5.2,24.4,32.2c-11.1,26.9-1.6,24.9,0.9,44.4
	c2.7,19-5.9,20.8-15.8,27.6c-9.5,7-24.4,26.3-7.5,21c16.5-5.2,31.2-17.4,37.1-14.1c6.3,3.6,19.4,0,19.4,19.4
	c0,19.4-6.3,27.6,10.2,36.5c16.8,8.6,34.2,10.2,33.2,27.6c-0.9,17.4,13.8,25.3,3.2,34.2c-10.2,8.6-22.4,5.9-19,24.4
	c3.6,18.1,15.8,30.3,2,52c-14.2,22-15.8,33.2-10.6,45.3c5.2,12.2,8.6,29.6,35.5,32.2c26.9,2.7,41.1,17.4,60.2,26.9
	c19,9.5,30.3-1,42.7,21.7c12.2,22.7,49.3,87.1,60.8,114.7c11.1,27.9,7,53.9,14.8,51.3c7.9-2.7-3.6-29.6,5.9-30.3
	c9.5-0.9,36.5,2.7,33.9,12.9c-2.7,10.6-12.2,11.5-18.1,15.8c-6.3,4.3-18.4-2.7-21.7,12.2c-3.6,14.8-14.8,60.2-19.4,76.5
	c-4.3,16.5-11.1,25.3-34.6,47c-23.7,21.7-7.2,46-39.1,62.5c-32.2,16.8-44.4,12.2-44.4,31.5s11.1,31.2,19,36.5
	c7.9,5.2,9.5,14.8,19,22.7c9.5,7.5,18.4,8.6,24.4,20.8c6.3,12.2,0,34.8,3.6,41.7c3.2,6.8,30.3,27.9,39.1,52.9
	c8.6,25.3-2.7,34.2,21.7,45.3c24.4,11.1,28.7,22.7,30.6,31.2c1.6,8.9,16.5,5.2,1.6,25.3c-14.8,20.1-21,26-16.5,42.8
	c4.3,16.5,14.8,19.7,18.1,36.5c3.6,16.5,13.1,37.5-0.9,26c-13.8-11.1-15.4-23.3-27.6-24.4c-12.2-0.9-18.4-0.9-17.4,9.5
	c0.9,10.6,0,15.8-3.6,22.7c-1.6,3.2-2.9,7.2-4.9,10.6c0.9,1.3,2,2.3,2.9,3.2c6.3,6.6,15.1,20.8,23.7,35.8
	c11.5,20.8,23,44.1,26.7,53.2c3.6,9.5,30.9,101.9,53.6,181.8c16.8,58.4,31.2,110.4,31.9,118.3c0.9,9.2,4.3,23,8.9,36.5
	c3.6,11.1,8.6,22,13.5,29.2c4.6,6.6,11.8,11.1,19.7,16.5c10.9,7,23,14.8,33.5,30.6c1.3,2,4.3,6.3,7,10.6
	c12.2,18.8,21,32.2,30.6,31.9c6.6-0.3,18.1-2.7,31.2-4.9c17-3,37.5-7,54.9-8.2c30.9-2.7,42.7,3.6,67.7,17l5.2,2.9v-0.3
	c8.2,4.6,13.8,7.9,18.1,10.6c9.5,5.9,12.9,8.2,31.9,9.9c15.1,1.3,28.7,7.2,44.7,13.8c15.4,7,33.5,14.5,57.9,20.1
	c20.1,4.6,31.2,5.2,39.1,5.6c12.9,0.3,18.4,0.7,34.6,13.1c12.9,9.5,21.3,27.2,26.9,43.4L4441.2,4438.6z M4921.9,3453.1
	c0,0-0.7-30.6,29-30.6c29.7,0,43.4-3.2,56.5-5.9c12.9-2.7,26-5.2,47.7-7.9c21.7-2.7,28.7-7.9,53.2-3.6c24.4,4.6,44.1,7.2,39.1,17.4
	c-5.2,10.6-4.6,6.3-35.8,17.4c-31.2,11.5-37.5,24.4-69.7,25.3c-31.9,0.9-26.9,7.9-39.1,0.9c-12.2-7.2-39.8-18.4-47.7-10.6
	c-7.9,7.9-34.8,18.1-39.1,12.2c-4.3-6.3,5.9-15.8,5.9-14.8V3453.1z M4083.5,2448.5c4.3,6.6,7.2,20.1,3.2,25.3
	c-3.9,5.2-7.2,25.6-0.7,25.6s37.8-15.1,29.6-37.8c-8.6-22.7-16.1-31.9-21.3-30.3c-5.2,2-10.9,17-10.9,17L4083.5,2448.5z
	 M3557.1,3042.5c-1.6,5.2,3.6,24.4,13.8,13.1c10.6-11.5,12.2-26.9,5.2-26.9C3569.1,3028.7,3557.1,3042.5,3557.1,3042.5z
	 M3566.6,3123.3c0,0-3.2,22.7,12.2,18.4c15.8-4.3,19-27.9,10.6-29.6C3580.4,3110.6,3566.6,3123.3,3566.6,3123.3z M3621.4,3154
	c-4.3,1.6-34.8,11.1-30.6,28.6c4.3,17.4,17.4,9.5,22.7,13.8c5.2,4.6-8.6,17.4-8.6,27.3c0,9.9-2.7,21.7,7.5,22.4
	c10.6,1,7.2-12.2,28.9-16.5c21.7-4.3,33.9-12.2,24.4-24.4c-9.5-12.2,2.7-5.2,4.3-25.3c1.6-20.1-6.8-32.8-19-32.8
	C3638.8,3147.1,3621.4,3154,3621.4,3154z M3768.4,3658.2c0,0-20.1,20.1-13.1,24.7c7,4.3,5.2,1.6,18.4-0.9
	c13.1-2.7,26.9-11.5,15.4-21.7c-11.1-10.6-20.8-2-20.8-2V3658.2z"/>
<path class="st0" d="M2154.3,4150.4c331.2,14.5,494.9,15.4,496.6,15l-32.8-396.1l-0.3-2.7l1.6-2c0.7-0.7,184-222,269.2-350.1
	c42.4-64,85.8-116.4,118.6-152.8c-7.2-3.6-16.1-6.6-27.6-8.6c-41.7-6.9-48.7,0-65.4-7.9c-16.5-7.9,2-32.2-49.3-17.4
	c-51.2,14.8-53.2,35.7-68.1,40.9c-14.8,5.2-26,2.7-21.7-13.1c4.3-15.7-3.2-22.7-5.2-37.4c-1.6-14.8-23.3-72.8-32.2-96.1
	c-8.6-23.6-16.5-16.8-20.1-34.7c-3.2-18.4-4.3-27.9-31.9-26.3c-27.9,2-51.6,7.2-53.9-5.9c-2.7-13.1-34.8-7.9-20.1-29.5
	c14.8-21.6,18.1-25.9,9.5-44.3c-3.9-8.6-4.3-30.2-3-52.5c-125.6,16.1-265.5,23.6-419.3,17l-7.5,205.9c5.6,2.7,11.8,6.8,17.7,13.1
	c13.4,14.1-0.3,26.6-19.4,37.4l-35.5,947.6V4150.4z M2516.1,3971.4c0,0-21.7,43.6-19,61c2.7,17,21,37,26.9,37
	c6.3,0,25.3,14.8,28.9-15.4c3.2-30.5-10.5-45.2-2.7-59c7.5-14.1-19.4-72.2-31.5-104.2c-12.2-32.2-12.9-21.6-24.3-66.5
	c-11.1-45.2-19-92.2-43.4-129.6c-24.3-37-0.3-83.3-5-93.1c-4.3-10.2-7.5-22.3-12.9-22.7c-5.2-0.3-10.2,24.3-13.5,38.6
	c-3.6,14.5-10.2,25.2-3.2,37.4c7.2,12.1,2,22.3-5,13.4c-7.2-9.1-10.9-20-26.3-10.2c-15.1,10.2-19-11.1-21.7,6.9
	c-2.7,18.4-6.6,22.7-13.1,38.6c-6.3,16.1-5.6,27.2-12.9,25.6c-7.5-1.6-5-10.9-15.4-9.1c-10.2,2-17.4,8.9-24.3,3.2
	c-7-5.9-9.5-13.1-9.5-20.9c0-7.9-8.2-9.8-9.9-17.3c-2-7.2,8.2-17.7,7.9-23.9c-0.7-5.9-19.7-4.9-19.4-12.5c0.7-7.2,15.4-20,8.6-25.2
	c-7.2-4.9-19.4-16.8-20.8-3.2c-1.4,13.5-3.2,21.3-3.2,33.8c0,12.5,14.8,14.5,6.6,22c-8.6,7.9-13.1,14.8-18.1,15.4
	c-4.6,0.3-26.3-10.9-19.4,4.3c7,15,14.1,17.7,30.8,33.1c16.5,15,22,15.7,33.9,15.7c11.8,0,27.2,1.3,32.6,2
	c5.2,0.3,13.4-2.7,21.7-0.9c8.2,1.6,23-4.6,31.9-0.3c8.6,4.3,25.3,9.5,14.5,14.8c-11.1,5.2-29.2,5.2-24.7,17.7
	c5,12.5,21,32.5,21,32.5s29.9,25.6,35.1,49.9c5.2,24.3,11.8,34.5,15.1,35.4c3.6,0.7,6.6-16.1,9.9-20c3-3.9,9.9-12.8,18.1-3.9
	c8.2,8.6,12.2,9.1,16.1,16.4c3.9,7.5,2.7,17.7,1.3,27.9c-1.3,9.8-12.2,16.4,2.7,18.7c14.8,2,13.1-15.7,19.4-18
	c6.6-2,17-2.7,17.4,2.3c0.7,5-4.3,11.1-5,19c-0.9,7.9,3.6,9.5,7,14.8c2.9,5.2-3.2,19-3.2,19L2516.1,3971.4z"/>
<path class="st0" d="M1503.1,4088.8c197.3,36.2,416.3,56,637.7,59.9l33.2-942.4c-2.7,1.3-5.2,2.7-7.9,4.3
	c-27,13.8-3.3,68.7-11.2,73.7c-7.9,5.2-8.9,9.9-11.5,22.8c-2.7,13.1-12.2,14.2-20.8,19c-8.9,5.2-14.9,11.5-27,23.7
	c-12.1,12.2-25.3,4.3-28-1c-2.7-5.2,0.9-26,3.6-35.5s14.9-3.6,20.8-0.9c6.3,2.7,19.1-4.3,28-16.5c8.6-12.2,4.3-24.4,4.3-33.2
	s-13.8-21.7-18.1-41.8c-4.6-20.1,61.6-77.3,61.6-77.3c0.3-0.4,3.6-0.7,8.6,0.3l7.2-202.7c-143.6-7-299.1-26-466.4-62.2l-8.9,50.4
	c8.2-4.6,10.9-11.1,23.7-13.8c14.2-3.2,28-9.5,30.7,1.6c2.7,11.1,3,23.3,22.4,26c19.1,2.7,15.1-4.6,35.6-1.6
	c20.5,2.9,51,13.8,56.7,20.4c5.6,6.6,21.7,13.5-11.8,8.2c-33.6-5.2-27.3-5.9-47.8,1.3c-20.5,7.5-9.5,8.2-33.2,5.6
	c-23.4-2.3-28.9-9.9-42.5-7.5c-12.2,2-27.7,1.6-41.8,6.6l-197,1112.9L1503.1,4088.8z"/>
<path class="st0" d="M1134.7,4024.4c107.1,22.4,227.1,45.4,353.8,65.5l193.2-1103.6c-11.1,6.3-20.4,13.5-26,19
	c-7.5,7.5-11.5,18.5-21,20.1c-9.5,1.6,3.9-6.6-12.2-8.6c-16.1-2.3-26,6.8-29.2-6.6c-2.9-13.5-4.3-26.9,2.3-28
	c6.6-0.9,11.1,2.7,11.1,2.7c14.1,7.5,22.4,9.2,30.6,1.3c8.2-7.9-1.6-24.7,17-26c18.4-1.3,8.6-2.3,20.7-7.5
	c5.9-2.3,10.2-5.9,14.1-9.5l11.1-63.9c-33.1-7.2-66.6-15.1-100.8-24c-161.7-41.1-312.5-88.5-451.8-140.3
	c-24.9,70.7-237.8,672.4-244.4,703.1c-3,14.5,0,25.7,6.3,34.6c6.3,9.2,16.1,16.5,26,23c19.4,13.1,18.4,32.3,17.4,56
	c-0.4,5.2-0.7,11.1-0.7,17.4c0,22.1,16.1,29.6,32.6,37.5c2,0.9,3.6,2,7.2,3.6c14.8,7.5,21.3,24,29.6,43.8c5,12.5,10.2,26,18.4,38.8
	c4.6,7.5,9.2,14.2,13.4,20.8c16.5,25.3,31.5,48.1,34.5,67.1c1.6,12.5,5.2,28.7,10.9,45.1c3.9,12.5,9.5,25,16.1,36.2
	c0.9,1.6,2.7,4.3,3.9,6.6c14.1,23,24.9,41.1,29.9,90.2c3.2,34.6,1.6,39.1-3.6,52.9c-2.3,6.3-7,17.8-10.5,32.6L1134.7,4024.4z"/>
<path class="st0" d="M503.9,3858.9c0,0,237.1,79.6,618.1,159.5c3.6-15.4,8.9-28.5,11.1-35c4.3-11.4,5.9-15.4,2.7-47.2
	c-4.6-45.5-14.8-62.3-28-83.9c-1.3-2-2.3-3.9-4.3-6.9c-7-11.8-12.9-25.2-17-38.6c-5.9-17-9.5-34.1-11.5-46.8
	c-2.7-16.4-16.5-37.7-32.2-61.6c-4.6-6.9-9.5-14.1-13.8-20.9c-8.6-13.8-14.5-27.9-19.4-40.7c-7.2-17-12.9-31.8-23.3-36.6
	c-0.9-0.7-3.9-2-7-3.2c-20.4-9.8-40.1-18.9-40.1-49.5c0-5.9,0.3-12.1,0.7-18c0.9-19.3,1.6-35-11.5-44.3c-11.1-7.2-22-15.4-29.6-26.6
	c-7.9-11.4-11.8-25.9-8.2-44.3c7-31.4,220.3-632.3,245-701.4c-435.7-161.2-760.6-358.7-971.9-511c-2,3.2-2.3,7.9,2,29.1
	c7.9,40,24.4,27.9,16.8,56.4c-7.9,28.5-16.8,21.6-14.8,40c1.6,18,24.9,24.8,34.6,20c9.5-5.2,10.6,6.9,22,1.6
	c11.1-5.2-2-16.4,26.9-16.4c28.9,0,23.3-22.7,44.1-6.2c21,16.4,34.8,14.8,29.6,30.5c-5,15.4-7,24.8-0.7,38
	c5.9,13.1-6.3,48.5,4.3,108.4c10.6,59.6,17.4,75.4,13.8,96.3c-3.2,20.7-5.2,66.5-14.8,92.7c-9.5,25.9-15.4,77,2,95.3
	c17.4,18,31.2,57,45,75.4c14.2,18,8.9,12.1,0,35.4c-8.6,23.6-23.3,33.1-29.6,55.7c-5.9,22.3-1.6,20.7-15.4,32.1
	c-14.2,11.1-20.1,24.8-21.7,32.7c-2,7.9-12.5-13.1-26.3,1.6c-13.8,14.8-44.4,4.6-31.2,29.5c13.1,25.2,31.2,44.3,20.1,48.8
	c-11.5,4.3-45.4-36.6-44.4-15.7c0.7,20.7,29.6,13.8,12.2,30.5c-17.4,16.4-22.7,16.4-20.1,24.3c2.7,7.5,2.7,55.4,13.1,52.7
	c10.2-2.7,11.1-42.5,19-20c7.9,22.7,15.8,27.9,22.7,19c7-8.6,2.7-13.8,16.5-18c13.8-4.3,25.3-22.7,30.6-10.5
	c5,12.1,1.6,17.3-10.6,26.8c-12.2,9.5-2.7,14.8-13.1,15.7c-10.6,0.7-23.3-4.6-26.9,13.7c-3.2,18.4,6.3,20-7,25.2
	c-13.1,5.2-23.7,9.5-23.7,20.7s2.7,31.1,11.5,25.2c8.6-6.2,15.8-21.6,26-28.5c10.6-7.2,32.2-12.1,18.4,5.2
	c-14.2,17-26.3,28.5-21,36.4c5.2,7.5,12.2,4.3,14.8,14.8c2.7,10.2-8.6-3.6,6.3,14.8c14.8,18-1.6,26.9,14.8,25
	c16.5-1.6,30.3-12.1,30.3,0c0,12.1-18.1,16.8-23.3,17.3c-5.2,0.9-11.1,4.3-18.4-2.7c-7-6.9-5.9-22.3-18.1-20
	c-12.2,2.7-9.5,4.6-14.8,13.1c-5.2,8.9-13.1,26.2-5.2,26.8c7.9,1,23.3-8.6,22.7-1.6c-1,6.9-14.8,6.9-21,10.5
	c-5.9,3.2-18.1,17.3-8.6,24.8c9.5,7.9,14.8-3.2,26.9-2.7c12.2,0.9,31.2-7.5,20.8,0.9c-10.2,8.9-5.2-3.6-24.9,16.4
	c-20.1,20-10.6,24.3-10.6,24.3s-6.3,9.8,3.2,18.4c9.9,8.5-2.3,15.7,2,25.9c4.3,10.5,10.6,10.5,22.7,16.8
	c12.2,5.9,24.9-2.7,31.9,10.2c7.2,13.1-10.2,6.2-8.6,23.6c1.6,17.3,10.6,17.3,22.7,22.7c12.2,4.9,14.8,0.7,21.7,6.8
	c7,5.9,1.6,12.1,7,22.7c5.2,10.2-1.6,18,13.1,22.3c14.8,4.6,19-1.6,16.5,16.8c-2.7,18,17.4,8.6,21.7,21.6c4.3,12.8-7,16.4-7.9,28.5
	c-0.7,12.1-12.9,30.5,7.2,36.4c19.7,6.2,39.1-15.4,41.8-5.9c2.3,9.5-9.9,12.8-9.9,24.3s-1.6,11.1,0,23.2c2,12.1,8.9,14.8,21,14.1
	c12.2-0.9,29.6-14.8,17.4,6.9c-12.2,21.6-19,6.8-18.4,27.5c1,20.9,33.9,33.1,33.9,33.1L503.9,3858.9z M93,2967.5
	c0,0-4.3,1.6-23.3,34.7c-19.4,32.7-9.5,41.6-8.9,60.6c1,19-7.9,26.8-7,38c1,11.4,9.5,7.9,11.1,19.3c2,11.1-7,15.4-5.9,23.2
	c1,7.9,15.8,12.1,16.5,20.9c1,8.6-13.1,24.8-9.5,31.8c3.6,7.2,13.1,20,11.1,25.2c-1.6,5.2-17.1,6.2-2.3,18.4
	c14.5,12.1,33.9,17.3,30.3,7.9c-3.2-9.8-13.1-22.7-10.6-28.9c2.7-5.9,7.9-5.2-1.6-20.7c-9.5-15.7-8.6-12.1-5.2-23.6
	c3.6-11.1,1-11.1,11.5-19c10.2-7.9,10.2-14.8,7.5-20.7c-2.7-6.2,9.9-5.2,6.3-19.3c-3.6-13.8-13.8-25.9-6.3-28.5
	c7.9-2.7,23.7-23.2,28.9-23.2s42.5-2,42.5-2s-12.2-33.7-12.9-38c-1-4.3,7.9-21.6-12.2-19c-20.1,2.7-53.2,0-51.3-6.2
	c1.6-5.9,7.5-9.5,3.2-20c-4.3-10.2-12.2-11.1-12.2-11.1L93,2967.5z M341.5,3868.3c0,0,56.6,69.5,73.3,72.1
	c16.8,2.7,28.3,0,30.9-10.5c4.3-10.5,12.2-51.1,13.1-63.2c1-12.1,0-6.2-14.8-25.2c-14.8-19-5.2-26.8-21-45.2
	c-15.4-18-42.5-16.4-44.4-46.5c-1.6-30.5-4.3-39.3-1.6-55.7c2.7-16.4,4.3-32.1-1.6-48.5c-6.3-16.4,1-14.8-20.1-25.2
	c-20.8-10.2-34.8-29.5-69.7-57c-34.6-27.9-35.5-24.3-40.7-37.3c-5.2-13.1-19-38-37.5-32.1c-18.1,6.2-32.8,0-20.8,22.7
	c12.2,22.5,26.9,33.7,33.9,30.2c7-3.2,3.6,10.5-5.2,12.1c-8.6,2-21.7,11.4-17.4,18.4c4.3,6.8,29.6,8.6,30.6,20
	c0.7,11.1-2,8.5-0.9,20c0.9,11.1-0.9,5.9,13.1,16.4c13.8,10.5,15.4,6.2,13.8,17.3c-1.6,11.1-28,5.2-17.4,20.7
	c10.6,15.7,17.4,2.7,17.4,17.3c0,14.7,7.9,20.9,26.9,38.9c19,18.4,32.2,20.9,18.4,26.8c-14.2,6.2-23.7,27.9-10.6,32.1
	c13.1,4.6,15.8,0.9,29.6,6.2c13.8,5.2,20.8,0.7,14.8,12.1c-6.3,11.1-13.8,1.6-20.1,17.3c-5.9,15.4-0.9,42.3,5.2,43.2
	c5.9,0.9,22.7,2.7,22.7,2.7V3868.3z"/>
<g>
	<defs>
		<rect id="SVGID_1_" x="1179.6" y="3311.9" width="281.5" height="264.9"/>
	</defs>
	<clipPath id="SVGID_00000016791046366638931390000000246852669839195804_">
		<use xlink:href="#SVGID_1_"  style="overflow:visible;"/>
	</clipPath>
	<g style="clip-path:url(#SVGID_00000016791046366638931390000000246852669839195804_);">
		<path class="st2" d="M1309.5,3571.5c-79.9-109-94.7-120.2-94.7-160.2c0-54.9,47.3-99.3,105.6-99.3s105.6,44.5,105.6,99.3
			c0,40.1-14.8,51.2-94.7,160.2C1326,3578.6,1314.7,3578.6,1309.5,3571.5z M1320.3,3452.7c24.3,0,44-18.5,44-41.4
			c0-22.9-19.7-41.4-44-41.4c-24.3,0-44,18.5-44,41.4C1276.4,3434.1,1296.1,3452.7,1320.3,3452.7z"/>
		<path class="st3" d="M1364.3,3411.3c0,22.9-19.7,41.4-44,41.4c-24.3,0-44-18.5-44-41.4c0-22.9,19.7-41.4,44-41.4
			C1344.6,3369.9,1364.3,3388.4,1364.3,3411.3z"/>
	</g>
</g>
<g>
	<defs>
		<rect id="SVGID_00000008120291526086516350000005387318366985577623_" x="381.4" y="3585.3" width="281.5" height="264.9"/>
	</defs>
	<clipPath id="SVGID_00000135678590832902959910000007114017674136643736_">
		<use xlink:href="#SVGID_00000008120291526086516350000005387318366985577623_"  style="overflow:visible;"/>
	</clipPath>
	<g style="clip-path:url(#SVGID_00000135678590832902959910000007114017674136643736_);">
		<path class="st2" d="M511.3,3844.8c-79.9-109-94.7-120.2-94.7-160.2c0-54.9,47.3-99.3,105.6-99.3c58.3,0,105.6,44.5,105.6,99.3
			c0,40.1-14.8,51.2-94.7,160.2C527.7,3851.9,516.5,3851.9,511.3,3844.8z M522.1,3726c24.3,0,44-18.5,44-41.4
			c0-22.9-19.7-41.4-44-41.4c-24.3,0-44,18.5-44,41.4C478.1,3707.5,497.8,3726,522.1,3726z"/>
		<path class="st3" d="M566.1,3684.6c0,22.9-19.7,41.4-44,41.4c-24.3,0-44-18.5-44-41.4s19.7-41.4,44-41.4
			C546.4,3643.2,566.1,3661.7,566.1,3684.6z"/>
	</g>
</g>
<g>
	<defs>
		<rect id="SVGID_00000130648936571988196160000007496190504772203153_" x="1721.6" y="3513.8" width="281.5" height="264.9"/>
	</defs>
	<clipPath id="SVGID_00000130634515353992615330000006989346123227435165_">
		<use xlink:href="#SVGID_00000130648936571988196160000007496190504772203153_"  style="overflow:visible;"/>
	</clipPath>
	<g style="clip-path:url(#SVGID_00000130634515353992615330000006989346123227435165_);">
		<path class="st2" d="M1851.4,3773.3c-79.9-109-94.7-120.2-94.7-160.2c0-54.9,47.3-99.3,105.6-99.3c58.3,0,105.6,44.5,105.6,99.3
			c0,40.1-14.8,51.2-94.7,160.2C1867.9,3780.5,1856.7,3780.5,1851.4,3773.3z M1862.3,3654.5c24.3,0,44-18.5,44-41.4
			s-19.7-41.4-44-41.4s-44,18.5-44,41.4S1838,3654.5,1862.3,3654.5z"/>
		<path class="st3" d="M1906.3,3613.1c0,22.9-19.7,41.4-44,41.4s-44-18.5-44-41.4c0-22.9,19.7-41.4,44-41.4
			S1906.3,3590.3,1906.3,3613.1z"/>
	</g>
</g>
<g>
	<defs>
		<rect id="SVGID_00000123415395279427250130000000767419057610973625_" x="4401.9" y="3892.2" width="281.5" height="264.9"/>
	</defs>
	<clipPath id="SVGID_00000057858383673965476380000004730393763921004163_">
		<use xlink:href="#SVGID_00000123415395279427250130000000767419057610973625_"  style="overflow:visible;"/>
	</clipPath>
	<g style="clip-path:url(#SVGID_00000057858383673965476380000004730393763921004163_);">
		<path class="st2" d="M4531.8,4151.8c-79.9-109-94.7-120.2-94.7-160.2c0-54.9,47.3-99.3,105.6-99.3c58.3,0,105.6,44.5,105.6,99.3
			c0,40.1-14.8,51.2-94.7,160.2C4548.2,4158.9,4537,4158.9,4531.8,4151.8z M4542.6,4032.9c24.3,0,44-18.5,44-41.4
			s-19.7-41.4-44-41.4c-24.3,0-44,18.5-44,41.4S4518.4,4032.9,4542.6,4032.9z"/>
		<path class="st3" d="M4586.6,3991.6c0,22.9-19.7,41.4-44,41.4c-24.3,0-44-18.5-44-41.4c0-22.9,19.7-41.4,44-41.4
			C4566.9,3950.2,4586.6,3968.7,4586.6,3991.6z"/>
	</g>
</g>
<g>
	<defs>
		<rect id="SVGID_00000096753122105679035410000008023860153783036566_" x="3914.6" y="4388.4" width="281.5" height="264.9"/>
	</defs>
	<clipPath id="SVGID_00000123425067697034752310000015208959137510699664_">
		<use xlink:href="#SVGID_00000096753122105679035410000008023860153783036566_"  style="overflow:visible;"/>
	</clipPath>
	<g style="clip-path:url(#SVGID_00000123425067697034752310000015208959137510699664_);">
		<path class="st2" d="M4044.5,4647.9c-79.9-109-94.7-120.2-94.7-160.2c0-54.9,47.3-99.3,105.6-99.3s105.6,44.5,105.6,99.3
			c0,40.1-14.8,51.2-94.7,160.2C4060.9,4655.1,4049.7,4655.1,4044.5,4647.9z M4055.3,4529.1c24.3,0,44-18.5,44-41.4
			s-19.7-41.4-44-41.4c-24.3,0-44,18.5-44,41.4S4031,4529.1,4055.3,4529.1z"/>
		<path class="st3" d="M4099.3,4487.7c0,22.9-19.7,41.4-44,41.4c-24.3,0-44-18.5-44-41.4s19.7-41.4,44-41.4
			C4079.6,4446.3,4099.3,4464.9,4099.3,4487.7z"/>
	</g>
</g>
<g>
	<defs>
		<rect id="SVGID_00000121247724846379070340000011794065749973238145_" x="5170.7" y="3627.3" width="281.5" height="264.9"/>
	</defs>
	<clipPath id="SVGID_00000053512441494343378320000003845974696471608746_">
		<use xlink:href="#SVGID_00000121247724846379070340000011794065749973238145_"  style="overflow:visible;"/>
	</clipPath>
	<g style="clip-path:url(#SVGID_00000053512441494343378320000003845974696471608746_);">
		<path class="st2" d="M5300.6,3886.9c-79.9-109-94.7-120.2-94.7-160.2c0-54.9,47.3-99.3,105.6-99.3c58.3,0,105.6,44.5,105.6,99.3
			c0,40.1-14.9,51.2-94.7,160.2C5317.1,3894,5305.8,3894,5300.6,3886.9z M5311.5,3768c24.3,0,44-18.5,44-41.4
			c0-22.9-19.7-41.4-44-41.4c-24.3,0-44,18.5-44,41.4C5267.5,3749.5,5287.1,3768,5311.5,3768z"/>
		<path class="st3" d="M5355.4,3726.6c0,22.9-19.7,41.4-44,41.4c-24.3,0-44-18.5-44-41.4c0-22.9,19.7-41.4,44-41.4
			C5335.8,3685.3,5355.4,3703.8,5355.4,3726.6z"/>
	</g>
</g>
<g>
	<defs>
		<rect id="SVGID_00000037678693529483914760000007348658456532594821_" x="4023.8" y="4325.3" width="281.5" height="264.9"/>
	</defs>
	<clipPath id="SVGID_00000180353282425312382370000012448818552011130510_">
		<use xlink:href="#SVGID_00000037678693529483914760000007348658456532594821_"  style="overflow:visible;"/>
	</clipPath>
	<g style="clip-path:url(#SVGID_00000180353282425312382370000012448818552011130510_);">
		<path class="st2" d="M4153.7,4584.9c-79.9-109-94.7-120.2-94.7-160.2c0-54.9,47.3-99.3,105.6-99.3c58.3,0,105.6,44.5,105.6,99.3
			c0,40.1-14.8,51.2-94.7,160.2C4170.1,4592,4158.9,4592,4153.7,4584.9z M4164.5,4466c24.3,0,44-18.5,44-41.4
			c0-22.9-19.7-41.4-44-41.4c-24.3,0-44,18.5-44,41.4C4120.6,4447.5,4140.2,4466,4164.5,4466z"/>
		<path class="st3" d="M4208.5,4424.7c0,22.9-19.7,41.4-44,41.4c-24.3,0-44-18.5-44-41.4c0-22.9,19.7-41.4,44-41.4
			C4188.8,4383.3,4208.5,4401.8,4208.5,4424.7z"/>
	</g>
</g>
<g>
	<defs>
		<rect id="SVGID_00000001663515321235179850000017007433958357050497_" x="4317.9" y="3938.5" width="281.5" height="264.9"/>
	</defs>
	<clipPath id="SVGID_00000080906017181829919010000000590343449031143336_">
		<use xlink:href="#SVGID_00000001663515321235179850000017007433958357050497_"  style="overflow:visible;"/>
	</clipPath>
	<g style="clip-path:url(#SVGID_00000080906017181829919010000000590343449031143336_);">
		<path class="st2" d="M4447.8,4198c-79.9-109-94.7-120.2-94.7-160.2c0-54.9,47.3-99.3,105.6-99.3c58.3,0,105.6,44.5,105.6,99.3
			c0,40.1-14.8,51.2-94.7,160.2C4464.2,4205.1,4453,4205.1,4447.8,4198z M4458.6,4079.2c24.3,0,44-18.5,44-41.4
			c0-22.9-19.7-41.4-44-41.4c-24.3,0-44,18.5-44,41.4C4414.6,4060.6,4434.3,4079.2,4458.6,4079.2z"/>
		<path class="st3" d="M4502.6,4037.8c0,22.9-19.7,41.4-44,41.4c-24.3,0-44-18.5-44-41.4c0-22.9,19.7-41.4,44-41.4
			C4482.9,3996.4,4502.6,4014.9,4502.6,4037.8z"/>
	</g>
</g>
<g>
	<defs>
		<rect id="SVGID_00000028297602341601007970000014913064010910410904_" x="272.1" y="3505.4" width="281.5" height="264.9"/>
	</defs>
	<clipPath id="SVGID_00000172418193327514914190000017384002543428290959_">
		<use xlink:href="#SVGID_00000028297602341601007970000014913064010910410904_"  style="overflow:visible;"/>
	</clipPath>
	<g style="clip-path:url(#SVGID_00000172418193327514914190000017384002543428290959_);">
		<path class="st2" d="M402,3764.9c-79.9-109-94.7-120.2-94.7-160.2c0-54.9,47.3-99.3,105.6-99.3c58.3,0,105.6,44.5,105.6,99.3
			c0,40.1-14.8,51.2-94.7,160.2C418.5,3772,407.3,3772,402,3764.9z M412.9,3646.1c24.3,0,44-18.5,44-41.4c0-22.9-19.7-41.4-44-41.4
			c-24.3,0-44,18.5-44,41.4C368.9,3627.6,388.6,3646.1,412.9,3646.1z"/>
		<path class="st3" d="M456.9,3604.7c0,22.9-19.7,41.4-44,41.4c-24.3,0-44-18.5-44-41.4c0-22.9,19.7-41.4,44-41.4
			C437.2,3563.3,456.9,3581.8,456.9,3604.7z"/>
	</g>
</g>
<g>
	<defs>
		<rect id="SVGID_00000102516816732226837450000015554945617291370635_" x="276.4" y="3665.1" width="281.5" height="264.9"/>
	</defs>
	<clipPath id="SVGID_00000036974290990556509820000017999909112908032943_">
		<use xlink:href="#SVGID_00000102516816732226837450000015554945617291370635_"  style="overflow:visible;"/>
	</clipPath>
	<g style="clip-path:url(#SVGID_00000036974290990556509820000017999909112908032943_);">
		<path class="st2" d="M406.2,3924.7c-79.9-109-94.7-120.2-94.7-160.2c0-54.9,47.3-99.3,105.6-99.3s105.6,44.5,105.6,99.3
			c0,40.1-14.8,51.2-94.7,160.2C422.7,3931.8,411.5,3931.8,406.2,3924.7z M417.1,3805.9c24.3,0,44-18.5,44-41.4
			c0-22.9-19.7-41.4-44-41.4s-44,18.5-44,41.4C373.1,3787.3,392.8,3805.9,417.1,3805.9z"/>
		<path class="st3" d="M461.1,3764.5c0,22.9-19.7,41.4-44,41.4s-44-18.5-44-41.4c0-22.9,19.7-41.4,44-41.4
			S461.1,3741.6,461.1,3764.5z"/>
	</g>
</g>
</svg>
