<?xml version="1.0" encoding="utf-8"?>
<!-- Generator: Adobe Illustrator 26.2.1, SVG Export Plug-In . SVG Version: 6.00 Build 0)  -->
<svg version="1.1" id="Layer_1" xmlns="http://www.w3.org/2000/svg" xmlns:xlink="http://www.w3.org/1999/xlink" x="0px" y="0px"
	 width="222.1px" height="122.6px" viewBox="0 0 222.1 122.6" style="enable-background:new 0 0 222.1 122.6;" xml:space="preserve"
	>
<style type="text/css">
	.st0{fill-rule:evenodd;clip-rule:evenodd;fill:#001838;}
</style>
<path class="st0" d="M63.1,246.6v-248l2.7,0l0,248H63.1z"/>
<path class="st0" d="M63.1,120.9l123-122.3l1.9,1.9L65,122.9L63.1,120.9z"/>
<path class="st0" d="M63.1,243.6l123-122.3l1.9,1.9L65,245.5L63.1,243.6z"/>
<path class="st0" d="M65-1.4l123,122.3l-1.9,1.9L63.1,0.6L65-1.4z"/>
<path class="st0" d="M65,121.3l123,122.3l-1.9,1.9l-123-122.3L65,121.3z"/>
<path class="st0" d="M222.1,246.6v-248l2.7,0v248H222.1z"/>
<path class="st0" d="M27.4,246.6l0-248l2.7,0v248H27.4z"/>
<path class="st0" d="M186.5,246.6v-248l2.7,0v248H186.5z"/>
<path class="st0" d="M252.3,124H0v-2.7h252.3V124z"/>
<path class="st0" d="M65.8,83.1H27.4v-2.7h38.4V83.1z"/>
<path class="st0" d="M224.8,83.1h-38.4v-2.7h38.4V83.1z"/>
<path class="st0" d="M65.8,205.8H27.4V203h38.4V205.8z"/>
<path class="st0" d="M224.8,205.8h-38.4V203h38.4V205.8z"/>
<path class="st0" d="M65.8,42.2H27.4v-2.7h38.4V42.2z"/>
<path class="st0" d="M224.8,42.2h-38.4v-2.7h38.4V42.2z"/>
<path class="st0" d="M65.8,164.9H27.4v-2.7h38.4V164.9z"/>
<path class="st0" d="M224.8,164.9h-38.4v-2.7h38.4V164.9z"/>
<path class="st0" d="M255,1.4H2.7v-2.7H255V1.4z"/>
<path class="st0" d="M255,246.6H2.7v-2.7H255V246.6z"/>
</svg>
